<svg id="Layer_1" data-name="Layer 1" xmlns="http://www.w3.org/2000/svg" viewBox="0 0 500 500"><defs><style>.cls-1{fill:#00a1e1;}</style></defs><title>Artboard 25</title><path class="cls-1" d="M425.33,99.57a20.11,20.11,0,0,0-15.64-7.41H382.32v-51a20,20,0,0,0-20-20H133.25a20,20,0,0,0-20,20v51H82.31a20.09,20.09,0,0,0-15.64,7.41,19.84,19.84,0,0,0-4.09,16.58c3.5,17,14.73,45.29,50.66,51.35v5.45c0,58.53,40,107.91,94.17,122.44,4.18,22.68,6.36,48.89,4.56,62.62h74.61c-1.82-13.91.43-40.64,4.73-63.52,52.56-15.58,91-64.17,91-121.55V166.8c33.13-7.27,43.71-34.2,47.09-50.66A19.85,19.85,0,0,0,425.33,99.57ZM78.18,113a4,4,0,0,1,.82-3.33,4.21,4.21,0,0,1,3.31-1.55h30.94v43.18C90,146,81.28,128,78.18,113Zm215.71,22.83-20,20a2.5,2.5,0,0,0-.69,2.23l5.22,27.73a2.51,2.51,0,0,1-3.6,2.7l-25.26-12.74a2.52,2.52,0,0,0-2.34,0l-24.85,13.52a2.51,2.51,0,0,1-3.69-2.58l4.35-27.88a2.5,2.5,0,0,0-.76-2.21l-20.58-19.38a2.5,2.5,0,0,1,1.33-4.29L231,128.43a2.51,2.51,0,0,0,1.87-1.4L245,101.54a2.52,2.52,0,0,1,4.51-.07l12.92,25.1a2.51,2.51,0,0,0,1.91,1.34l28.08,3.62A2.5,2.5,0,0,1,293.89,135.79Zm119.93-22.84c-2.93,14.28-10.86,31.21-31.5,37.39V108.07h27.37a4.2,4.2,0,0,1,3.3,1.55A3.94,3.94,0,0,1,413.82,112.94Z"/><rect class="cls-1" x="199.15" y="362.95" width="97.27" height="28.64" rx="14.32" ry="14.32"/><rect class="cls-1" x="153.47" y="446.74" width="188.62" height="32.05" rx="12.9" ry="12.9"/><path class="cls-1" d="M223.29,374h-7l4,4A18,18,0,0,0,223.29,374Z"/><path class="cls-1" d="M282.23,374h-7a18,18,0,0,0,3,4Z"/><path class="cls-1" d="M317.22,441.35C309,429.33,302,416,293.13,397h-90.5c-9.06,19-16.18,32.36-24.52,44.36Z"/><path class="cls-1" d="M324.37,456.32H174.18a7.94,7.94,0,0,1-5.15-1.77l6.15,5.14-8.85,14.64L323,477l-6.49-14.21Z"/></svg>