<svg id="Layer_1" data-name="Layer 1" xmlns="http://www.w3.org/2000/svg" viewBox="0 0 500 500"><defs><style>.cls-1{fill:#00a1e1;}</style></defs><title>by_price</title><path class="cls-1" d="M83.8,159.55V392.22a87.54,87.54,0,0,0,87.44,87.44H316.47a87.54,87.54,0,0,0,87.45-87.44V159.55Zm250.67,95.7A22.22,22.22,0,1,1,356.69,233,22.22,22.22,0,0,1,334.47,255.25ZM179.48,233a22.22,22.22,0,1,1-22.22-22.22A22.22,22.22,0,0,1,179.48,233Z"/><path class="cls-1" d="M164.47,153.77V138.86c0-57.13,36.52-103.61,81.4-103.61s81.4,46.48,81.4,103.61v14.91h14.41V138.86c0-65.08-43-118-95.81-118s-95.81,52.95-95.81,118v14.91Z"/></svg>