<svg id="Layer_1" data-name="Layer 1" xmlns="http://www.w3.org/2000/svg" viewBox="0 0 500 500"><defs><style>.cls-1{fill:#00a1e1;}</style></defs><title>Dream completed</title><path class="cls-1" d="M249.08,479.09C122.77,479.09,20,376.32,20,250S122.77,20.91,249.08,20.91,478.17,123.69,478.17,250,375.4,479.09,249.08,479.09Zm0-414.94C146.6,64.14,63.22,147.52,63.22,250S146.6,435.87,249.08,435.87,434.95,352.49,434.95,250,351.57,64.14,249.08,64.14Z"/><polygon class="cls-1" points="246.88 193.45 228.69 231.41 248.56 267.25 208.09 262.45 180.22 293.89 173.41 252.97 136.32 236.58 172.57 216.07 177.51 174.49 206.74 202.74 246.88 193.45"/><path class="cls-1" d="M100.75,294.84l79.42,70,11.21,9.87c6.15,5.42,15.08,5.93,21.21,0l65-62.94,103.5-100.2,23.59-22.83c5.82-5.64,5.66-15.55,0-21.21a15.22,15.22,0,0,0-21.21,0l-65,62.94L215,330.62l-23.59,22.83h21.21l-79.42-70L122,273.63c-6.08-5.35-15.23-6-21.21,0-5.46,5.46-6.1,15.84,0,21.21Z"/></svg>