<svg id="Layer_1" data-name="Layer 1" xmlns="http://www.w3.org/2000/svg" viewBox="0 0 500 500"><defs><style>.cls-1{fill:#00a1e1;}</style></defs><title>most-donated</title><path class="cls-1" d="M226.6,37.62c-8.2-12.68-24.73-19.18-39.28-15.48a36.43,36.43,0,0,0-25.88,26.23,34.07,34.07,0,0,0-1,6.42c-.56,10.83,3.72,20.23,7.86,29.31,1.26,2.77,2.43,5.47,3.49,8.15-1.92-2.78-3.74-5.77-5.58-8.9-5.06-8.61-10.3-17.5-19.48-23.26a33.06,33.06,0,0,0-5.82-2.89,36.4,36.4,0,0,0-36.34,6.14c-11.39,9.79-15.54,27-9.86,41,4.69,11.56,18.05,22.95,32.41,22.95a26.47,26.47,0,0,0,3.26-.2,94.25,94.25,0,0,0,16.14-4c2.47-.76,4.91-1.52,7.28-2.12a234.64,234.64,0,0,0,28-8.7c8.4-3.32,15.58-9,22.41-14.77s14.5-11,20.51-17.68C235.25,68.25,233.89,48.89,226.6,37.62Zm-76.41,69.29c-2.59.67-5.25,1.49-7.94,2.31a84.66,84.66,0,0,1-13.63,3.43c-8,1-17.41-6.45-20.37-13.76-3.34-8.23-.82-18.76,5.86-24.5a22,22,0,0,1,21.61-3.58A18.81,18.81,0,0,1,139,72.44c6.17,3.87,10.3,10.87,14.66,18.3a118.62,118.62,0,0,0,8.5,13.1Zm63.72-36.78a83.7,83.7,0,0,1-10.6,9.18c-2.23,1.73-4.44,3.45-6.47,5.19l-9.39,8A117.91,117.91,0,0,0,181.6,78c-3.6-7.79-6.94-15.18-6.6-22.44a19.46,19.46,0,0,1,.56-3.63,22,22,0,0,1,15.33-15.66,19.6,19.6,0,0,1,4.82-.58,22.65,22.65,0,0,1,18.61,9.86c4.32,6.61,5,18.53-.4,24.57Z"/><path class="cls-1" d="M244.68,211.43l144.69-74.49-38-73.79a28.23,28.23,0,0,0-38-12.15L193.79,112.59Z"/><path class="cls-1" d="M407.78,155.49l19.81-10.41a2,2,0,0,1,2.88,2.09l-3.78,22.06a2,2,0,0,0,.57,1.76l16,15.62a2,2,0,0,1-1.1,3.39L420,193.22a2,2,0,0,0-1.5,1.09l-9.9,20.07a2,2,0,0,1-3.56,0l-9.9-20.07a2,2,0,0,0-1.5-1.09L371.53,190a2,2,0,0,1-1.1-3.39l16-15.62a2,2,0,0,0,.57-1.76l-3.78-22.06a2,2,0,0,1,2.88-2.09l19.81,10.41A2,2,0,0,0,407.78,155.49Z"/><path class="cls-1" d="M162.06,254l69.14-35.63-50.88-98.85L58,182.52a28.24,28.24,0,0,0-12.16,38l38,73.79,11.25-5.8V452.63a26.65,26.65,0,0,0,26.62,26.61h124.5V254Z"/><path class="cls-1" d="M262.75,254V479.24H387.53a26.65,26.65,0,0,0,26.62-26.61V254Z"/><path class="cls-1" d="M320,235.16a2,2,0,0,1-.57,1.76L305.8,250.24H374l-13.68-13.33a2,2,0,0,1-.57-1.76l3.78-22.06a2,2,0,0,0-2.88-2.09L340.8,221.42a2,2,0,0,1-1.85,0L319.14,211a2,2,0,0,0-2.88,2.09Z"/></svg>