<svg id="Layer_1" data-name="Layer 1" xmlns="http://www.w3.org/2000/svg" viewBox="0 0 500 500"><defs><style>.cls-1{fill:#00a1e1;}</style></defs><title>rating</title><path class="cls-1" d="M329.41,172l143.39,20.57a9.44,9.44,0,0,1,5.26,16.1L374.52,309.93a9.44,9.44,0,0,0-2.7,8.36L396.56,461a9.44,9.44,0,0,1-13.68,10L254.54,403.82a9.44,9.44,0,0,0-8.79,0l-128.1,67.64a9.44,9.44,0,0,1-13.72-9.93l24.23-142.82a9.44,9.44,0,0,0-2.73-8.35L21.52,209.45a9.44,9.44,0,0,1,5.2-16.12L170,172.25a9.44,9.44,0,0,0,7.1-5.18L241,37.05a9.44,9.44,0,0,1,16.93,0l64.35,129.78A9.44,9.44,0,0,0,329.41,172Z"/></svg>