<svg id="Layer_1" data-name="Layer 1" xmlns="http://www.w3.org/2000/svg" viewBox="0 0 500 500"><defs><style>.cls-1{fill:#00a1e1;}</style></defs><title>Artboard 6 copy 7</title><ellipse class="cls-1" cx="254.99" cy="146.19" rx="129.74" ry="126.53"/><path class="cls-1" d="M134.9,251.22c6.16,2.66,11.58,7.44,16.91,11.67a165.24,165.24,0,0,0,102.08,35.56c36.85-.09,73.6-13.23,101.53-36.66,5.88-5,11.76-10.47,19.39-11.85,4.69-.83,9.46,0,14.06,1.29,24.44,7.08,43.09,27.11,53.94,49.62,6.34,13,10.38,27,13.42,41.07,1.56,7.08,2.85,14.24,4,21.32.46,2.57,2.11,7,1.65,9.56-.74,3.77-5.15,7.72-7.53,10.84A237.25,237.25,0,0,1,405,431.13,258,258,0,0,1,267.21,479c-2.48.09-5,.18-7.44.18-79.76,1.1-158.59-36-209.41-95.93-2.85-3.31-5.61-6.8-6.62-11-.83-3.49-.28-7.17.28-10.75,6.71-40.43,23.34-82.42,58.53-104.84,7.63-4.87,16.72-8.82,25.73-7.35A24.16,24.16,0,0,1,134.9,251.22Z"/></svg>