<svg id="Layer_1" data-name="Layer 1" xmlns="http://www.w3.org/2000/svg" viewBox="0 0 500 500"><defs><style>.cls-1{fill:#00a1e1;}</style></defs><title>Artboard 26 copy 7</title><path class="cls-1" d="M287.8,24.76q1,.22,2,.53c13.94,4.3,27.84,12.4,41.06,18.58,29.41,13.74,37.45,33.87,25.36,65.21,3,1.56,6,3.3,9.22,4.82,11.5,5.53,23.12,10.84,34.55,16.51,24,11.91,33.67,37.55,23.26,62.15-3.4,8-7.28,15.88-11.31,23.61-5.39,10.34-12.79,12.88-23.45,8-14.26-6.53-28.37-13.38-43.59-20.59-2.87,34.21-5.64,67-8.35,99.8C333,345.31,330,387.29,326,429.16c-2.27,23.53-19.62,42.26-42.62,48.54-1.91.52-3.75,1.3-5.63,2H142.2a46.36,46.36,0,0,0-4.52-1.88c-24.24-7.28-39.51-23-42.47-48.36-3.28-28.08-5.24-56.33-7.63-84.51-4.63-54.7-9-109.42-13.79-164.1-1.48-16.9,3.63-23.3,20.36-23.32q70.28-.05,140.56,0c2.74,0,5.48-.37,11.1-.78-5-2.5-7.35-3.69-9.71-4.81Q183.71,127,131.32,102.09c-12.66-6-15.31-13.35-9.49-26,2.52-5.5,5.23-10.92,7.81-16.4,14.06-29.82,39.27-38.85,69.21-24.78l40.83,19.21c-3.6-1.7,15.2-20.84,17.28-22.21C265.63,26.19,277.45,22.43,287.8,24.76ZM106.69,189.24c1.06,12.3,2.11,23.95,3.07,35.6q8.21,99.71,16.43,199.41c1.08,12.9,10.86,22.89,23.83,23q60.17.57,120.36,0c13-.11,22.09-8.78,23.76-21.74s2.6-26.14,3.69-39.23q7.5-90.64,14.9-181.3c.43-5.19.85-10.38,1.29-15.78Zm282.14-.07c10.77-18,8.74-24.72-9.06-33.16Q283.7,110.4,187.62,64.79c-17.51-8.32-23.89-5.68-31.26,14Zm-119.93-121,57.45,27.28c6.09-11.57,5-15.79-5.26-20.86-11.13-5.5-22.32-10.88-33.63-16C277.86,54.25,273.53,56.44,268.91,68.13Z"/></svg>