<svg id="Layer_1" data-name="Layer 1" xmlns="http://www.w3.org/2000/svg" viewBox="0 0 500 500"><defs><style>.cls-1{fill:#00a1e1;}</style></defs><title>Artboard 26 copy 5</title><path class="cls-1" d="M290.39,69.57c8.58,4.89,17,9.51,25.17,14.42,3.34,2,4.92,10.73,2.93,14.12Q291.35,144.56,264.2,191c-4.38,7.49-3.72,10.13,3.76,14.43,5.19,3,10.4,6,16,9.15-.87,1.57-1.61,3-2.42,4.36Q222.91,319.2,164.32,419.48c-2.24,3.84-4.51,7-9.69,6.57-1.26-.1-2.83,1.42-4,2.5C134.27,444,118,459.56,101.57,475a39,39,0,0,1-7.44,5.75c-4.34,2.43-7.43.55-7.41-4.49A38.08,38.08,0,0,1,88,467.4c5.38-21.84,10.91-43.64,16.24-65.5a9.62,9.62,0,0,0-.65-5.8c-1.58-3.5-.59-6.34,1.16-9.32q22.78-38.83,45.48-77.7L287,75.11C288,73.33,289.14,71.59,290.39,69.57ZM99.1,462.9l.75.41,44.27-43-29.65-16.88Z"/><path class="cls-1" d="M373.83,50c-1.13,2.55-1.77,4.38-2.72,6-3.87,6.77-8,13.4-11.67,20.28-1.06,2-1.84,5.15-1,7,5,11.24,2.27,20.54-4,30.77-17.94,29.11-34.77,58.91-52,88.44-3.77,6.45-6.85,7.31-13.24,3.72-3-1.69-6-3.38-9-5.11-5.76-3.34-6.69-6.77-3.28-12.62q25.64-43.92,51.4-87.78c2.13-3.6,2.34-6.77,1.67-10.9-1.33-8.21-5.38-13.44-13-16.53-3.72-1.51-7.12-3.84-10.58-5.94-4.41-2.67-5.46-6.26-2.93-10.67q8.83-15.43,17.94-30.7c2.59-4.32,6.34-5.27,10.79-2.77,12.29,6.91,24.58,13.84,36.7,21C370.92,45.54,372.2,48.11,373.83,50Z"/></svg>