<svg id="Layer_1" data-name="Layer 1" xmlns="http://www.w3.org/2000/svg" viewBox="0 0 500 500"><defs><style>.cls-1{fill:#00a1e1;}</style></defs><title>exit_wallet</title><path class="cls-1" d="M250.36,19.21c-127,0-230,103-230,230s103,230,230,230,230-103,230-230S377.38,19.21,250.36,19.21ZM353.57,293.69c-13.06,12.54-26.21,25-39.3,37.51q-21.51,20.55-43,41.11c-11,10.49-25.8,10.4-36.89-.13Q193.26,333.1,152.19,294c-7-6.65-9.68-14.8-7-24.18,2.64-9.15,9-14.83,18.2-17S181,253,188,259.51c5,4.7,10,9.48,14.93,14.23q10.62,10.12,21.26,20.24c.91.86,1.87,1.67,3.42,3,0-2.17,0-3.57,0-5q-.17-82.9-.35-165.8c0-10,4.21-17.65,13-22.38s17.88-4.37,26.38,1C274.37,109.69,278,117,278,126.16q.11,82.9.32,165.8c0,1.39,0,2.79,0,5.07,2.92-2.77,5.2-4.89,7.44-7,10.4-10,20.83-19.92,31.16-30,7.08-6.88,15.43-9.66,25.05-7.54,9.36,2.06,15.88,7.8,18.62,17.06S360.51,287,353.57,293.69Z"/></svg>