<svg id="Layer_1" data-name="Layer 1" xmlns="http://www.w3.org/2000/svg" viewBox="0 0 500 500"><defs><style>.cls-1{fill:#00a1e1;}</style></defs><title>follow</title><path class="cls-1" d="M394.42,300.08a85.25,85.25,0,1,0,85.25,85.25A85.25,85.25,0,0,0,394.42,300.08Zm46.44,88.23H401.92v39.18h-6.44V388.31H356.54v-6.44h38.94v-38.7h6.44v38.7h38.94Z"/><ellipse class="cls-1" cx="216.96" cy="149.05" rx="120.05" ry="117.07"/><path class="cls-1" d="M294.65,385.65a99.86,99.86,0,0,1,98.57-99.84c-.79-1.85-1.61-3.68-2.48-5.49-10-20.83-27.29-39.36-49.91-45.91-4.25-1.19-8.67-2-13-1.19-7.06,1.28-12.5,6.38-17.94,11C284,265.86,250,278,215.94,278.1a152.89,152.89,0,0,1-94.46-32.9c-4.93-3.91-9.95-8.33-15.64-10.8a22.35,22.35,0,0,0-6.12-1.79c-8.33-1.36-16.75,2.3-23.81,6.8-32.56,20.74-48,59.6-54.16,97-.51,3.32-1,6.72-.26,9.95.94,3.91,3.49,7.14,6.12,10.2,47,55.43,120,89.78,193.76,88.76,2.3,0,4.59-.09,6.89-.17a237.15,237.15,0,0,0,76.17-16.37A99.48,99.48,0,0,1,294.65,385.65Z"/></svg>