<svg id="Layer_1" data-name="Layer 1" xmlns="http://www.w3.org/2000/svg" viewBox="0 0 500 500"><defs><style>.cls-1{fill:#00a1e1;}</style></defs><title>unlike</title><path class="cls-1" d="M249.3,470.58,232.85,447c-31-44.58-68.61-77.52-101.81-106.58C74.8,291.14,21.67,244.6,21.67,160.23A128.44,128.44,0,0,1,248.86,78a128.48,128.48,0,0,1,227.23,82.27c0,37.25-10.88,69.49-34.22,101.45C422,288.81,395.66,312.22,367.72,337c-35.83,31.73-72.61,64.31-102.57,109.58ZM150.23,53.72A106.63,106.63,0,0,0,43.72,160.23c0,74.37,44.95,113.75,101.85,163.6,33.4,29.24,71.15,62.3,103.24,107.53,31.13-46.07,68.18-78.88,104-110.63,27.26-24.18,52.78-46.84,71.21-72.06,20.45-28,30-56.1,30-88.44a106.4,106.4,0,0,0-195.9-57.67l-9.28,14.38-9.26-14.39a106.29,106.29,0,0,0-89.36-48.82Z"/></svg>