<svg id="Layer_1" data-name="Layer 1" xmlns="http://www.w3.org/2000/svg" viewBox="0 0 500 500"><defs><style>.cls-1{fill:#00a1e1;}</style></defs><title>like</title><path class="cls-1" d="M354.62,37.56a124.09,124.09,0,0,0-67.89,20.12A125.53,125.53,0,0,0,249.66,94.9a124.93,124.93,0,0,0-230,67.71c0,84.42,52.07,130,112.37,182.86,35.88,31.42,76.5,67,110.2,115.5l7.62,10.93,7.35-11.12c32.64-49.34,72.38-84.57,110.85-118.65,29.33-26,57-50.6,77.46-78.53,23.29-31.88,34.15-64,34.15-101A125.19,125.19,0,0,0,354.62,37.56Z"/></svg>