<svg id="Layer_1" data-name="Layer 1" xmlns="http://www.w3.org/2000/svg" viewBox="0 0 500 500"><defs><style>.cls-1{fill:#00a1e1;}</style></defs><title>dream</title><path class="cls-1" d="M249.08,479.09C122.77,479.09,20,376.32,20,250S122.77,20.91,249.08,20.91,478.17,123.69,478.17,250,375.4,479.09,249.08,479.09Zm0-414.94C146.6,64.14,63.22,147.52,63.22,250S146.6,435.87,249.08,435.87,435,352.49,435,250,351.57,64.14,249.08,64.14Z"/><polygon class="cls-1" points="391.58 139.99 368.35 188.48 393.73 234.27 342.04 228.14 306.44 268.3 297.73 216.03 250.35 195.09 296.65 168.89 302.97 115.78 340.31 151.87 391.58 139.99"/><polygon class="cls-1" points="209.15 247.41 218.09 261.67 207.72 275.55 223.73 280.31 224.35 297.45 239.93 290.48 251.2 302.88 259.09 287.46 275.76 289.3 272.25 272.65 286.5 263.06 273.23 252.94 278.43 236.44 261.6 237.6 255.28 221.91 242.8 233.79 227.94 226.24 225.62 243.3 209.15 247.41"/><polygon class="cls-1" points="120.13 329.4 128.5 327.44 125.18 319.48 129.1 311.57 120.86 309.42 117.36 301.6 110.38 306.88 102.07 305.01 101.63 313.76 94.81 319.21 101.19 324.83 100.99 333.52 109.43 331.82 115.98 337.21 120.13 329.4"/><polygon class="cls-1" points="192.65 293.38 180.52 296.69 172.09 287.62 165.55 298.65 153.11 298.51 155.97 310.77 146.84 319.68 157.41 326.01 156.92 338.7 169.02 335.39 177.45 344.45 184 333.44 196.41 333.56 193.55 321.31 202.71 312.43 192.12 306.08 192.65 293.38"/></svg>