<svg id="Layer_1" data-name="Layer 1" xmlns="http://www.w3.org/2000/svg" viewBox="0 0 500 500"><defs><style>.cls-1{fill:#00a1e1;}</style></defs><title>milestone</title><path class="cls-1" d="M250.17,20.67c-126.54,0-229.5,103-229.5,229.5s103,229.5,229.5,229.5,229.5-103,229.5-229.5S376.71,20.67,250.17,20.67Zm97,388.39c-32.44-28.12-69.09-40.36-106.28-39.8L216.14,219.42l44.37-7.33,2.18,13.19,93.67-15.46-54.57-39.1,40.65-45.21L248.9,141l-2.18-13.2-44.49,7.35L199,115.81l-9.36,1.55,41.64,252.33c-30.82,2.26-61.8,13.1-90.88,30.8A186.06,186.06,0,0,1,64,250.17C64,147.5,147.5,64,250.17,64s186.2,83.53,186.2,186.2A186.26,186.26,0,0,1,347.15,409.06Z"/></svg>