<svg id="Layer_1" data-name="Layer 1" xmlns="http://www.w3.org/2000/svg" viewBox="0 0 500 500"><defs><style>.cls-1{fill:#00a1e1;}</style></defs><title>story</title><path class="cls-1" d="M249.25,479.67c-126.54,0-229.5-103-229.5-229.5s103-229.5,229.5-229.5,229.5,103,229.5,229.5S375.79,479.67,249.25,479.67Zm0-415.69C146.58,64,63,147.5,63,250.17s83.53,186.2,186.2,186.2,186.2-83.53,186.2-186.2S351.92,64,249.25,64Z"/><path class="cls-1" d="M283.25,207.71c18.22-18.18,43.16-25.45,58.17-28.31a216.83,216.83,0,0,0-10.65-64.58C188.57,173.3,167.18,332.82,164,372.1c-2.35,9.63-5.4,22.78-5.4,26.72a5.2,5.2,0,0,0,.38.51,31.07,31.07,0,0,0,3.6-3.36c.38-4.4,1.67-15.44,5.36-24.86,13.07-22.23,45.65-40.69,120.22-86a103.88,103.88,0,0,0,39.48-42c-13.8-1.08-34.4,8.6-34.4,8.6,8.51-10,27.61-15,38.36-17.11,6.46-15.74,9.16-32.34,9.68-48C308.22,188,282,209,282,209,282.41,208.55,282.83,208.14,283.25,207.71Z"/></svg>