<svg id="Layer_1" data-name="Layer 1" xmlns="http://www.w3.org/2000/svg" viewBox="0 0 500 500"><defs><style>.cls-1{fill:#00a1e1;}</style></defs><title>Artboard 3</title><path class="cls-1" d="M197,165.09l1.24,139.82,7.48,23.15c1.2-.51,2.46,3.85,3.45,4.79l.26-119.59,118.1-48.48v92.61l7,27.32c.73-1.56,2.43-2.55,4.2-1.25.24.18.42.38.64.57V107.28Z"/><path class="cls-1" d="M208.35,340.52c-1.13,6.95-3.37,13.78-7.18,19.35-16.84,24.59-66.67,20.14-74.91-10.45-5.23-19.41,5.13-36.27,22.38-45a69.69,69.69,0,0,1,27.53-7.18c7.83-.42,23-.9,28.28,5.87,4.87,6.27,4.74,16.47,4.84,24A76.94,76.94,0,0,1,208.35,340.52Z"/><path class="cls-1" d="M338.39,298.4c-1.13,6.95-3.37,13.78-7.18,19.35-16.84,24.59-66.67,20.14-74.91-10.45-5.23-19.41,5.13-36.27,22.38-45a69.69,69.69,0,0,1,27.53-7.18c7.83-.42,23-.9,28.28,5.87,4.87,6.27,4.74,16.47,4.84,24A76.94,76.94,0,0,1,338.39,298.4Z"/><path class="cls-1" d="M446.49,479.67H55.68c-18.53,0-33.6-17.14-33.6-38.2V58.87c0-21.07,15.07-38.2,33.6-38.2H446.49c18.53,0,33.6,17.14,33.6,38.2V441.46C480.08,462.53,465,479.67,446.49,479.67ZM55.68,36.77c-10.72,0-19.44,9.91-19.44,22.1V441.46c0,12.19,8.72,22.1,19.44,22.1H446.49c10.72,0,19.44-9.91,19.44-22.1V58.87c0-12.19-8.72-22.1-19.44-22.1Z"/></svg>