<svg id="Layer_1" data-name="Layer 1" xmlns="http://www.w3.org/2000/svg" viewBox="0 0 500 500"><defs><style>.cls-1{fill:#00a1e1;}</style></defs><title>Artboard 6</title><path class="cls-1" d="M125.82,475.33a13.3,13.3,0,0,1-13.3-13.3v-92C53.6,338,21.21,282.9,21.21,214.58,21.21,107,119.54,25.79,249.94,25.79S478.67,107,478.67,214.58,380.33,403.36,249.94,403.36c-3.63,0-7.21-.17-10.78-.35l-106,70.11A13.2,13.2,0,0,1,125.82,475.33ZM249.94,38.94C127,38.94,34.35,114.45,34.35,214.58c0,64.52,31.17,116.26,87.77,145.69l3.54,1.84.16,100.07h.06l109.62-72.5,2.83.14c3.85.21,7.69.41,11.6.41,122.9,0,215.59-75.51,215.59-175.64S372.84,38.94,249.94,38.94Z"/><circle class="cls-1" cx="177.19" cy="215.16" r="18.21" transform="translate(-40.08 389.75) rotate(-89.31)"/><circle class="cls-1" cx="253.82" cy="215.91" r="18.21" transform="translate(34.87 467.11) rotate(-89.31)"/><circle class="cls-1" cx="325" cy="216.59" r="18.21" transform="translate(104.53 538.97) rotate(-89.31)"/></svg>