<svg id="Layer_1" data-name="Layer 1" xmlns="http://www.w3.org/2000/svg" viewBox="0 0 500 500"><defs><style>.cls-1{fill:#00a1e1;}</style></defs><title>Artboard 5</title><path class="cls-1" d="M439.35,147.45H358.62a37.87,37.87,0,0,1-37.83-37.83V36.42h15.94v73.2a21.91,21.91,0,0,0,21.89,21.89h72v6.65l7.81-.78Z"/><path class="cls-1" d="M407.25,479.67H89.43A37.87,37.87,0,0,1,51.6,441.84V59.07A37.87,37.87,0,0,1,89.43,21.25H326.08l119,119v301.6A37.87,37.87,0,0,1,407.25,479.67ZM89.43,37.19A21.91,21.91,0,0,0,67.54,59.07V441.84a21.91,21.91,0,0,0,21.89,21.89H407.25a21.91,21.91,0,0,0,21.89-21.89v-295L319.48,37.19Z"/><rect class="cls-1" x="133.2" y="217.91" width="239.11" height="15.94"/><rect class="cls-1" x="133.2" y="255.1" width="239.11" height="15.94"/><rect class="cls-1" x="133.2" y="296.29" width="164.72" height="15.94"/></svg>