<svg id="Layer_1" data-name="Layer 1" xmlns="http://www.w3.org/2000/svg" viewBox="0 0 500 500"><defs><style>.cls-1{fill:#00a1e1;}</style></defs><title>image</title><ellipse class="cls-1" cx="381.34" cy="127.11" rx="31.81" ry="29.97"/><path class="cls-1" d="M445.07,20.67H54.26c-18.53,0-33.6,17.13-33.6,38.2v382.6c0,21.06,15.07,38.2,33.6,38.2H445.07c18.53,0,33.6-17.14,33.6-38.21V58.87C478.67,37.81,463.6,20.67,445.07,20.67ZM34.82,58.87c0-12.19,8.72-22.1,19.44-22.1H445.07c10.72,0,19.44,9.91,19.44,22.1V419.52c-.18-.06-.34-.12-.53-.17l-72.82-92c-7.26-9.17-21.85-9.14-29.06.06l-72.21,92.07h-3.08L178.65,271.6a16.47,16.47,0,0,0-25.83-.41l-118,150.29H36.9a9.41,9.41,0,0,0-2.08,1.28V58.87Z"/></svg>