<svg id="Layer_1" data-name="Layer 1" xmlns="http://www.w3.org/2000/svg" viewBox="0 0 500 500"><defs><style>.cls-1{fill:#00a1e1;}</style></defs><title>Artboard 6 copy</title><path class="cls-1" d="M285.86,300.07H168.66a22.52,22.52,0,0,1-22.49-22.5V197a22.52,22.52,0,0,1,22.49-22.5h117.2A22.52,22.52,0,0,1,308.35,197v80.54A22.52,22.52,0,0,1,285.86,300.07ZM168.66,187.3a9.74,9.74,0,0,0-9.73,9.73v80.54a9.74,9.74,0,0,0,9.73,9.73h117.2a9.74,9.74,0,0,0,9.73-9.73V197a9.74,9.74,0,0,0-9.73-9.73Z"/><path class="cls-1" d="M195.92,172.06A35.07,35.07,0,1,1,231,137,35.1,35.1,0,0,1,195.92,172.06Zm0-57.37a22.3,22.3,0,1,0,22.3,22.3A22.33,22.33,0,0,0,195.92,114.69Z"/><path class="cls-1" d="M262,172.06A35.07,35.07,0,1,1,297.08,137,35.1,35.1,0,0,1,262,172.06Zm0-57.37a22.3,22.3,0,1,0,22.3,22.3A22.33,22.33,0,0,0,262,114.69Z"/><path class="cls-1" d="M332.25,271.12h-27.8V207.61h27.8Zm-15-12.76h2.27v-38h-2.27Z"/><path class="cls-1" d="M352.28,289.14a9.2,9.2,0,0,1-5.94-2.19L319.24,264.2l.25-53.12,29.31-25.52a7.59,7.59,0,0,1,12.58,5.72l.21,88.56a9.33,9.33,0,0,1-9.31,9.32ZM332,258.28l16.77,14.09-.16-69.76-16.41,14.3Zm25.17-63.12,0,0Zm-8.58-3.88v0Z"/><path class="cls-1" d="M125.82,474.77a13.3,13.3,0,0,1-13.3-13.3v-92C53.6,337.4,21.21,282.34,21.21,214c0-107.63,98.33-188.79,228.73-188.79S478.67,106.39,478.67,214,380.33,402.8,249.94,402.8c-3.63,0-7.21-.17-10.78-.35l-106,70.11A13.2,13.2,0,0,1,125.82,474.77ZM249.94,38.38C127,38.38,34.35,113.89,34.35,214c0,64.52,31.17,116.26,87.77,145.69l3.54,1.84.16,100.07h.06l109.62-72.5,2.83.14c3.85.21,7.69.41,11.6.41,122.9,0,215.59-75.51,215.59-175.64S372.84,38.38,249.94,38.38Z"/></svg>