<svg id="Layer_1" data-name="Layer 1" xmlns="http://www.w3.org/2000/svg" viewBox="0 0 500 500"><defs><style>.cls-1{fill:#00a1e1;}</style></defs><title>Artboard 4</title><path class="cls-1" d="M445.4,479.67H54.6c-18.53,0-33.6-17.15-33.6-38.24v-383c0-21.09,15.07-38.24,33.6-38.24H445.4c18.53,0,33.6,17.15,33.6,38.24v383C479,462.51,463.93,479.67,445.4,479.67ZM54.6,36.28c-10.72,0-19.44,9.92-19.44,22.13v383c0,12.21,8.72,22.13,19.44,22.13H445.4c10.72,0,19.44-9.92,19.44-22.13v-383c0-12.21-8.72-22.13-19.44-22.13Z"/><path class="cls-1" d="M177.64,250.5V161.9a9.81,9.81,0,0,1,14.71-8.49l76.73,44.3L345.8,242a9.81,9.81,0,0,1,0,17l-76.73,44.3-76.73,44.3a9.81,9.81,0,0,1-14.71-8.49Z"/><path class="cls-1" d="M187.45,351.79a12.73,12.73,0,0,1-12.68-12.7V161.9a12.67,12.67,0,0,1,19-11l153.45,88.6a12.67,12.67,0,0,1,0,21.95l-153.45,88.6A12.61,12.61,0,0,1,187.45,351.79Zm0-196.83a7,7,0,0,0-3.47.94,6.87,6.87,0,0,0-3.46,6V339.09a6.94,6.94,0,0,0,10.4,6l153.45-88.6a6.94,6.94,0,0,0,0-12L190.91,155.9A7,7,0,0,0,187.44,155Z"/></svg>