<svg xmlns="http://www.w3.org/2000/svg" viewBox="0 0 36 40.53"><defs><style>.cls-1{fill:#4f4f4f;}</style></defs><title>IC_dark_top donaciones</title><g id="Layer_2" data-name="Layer 2"><path class="cls-1" d="M34.84,18.24l-1.63-1.58a.2.2,0,0,1-.06-.18l.38-2.24a.2.2,0,0,0-.29-.21l-2,1.06a.2.2,0,0,1-.19,0L29,14a.2.2,0,0,0-.29.21l.38,2.24a.2.2,0,0,1-.06.18l-1.63,1.58a.2.2,0,0,0,.11.34l2.25.33A.2.2,0,0,1,30,19l1,2a.2.2,0,0,0,.36,0l1-2a.2.2,0,0,1,.15-.11l2.25-.33A.2.2,0,0,0,34.84,18.24Z"/><path class="cls-1" d="M19.4,20.21h6.91l-1.39-1.35a.2.2,0,0,1-.06-.18l.38-2.24a.2.2,0,0,0-.29-.21l-2,1.06a.2.2,0,0,1-.19,0l-2-1.06a.2.2,0,0,0-.29.21l.38,2.24a.2.2,0,0,1-.06.18Z"/><path class="cls-1" d="M19,38.43h8.32A3,3,0,0,0,30,35.24l0-14.06-11,0Zm2-15.27h7l0,12.06c0,.74-.4,1.22-.68,1.22H21Z"/><path class="cls-1" d="M27.23,7.11a2,2,0,0,0-2.72-.93l-8.86,4,2.7,6,10.78-4.81Zm-7.87,6.43-1.07-2.4,7-3.14c.05,0,.1,0,.1,0l1.07,2.4Z"/><path class="cls-1" d="M16.2,17.16l-2.7-6L4.65,15.06h0a2,2,0,0,0-1.13,2.65L5.42,22l.68-.3,0,13.54a3,3,0,0,0,2.66,3.22H17l0-17.27H7.25Zm-8.11,6H15l0,13.27H8.74c-.27,0-.66-.48-.66-1.22ZM5.36,17a.2.2,0,0,1,.11-.09l7-3.13,1.07,2.4L6.42,19.33Z"/><path class="cls-1" d="M10.54,11.5a2.82,2.82,0,0,0,1.06-.21l1.73-.7a1.63,1.63,0,0,0,.58-.41l.08,0a1.66,1.66,0,0,0,.62-.12l1.74-.7h0A2.78,2.78,0,0,0,18.09,7a3,3,0,0,0-.74-2.24,2.88,2.88,0,0,0-2-1,2,2,0,0,0-2,1.4l-.64,2-1.84-1a2,2,0,0,0-2.44.41,2.88,2.88,0,0,0-.75,2.05,3,3,0,0,0,1,2.12A2.73,2.73,0,0,0,10.54,11.5Zm4.72-5.68a.91.91,0,0,1,.61.3,1,1,0,0,1,.23.77.77.77,0,0,1-.5.64l-1,.42ZM9.93,8l1.95,1-1,.42a.77.77,0,0,1-.8-.11,1,1,0,0,1-.37-.72A.85.85,0,0,1,9.93,8Z"/></g></svg>