<?xml version="1.0" encoding="UTF-8" standalone="no"?>
<svg
   xmlns:dc="http://purl.org/dc/elements/1.1/"
   xmlns:cc="http://creativecommons.org/ns#"
   xmlns:rdf="http://www.w3.org/1999/02/22-rdf-syntax-ns#"
   xmlns:svg="http://www.w3.org/2000/svg"
   xmlns="http://www.w3.org/2000/svg"
   xmlns:sodipodi="http://sodipodi.sourceforge.net/DTD/sodipodi-0.dtd"
   xmlns:inkscape="http://www.inkscape.org/namespaces/inkscape"
   id="Layer_2"
   data-name="Layer 2"
   viewBox="0 0 36 36"
   version="1.1"
   sodipodi:docname="lock-open-2.svg"
   inkscape:version="0.92.4 (33fec40, 2019-01-16)">
  <metadata
     id="metadata885">
    <rdf:RDF>
      <cc:Work
         rdf:about="">
        <dc:format>image/svg+xml</dc:format>
        <dc:type
           rdf:resource="http://purl.org/dc/dcmitype/StillImage" />
      </cc:Work>
    </rdf:RDF>
  </metadata>
  <sodipodi:namedview
     pagecolor="#ffffff"
     bordercolor="#666666"
     borderopacity="1"
     objecttolerance="10"
     gridtolerance="10"
     guidetolerance="10"
     inkscape:pageopacity="0"
     inkscape:pageshadow="2"
     inkscape:window-width="1366"
     inkscape:window-height="692"
     id="namedview883"
     showgrid="false"
     inkscape:zoom="14.166667"
     inkscape:cx="29.717647"
     inkscape:cy="18"
     inkscape:window-x="0"
     inkscape:window-y="0"
     inkscape:window-maximized="1"
     inkscape:current-layer="Layer_2" />
  <defs
     id="defs872">
    <style
       id="style870">.cls-1,.cls-2{fill:none;stroke:#4f4f4f;stroke-miterlimit:10;}.cls-1{stroke-width:2px;}.cls-2{stroke-width:2.38px;}.cls-3{fill:#4f4f4f;}</style>
  </defs>
  <title
     id="title874">IC_white_unlock</title>
  <path
     style="color:#000000;font-style:normal;font-variant:normal;font-weight:normal;font-stretch:normal;font-size:medium;line-height:normal;font-family:sans-serif;font-variant-ligatures:normal;font-variant-position:normal;font-variant-caps:normal;font-variant-numeric:normal;font-variant-alternates:normal;font-feature-settings:normal;text-indent:0;text-align:start;text-decoration:none;text-decoration-line:none;text-decoration-style:solid;text-decoration-color:#000000;letter-spacing:normal;word-spacing:normal;text-transform:none;writing-mode:lr-tb;direction:ltr;text-orientation:mixed;dominant-baseline:auto;baseline-shift:baseline;text-anchor:start;white-space:normal;shape-padding:0;clip-rule:nonzero;display:inline;overflow:visible;visibility:visible;opacity:1;isolation:auto;mix-blend-mode:normal;color-interpolation:sRGB;color-interpolation-filters:linearRGB;solid-color:#000000;solid-opacity:1;vector-effect:none;fill:#4f4f4f;fill-opacity:1;fill-rule:nonzero;stroke:none;stroke-width:2px;stroke-linecap:butt;stroke-linejoin:miter;stroke-miterlimit:10;stroke-dasharray:none;stroke-dashoffset:0;stroke-opacity:1;color-rendering:auto;image-rendering:auto;shape-rendering:auto;text-rendering:auto;enable-background:accumulate"
     d="M 16.607422 0.81054688 C 15.863164 0.81266274 15.130034 0.99059309 14.466797 1.328125 C 12.203419 2.4360519 11.397308 4.9479098 11.009766 7 C 10.621315 9.0568988 10.691406 10.871094 10.691406 10.871094 L 10.689453 10.830078 L 10.689453 14.839844 L 9.6503906 14.839844 C 8.5596879 14.839844 7.6503906 15.749141 7.6503906 16.839844 L 7.6503906 32.929688 C 7.6503906 34.02039 8.5596879 34.929688 9.6503906 34.929688 L 25.599609 34.929688 C 26.690312 34.929688 27.599609 34.02039 27.599609 32.929688 L 27.599609 16.839844 C 27.599609 15.749141 26.690312 14.839844 25.599609 14.839844 L 13.070312 14.839844 L 13.070312 10.808594 L 13.068359 10.789062 C 13.068359 10.789062 13.018059 9.1970076 13.349609 7.4414062 C 13.681159 5.685805 14.435078 3.9870265 15.519531 3.4609375 L 15.53125 3.4550781 L 15.541016 3.4492188 C 15.871794 3.2801642 16.23794 3.1911118 16.609375 3.1894531 L 18.253906 3.1894531 C 18.617644 3.1946431 18.974942 3.283599 19.298828 3.4492188 L 19.3125 3.4570312 L 19.326172 3.4628906 C 20.405636 3.9801339 21.170694 5.6837346 21.511719 7.4453125 C 21.852744 9.2068904 21.810547 10.804687 21.810547 10.804688 L 24.189453 10.875 C 24.189453 10.875 24.246633 9.0531096 23.847656 6.9921875 C 23.449676 4.9360873 22.635568 2.4230282 20.367188 1.3261719 C 19.721523 0.99847587 19.011225 0.82088113 18.287109 0.81054688 L 18.279297 0.81054688 L 16.607422 0.81054688 z M 9.6503906 16.839844 L 25.599609 16.839844 L 25.599609 32.929688 L 9.6503906 32.929688 L 9.6503906 16.839844 z M 17.521484 21.986328 A 2.26 2.26 0 0 0 16.160156 26.070312 L 15.339844 28.220703 A 0.54 0.54 0 0 0 15.839844 28.949219 L 19.150391 28.949219 A 0.54 0.54 0 0 0 19.669922 28.269531 L 19 25.929688 A 2.26 2.26 0 0 0 17.521484 21.986328 z "
     id="rect876" />
</svg>
