<svg id="Layer_1" data-name="Layer 1" xmlns="http://www.w3.org/2000/svg" viewBox="0 0 500 500"><defs><style>.cls-1{fill:#00a1e1;}.cls-2{fill:none;}</style></defs><title>buyers</title><circle class="cls-1" cx="207.88" cy="417.8" r="27.69"/><circle class="cls-1" cx="380.2" cy="417.8" r="27.69"/><polygon class="cls-2" points="225.89 143 244.13 274.26 281.38 274.26 281.38 137.26 281.38 137.21 225.08 137.21 225.89 143"/><path class="cls-2" d="M195,137.25H146c1.38,4.49,3.11,8.94,4.45,13.49,3.07,10.28,5.4,20.86,8.07,31.28l15.88,62q3.52,13.84,7.08,27.67c.06.24.44,1.38.82,2.59H214l-.81-5.8Z"/><path class="cls-2" d="M183.1,277.53c.17-.19.1-.46-.1-.75A1.71,1.71,0,0,1,183.1,277.53Z"/><path class="cls-2" d="M391,137.26,389.85,148,376.56,274.27h36.6c.22-1,.43-2,.66-3L417,257.86,423.55,230l21.9-92.69c-5.61,0-11.23,0-16.85,0Z"/><polygon class="cls-2" points="311.38 274.28 346.58 274.31 347.13 269.08 361 137.28 311.38 137.28 311.38 274.28"/><path class="cls-2" d="M415.66,274.28h.14C417.25,274.57,416.23,274.19,415.66,274.28Z"/><path class="cls-1" d="M471.91,109.52c-4.27-2.59-9.87-2.13-14.7-2.17q-10.1-.07-20.2-.08-32.35-.08-64.71-.07H160.7c-6.36,0-12.74-.1-19.1,0a66.41,66.41,0,0,0-7.19.45L123,63.17a15.25,15.25,0,0,0-14.46-11H35.27c-7.85,0-15.36,6.9-15,15s6.59,15,15,15H96.9l20.7,80.75L158,320.44l11.08,43.18a15.25,15.25,0,0,0,14.46,11H415.07c7.85,0,15.36-6.9,15-15s-6.59-15-15-15H195.23l-10.34-40.26H407.64c11.66,0,23.53-.59,30.35-11.67,5.07-8.24,6.15-19.47,8.34-28.74L478.8,126.46A15.43,15.43,0,0,0,471.91,109.52Zm-288.81,168a1.71,1.71,0,0,0-.1-.75C183.2,277.07,183.27,277.34,183.1,277.53Zm.2-3.25h-1c-.38-1.21-.76-2.35-.82-2.59q-3.56-13.83-7.08-27.67l-15.88-62c-2.67-10.42-5-21-8.07-31.28-1.34-4.55-3.07-9-4.45-13.49h49l18.24,131.23.81,5.8Zm98.08-137v137H244.13L225.89,143l-.81-5.79h56.3Zm65.75,131.82-.55,5.23-35.2,0v-137H361Zm68.67,5.21h-.14C416.23,274.19,417.25,274.57,415.8,274.29ZM423.55,230,417,257.86l-3.18,13.46c-.23,1-.44,2-.66,3h-36.6L389.85,148,391,137.26h37.6c5.62,0,11.24,0,16.85,0Z"/></svg>