<svg id="Layer_1" data-name="Layer 1" xmlns="http://www.w3.org/2000/svg" viewBox="0 0 500 500"><defs><style>.cls-1{fill:#00a1e1;}</style></defs><title>camera_milestone</title><path class="cls-1" d="M439.81,421.7h-379a40.07,40.07,0,0,1-40-40V155.06a40.07,40.07,0,0,1,40-40h379a40.07,40.07,0,0,1,40,40V381.68A40.07,40.07,0,0,1,439.81,421.7ZM60.86,130a25.05,25.05,0,0,0-25,25V381.68a25.05,25.05,0,0,0,25,25h379a25.05,25.05,0,0,0,25-25V155.06a25.05,25.05,0,0,0-25-25Z"/><path class="cls-1" d="M190.09,130H75.75V97.27a26.06,26.06,0,0,1,26-26h62.28a26.06,26.06,0,0,1,26,26ZM90.75,115h84.34V97.27a11,11,0,0,0-11-11H101.78a11,11,0,0,0-11,11Z"/><path class="cls-1" d="M427,125H371.72V94.85a18.62,18.62,0,0,1,18.6-18.6h18.06A18.62,18.62,0,0,1,427,94.85Zm-40.26-15H412V94.85a3.6,3.6,0,0,0-3.6-3.6H390.32a3.6,3.6,0,0,0-3.6,3.6Z"/><path class="cls-1" d="M249.67,366.76a98.39,98.39,0,1,1,98.39-98.39A98.5,98.5,0,0,1,249.67,366.76Zm0-181.78a83.39,83.39,0,1,0,83.39,83.39A83.49,83.49,0,0,0,249.67,185Z"/><circle class="cls-1" cx="249.67" cy="268.37" r="61.87"/></svg>