<svg id="Layer_1" data-name="Layer 1" xmlns="http://www.w3.org/2000/svg" viewBox="0 0 500 500"><defs><style>.cls-1{fill:#00a1e1;}</style></defs><title>description</title><rect class="cls-1" x="130.44" y="137.94" width="239.11" height="15.94"/><rect class="cls-1" x="130.44" y="175.13" width="239.11" height="15.94"/><rect class="cls-1" x="130.44" y="211.86" width="164.72" height="15.94"/><rect class="cls-1" x="130.44" y="248.59" width="122.04" height="15.94"/><path class="cls-1" d="M401.49,480.46h-298A56.84,56.84,0,0,1,46.7,423.68V74.86a56.84,56.84,0,0,1,56.78-56.78h298a56.84,56.84,0,0,1,56.78,56.78V423.68A56.84,56.84,0,0,1,401.49,480.46Zm-298-443.38A37.82,37.82,0,0,0,65.7,74.86V423.68a37.82,37.82,0,0,0,37.78,37.78h298a37.82,37.82,0,0,0,37.78-37.78V74.86a37.82,37.82,0,0,0-37.78-37.78Z"/></svg>