<svg id="Layer_1" data-name="Layer 1" xmlns="http://www.w3.org/2000/svg" viewBox="0 0 500 500"><defs><style>.cls-1{fill:#00a1e1;}.cls-2{fill:#fff;}</style></defs><title>Artboard 19 copy 3</title><path class="cls-1" d="M332,61.09c-1.8-17.12-15.27-32.26-32-36a41.54,41.54,0,0,0-39.85,13.34,38.85,38.85,0,0,0-4.3,6c-6.16,10.73-6.64,22.49-7.11,33.87-.15,3.47-.35,6.82-.65,10.08-.53-3.82-.83-7.8-1.09-11.93-.71-11.37-1.45-23.11-7.83-33.7a37.7,37.7,0,0,0-4.43-5.94,41.51,41.51,0,0,0-40.13-12.49C178,28.44,164.86,43.85,163.42,61c-1.18,14.18,6.53,32.65,21.14,40a30.18,30.18,0,0,0,3.42,1.48c5.95,2.15,12.31,3.24,18.46,4.29,2.91.5,5.77,1,8.5,1.59a267.57,267.57,0,0,0,33,5.59c10.26,1,20.48-1.12,30.42-3.47s20.43-3.73,30-7.41C325,96.7,333.56,76.31,332,61.09ZM218.52,92.18c-3-.66-6.11-1.19-9.27-1.74-5.44-.94-11.07-1.89-15.63-3.54C185,83.78,179.24,71.37,180,62.4c.84-10.09,8.84-19.5,18.59-21.9A25.07,25.07,0,0,1,222.41,48a21.45,21.45,0,0,1,2.5,3.35c4.28,7.11,4.87,16.37,5.48,26.17a135.27,135.27,0,0,0,1.89,17.71Zm83.78-4.57c-4.52,1.74-10.11,2.83-15.52,3.87-3.16.61-6.29,1.22-9.26,1.94l-13.7,3.34A134.46,134.46,0,0,0,265.35,79c.41-9.81.8-19.07,4.91-26.26a22.19,22.19,0,0,1,2.44-3.41,25.08,25.08,0,0,1,23.67-8,22.35,22.35,0,0,1,5.21,1.89c7.36,3.73,13,11.41,13.85,19.62C316.37,71.78,311,84.28,302.3,87.61Z"/><path class="cls-1" d="M69.93,447.26a30.39,30.39,0,0,0,30.36,30.35h142V252.91H69.93Z"/><path class="cls-1" d="M261.12,477.6H403.41a30.39,30.39,0,0,0,30.36-30.35V252.91H261.12Z"/><rect class="cls-2" x="64.47" y="244.64" width="5.46" height="8.27"/><rect class="cls-2" x="433.77" y="244.64" width="3.25" height="8.27"/><path class="cls-1" d="M260.41,247.25,446,247.19l0-94.65a32.19,32.19,0,0,0-32.15-32.12l-153.44.05Z"/><path class="cls-1" d="M243.08,120.48l-156.94.06A32.2,32.2,0,0,0,54,152.69l0,94.64,189.08-.07Z"/></svg>