<svg id="Layer_1" data-name="Layer 1" xmlns="http://www.w3.org/2000/svg" viewBox="0 0 500 500"><defs><style>.cls-1{fill:#00a1e1;}</style></defs><title>Artboard 18 copy</title><path class="cls-1" d="M479.91,161.71c0-16.82-6.33-36.28-22.06-44.67-7.74-4.13-15.68-3.71-24.07-3.71H133.06v-5.66H264.91a41.06,41.06,0,0,1-10.54-10.13c-5.24-6.8-9.23-14.41-13.09-22.1A32.24,32.24,0,0,0,212.46,57.7H52.33A32.19,32.19,0,0,0,20.05,89.54v.4q-.11,150.79,0,301.58c0,34.29,16.28,50.64,50.42,50.7q88.86.15,177.72,0c61,0,122.07.11,183.1,0,31.7-.08,48.56-17,48.61-48.92Q480.1,277.5,479.91,161.71Z"/></svg>