<svg id="Layer_1" data-name="Layer 1" xmlns="http://www.w3.org/2000/svg" viewBox="0 0 500 500"><defs><style>.cls-1{fill:#00a1e1;}</style></defs><title>Artboard 27</title><path class="cls-1" d="M297.84,108.12c30.54,21.5,48.24,50.27,57,70.61A128.24,128.24,0,0,1,205.1,371.9c54,41.26,132.17,46,228.08,12.21A226.11,226.11,0,0,0,476.09,251.3c0-125.48-101.73-227.21-227.21-227.21A226.48,226.48,0,0,0,86.38,92.56C174.27,66.06,245.37,71.19,297.84,108.12Z"/><path class="cls-1" d="M315.38,421.71c-71.54,0-127.46-29.22-163.52-86.43A128.35,128.35,0,0,1,310.81,138.81a146.76,146.76,0,0,0-26.58-22c-52.7-33.89-125.55-34.74-216.54-2.58a226.17,226.17,0,0,0-46,137.07c0,125.48,101.73,227.21,227.21,227.21a226.57,226.57,0,0,0,167-73.16C379.72,416.22,346.08,421.7,315.38,421.71Z"/></svg>