<svg id="Layer_1" data-name="Layer 1" xmlns="http://www.w3.org/2000/svg" viewBox="0 0 500 500"><defs><style>.cls-1{fill:#00a1e1;}</style></defs><title>verified</title><path class="cls-1" d="M440.83,83.12c-56.37,3.05-83.27-17.93-83.27-17.93C328,42.1,292.74,22.47,254.31,21.38c-37.2-1.06-71.46,17.11-100.81,37.55C109.65,89.46,61.11,82.42,61.11,82.42,46.24,381.5,251.05,477.8,251.05,477.8,465.27,357.23,440.83,83.12,440.83,83.12ZM250.32,349.75A121.94,121.94,0,1,1,372.26,227.81,121.94,121.94,0,0,1,250.32,349.75Z"/><path class="cls-1" d="M182.77,249.8l42,37c6.15,5.42,15.08,5.93,21.21,0l78-75.47L335,200.61c5.82-5.64,5.66-15.55,0-21.21a15.22,15.22,0,0,0-21.21,0l-78,75.47-11.07,10.72H246l-42-37c-6.08-5.35-15.23-6-21.21,0-5.46,5.46-6.1,15.84,0,21.21Z"/></svg>