<svg id="Layer_1" data-name="Layer 1" xmlns="http://www.w3.org/2000/svg" viewBox="0 0 500 500"><defs><style>.cls-1{fill:#00a1e1;}</style></defs><title>Artboard 15</title><path class="cls-1" d="M433.46,76.76a19.16,19.16,0,0,0,19.16-19.16V42.79a19.16,19.16,0,0,0-19.16-19.16H64A19.16,19.16,0,0,0,44.8,42.79v14.8A19.16,19.16,0,0,0,64,76.76h26.8l-8.1.23c2,69.34,28.05,133.19,70.21,172.94-43.07,40.56-69.08,105.7-70.2,176.61H63.82A19.16,19.16,0,0,0,44.66,445.7v14.8a19.16,19.16,0,0,0,19.16,19.16h369.5a19.16,19.16,0,0,0,19.16-19.16V445.7a19.16,19.16,0,0,0-19.16-19.16H414.78c-1.11-70.86-27.13-136-70.22-176.61,42.15-39.75,68.22-103.6,70.19-172.94l-8.1-.23h26.82Zm-106.17,167-7.24,6.13,7.24,6.13c43.63,37,70.23,100.61,71.39,170.48H98.77c1.16-69.92,27.76-133.54,71.37-170.48l7.25-6.13-7.25-6.14c-42.71-36.15-69.39-98.58-71.39-167H398.66C396.66,145.2,370,207.64,327.3,243.79Z"/><path class="cls-1" d="M170.74,410.35H337c-5.68-40.62-40.54-72.69-83.12-72.69S176.45,369.73,170.74,410.35Z"/><path class="cls-1" d="M331.71,163.4H165.43C171.11,204,206,236.1,248.56,236.1S326,204,331.71,163.4Z"/></svg>