<svg id="Layer_1" data-name="Layer 1" xmlns="http://www.w3.org/2000/svg" viewBox="0 0 500 500"><defs><style>.cls-1{fill:#00a1e1;}</style></defs><title>Artboard 21</title><path class="cls-1" d="M251.18,21.11a229.28,229.28,0,0,0-210.81,139l-2.86.95,1.11,3.32c-47.55,117.28,9,250.91,126.26,298.46a229.15,229.15,0,0,0,86.23,16.79c126.63,0,229.3-102.62,229.31-229.25S377.81,21.12,251.18,21.11ZM122.67,421.53A213.94,213.94,0,0,1,46.45,187.9l6.35,19a7.64,7.64,0,0,0,3,3.94l38.1,25.4L85.21,245a7.64,7.64,0,0,0-2.24,5.4v22.93a7.64,7.64,0,0,0,.8,3.42L99.06,307.3a7.65,7.65,0,0,0,5.35,4.07l32.1,6.41V388a7.65,7.65,0,0,0,.54,2.84L152.34,429a7.64,7.64,0,0,0,4.68,4.41L180,441.06a7.51,7.51,0,0,0,2.38.4,7.64,7.64,0,0,0,7.64-7.64V399.42l27.51-20.64a7.64,7.64,0,0,0,3.06-6.11V352.91l28.33-28.33a7.65,7.65,0,0,0,2.09-3.91l7.64-38.21a7.64,7.64,0,0,0-7.49-9.14H224.87l-20.7-34.51a7.64,7.64,0,0,0-6.55-3.71H148.84l-13.13-26.34a7.64,7.64,0,0,0-5.62-4.13,7.49,7.49,0,0,0-6.63,2.14l-9.92,9.88V204.53a7.64,7.64,0,0,0-2.24-5.4l-13-13V172.94l46.94-6.7a7.68,7.68,0,0,0,2.85-1l38.21-22.93a7.64,7.64,0,0,0,2.61-2.61l21.48-35.79,20.25-6.76a7.56,7.56,0,0,0,4.83-4.83l7.64-22.93a7.64,7.64,0,0,0-6-9.94l-44.24-7.38-7.77-5.18a213.41,213.41,0,0,1,147,5.46l-14,7H289.33a7.64,7.64,0,0,0-6.88,4.23L267.16,94.12a7.64,7.64,0,0,0,4.43,10.66l22.93,7.64a7.51,7.51,0,0,0,4.26.17l28.42-7.1L348,112.42a5.62,5.62,0,0,0,.92.24l38.21,7.64a7.59,7.59,0,0,0,5.74-1.13l17.39-11.6a215.61,215.61,0,0,1,23,30.72l-37.6,12.53L355,144,341.5,123.86a7.64,7.64,0,0,0-6.32-3.4H289.33a7.64,7.64,0,0,0-5.4,2.24L261,145.63a7.64,7.64,0,0,0-2.16,6.49l7.64,53.5a7.64,7.64,0,0,0,4.59,5.94l53.5,22.93a7.55,7.55,0,0,0,4.86.39L356.71,228l16.68,11.14v26.48a7.63,7.63,0,0,0,.76,3.42L404,328.62v28.77a7.64,7.64,0,0,0,2.24,5.4l16,16C351.29,473.3,217.18,492.43,122.67,421.53Z"/></svg>