<svg id="Layer_1" data-name="Layer 1" xmlns="http://www.w3.org/2000/svg" viewBox="0 0 500 500"><defs><style>.cls-1{fill:#00a1e1;}</style></defs><title>messages</title><path class="cls-1" d="M361.4,143.92C348.83,74.46,280,24.55,191.46,24.55c-98.06,0-172,61.25-172,142.48,0,51,23.93,92.28,67.51,116.65V350a12.75,12.75,0,0,0,19.77,10.6l29.17-19.3c11,23.52,29,43.14,53.23,57.53l-.77,64a16.64,16.64,0,0,0,16.48,16.8H205a16.52,16.52,0,0,0,9-2.65l77.1-49.64c2,.11,4,.21,6.08.24,47.85.71,92.36-13.5,125.1-39.7,33.39-26.72,52-63.85,52.53-104.55C475.62,217.85,429.68,164.46,361.4,143.92Zm-91.95,4a18.21,18.21,0,1,1-18.43,18A18.21,18.21,0,0,1,269.45,147.94Zm-71.19-.68a18.21,18.21,0,1,1-18.43,18A18.21,18.21,0,0,1,198.26,147.26ZM121.2,182.94a18.21,18.21,0,1,1,18.43-18A18.21,18.21,0,0,1,121.2,182.94Zm79.64,211.44-2-1.13-1-.62,3,1.74Zm8.07,81.4-.11-3.88h.11Zm-.49-11.16.45-.29V468Zm85.77-45.11-1.27-.08,3.09.18Zm117.4-49.85h0c-28.34,22.68-67.78,35-110.25,34.58-2.53,0-5-.19-8.59-.42l-3.9-.3-73.15,47.13.8-65.53-6.24-3.35c-23.76-12.72-40.93-31.08-50.67-53.59l28.57-18.9c2.37.11,4.75.21,7.16.21,35.32,0,67.5-8,94.23-21.91a18.2,18.2,0,1,0,30.1-20.19c29.26-24.91,47-59.19,47.64-98.22C420.77,188.47,456,231.27,455.37,283,455,316.63,439.42,347.39,411.59,369.66Z"/><circle class="cls-1" cx="376.76" cy="279.63" r="18.21" transform="translate(92.61 653) rotate(-89.31)"/></svg>