<svg id="Layer_1" data-name="Layer 1" xmlns="http://www.w3.org/2000/svg" viewBox="0 0 500 500"><defs><style>.cls-1{fill:#00a1e1;}</style></defs><title>Artboard 13</title><path class="cls-1" d="M249.15,472.14a49.46,49.46,0,0,1-49.45-49.46l1-9.89h96.9l1,9.89A49.46,49.46,0,0,1,249.15,472.14Z"/><path class="cls-1" d="M249.15,479.67a57.05,57.05,0,0,1-57-57l0-.76,1.68-16.66H304.39l1.74,17.42A57.05,57.05,0,0,1,249.15,479.67ZM207.23,423a41.92,41.92,0,0,0,83.84,0l-.28-2.72H207.51Z"/><path class="cls-1" d="M446.59,351.1c-43.66-43.67-51.33-64.45-51.33-139,0-71.33-51.41-130.87-119.11-143.52a27.83,27.83,0,0,0,6.17-17.35c0-16.5-14.88-29.93-33.17-29.93S216,34.76,216,51.27a27.84,27.84,0,0,0,6.21,17.4c-67.6,12.74-118.89,72.23-118.89,143.48,0,41-1.17,54.31-6.27,71.28-6.68,22.31-20.58,43.17-45.07,67.67a27.32,27.32,0,0,0,19.31,46.63h356a27.31,27.31,0,0,0,19.31-46.63ZM249.15,36.4c10,0,18.11,6.67,18.11,14.86s-8.12,14.86-18.11,14.86S231,59.46,231,51.27,239.16,36.4,249.15,36.4Z"/></svg>