<svg id="Layer_1" data-name="Layer 1" xmlns="http://www.w3.org/2000/svg" viewBox="0 0 500 500"><defs><style>.cls-1{fill:#00a1e1;}</style></defs><title>profile</title><path class="cls-1" d="M250.39,25.2c-126.63,0-229.28,100-229.28,223.47S123.76,472.13,250.39,472.13s229.28-100,229.28-223.47S377,25.2,250.39,25.2Zm2.2,61.94c55.27,0,100.07,43.69,100.07,97.59s-44.81,97.59-100.07,97.59-100.07-43.69-100.07-97.59,44.79-97.59,100.06-97.59Zm159.6,272.37c-.57,2.91-4,6-5.81,8.36a183,183,0,0,1-38.06,36.64A199,199,0,0,1,262,441.44c-1.91.07-3.83.14-5.74.14-61.52.85-122.33-27.78-161.52-74-2.2-2.55-4.32-5.24-5.1-8.5-.64-2.69-.21-5.53.21-8.29,5.17-31.18,18-63.57,45.15-80.87,5.88-3.76,12.9-6.8,19.85-5.67a18.64,18.64,0,0,1,5.1,1.49c4.75,2.06,8.93,5.74,13,9a127.46,127.46,0,0,0,78.74,27.43c28.42-.07,56.77-10.21,78.32-28.28,4.54-3.83,9.07-8.08,15-9.14a24.56,24.56,0,0,1,10.84,1c18.85,5.46,33.24,20.91,41.6,38.27,4.89,10.06,8,20.84,10.35,31.68,1.21,5.46,2.2,11,3.12,16.44C411.27,354.13,412.55,357.53,412.19,359.51Z"/></svg>