<svg xmlns="http://www.w3.org/2000/svg" viewBox="0 0 457.72 457.76"><defs><style>.cls-1{fill:#00a1e1;}</style></defs><title>settings</title><g id="Layer_2" data-name="Layer 2"><g id="Layer_1-2" data-name="Layer 1"><path class="cls-1" d="M454.36,189.68a12.82,12.82,0,0,0-14.83-10.43q-.47.08-.94.2A38.94,38.94,0,0,1,407.84,109a12.85,12.85,0,0,0,3.75-17.78q-.24-.37-.51-.73A227.45,227.45,0,0,0,360.94,42,12.85,12.85,0,0,0,343,45.08q-.25.36-.48.74A39,39,0,0,1,271,17.56a12.79,12.79,0,0,0-9.82-15.19q-.48-.1-1-.17a227.89,227.89,0,0,0-69.65,1A12.84,12.84,0,0,0,180,18q.08.45.19.89a39,39,0,0,1-51.78,45.83l-.15-.06A38.75,38.75,0,0,1,109.63,49.4a12.83,12.83,0,0,0-17.74-3.82q-.38.25-.74.52A226.93,226.93,0,0,0,42.43,96.16a12.85,12.85,0,0,0,3,17.92q.4.29.83.54A39,39,0,0,1,17.76,186.2,12.84,12.84,0,0,0,2.46,196q-.1.46-.17.93a227.1,227.1,0,0,0,.89,70A12.84,12.84,0,0,0,18,277.47q.55-.09,1.1-.24a38.89,38.89,0,0,1,30.46,70.69,12.84,12.84,0,0,0-4.11,17.69q.3.48.63.92a226.51,226.51,0,0,0,50.43,49,12.84,12.84,0,0,0,17.9-3.08q.33-.47.62-1a39,39,0,0,1,71.81,28.44,12.83,12.83,0,0,0,9.57,15.42q.57.13,1.14.21a229.83,229.83,0,0,0,31.56,2.21,227,227,0,0,0,38.76-3.35,12.82,12.82,0,0,0,10.46-14.81q-.1-.6-.26-1.19a38.91,38.91,0,0,1,51.48-46.62l.16.06a38.73,38.73,0,0,1,19,15.84,12.84,12.84,0,0,0,17.71,4q.45-.29.88-.61A226.75,226.75,0,0,0,416,360.58a12.85,12.85,0,0,0-3.12-17.9q-.43-.3-.88-.57a38.57,38.57,0,0,1-16-17.78,39,39,0,0,1,44.11-54,12.91,12.91,0,0,0,10.11-2,12.77,12.77,0,0,0,5.38-8.79A227.81,227.81,0,0,0,454.36,189.68ZM268.85,318.77a98.4,98.4,0,1,1,49.9-129.9v0a97.64,97.64,0,0,1-48.54,129.27Z"/></g></g></svg>