<svg id="Layer_1" data-name="Layer 1" xmlns="http://www.w3.org/2000/svg" viewBox="0 0 500 500"><defs><style>.cls-1{fill:#00a1e1;}</style></defs><title>Artboard 7</title><path class="cls-1" d="M319.69,229.23a52.62,52.62,0,0,1-37.46-15.54,53.19,53.19,0,0,1,0-75,52.9,52.9,0,0,1,74.92,0,53.18,53.18,0,0,1,0,75A52.6,52.6,0,0,1,319.69,229.23Zm0-91.6a38.2,38.2,0,0,0-27.2,11.29,38.66,38.66,0,0,0,0,54.54,38.41,38.41,0,0,0,54.39,0,38.65,38.65,0,0,0,0-54.53A38.19,38.19,0,0,0,319.69,137.63Z"/><path class="cls-1" d="M337.32,160.51a24.91,24.91,0,0,1,0,35.39,25.31,25.31,0,0,1-35.63,0,24.94,24.94,0,0,1,0-35.39A25.31,25.31,0,0,1,337.32,160.51Z"/><path class="cls-1" d="M74.55,446.7l23.14-93.06,1.42,1.18a58.64,58.64,0,0,1,11.07-20.48c8.67-10.44,20.29-17.45,32.72-19.73,12.94-2.36,25.16.6,34.46,8.33s14.47,19.22,14.5,32.35a56.15,56.15,0,0,1-13.38,35.78h0a58.66,58.66,0,0,1-18.09,14.62l1.43,1.19Zm31.65-67.2L95.87,421.05l38.93-17.77-4.62-3.84,14.36-3.23a42.13,42.13,0,0,0,22.79-14.4c6.5-7.83,10.07-17.23,10-26.47,0-8.76-3.31-16.3-9.27-21.24s-13.93-6.81-22.59-5.22a41.61,41.61,0,0,0-24.18,14.72,42.09,42.09,0,0,0-10,25l-.54,14.69Z"/><path class="cls-1" d="M472.79,24.4c-10.73-9.49-70.29-.71-128.21,24.46-40.36,17.53-75.71,40.56-105.2,68.5-6.18-.91-12.86-3.36-19.26-5.7-7-2.52-14.16-5.13-21.12-6-56.43-7.1-117.83,35.24-162.61,66.12l-3.53,2.43c-7.9,5.44-12.1,12.23-11.25,18.17.5,3.43,2.87,8.1,11.33,10.87,12.49,4.09,26.83,4.22,40.68,4.35,20.62.19,40.08.37,54.17,12.24,5,4.24,8.85,9.22,12.89,14.5l1.15,1.5c-.7,1.67-1.36,3.36-2,5.09-11.11,32,15.34,58.25,34.65,77.4l1.56,1.54c31.5,31.31,50.94,41.19,67.77,41.19,6.73,0,13-1.59,19.53-4,2,1.56,4.05,3.05,6.1,4.54,5.37,3.91,10.45,7.59,14.81,12.51,12.21,13.8,12.87,33.26,13.57,53.86.47,13.86.95,28.18,5.35,40.56,3,8.4,7.7,10.65,11.14,11.06a11,11,0,0,0,1.27.08c5.62,0,11.74-4.3,16.62-11.76l2.36-3.62c29.76-45.53,70.52-107.88,62.07-164.17-1-6.94-3.82-14.08-6.52-21-2.48-6.33-5-12.83-6.1-19,29.06-30.6,53.2-69.13,70.1-111.95C474.67,96.22,484,35,472.79,24.4ZM186.32,309.6,184.75,308c-17.5-17.36-39.28-39-31.17-62.36,6-17.39,18.91-32.64,31.35-47.39l5.36-6.39c17.45-21,35.55-40.83,53.77-58.9,27.47-27.29,60.65-50,98.72-67.47C358,115.46,406.3,140,437.41,150.88,420.27,191.5,396.35,227.69,367.9,256c-42.75,42.47-74,64.57-90.71,76.43-4.49,3.18-7.87,5.58-10.19,7.47C245.45,349.61,231.87,354.87,186.32,309.6Z"/></svg>