<!-- Generated by IcoMoon.io -->
<svg version="1.1" xmlns="http://www.w3.org/2000/svg" width="1024" height="1024" viewBox="0 0 1024 1024">
<title></title>
<g id="icomoon-ignore">
</g>
<path d="M505.186 463.15c-0.215-0.006-0.469-0.010-0.723-0.010-9.61 0-18.015 5.162-22.591 12.865l-0.067 0.121-122.455 209.115c-2.388 3.88-3.803 8.58-3.803 13.611 0 14.502 11.757 26.259 26.259 26.259 9.751 0 18.261-5.315 22.79-13.207l0.068-0.128 100.141-171.008 103.404 171.309c4.638 7.846 13.054 13.025 22.68 13.025 14.502 0 26.259-11.757 26.259-26.259 0-5.151-1.483-9.956-4.046-14.010l0.064 0.108-126.225-209.115c-4.556-7.453-12.549-12.414-21.719-12.675l-0.037-0.001z"></path>
<path d="M756.559 398.928c-0.361-0.018-0.785-0.028-1.211-0.028-4.836 0-9.366 1.307-13.257 3.587l0.124-0.067c-59.163 33.065-143.905 55.064-235.867 55.064-86.783 0-166.019-18.356-223.465-47.951-3.568-1.933-7.811-3.069-12.32-3.069-14.502 0-26.259 11.757-26.259 26.259 0 10.227 5.847 19.089 14.38 23.425l0.149 0.069c66.888 34.459 153.438 53.779 247.514 53.779 100.198 0 192.55-23.209 261.486-61.736 8.264-4.532 13.774-13.173 13.774-23.101 0-14.077-11.077-25.567-24.99-26.229l-0.059-0.002z"></path>
<path d="M506.35 201.271c-63.091 0-114.803 51.706-114.803 114.801 0 63.093 51.709 114.801 114.803 114.801 63.091 0 114.801-51.706 114.801-114.801s-51.709-114.801-114.801-114.801zM506.35 253.783c34.716 0 62.287 27.571 62.287 62.289s-27.574 62.289-62.287 62.289c-34.719 0-62.289-27.571-62.289-62.289s27.576-62.289 62.289-62.289z"></path>
<path d="M219.994 331.266c-41.242 0-75.238 33.996-75.238 75.238s33.997 75.238 75.238 75.238c41.243 0 75.238-33.997 75.238-75.238s-33.997-75.238-75.238-75.238zM219.994 383.779c12.858 0 22.725 9.867 22.725 22.725s-9.865 22.727-22.725 22.727c-12.858 0-22.727-9.867-22.727-22.727 0-12.856 9.869-22.725 22.727-22.725z"></path>
<path d="M382.008 672.252c-41.243 0-75.238 33.997-75.238 75.238s33.996 75.238 75.238 75.238c41.243 0 75.238-33.997 75.238-75.238s-33.996-75.238-75.238-75.238zM382.008 724.766c12.858 0 22.725 9.867 22.725 22.725s-9.865 22.727-22.725 22.727c-12.858 0-22.727-9.869-22.727-22.727s9.867-22.725 22.727-22.725z"></path>
<path d="M632.566 672.252c-41.243 0-75.238 33.997-75.238 75.238s33.996 75.238 75.238 75.238c41.243 0 75.238-33.997 75.238-75.238s-33.996-75.238-75.238-75.238zM632.566 724.766c12.858 0 22.727 9.867 22.727 22.725s-9.867 22.727-22.727 22.727c-12.858 0-22.725-9.869-22.725-22.727s9.865-22.725 22.725-22.725z"></path>
<path d="M804.006 331.266c-41.242 0-75.238 33.996-75.238 75.238s33.997 75.238 75.238 75.238c41.243 0 75.238-33.997 75.238-75.238s-33.997-75.238-75.238-75.238zM804.006 383.779c12.858 0 22.727 9.867 22.727 22.725s-9.867 22.727-22.727 22.727c-12.858 0-22.725-9.867-22.725-22.727 0-12.856 9.867-22.725 22.725-22.725z"></path>
</svg>
