<!-- Generated by IcoMoon.io -->
<svg version="1.1" xmlns="http://www.w3.org/2000/svg" width="1024" height="1024" viewBox="0 0 1024 1024">
<title></title>
<g id="icomoon-ignore">
</g>
<path d="M361.047 642.911v-209.849q-58.759 45.198-79.097 45.198c-6.851-0.036-12.997-3.011-17.254-7.727l-0.019-0.021c-4.674-4.545-7.577-10.892-7.587-17.915v-0.001c-0.044-0.499-0.069-1.079-0.069-1.664 0-6.346 2.905-12.010 7.459-15.741l0.035-0.028c7.502-5.138 16.090-9.938 25.105-13.951l1.043-0.414c17.076-7.726 31.795-17.017 45.031-28.022l-0.319 0.257c11.080-9.581 20.849-20.168 29.33-31.752l0.373-0.532q12.914-18.080 16.142-22.276c3.402-2.702 7.759-4.335 12.495-4.335 0.83 0 1.647 0.050 2.451 0.148l-0.097-0.008c0.202-0.005 0.439-0.009 0.679-0.009 7.754 0 14.64 3.722 18.97 9.474l0.045 0.059c4.688 6.629 7.493 14.878 7.493 23.782 0 0.833-0.025 1.661-0.073 2.481l0.005-0.112v263.925q0 46.489-32.284 46.489c-0.32 0.011-0.692 0.020-1.068 0.020-8.525 0-16.193-3.673-21.509-9.519l-0.022-0.024c-4.694-6.528-7.508-14.682-7.508-23.493 0-1.562 0.090-3.102 0.259-4.617l-0.018 0.185z"></path>
<path d="M540.549 421.442c0.006-16.163 4.696-31.228 12.788-43.914l-0.198 0.33c9.113-13.953 21.644-24.98 36.428-32.054l0.536-0.231c15.854-7.762 34.498-12.3 54.202-12.3 0.978 0 1.951 0.010 2.925 0.032l-0.145-0.002c0.88-0.020 1.917-0.029 2.957-0.029 16.247 0 31.886 2.608 46.518 7.433l-1.051-0.3c13.42 4.458 24.99 11.235 34.808 19.945l-0.102-0.091c8.73 7.723 15.721 17.199 20.458 27.895l0.203 0.514c4.287 9.839 6.781 21.303 6.781 33.347 0 0.136 0 0.274-0.001 0.41v-0.022c0.006 0.364 0.009 0.799 0.009 1.231 0 14.606-4.34 28.2-11.802 39.558l0.169-0.274c-8.775 12.637-20.559 22.608-34.343 29l-0.526 0.22c12.508 4.776 23.236 11.562 32.34 20.069l-0.056-0.052c8.306 7.892 14.931 17.469 19.336 28.191l0.198 0.544c4.378 10.558 6.927 22.817 6.941 35.668v0.005c0.005 0.42 0.009 0.912 0.009 1.408 0 19.008-5.222 36.794-14.309 52.004l0.256-0.463c-9.942 16.167-24.078 28.901-40.904 36.878l-0.582 0.249c-17.832 8.49-38.75 13.446-60.83 13.446-1.315 0-2.626-0.018-3.933-0.052l0.194 0.004c-1.225 0.035-2.664 0.056-4.107 0.056-22.339 0-43.517-4.96-62.499-13.837l0.907 0.381c-16.925-8.371-30.619-21.080-39.954-36.695l-0.238-0.432c-9.226-15.010-14.689-33.192-14.689-52.649 0-0.104 0-0.208 0-0.312v0.017c-0.078-1.365-0.124-2.962-0.124-4.571 0-37.591 24.432-69.48 58.282-80.65l0.601-0.172c-27.977-10.796-47.466-37.473-47.466-68.699 0-0.363 0.002-0.728 0.007-1.090l-0.001 0.054zM706.49 574.63c0.008-0.412 0.016-0.9 0.016-1.386 0-11.005-2.753-21.368-7.61-30.438l0.17 0.347c-4.832-8.833-11.945-15.894-20.555-20.53l-0.27-0.132c-8.422-4.481-18.416-7.111-29.025-7.111-0.352 0-0.703 0.003-1.053 0.008l0.052-0.001c-0.298-0.005-0.649-0.008-1.001-0.008-15.087 0-28.732 6.179-38.541 16.144l-0.006 0.006c-10.049 10.547-16.235 24.86-16.235 40.613 0 1.159 0.032 2.31 0.1 3.452l-0.006-0.157c-0.011 0.487-0.021 1.061-0.021 1.637 0 11.214 2.817 21.768 7.778 30.997l-0.172-0.35c4.817 8.946 11.794 16.178 20.25 21.169l0.251 0.136c8.369 4.762 18.384 7.567 29.056 7.567s20.687-2.806 29.352-7.721l-0.296 0.154c8.668-5.185 15.592-12.47 20.199-21.178l0.142-0.294c4.701-8.911 7.463-19.477 7.463-30.689 0-0.787-0.015-1.572-0.042-2.354l0.003 0.112zM648.702 377.051c-0.587-0.026-1.279-0.042-1.971-0.042-12.892 0-24.572 5.194-33.062 13.603l0.003-0.003c-8.213 8.658-13.263 20.387-13.263 33.295 0 0.553 0.008 1.104 0.027 1.65l-0.002-0.079c-0.002 0.18-0.004 0.394-0.004 0.605 0 12.484 5.268 23.737 13.701 31.657l0.023 0.022c8.642 8.125 20.308 13.118 33.143 13.118 0.721 0 1.436-0.017 2.148-0.047l-0.101 0.003c0.171 0.002 0.373 0.003 0.574 0.003 6.932 0 13.56-1.305 19.65-3.681l-0.369 0.126c5.95-2.249 11.049-5.48 15.358-9.544l-0.023 0.021c4.162-4.009 7.496-8.846 9.743-14.248l0.103-0.28c2.247-5.387 3.553-11.645 3.553-18.207 0-0.126 0-0.251-0.001-0.377v0.020c0.005-0.277 0.008-0.604 0.008-0.931 0-8.67-2.277-16.806-6.27-23.845l0.125 0.242c-4.186-7.333-10.168-13.213-17.363-17.156l-0.23-0.117c-6.875-3.681-15.037-5.844-23.706-5.844-0.632 0-1.263 0.010-1.89 0.033l0.092-0.002z"></path>
<path d="M865.007 268.091h-44.875v-44.875c0-9.895-8.022-17.917-17.917-17.917s-17.917 8.022-17.917 17.917v0 44.875h-44.875c-9.895 0-17.917 8.022-17.917 17.917s8.022 17.917 17.917 17.917h44.875v44.875c0 9.895 8.022 17.917 17.917 17.917s17.917-8.022 17.917-17.917v-44.875h44.875c9.895 0 17.917-8.022 17.917-17.917s-8.022-17.917-17.917-17.917v0z"></path>
<path d="M511.653 915.555c-222.879 0-403.556-180.677-403.556-403.556s180.677-403.556 403.556-403.556v0c0.323-0.001 0.704-0.001 1.086-0.001 63.822 0 124.152 14.959 177.673 41.564l-2.324-1.044c10.851 5.363 18.183 16.352 18.183 29.056 0 17.841-14.463 32.307-32.307 32.307-5.14 0-9.998-1.201-14.312-3.335l0.187 0.083c-43.032-21.486-93.743-34.060-147.39-34.060-0.28 0-0.56 0-0.839 0.001h0.044c-187.218 0-338.987 151.769-338.987 338.987s151.769 338.987 338.987 338.987c187.218 0 338.987-151.769 338.987-338.987v0c0-0.186 0.001-0.408 0.001-0.631 0-15.714-1.057-31.181-3.101-46.335l0.196 1.768c-0.179-1.285-0.282-2.77-0.282-4.279 0-17.986 14.58-32.566 32.566-32.566 16.477 0 30.096 12.237 32.265 28.12l0.020 0.17c2.29 16.147 3.597 34.799 3.597 53.754 0 222.879-180.677 403.556-403.556 403.556-0.244 0-0.485 0-0.729-0.001h0.040z"></path>
</svg>
