<!-- Generated by IcoMoon.io -->
<svg version="1.1" xmlns="http://www.w3.org/2000/svg" width="1024" height="1024" viewBox="0 0 1024 1024">
<title></title>
<g id="icomoon-ignore">
</g>
<path d="M848.498 426.667h-682.667c-15.709 0-28.444-12.735-28.444-28.444s12.735-28.444 28.444-28.444v0h682.667c15.709 0 28.444 12.735 28.444 28.444s-12.735 28.444-28.444 28.444v0z"></path>
<path d="M848.498 881.778h-682.667c-15.709 0-28.444-12.735-28.444-28.444s12.735-28.444 28.444-28.444v0h682.667c15.709 0 28.444 12.735 28.444 28.444s-12.735 28.444-28.444 28.444v0z"></path>
<path d="M507.164 654.222h-341.333c-15.709 0-28.444-12.735-28.444-28.444s12.735-28.444 28.444-28.444v0h341.333c15.709 0 28.444 12.735 28.444 28.444s-12.735 28.444-28.444 28.444v0z"></path>
<path d="M507.164 199.111h-341.333c-15.709 0-28.444-12.735-28.444-28.444s12.735-28.444 28.444-28.444v0h341.333c15.709 0 28.444 12.735 28.444 28.444s-12.735 28.444-28.444 28.444v0z"></path>
</svg>
