<!-- Generated by IcoMoon.io -->
<svg version="1.1" xmlns="http://www.w3.org/2000/svg" width="1024" height="1024" viewBox="0 0 1024 1024">
<title></title>
<g id="icomoon-ignore">
</g>
<path d="M358.258 521.102h-99.556c-0.042 0-0.092 0-0.142 0-24.978 0-45.227 20.249-45.227 45.227 0 0 0 0 0 0v0 166.969c0.081 24.867 20.217 45.004 45.077 45.084h99.564c24.867-0.081 45.004-20.217 45.084-45.077v-166.977c0-0.001 0-0.001 0-0.002 0-24.828-20.006-44.983-44.777-45.224h-0.023zM346.453 721.493h-76.231v-143.502h76.8z"></path>
<path d="M766.009 437.618h-99.556c-24.867 0.081-45.004 20.217-45.084 45.077v250.604c0.081 24.867 20.217 45.004 45.077 45.084h99.564c24.684-0.32 44.58-20.366 44.658-45.077v-250.604c-0.078-24.718-19.974-44.764-44.627-45.084h-0.030zM754.204 722.062h-76.8v-227.556h76.373z"></path>
<path d="M562.062 479.431h-99.556c-24.867 0.081-45.004 20.217-45.084 45.077v208.79c0.081 24.867 20.217 45.004 45.077 45.084h99.564c24.867-0.081 45.004-20.217 45.084-45.077v-208.79c-0.081-24.867-20.217-45.004-45.077-45.084h-0.008zM550.258 721.209h-76.658v-184.889h76.8z"></path>
<path d="M499.484 394.098l65.422 54.471c4.896 4.104 11.264 6.596 18.214 6.596 7.406 0 14.151-2.83 19.212-7.469l-0.021 0.019 138.382-126.862c3.561 11.931 14.435 20.48 27.307 20.48 15.709 0 28.444-12.735 28.444-28.444v-56.889c0-15.709-12.735-28.444-28.444-28.444v0h-56.889c-15.643 0.087-28.291 12.788-28.291 28.444 0 11.315 6.607 21.087 16.174 25.669l0.171 0.074-116.907 107.236-66.276-55.182c-4.893-4.092-11.252-6.578-18.191-6.578-7.831 0-14.924 3.165-20.067 8.285l-67.839 67.839-37.12-28.444c-4.7-3.565-10.647-5.71-17.095-5.71-8.774 0-16.619 3.972-21.837 10.216l-0.037 0.045-71.111 85.333c-4.518 5.015-7.281 11.687-7.281 19.005 0 15.709 12.735 28.444 28.444 28.444 9.125 0 17.246-4.297 22.451-10.977l0.048-0.064 53.76-64.569 35.271 27.022c4.682 3.52 10.593 5.638 16.998 5.638 7.859 0 14.974-3.187 20.122-8.34v0z"></path>
</svg>
