<!-- Generated by IcoMoon.io -->
<svg version="1.1" xmlns="http://www.w3.org/2000/svg" width="1024" height="1024" viewBox="0 0 1024 1024">
<title></title>
<g id="icomoon-ignore">
</g>
<path d="M304.668 536.448h-134.26c-0.054 0-0.122 0-0.19 0-33.684 0-60.989 27.305-60.989 60.989 0 0 0 0 0 0v0 225.169c0.111 33.537 27.261 60.688 60.791 60.798h134.268c33.537-0.111 60.688-27.261 60.798-60.791v-225.177c0-0.001 0-0.001 0-0.002 0-33.48-26.978-60.661-60.383-60.986h-0.029zM288.753 806.691h-102.805v-193.524h103.572z"></path>
<path d="M854.547 423.864h-134.26c-33.537 0.111-60.688 27.261-60.798 60.791v337.958c0.111 33.537 27.261 60.688 60.791 60.798h134.268c33.288-0.434 60.12-27.464 60.222-60.791v-337.958c-0.108-33.334-26.934-60.37-60.185-60.798h-0.042zM838.632 807.458h-103.572v-306.876h102.995z"></path>
<path d="M579.512 480.257h-134.26c-33.537 0.111-60.688 27.261-60.798 60.791v281.57c0.111 33.537 27.261 60.688 60.791 60.798h134.268c33.537-0.111 60.688-27.261 60.798-60.791v-281.57c-0.111-33.537-27.261-60.688-60.791-60.798h-0.008zM563.598 806.305h-103.376v-249.335h103.572z"></path>
<path d="M495.124 365.176l88.228 73.455c6.6 5.532 15.188 8.894 24.562 8.894 9.986 0 19.083-3.814 25.908-10.073l186.589-171.057c4.803 16.089 19.469 27.62 36.823 27.62 21.187 0 38.356-17.175 38.356-38.356v-76.719c0-21.187-17.175-38.356-38.356-38.356v0h-76.719c-21.097 0.117-38.155 17.246-38.155 38.356 0 15.257 8.911 28.437 21.814 34.615l0.231 0.098-157.659 144.616-89.376-74.418c-6.597-5.52-15.176-8.87-24.533-8.87-10.561 0-20.126 4.269-27.063 11.171l-91.485 91.485-50.056-38.356c-6.338-4.807-14.361-7.702-23.053-7.702-11.834 0-22.409 5.358-29.451 13.774l-0.049 0.063-95.897 115.075c-6.090 6.761-9.819 15.761-9.819 25.629 0 21.187 17.175 38.356 38.356 38.356 12.305 0 23.258-5.797 30.275-14.805l0.066-0.088 72.498-87.075 47.565 36.442c6.314 4.744 14.283 7.606 22.92 7.606 10.601 0 20.194-4.297 27.136-11.25v0z"></path>
</svg>
