<!-- Generated by IcoMoon.io -->
<svg version="1.1" xmlns="http://www.w3.org/2000/svg" width="1024" height="1024" viewBox="0 0 1024 1024">
<title></title>
<g id="icomoon-ignore">
</g>
<path d="M512 847.36c-0.039 0-0.085 0-0.13 0-30.742 0-58.564-12.505-78.656-32.706l-0.005-0.005-282.169-282.453c-4.251-4.941-6.84-11.419-6.84-18.502 0-15.709 12.735-28.444 28.444-28.444 7.083 0 13.56 2.589 18.539 6.871l-0.037-0.031 282.453 282.453c9.921 9.855 23.591 15.946 38.684 15.946s28.763-6.091 38.688-15.949l282.45-282.45c4.941-4.251 11.419-6.84 18.502-6.84 15.709 0 28.444 12.735 28.444 28.444 0 7.083-2.589 13.56-6.871 18.539l0.031-0.037-281.884 282.453c-20.097 20.209-47.92 32.715-78.665 32.715-0.344 0-0.689-0.002-1.032-0.005h0.053z"></path>
</svg>
