<!-- Generated by IcoMoon.io -->
<svg version="1.1" xmlns="http://www.w3.org/2000/svg" width="1024" height="1024" viewBox="0 0 1024 1024">
<title></title>
<g id="icomoon-ignore">
</g>
<path d="M853.333 540.444c-0.049 0-0.107 0-0.164 0-7.814 0-14.892-3.151-20.033-8.251l0.002 0.002-282.453-283.307c-9.921-9.855-23.591-15.946-38.684-15.946s-28.763 6.091-38.688 15.949l-282.45 282.45c-4.941 4.251-11.419 6.84-18.502 6.84-15.709 0-28.444-12.735-28.444-28.444 0-7.083 2.589-13.56 6.871-18.539l-0.031 0.037 282.453-282.453c20.427-19.698 48.263-31.833 78.933-31.833s58.506 12.135 78.968 31.866l-0.034-0.033 282.453 282.453c5.554 5.204 9.015 12.585 9.015 20.775 0 15.709-12.735 28.444-28.444 28.444-0.269 0-0.538-0.004-0.806-0.011l0.039 0.001z"></path>
</svg>
