<!-- Generated by IcoMoon.io -->
<svg version="1.1" xmlns="http://www.w3.org/2000/svg" width="1024" height="1024" viewBox="0 0 1024 1024">
<title></title>
<g id="icomoon-ignore">
</g>
<path d="M512 881.778c-0.049 0-0.107 0-0.165 0-15.709 0-28.444-12.735-28.444-28.444 0-7.896 3.217-15.040 8.412-20.194l282.455-282.455c9.855-9.921 15.946-23.591 15.946-38.684s-6.091-28.763-15.949-38.688l0.003 0.003-281.6-283.307c-4.251-4.941-6.84-11.419-6.84-18.502 0-15.709 12.735-28.444 28.444-28.444 7.083 0 13.56 2.589 18.539 6.871l-0.037-0.031 282.453 282.453c20.163 20.218 32.63 48.12 32.63 78.933s-12.467 58.715-32.633 78.936l-282.45 282.45c-5.19 5.584-12.567 9.075-20.759 9.102h-0.005z"></path>
</svg>
