<!-- Generated by IcoMoon.io -->
<svg version="1.1" xmlns="http://www.w3.org/2000/svg" width="1024" height="1024" viewBox="0 0 1024 1024">
<title></title>
<g id="icomoon-ignore">
</g>
<path d="M665.535 881.073c-0.049 0-0.107 0-0.164 0-7.814 0-14.892-3.151-20.033-8.251l0.002 0.002-282.453-282.738c-20.231-20.187-32.748-48.098-32.748-78.933s12.516-58.746 32.746-78.931l282.455-282.455c4.941-4.251 11.419-6.84 18.502-6.84 15.709 0 28.444 12.735 28.444 28.444 0 7.083-2.589 13.56-6.871 18.539l0.031-0.037-282.453 282.738c-9.855 9.921-15.946 23.591-15.946 38.684s6.091 28.763 15.949 38.688l282.45 282.45c5.197 5.156 8.414 12.3 8.414 20.196 0 15.668-12.667 28.376-28.319 28.444h-0.006z"></path>
</svg>
