<!-- Generated by IcoMoon.io -->
<svg version="1.1" xmlns="http://www.w3.org/2000/svg" width="1024" height="1024" viewBox="0 0 1024 1024">
<title></title>
<g id="icomoon-ignore">
</g>
<path fill="#000" d="M873.815 504.593l-282.738-282.453c-20.427-19.698-48.263-31.833-78.933-31.833s-58.506 12.135-78.968 31.866l0.034-0.033-282.453 282.453c-4.251 4.941-6.84 11.419-6.84 18.502 0 15.709 12.735 28.444 28.444 28.444 7.083 0 13.56-2.589 18.539-6.871l-0.037 0.031 282.453-282.453c4.466-4.456 9.747-8.097 15.599-10.679l0.329-0.13v553.813c0 15.709 12.735 28.444 28.444 28.444s28.444-12.735 28.444-28.444v0-546.418l4.551 3.698 282.453 282.453c4.941 4.251 11.419 6.84 18.502 6.84 15.709 0 28.444-12.735 28.444-28.444 0-7.083-2.589-13.56-6.871-18.539l0.031 0.037z"></path>
</svg>
