<!-- Generated by IcoMoon.io -->
<svg version="1.1" xmlns="http://www.w3.org/2000/svg" width="1024" height="1024" viewBox="0 0 1024 1024">
<title></title>
<g id="icomoon-ignore">
</g>
<path d="M874.098 491.804c-5.141-5.112-12.228-8.271-20.053-8.271s-14.912 3.16-20.055 8.273l-282.452 282.452c-4.494 4.406-9.767 8.040-15.589 10.671l-0.34 0.138v-553.529c0-15.709-12.735-28.444-28.444-28.444s-28.444 12.735-28.444 28.444v0 546.418l-4.551-3.698-282.738-282.453c-4.941-4.251-11.419-6.84-18.502-6.84-15.709 0-28.444 12.735-28.444 28.444 0 7.083 2.589 13.56 6.871 18.539l-0.031-0.037 282.453 282.453c20.187 20.231 48.098 32.748 78.933 32.748s58.746-12.516 78.931-32.746l282.455-282.455c5.112-5.141 8.271-12.228 8.271-20.053s-3.16-14.912-8.273-20.055l0.001 0.001z"></path>
</svg>
