<!-- Generated by IcoMoon.io -->
<svg version="1.1" xmlns="http://www.w3.org/2000/svg" width="1024" height="1024" viewBox="0 0 1024 1024">
<title></title>
<g id="icomoon-ignore">
</g>
<path fill="#000" d="M801.403 431.658l-282.453-282.453c-4.941-4.251-11.419-6.84-18.502-6.84-15.709 0-28.444 12.735-28.444 28.444 0 7.083 2.589 13.56 6.871 18.539l-0.031-0.037 282.453 282.453c4.505 4.491 8.229 9.762 10.953 15.593l0.141 0.336h-554.098c-15.709 0-28.444 12.735-28.444 28.444s12.735 28.444 28.444 28.444v0h546.702c-1.241 1.698-2.453 3.181-3.738 4.597l0.041-0.045-282.453 282.453c-6.102 5.248-9.943 12.978-9.943 21.605 0 15.709 12.735 28.444 28.444 28.444 8.627 0 16.357-3.841 21.573-9.905l0.031-0.037 282.453-282.453c20.231-20.187 32.748-48.098 32.748-78.933s-12.516-58.746-32.746-78.931l-0.002-0.002z"></path>
</svg>
