<!-- Generated by IcoMoon.io -->
<svg version="1.1" xmlns="http://www.w3.org/2000/svg" width="1024" height="1024" viewBox="0 0 1024 1024">
<title></title>
<g id="icomoon-ignore">
</g>
<path fill="#000" d="M805.649 477.725h-546.418c1.237-1.697 2.45-3.18 3.737-4.595l-0.039 0.043 282.453-282.453c4.251-4.941 6.84-11.419 6.84-18.502 0-15.709-12.735-28.444-28.444-28.444-7.083 0-13.56 2.589-18.539 6.871l0.037-0.031-282.738 282.453c-20.163 20.218-32.63 48.12-32.63 78.933s12.467 58.715 32.633 78.936l282.45 282.45c4.941 4.251 11.419 6.84 18.502 6.84 15.709 0 28.444-12.735 28.444-28.444 0-7.083-2.589-13.56-6.871-18.539l0.031 0.037-282.453-282.738c-4.406-4.494-8.040-9.767-10.671-15.589l-0.138-0.34h553.813c15.709 0 28.444-12.735 28.444-28.444s-12.735-28.444-28.444-28.444v0z"></path>
</svg>
