<!-- Generated by IcoMoon.io -->
<svg version="1.1" xmlns="http://www.w3.org/2000/svg" width="1024" height="1024" viewBox="0 0 1024 1024">
<title></title>
<g id="icomoon-ignore">
</g>
<path d="M546.767 505.267c3.718 19.178-8.816 37.737-27.992 41.453s-37.737-8.816-41.453-27.992c-3.718-19.178 8.816-37.737 27.992-41.453s37.737 8.816 41.453 27.992z"></path>
<path d="M930.841 511.974c0-65.153-52.744-122.706-137.597-162.262 0-2.327 0-4.809 0.775-7.136 7.136-93.075-18.615-162.262-72.6-193.443s-128.6-16.444-203.215 33.973c-72.754-53.208-145.819-71.202-201.665-41.574-59.103 31.024-85.164 108.588-78.649 205.078-89.198 39.557-144.733 98.505-144.733 165.365s52.744 122.706 137.597 162.262c0 2.327 0 4.809-0.775 7.136-7.136 93.075 18.615 162.262 72.6 193.443 18.078 10.448 39.764 16.611 62.891 16.611 0.631 0 1.264-0.004 1.893-0.015l-0.095 0.001c42.659 0 90.44-18.15 138.683-50.727 49.020 35.99 98.195 56 142.25 56 0.391 0.004 0.855 0.006 1.317 0.006 21.293 0 41.35-5.283 58.934-14.61l-0.682 0.331c59.103-31.024 85.164-108.588 78.649-205.078 88.887-39.557 144.423-98.505 144.423-165.365zM690.397 202.963c29.785 17.219 44.832 62.051 42.194 124.102-26.563-8.713-58.784-16.439-91.827-21.694l-3.729-0.488c-21.853-29.281-44.642-55.17-69.331-79.108l-0.166-0.161c49.952-30.714 94.471-39.402 122.86-22.648zM711.339 599.93c3.102 12.566 5.74 24.82 7.757 36.765-11.014 3.567-22.803 6.98-34.748 10.082 5.43-8.532 10.703-17.219 15.512-26.216s7.757-13.652 11.478-20.477zM646.339 589.537c-16.341 28.174-32.076 51.877-49.051 74.598l1.427-1.998c-26.022 3.157-56.157 4.96-86.71 4.963h-0.004c-31.785-0.021-63.089-1.993-93.822-5.802l3.695 0.374c-30.966-44.058-58.424-94.385-79.948-147.74l-1.803-5.058c13.185-30.037 25.735-54.48 39.509-78.12l-1.969 3.66c16.341-28.175 32.076-51.877 49.052-74.598l-1.427 1.998c26.567-3.336 57.312-5.24 88.5-5.24s61.933 1.903 92.124 5.601l-3.624-0.362c15.158 21.797 30.598 47.159 44.542 73.437l1.997 4.126c10.929 20.049 22.598 44.965 32.92 70.569l1.828 5.131c-13.081 30.065-25.532 54.513-39.207 78.165l1.975-3.704zM506.727 761.417c-11.014-10.082-22.028-21.096-33.041-33.198 12.41 0 24.976 0.931 37.85 0.931 10.239 0 20.477 0 31.024 0-11.789 11.478-23.58 22.338-35.214 32.266zM319.954 613.425q8.997 16.908 18.46 33.041c-13.806-3.567-26.682-7.447-39.246-11.789 2.792-13.806 6.051-27.768 10.082-42.038q5.274 10.393 10.703 20.788zM312.663 423.862c-3.102-12.566-5.74-24.82-7.757-36.765 11.014-3.567 22.648-6.98 34.748-10.082-5.43 8.532-10.703 17.219-15.512 26.216s-7.757 13.806-11.478 20.632zM516.656 262.376q16.444 15.512 33.041 33.198c-12.41-0.775-24.976-0.775-37.696-0.775-10.239 0-20.477 0-31.024 0 12.256-11.478 24.044-22.338 35.679-32.42zM703.892 410.366c-5.894-11.324-12.099-22.184-18.46-33.041 13.806 3.567 26.682 7.447 39.246 11.789-2.792 13.806-6.051 27.768-10.082 42.038q-5.119-10.239-10.549-20.632zM345.24 196.602c8.661-4.504 18.914-7.147 29.782-7.147 0.437 0 0.873 0.004 1.308 0.014l-0.066-0.001c34.424 2.707 65.535 14.985 91.211 34.146l-0.461-0.33c-27.27 24.598-51.962 50.865-74.37 79.027l-1.020 1.328c-35.879 5.358-67.304 12.553-97.802 21.875l4.726-1.243c-0.931-64.532 15.823-111.382 46.693-127.669zM155.21 511.974c0-34.904 33.508-71.669 91.058-100.676 7.555 37.504 16.821 69.787 28.339 100.978l-1.501-4.644c-11.936 28.412-22.966 62.593-31.216 97.846l-0.894 4.538c-54.76-28.543-85.785-64.222-85.785-98.040zM333.605 820.985c-29.785-17.219-44.832-62.051-42.194-124.102 26.613 8.723 58.887 16.448 91.988 21.696l3.725 0.486c21.78 29.227 44.466 55.062 69.038 78.972l0.147 0.143c-49.795 30.87-94.317 39.557-122.706 22.803zM678.762 827.5c-29.010 15.512-73.219 5.43-121.929-26.682 27.196-24.601 51.837-50.865 74.206-79.013l1.029-1.342c35.879-5.358 67.304-12.553 97.802-21.875l-4.726 1.243c1.242 64.378-15.512 111.225-46.382 127.515zM777.732 612.806c-7.555-37.504-16.821-69.787-28.339-100.978l1.501 4.644c11.936-28.412 22.966-62.593 31.216-97.846l0.894-4.538c54.76 28.389 85.785 64.068 85.785 97.884s-33.508 71.669-91.058 100.676z"></path>
</svg>
