<!-- Generated by IcoMoon.io -->
<svg version="1.1" xmlns="http://www.w3.org/2000/svg" width="1024" height="1024" viewBox="0 0 1024 1024">
<title></title>
<g id="icomoon-ignore">
</g>
<path d="M543.874 505.851c3.408 17.582-8.082 34.597-25.664 38.005s-34.597-8.082-38.005-25.664c-3.408-17.582 8.082-34.597 25.664-38.005s34.597 8.082 38.005 25.664z"></path>
<path d="M896 512c0-59.733-48.356-112.498-126.151-148.764 0-2.133 0-4.409 0.711-6.542 6.542-85.333-17.067-148.764-66.56-177.351s-117.902-15.076-186.311 31.147c-66.702-48.782-133.689-65.28-184.889-38.116-54.187 28.444-78.080 99.556-72.107 188.018-81.778 36.267-132.693 90.311-132.693 151.609s48.356 112.498 126.151 148.764c0 2.133 0 4.409-0.711 6.542-6.542 85.333 17.067 148.764 66.56 177.351 16.574 9.578 36.456 15.229 57.659 15.229 0.579 0 1.158-0.004 1.735-0.013l-0.087 0.001c39.111 0 82.916-16.64 127.147-46.507 44.942 32.996 90.027 51.342 130.418 51.342 0.359 0.004 0.783 0.006 1.207 0.006 19.521 0 37.91-4.843 54.032-13.394l-0.626 0.303c54.187-28.444 78.080-99.556 72.107-188.018 81.493-36.267 132.409-90.311 132.409-151.609zM675.556 228.693c27.307 15.787 41.102 56.889 38.684 113.778-24.353-7.989-53.894-15.071-84.189-19.89l-3.419-0.448c-20.035-26.845-40.928-50.58-63.563-72.528l-0.152-0.147c45.796-28.16 86.613-36.124 112.64-20.764zM694.756 592.64c2.844 11.52 5.262 22.756 7.111 33.707-10.098 3.271-20.907 6.4-31.858 9.244 4.978-7.822 9.813-15.787 14.222-24.036s7.111-12.516 10.524-18.773zM635.164 583.111c-14.981 25.83-29.408 47.561-44.971 68.392l1.309-1.832c-23.858 2.895-51.485 4.548-79.498 4.551h-0.004c-29.141-0.019-57.841-1.827-86.018-5.32l3.387 0.342c-28.39-40.394-53.564-86.533-73.298-135.45l-1.653-4.638c12.089-27.539 23.595-49.948 36.223-71.622l-1.805 3.356c14.981-25.831 29.408-47.561 44.972-68.392l-1.309 1.832c24.357-3.058 52.544-4.804 81.138-4.804s56.781 1.745 84.46 5.135l-3.322-0.332c13.898 19.983 28.052 43.237 40.836 67.329l1.831 3.782c10.019 18.381 20.718 41.225 30.182 64.699l1.676 4.705c-11.993 27.565-23.408 49.979-35.945 71.663l1.811-3.396zM507.164 740.693c-10.098-9.244-20.196-19.342-30.293-30.436 11.378 0 22.898 0.853 34.702 0.853 9.387 0 18.773 0 28.444 0-10.809 10.524-21.618 20.48-32.284 29.582zM335.929 605.013q8.249 15.502 16.924 30.293c-12.658-3.271-24.462-6.827-35.982-10.809 2.56-12.658 5.547-25.458 9.244-38.542q4.836 9.529 9.813 19.058zM329.244 431.218c-2.844-11.52-5.262-22.756-7.111-33.707 10.098-3.271 20.764-6.4 31.858-9.244-4.978 7.822-9.813 15.787-14.222 24.036s-7.111 12.658-10.524 18.916zM516.267 283.164q15.076 14.222 30.293 30.436c-11.378-0.711-22.898-0.711-34.56-0.711-9.387 0-18.773 0-28.444 0 11.236-10.524 22.044-20.48 32.711-29.724zM687.929 418.844c-5.404-10.382-11.093-20.338-16.924-30.293 12.658 3.271 24.462 6.827 35.982 10.809-2.56 12.658-5.547 25.458-9.244 38.542q-4.693-9.387-9.671-18.916zM359.111 222.862c7.941-4.13 17.34-6.553 27.304-6.553 0.401 0 0.801 0.004 1.2 0.012l-0.060-0.001c31.56 2.481 60.083 13.739 83.623 31.306l-0.423-0.302c-25.002 22.552-47.64 46.633-68.184 72.453l-0.936 1.218c-32.895 4.912-61.706 11.509-89.666 20.055l4.332-1.139c-0.853-59.164 14.507-102.116 42.809-117.049zM184.889 512c0-32 30.72-65.707 83.484-92.302 6.927 34.384 15.421 63.981 25.981 92.578l-1.377-4.258c-10.944 26.048-21.056 57.387-28.62 89.706l-0.82 4.16c-50.204-26.169-78.649-58.88-78.649-89.884zM348.444 795.307c-27.307-15.787-41.102-56.889-38.684-113.778 24.399 7.997 53.989 15.080 84.336 19.892l3.415 0.446c19.968 26.795 40.768 50.482 63.296 72.402l0.135 0.131c-45.653 28.302-86.471 36.267-112.498 20.907zM664.889 801.28c-26.596 14.222-67.129 4.978-111.787-24.462 24.934-22.555 47.525-46.633 68.034-72.441l0.943-1.23c32.895-4.912 61.706-11.509 89.666-20.055l-4.332 1.139c1.138 59.022-14.222 101.973-42.524 116.907zM755.627 604.444c-6.927-34.384-15.421-63.981-25.981-92.578l1.377 4.258c10.944-26.048 21.056-57.387 28.62-89.706l0.82-4.16c50.204 26.027 78.649 58.738 78.649 89.742s-30.72 65.707-83.484 92.302z"></path>
</svg>
