<!-- Generated by IcoMoon.io -->
<svg version="1.1" xmlns="http://www.w3.org/2000/svg" width="1024" height="1024" viewBox="0 0 1024 1024">
<title></title>
<g id="icomoon-ignore">
</g>
<path d="M910.314 437.391h-19.229l-73.528-144.483 62.018-4.468c14.127-1.055 25.19-12.776 25.19-27.082 0-14.997-12.157-27.153-27.153-27.153-0.691 0-1.376 0.026-2.054 0.076l0.090-0.006-275.291 20.447c-14.051-35.868-48.357-60.806-88.487-60.806-45.106 0-82.853 31.506-92.436 73.712l-0.121 0.635-275.019 20.176c-14.524 0.562-26.086 12.472-26.086 27.082 0 14.967 12.134 27.101 27.101 27.101 0.357 0 0.713-0.007 1.066-0.021l-0.050 0.002h2.031l50.373-3.791-55.79 146.244h-29.384c-14.957 0-27.082 12.125-27.082 27.082v0c0 81.404 65.991 147.395 147.395 147.395s147.395-65.991 147.395-147.395v0c0-14.957-12.125-27.082-27.082-27.082v0h-19.634l-76.643-150.577 165.608-12.322c10.641 27.497 32.941 48.421 60.669 56.966l0.671 0.178v207.043h-22.614c-39.454 0.169-72.72 26.471-83.391 62.484l-0.157 0.618-13.541 47.529c-19.565 9.178-35.060 24.323-44.441 43.063l-0.245 0.54-22.885 51.321c-1.504 3.264-2.381 7.081-2.381 11.103 0 14.957 12.125 27.082 27.082 27.082 0.028 0 0.055 0 0.083 0h379.146c0.006 0 0.012 0 0.018 0 14.957 0 27.082-12.125 27.082-27.082 0-3.97-0.854-7.742-2.39-11.139l0.069 0.17-22.885-51.321c-9.612-19.326-25.108-34.518-44.116-43.496l-0.57-0.242-13.541-47.529c-10.828-36.63-44.094-62.933-83.529-63.101h-22.634v-207.043c32.902-10.076 57.813-36.696 65.284-69.916l0.12-0.633 147.869-10.968-53.081 139.609h-29.384c-14.957 0-27.082 12.125-27.082 27.082v0c0 81.404 65.991 147.395 147.395 147.395s147.395-65.991 147.395-147.395v0c0 0 0 0 0 0 0-14.957-12.125-27.082-27.082-27.082-0.048 0-0.095 0-0.143 0h0.008zM233.259 605.842c-41.799-0.049-77.165-27.537-89.056-65.418l-0.179-0.662h178.336c-12.187 38.102-47.165 65.258-88.526 65.538h-0.033zM200.49 485.055l31.144-81.246 41.706 81.246zM364.066 775.918l5.958-13.541c5.823-13.541 30.603-27.082 64.726-27.082h154.368c34.124 0 58.904 13.541 64.726 27.082l5.958 13.541zM593.182 664.339l4.74 16.791h-171.972l4.74-16.927c4.114-13.792 16.675-23.679 31.548-23.697h99.258c0.017 0 0.037 0 0.057 0 14.941 0 27.557 9.958 31.571 23.6l0.059 0.232zM511.935 329.062c-22.435 0-40.624-18.188-40.624-40.624s18.188-40.624 40.624-40.624c22.435 0 40.624 18.188 40.624 40.624v0c0 22.435-18.188 40.624-40.624 40.624v0zM788.445 355.061l41.706 81.246h-72.851zM790.069 557.229c-41.427-0.301-76.418-27.515-88.377-65.013l-0.182-0.662h177.795c-12.208 38.367-47.523 65.674-89.214 65.674-0.008 0-0.015 0-0.022 0h0.001z"></path>
</svg>
