<!-- Generated by IcoMoon.io -->
<svg version="1.1" xmlns="http://www.w3.org/2000/svg" width="1024" height="1024" viewBox="0 0 1024 1024">
<title></title>
<g id="icomoon-ignore">
</g>
<path fill="#000" d="M512 142.222c-204.223 0-369.778 165.555-369.778 369.778s165.555 369.778 369.778 369.778c204.223 0 369.778-165.555 369.778-369.778v0c0-204.223-165.555-369.778-369.778-369.778v0zM824.889 512c-0.16 76.989-28.101 147.421-74.326 201.834l0.371-0.448-448.853-432.64c55.282-50.163 129.015-80.87 209.921-80.87 172.535 0 312.453 139.649 312.888 312.082v0.041zM199.111 512c0.058-71.644 24.34-137.605 65.097-190.148l-0.528 0.708 447.431 430.933c-53.656 44.517-123.229 71.53-199.111 71.53-172.804 0-312.889-140.085-312.889-312.889 0-0.047 0-0.094 0-0.142v0.007z"></path>
</svg>
