<!-- Generated by IcoMoon.io -->
<svg version="1.1" xmlns="http://www.w3.org/2000/svg" width="1024" height="1024" viewBox="0 0 1024 1024">
<title></title>
<g id="icomoon-ignore">
</g>
<path d="M867.556 512c0-0.070 0-0.153 0-0.236 0-85.044-30.002-163.081-79.999-224.104l0.497 0.625v-0.711l-16.782-18.773-19.911-21.191-0.853 0.996c-62.837-56.987-146.569-91.941-238.461-92.16h-0.045c-0.488-0.002-1.066-0.004-1.645-0.004-88.107 0-168.668 32.305-230.485 85.717l0.45-0.38h-0.853l-38.542 38.827 0.853 0.853c-52.908 61.699-85.114 142.502-85.114 230.827s32.206 169.127 85.515 231.306l-0.401-0.479-0.853 0.853 19.2 19.342 19.342 18.916 0.853-0.853c61.515 53.546 142.456 86.187 231.020 86.187 0.232 0 0.464 0 0.696-0.001h-0.036c91.869-0.215 175.545-35.113 238.667-92.288l-0.303 0.27 0.853 0.996 37.547-39.964v-0.711c49.070-60.251 78.793-137.957 78.793-222.606 0-0.44-0.001-0.88-0.002-1.32v0.068zM736.853 673.422c-1.138-1.849-2.133-3.698-3.129-5.404-3.556-5.831-6.969-11.52-9.956-17.493-1.422-2.844-2.702-5.689-4.124-8.533-2.418-5.12-4.836-10.24-6.969-15.502s-2.56-6.4-3.698-9.671-3.698-10.24-5.262-15.36-1.991-6.684-2.987-10.098-2.702-10.667-3.84-16.071-1.422-6.542-1.991-9.956c-0.996-5.831-1.849-11.804-2.56-17.778 0-2.702-0.711-5.404-0.996-8.107h120.462c-5.412 58.935-27.185 111.932-60.678 155.439l0.518-0.701c-5.404-6.827-10.24-13.653-14.791-20.764zM694.187 458.809c0-3.271 1.28-6.684 1.991-9.956s2.418-10.809 3.84-16.071 1.849-6.684 2.987-10.098 3.413-10.382 5.262-15.36 2.418-6.542 3.698-9.671 4.551-10.382 6.969-15.502c1.422-2.844 2.702-5.831 4.124-8.533 3.129-5.973 6.542-11.804 9.956-17.493 1.138-1.849 1.991-3.698 3.129-5.404 4.551-7.111 9.387-14.222 14.222-20.764 32.975 42.806 54.748 95.803 60.073 153.564l0.087 1.174h-119.467c0-2.702 0-5.404 0.996-8.107 0.711-5.973 1.564-11.947 2.56-17.778zM711.964 290.987q-7.964 10.098-15.218 20.622l-2.702 4.124c-4.836 7.253-9.387 14.222-14.222 22.329l-1.707 3.129c-4.409 7.964-8.533 16.071-12.231 24.32v0c-3.84 8.391-7.111 16.924-10.24 25.6l-1.138 3.271c-2.844 8.249-5.404 16.64-7.68 25.173l-1.138 4.409q-3.271 12.658-5.547 25.458l-0.711 4.409c-1.422 8.676-2.56 17.493-3.413 26.453 0 1.138 0 2.133 0 3.271v0.853h-96.711v-272.071c67.791 6.040 128.1 34.030 174.731 76.718l-0.224-0.202zM484.409 212.48v272.213h-82.916v-1.991c0-1.138 0-2.418 0-3.556-0.853-9.244-2.133-18.347-3.556-27.449l-0.853-4.693q-2.418-13.369-5.831-26.453l-1.28-4.409c-2.418-8.818-5.12-17.493-8.249-26.027l-1.138-3.129c-7.817-20.239-16.229-37.379-25.921-53.669l0.89 1.615-1.564-2.844c-4.693-7.964-9.671-15.644-15.076-23.182l-2.56-3.556q-7.964-11.093-16.924-21.76l-1.138-1.564c45.061-38.406 102.311-63.759 165.22-69.6l1.18-0.088zM345.316 549.12c-0.711 6.258-1.564 12.516-2.702 18.631 0 3.556-1.564 6.969-2.276 10.382s-2.56 11.093-4.124 16.64-2.133 7.111-3.271 10.667-3.556 10.524-5.689 15.787-2.702 6.827-4.124 10.24-4.693 10.382-7.253 15.36-3.129 6.4-4.836 9.529c-2.987 5.262-6.116 10.524-9.387 15.644-1.707 2.702-3.271 5.404-4.978 7.964-4.409 6.542-9.102 12.8-14.222 18.916l-2.56 3.413c-36.978-44.552-61.371-100.757-67.042-162.383l-0.087-1.172h134.116s0 0 0 0.853c-0.569 3.556-1.138 6.542-1.564 9.529zM279.893 321.564l2.56 3.413c4.978 6.116 9.671 12.516 14.222 18.916 1.707 2.56 3.413 5.404 4.978 7.964 3.271 5.12 6.4 10.382 9.387 15.644 1.707 3.129 3.271 6.4 4.836 9.529s4.978 10.24 7.253 15.36 2.844 6.827 4.124 10.24 3.84 10.524 5.689 15.787 2.276 6.969 3.271 10.667 2.844 11.093 4.124 16.64 1.564 6.969 2.276 10.382c1.138 6.116 1.991 12.373 2.702 18.631 0 2.987 0.853 5.973 1.138 8.96 0 0 0 0 0 0.853h-133.973c5.758-62.798 30.15-119.003 67.526-164.048l-0.397 0.492zM319.289 740.693q8.96-10.667 16.924-21.76l2.56-3.556c5.262-7.538 10.382-15.36 15.076-23.182l1.564-2.844c8.656-14.651 16.932-31.799 23.792-49.649l0.812-2.404 1.138-3.129c3.129-8.533 5.831-17.209 8.249-26.027l1.28-4.409q3.413-13.084 5.831-26.453l0.853-4.693c1.564-9.102 2.844-18.204 3.556-27.449 0-1.138 0-2.418 0-3.556v-1.991h83.2v272.071c-64.127-5.857-121.432-31.167-166.966-69.899l0.424 0.352zM539.307 811.804v-272.498h96.853v1.138c0 1.138 0 2.133 0 3.271 0.853 8.818 1.991 17.636 3.413 26.453l0.711 4.409q2.276 12.8 5.547 25.458l1.138 4.409c2.276 8.533 4.836 16.924 7.68 25.173l1.138 3.271c3.129 8.676 6.542 17.209 10.24 25.6v0c3.698 8.249 7.822 16.356 12.231 24.32l1.707 3.129c4.267 7.538 8.818 14.933 14.222 22.329l2.702 4.124q7.253 10.524 15.218 20.622l1.422 1.991c-46.322 42.483-106.521 70.511-173.067 76.573l-1.155 0.085z"></path>
</svg>
