<!-- Generated by IcoMoon.io -->
<svg version="1.1" xmlns="http://www.w3.org/2000/svg" width="1024" height="1024" viewBox="0 0 1024 1024">
<title></title>
<g id="icomoon-ignore">
</g>
<path d="M915.43 512.006c0-0.079 0-0.174 0-0.269 0-96.525-34.052-185.098-90.799-254.359l0.563 0.709v-0.807l-19.047-21.308-22.599-24.053-0.967 1.131c-71.321-64.679-166.357-104.352-270.654-104.601h-0.051c-0.554-0.002-1.21-0.004-1.867-0.004-100.002 0-191.438 36.667-261.601 97.288l0.51-0.431h-0.967l-43.744 44.068 0.967 0.967c-60.051 70.027-96.604 161.741-96.604 261.988s36.553 191.96 97.059 262.533l-0.455-0.545-0.967 0.967 21.792 21.952 21.952 21.469 0.967-0.967c69.819 60.776 161.686 97.821 262.208 97.821 0.262 0 0.527 0 0.789-0.001h-0.042c104.271-0.245 199.242-39.853 270.887-104.747l-0.345 0.306 0.967 1.131 42.617-45.358v-0.807c55.694-68.384 89.431-156.581 89.431-252.657 0-0.5-0.001-1-0.002-1.497v0.077zM767.081 695.22c-1.291-2.098-2.421-4.196-3.552-6.133-4.036-6.617-7.911-13.074-11.3-19.854-1.614-3.228-3.068-6.457-4.682-9.685-2.745-5.81-5.49-11.623-7.911-17.596s-2.905-7.264-4.196-10.976-4.196-11.623-5.973-17.433-2.261-7.587-3.389-11.46-3.068-12.107-4.359-18.24-1.614-7.424-2.261-11.3c-1.131-6.617-2.098-13.397-2.905-20.178 0-3.068-0.807-6.133-1.131-9.202h136.725c-6.144 66.891-30.854 127.043-68.868 176.424l0.587-0.797c-6.133-7.748-11.623-15.495-16.789-23.566zM718.655 451.633c0-3.712 1.454-7.587 2.261-11.3s2.745-12.267 4.359-18.24 2.098-7.587 3.389-11.46 3.875-11.783 5.973-17.433 2.745-7.424 4.196-10.976 5.166-11.783 7.911-17.596c1.614-3.228 3.068-6.617 4.682-9.685 3.552-6.78 7.424-13.397 11.3-19.854 1.291-2.098 2.261-4.196 3.552-6.133 5.166-8.071 10.653-16.142 16.142-23.566 37.427 48.584 62.14 108.736 68.182 174.294l0.099 1.333h-135.595c0-3.068 0-6.133 1.131-9.202 0.807-6.78 1.774-13.561 2.905-20.178zM738.832 261.155q-9.038 11.46-17.273 23.406l-3.068 4.682c-5.49 8.231-10.653 16.142-16.142 25.344l-1.938 3.552c-5.003 9.038-9.685 18.24-13.881 27.602v0c-4.359 9.525-8.071 19.21-11.623 29.056l-1.291 3.712c-3.228 9.362-6.133 18.887-8.718 28.572l-1.291 5.003q-3.712 14.368-6.297 28.896l-0.807 5.003c-1.614 9.846-2.905 19.854-3.875 30.023 0 1.291 0 2.421 0 3.712v0.967h-109.767v-308.8c76.944 6.856 145.392 38.623 198.32 87.074l-0.254-0.229zM480.557 172.052v308.962h-94.109v-2.261c0-1.291 0-2.745 0-4.036-0.967-10.492-2.421-20.825-4.036-31.154l-0.967-5.326q-2.745-15.175-6.617-30.023l-1.454-5.003c-2.745-10.009-5.81-19.854-9.362-29.54l-1.291-3.552c-8.873-22.972-18.419-42.425-29.419-60.914l1.010 1.834-1.774-3.228c-5.326-9.038-10.976-17.756-17.11-26.311l-2.905-4.036q-9.038-12.59-19.21-24.697l-1.291-1.774c51.145-43.59 116.123-72.366 187.525-78.996l1.339-0.1zM322.687 554.136c-0.807 7.104-1.774 14.205-3.068 21.145 0 4.036-1.774 7.911-2.582 11.783s-2.905 12.59-4.682 18.887-2.421 8.071-3.712 12.107-4.036 11.946-6.457 17.917-3.068 7.748-4.682 11.623-5.326 11.783-8.231 17.433-3.552 7.264-5.49 10.816c-3.389 5.973-6.941 11.946-10.653 17.756-1.938 3.068-3.712 6.133-5.65 9.038-5.003 7.424-10.332 14.528-16.142 21.469l-2.905 3.875c-41.97-50.567-69.657-114.359-76.093-184.304l-0.099-1.331h152.221s0 0 0 0.967c-0.647 4.036-1.291 7.424-1.774 10.816zM248.432 295.86l2.905 3.875c5.65 6.941 10.976 14.205 16.142 21.469 1.938 2.905 3.875 6.133 5.65 9.038 3.712 5.81 7.264 11.783 10.653 17.756 1.938 3.552 3.712 7.264 5.49 10.816s5.65 11.623 8.231 17.433 3.228 7.748 4.682 11.623 4.359 11.946 6.457 17.917 2.582 7.911 3.712 12.107 3.228 12.59 4.682 18.887 1.774 7.911 2.582 11.783c1.291 6.941 2.261 14.044 3.068 21.145 0 3.389 0.967 6.78 1.291 10.169 0 0 0 0 0 0.967h-152.060c6.535-71.276 34.221-135.068 76.643-186.194l-0.451 0.558zM293.147 771.572q10.169-12.107 19.21-24.697l2.905-4.036c5.973-8.555 11.783-17.433 17.11-26.311l1.774-3.228c9.826-16.628 19.218-36.092 27.005-56.351l0.923-2.728 1.291-3.552c3.552-9.685 6.617-19.531 9.362-29.54l1.454-5.003q3.875-14.851 6.617-30.023l0.967-5.326c1.774-10.332 3.228-20.661 4.036-31.154 0-1.291 0-2.745 0-4.036v-2.261h94.432v308.8c-72.785-6.649-137.824-35.376-189.505-79.334l0.481 0.4zM542.868 852.283v-309.284h109.927v1.291c0 1.291 0 2.421 0 3.712 0.967 10.009 2.261 20.018 3.875 30.023l0.807 5.003q2.582 14.528 6.297 28.896l1.291 5.003c2.582 9.685 5.49 19.21 8.718 28.572l1.291 3.712c3.552 9.846 7.424 19.531 11.623 29.056v0c4.196 9.362 8.878 18.564 13.881 27.602l1.938 3.552c4.843 8.555 10.009 16.949 16.142 25.344l3.068 4.682q8.231 11.946 17.273 23.406l1.614 2.261c-52.574 48.219-120.9 80.030-196.431 86.911l-1.311 0.097z"></path>
</svg>
