<!-- Generated by IcoMoon.io -->
<svg version="1.1" xmlns="http://www.w3.org/2000/svg" width="1024" height="1024" viewBox="0 0 1024 1024">
<title></title>
<g id="icomoon-ignore">
</g>
<path fill="#000" d="M512 924.444c31.419 0 56.889-25.47 56.889-56.889v0h-113.778c0 31.419 25.47 56.889 56.889 56.889v0z"></path>
<path fill="#000" d="M796.444 668.444v0c-19.911 0-56.889-32.427-56.889-139.378 0-8.818 0-18.489 0-28.444 1.707-69.689 4.267-164.978-56.889-227.556-22.943-22.769-51.787-39.624-84.034-48.067l-1.299-0.289v-39.822c0-47.128-38.205-85.333-85.333-85.333s-85.333 38.205-85.333 85.333v0 39.253c-33.547 8.732-62.391 25.586-85.345 48.367l0.012-0.012c-61.724 63.431-59.164 158.72-56.889 227.556 0 10.24 0 19.911 0 28.444 0 107.804-37.831 139.947-56.889 139.947-47.128 0-85.333 38.205-85.333 85.333s38.205 85.333 85.333 85.333v0h568.889c47.128 0 85.333-38.205 85.333-85.333s-38.205-85.333-85.333-85.333v0zM483.556 184.889c0-15.709 12.735-28.444 28.444-28.444s28.444 12.735 28.444 28.444v0 28.444c-9.102 0-18.773 0-28.444 0s-19.342 0-28.444 0zM796.444 782.222h-568.889c-15.709 0-28.444-12.735-28.444-28.444s12.735-28.444 28.444-28.444v0c4.551 0 113.778-2.276 113.778-195.982 0-9.102 0-19.342 0-29.867-1.422-59.449-3.698-142.222 41.529-187.164 30.575-26.526 70.763-42.69 114.726-42.69 5.073 0 10.095 0.215 15.059 0.637l-0.647-0.044c4.563-0.422 9.868-0.662 15.23-0.662 43.847 0 83.939 16.080 114.7 42.664l-0.223-0.189c44.942 46.364 42.951 128.853 40.96 187.164 0 10.809 0 20.764 0 29.867 0 193.991 108.942 196.267 113.778 196.267 15.709 0 28.444 12.735 28.444 28.444s-12.735 28.444-28.444 28.444v0z"></path>
</svg>
