<svg id="Layer_2" data-name="Layer 2" xmlns="http://www.w3.org/2000/svg" viewBox="0 0 36 36"><defs><style>.cls-1{fill:#4f4f4f;}</style></defs><title>notification</title><path class="cls-1" d="M18,32a2,2,0,0,0,2-2H16A2,2,0,0,0,18,32Z"/><path class="cls-1" d="M28,23h0c-.7,0-2-1.14-2-4.9,0-.31,0-.65,0-1,.06-2.45.15-5.8-2-8a6.56,6.56,0,0,0-3-1.7V6a3,3,0,0,0-6,0V7.38a6.56,6.56,0,0,0-3,1.7c-2.17,2.23-2.08,5.58-2,8,0,.36,0,.7,0,1C10,21.87,8.67,23,8,23a3,3,0,0,0,0,6H28a3,3,0,0,0,0-6ZM17,6a1,1,0,0,1,2,0V7c-.32,0-.66,0-1,0s-.68,0-1,0ZM28,27H8a1,1,0,1,1,0-2c.16,0,4-.08,4-6.89,0-.32,0-.68,0-1.05-.05-2.09-.13-5,1.46-6.58A6.17,6.17,0,0,1,18,9a6.17,6.17,0,0,1,4.56,1.47C24.14,12.1,24.07,15,24,17.05c0,.38,0,.73,0,1.05C24,24.92,27.83,25,28,25a1,1,0,1,1,0,2Z"/></svg>