<!-- Generated by IcoMoon.io -->
<svg version="1.1" xmlns="http://www.w3.org/2000/svg" width="1024" height="1024" viewBox="0 0 1024 1024">
<title></title>
<g id="icomoon-ignore">
</g>
<path fill="#f2c94c" d="M532.319 160.67c-5.212-5.184-12.391-8.384-20.318-8.384-15.872 0-28.748 12.838-28.812 28.694v28.319h57.625v-28.812c-0.092-7.773-3.33-14.776-8.488-19.814l-0.007-0.007z"></path>
<path fill="#f2c94c" d="M820.111 736.086c-4.951-5.415-11.953-8.879-19.769-9.155l-0.049-0.002c-4.662 0-115.418-2.333-115.418-199.022v-28.812c1.501-60.29 3.828-144.231-41.968-189.695-17.204-14.906-37.632-26.629-60.046-33.957l-1.24-0.352c-16.499-5.542-35.502-8.737-55.25-8.737-5.054 0-10.066 0.21-15.014 0.619l0.647-0.041c-4.533-0.407-9.802-0.639-15.125-0.639-44.532 0-85.252 16.318-116.51 43.304l0.228-0.195c-45.633 46.966-43.636 130.571-41.468 189.695v30.145c0 196.689-110.752 199.854-115.418 199.854-0.049 0-0.109-0.001-0.169-0.001-15.819 0-28.644 12.825-28.644 28.644 0 0.060 0 0.117 0.001 0.175v-0.011c0.464 7.537 3.826 14.2 8.972 18.971l0.017 0.015c4.866 4.83 11.446 7.936 18.746 8.322l0.070 0.004c14.156-1.501 133.234-13.155 289.788-13.324v0c4.855-0.034 10.595-0.050 16.34-0.050 93.963 0 186.777 4.92 278.197 14.51l-11.41-0.972h5.161c0.049 0 0.109 0.001 0.169 0.001 15.819 0 28.644-12.825 28.644-28.644 0-0.060 0-0.117-0.001-0.175v0.011c-0.178-8.158-3.8-15.432-9.466-20.461l-0.030-0.025zM358.112 451.122s-8.66-148.391 138.068-163.879c0 0-128.242 79.775-138.068 163.879z"></path>
<path fill="#f2c94c" d="M512.001 771.723v-504.799z"></path>
<path fill="#f2c94c" d="M512.001 266.924v0z"></path>
<path fill="#4f4f4f" d="M512.001 929.941c0.249 0.005 0.538 0.007 0.832 0.007 31.732 0 57.456-25.724 57.456-57.456 0-0.063 0-0.119 0-0.182v0.012h-116.582c0 0.049 0 0.109 0 0.169 0 31.732 25.724 57.456 57.456 57.456 0.060 0 0.117 0 0.174 0h-0.011z"></path>
<path fill="#4f4f4f" d="M800.294 670.63s-57.625-6.162-57.625-141.397v-28.812c1.664-70.617 4.329-166.544-57.794-230.499-23.21-23.104-52.439-40.182-85.132-48.679l-1.306-0.288v-40.472c0-47.737-38.699-86.437-86.437-86.437s-86.437 38.699-86.437 86.437v0 39.803c-33.971 8.857-63.187 25.923-86.45 48.978l0.014-0.014c-62.623 64.287-59.958 160.883-57.794 230.668v28.812c0 108.919-38.307 141.898-57.625 141.898-47.737 0-86.437 38.699-86.437 86.437s38.699 86.437 86.437 86.437h576.58c47.737 0 86.437-38.699 86.437-86.437s-38.699-86.437-86.437-86.437v0zM512.001 209.3h-28.812v-28.812c0-15.914 12.899-28.812 28.812-28.812s28.812 12.899 28.812 28.812v0 28.812zM512.001 785.879h-288.293c-15.873-0.092-28.722-12.939-28.812-28.801v-0.011c0-0.049-0.001-0.109-0.001-0.169 0-15.819 12.825-28.644 28.644-28.644 0.060 0 0.117 0 0.175 0.001h-0.011c4.662 0 115.418-2.333 115.418-199.022v-30.145c-1.501-60.29-3.828-144.231 41.968-189.695 17.204-14.906 37.632-26.629 60.046-33.957l1.24-0.352c16.499-5.542 35.502-8.737 55.25-8.737 5.054 0 10.066 0.21 15.014 0.619l-0.647-0.041c4.533-0.407 9.802-0.639 15.125-0.639 44.532 0 85.252 16.318 116.51 43.304l-0.228-0.195c45.633 46.966 43.636 130.571 41.468 189.695v30.145c0 196.357 110.42 199.854 115.418 199.854 0.049 0 0.109-0.001 0.169-0.001 15.819 0 28.644 12.825 28.644 28.644 0 0.060 0 0.117-0.001 0.175v-0.011c-0.092 15.873-12.939 28.722-28.801 28.812h-0.011z"></path>
<path fill="#fffdf8" d="M507.503 187.815c5.421-0.359 9.679-4.845 9.679-10.328 0-5.713-4.635-10.348-10.348-10.348-0.234 0-0.466 0.010-0.696 0.022l0.032-0.002c-5.421 0.359-9.679 4.845-9.679 10.328 0 5.713 4.635 10.348 10.348 10.348 0.234 0 0.466-0.010 0.696-0.022l-0.032 0.002z"></path>
<path fill="#af913e" d="M512.001 785.879v-13.491c-166.544 0-291.12 13.491-291.12 13.491z"></path>
<path fill="#af913e" d="M795.127 785.879c-81.88-9.026-176.833-14.174-272.981-14.174-3.567 0-7.138 0.009-10.701 0.020l0.556-0.002v14.156z"></path>
<path fill="#fffdf8" d="M496.181 287.242c-146.727 15.488-138.068 163.879-138.068 163.879 9.827-84.104 138.068-163.879 138.068-163.879z"></path>
</svg>
