<svg xmlns="http://www.w3.org/2000/svg" viewBox="0 0 45 50.19"><defs><style>.a{fill:#f2c94c;}.b{fill:#4f4f4f;}.c{fill:#fffdf8;}.d{fill:#af913e;}</style></defs><title>bell-color</title><path class="a" d="M23.72,4a1.73,1.73,0,0,0-2.95,1.22V6.92h3.46V5.19A1.69,1.69,0,0,0,23.72,4Z"/><path class="a" d="M41,38.55A1.69,1.69,0,0,0,39.81,38v0c-.28,0-6.93-.14-6.93-11.95V24.32c.09-3.62.23-8.66-2.52-11.39a10.54,10.54,0,0,0-3.68-2.06,10.75,10.75,0,0,0-4.18-.49,10.71,10.71,0,0,0-7.89,2.55c-2.74,2.82-2.62,7.84-2.49,11.39v1.81c0,11.81-6.65,12-6.93,12a1.72,1.72,0,0,0-1.73,1.73A1.69,1.69,0,0,0,4,41a1.73,1.73,0,0,0,1.13.5c.85-.09,8-.79,17.4-.8v0a158.21,158.21,0,0,1,17,.81h.31a1.72,1.72,0,0,0,1.73-1.73A1.69,1.69,0,0,0,41,38.55ZM13.26,21.44s-.52-8.91,8.29-9.84C21.55,11.6,13.85,16.39,13.26,21.44Z"/><path class="a" d="M22.5,40.69V10.38h0Z"/><path class="a" d="M22.5,10.38V8.65h0v1.73Z"/><path class="b" d="M22.5,50.19A3.45,3.45,0,0,0,26,46.73H19a3.45,3.45,0,0,0,3.46,3.46Z"/><path class="b" d="M39.81,34.62s-3.46-.37-3.46-8.49V24.4c.1-4.24.26-10-3.47-13.84a11.28,11.28,0,0,0-5.19-2.94V5.19a5.19,5.19,0,1,0-10.38,0V7.58a11.37,11.37,0,0,0-5.19,2.94c-3.76,3.86-3.6,9.66-3.47,13.85V26.1c0,6.54-2.3,8.52-3.46,8.52A5.19,5.19,0,1,0,5.19,45H39.81a5.19,5.19,0,1,0,0-10.38ZM22.5,6.92H20.77V5.19a1.73,1.73,0,0,1,3.46,0V6.92Zm0,34.62H5.19a1.74,1.74,0,0,1-1.73-1.73,1.72,1.72,0,0,1,1.73-1.73c.28,0,6.93-.14,6.93-11.95V24.32c-.09-3.62-.23-8.66,2.52-11.39a10.54,10.54,0,0,1,3.68-2.06,10.75,10.75,0,0,1,4.18-.49v0a10.71,10.71,0,0,1,7.89,2.55c2.74,2.82,2.62,7.84,2.49,11.39v1.81c0,11.79,6.63,12,6.93,12a1.72,1.72,0,0,1,1.73,1.73,1.74,1.74,0,0,1-1.73,1.73Z"/><path class="c" d="M22.23,5.63a.62.62,0,1,0-.08-1.24.62.62,0,0,0,.08,1.24Z"/><path class="d" d="M22.5,41.54v-.81c-10,0-17.48.81-17.48.81Z"/><path class="d" d="M39.5,41.54a158.24,158.24,0,0,0-17-.85v.85Z"/><path class="c" d="M21.55,11.6c-8.81.93-8.29,9.84-8.29,9.84C13.85,16.39,21.55,11.6,21.55,11.6Z"/></svg>