<!-- Generated by IcoMoon.io -->
<svg version="1.1" xmlns="http://www.w3.org/2000/svg" width="1024" height="1024" viewBox="0 0 1024 1024">
<title></title>
<g id="icomoon-ignore">
</g>
<path fill="#f2c94c" d="M536.986 81.92c-6.405-6.372-15.235-10.31-24.986-10.31-19.52 0-35.354 15.786-35.43 35.289v34.823h70.861v-35.43c-0.116-9.561-4.092-18.172-10.438-24.364l-0.007-0.007z"></path>
<path fill="#f2c94c" d="M890.88 789.504c-6.089-6.657-14.701-10.919-24.311-11.262l-0.061-0.002c-5.734 0-141.926-2.867-141.926-244.736v-35.43c1.843-74.138 4.71-177.357-51.61-233.267-21.158-18.332-46.278-32.743-73.84-41.757l-1.526-0.432c-20.291-6.814-43.656-10.745-67.94-10.745-6.218 0-12.376 0.258-18.464 0.763l0.797-0.053c-5.572-0.503-12.052-0.79-18.599-0.79-54.762 0-104.836 20.068-143.27 53.252l0.282-0.238c-56.115 57.754-53.658 160.563-50.995 233.267v37.069c0 241.869-136.192 245.76-141.926 245.76-0.061 0-0.133-0.001-0.205-0.001-19.455 0-35.226 15.771-35.226 35.226 0 0.072 0 0.144 0.001 0.217v-0.011c0.572 9.264 4.707 17.464 11.037 23.327l0.023 0.021c5.982 5.94 14.074 9.76 23.054 10.236l0.088 0.004c17.408-1.843 163.84-16.179 356.352-16.384v0c5.971-0.040 13.031-0.062 20.095-0.062 115.545 0 229.677 6.048 342.097 17.845l-14.032-1.194h6.349c0.061 0 0.133 0.001 0.205 0.001 19.455 0 35.226-15.771 35.226-35.226 0-0.072 0-0.144-0.001-0.217v0.011c-0.22-10.030-4.673-18.978-11.638-25.159l-0.036-0.031zM322.765 439.091s-10.65-182.477 169.779-201.523c0 0-157.696 98.099-169.779 201.523z"></path>
<path fill="#f2c94c" d="M512 833.331v-620.749z"></path>
<path fill="#f2c94c" d="M512 212.582v0z"></path>
<path fill="#4f4f4f" d="M512 1027.891c0.305 0.005 0.664 0.007 1.024 0.007 39.022 0 70.656-31.634 70.656-70.656 0-0.075 0-0.149 0-0.224v0.012h-143.36c0 0.061 0 0.133 0 0.205 0 39.022 31.634 70.656 70.656 70.656 0.072 0 0.144 0 0.216 0h-0.011z"></path>
<path fill="#4f4f4f" d="M866.509 709.018s-70.861-7.578-70.861-173.875v-35.43c2.048-86.835 5.325-204.8-71.066-283.443-28.544-28.41-64.487-49.41-104.686-59.857l-1.606-0.354v-49.766c0-58.703-47.588-106.291-106.291-106.291s-106.291 47.588-106.291 106.291v0 48.947c-41.778 10.891-77.701 31.875-106.308 60.228l0.017-0.017c-77.005 79.053-73.728 197.837-71.066 283.648v35.43c0 133.939-47.104 174.49-70.861 174.49-58.703 0-106.291 47.588-106.291 106.291s47.588 106.291 106.291 106.291h709.018c58.703 0 106.291-47.588 106.291-106.291s-47.588-106.291-106.291-106.291v0zM512 141.722h-35.43v-35.43c0-19.568 15.863-35.43 35.43-35.43s35.43 15.863 35.43 35.43v0 35.43zM512 850.739h-354.509c-19.521-0.115-35.315-15.909-35.43-35.419v-0.011c0-0.061-0.001-0.133-0.001-0.205 0-19.455 15.771-35.226 35.226-35.226 0.072 0 0.144 0 0.217 0.001h-0.011c5.734 0 141.926-2.867 141.926-244.736v-37.069c-1.843-74.138-4.71-177.357 51.61-233.267 21.158-18.332 46.278-32.743 73.84-41.757l1.526-0.432c20.291-6.814 43.656-10.745 67.94-10.745 6.218 0 12.376 0.258 18.464 0.763l-0.797-0.053c5.572-0.503 12.052-0.79 18.599-0.79 54.762 0 104.836 20.068 143.27 53.252l-0.282-0.238c56.115 57.754 53.658 160.563 50.995 233.267v37.069c0 241.459 135.782 245.76 141.926 245.76 0.061 0 0.133-0.001 0.205-0.001 19.455 0 35.226 15.771 35.226 35.226 0 0.072 0 0.144-0.001 0.217v-0.011c-0.115 19.521-15.909 35.315-35.419 35.43h-0.011z"></path>
<path fill="#fffdf8" d="M506.47 115.302c6.666-0.443 11.905-5.959 11.905-12.698 0-7.027-5.697-12.724-12.724-12.724-0.288 0-0.574 0.010-0.858 0.028l0.038-0.002c-6.666 0.443-11.905 5.959-11.905 12.698 0 7.027 5.697 12.724 12.724 12.724 0.288 0 0.574-0.010 0.858-0.028l-0.038 0.002z"></path>
<path fill="#af913e" d="M512 850.739v-16.589c-204.8 0-357.99 16.589-357.99 16.589z"></path>
<path fill="#af913e" d="M860.16 850.739c-100.689-11.1-217.446-17.432-335.681-17.432-4.389 0-8.776 0.009-13.161 0.026l0.682-0.002v17.408z"></path>
<path fill="#fffdf8" d="M492.544 237.568c-180.429 19.046-169.779 201.523-169.779 201.523 12.083-103.424 169.779-201.523 169.779-201.523z"></path>
</svg>
