<!-- Generated by IcoMoon.io -->
<svg version="1.1" xmlns="http://www.w3.org/2000/svg" width="1024" height="1024" viewBox="0 0 1024 1024">
<title></title>
<g id="icomoon-ignore">
</g>
<path d="M777.102 483.556h-179.769v-273.636h-170.667v273.636h-174.364c-60.796 0-110.080 49.284-110.080 110.080v0 306.916c0 31.419 25.47 56.889 56.889 56.889v0h629.76c31.419 0 56.889-25.47 56.889-56.889v0-309.476c-0.16-59.418-48.364-107.523-107.804-107.523-0.3 0-0.6 0.001-0.9 0.004h0.046zM483.556 266.809h56.889v216.747h-56.889zM252.302 540.444h524.8c27.963 0 50.631 22.668 50.631 50.631v0 145.92c-1.394 3.185-2.227 6.894-2.275 10.791v0.018c0 15.709-12.735 28.444-28.444 28.444s-28.444-12.735-28.444-28.444v0-44.373c-0.721-46.58-38.65-84.063-85.333-84.063-47.134 0-85.343 38.209-85.343 85.343 0 0.45 0.003 0.899 0.010 1.348l-0.001-0.068v45.511c0 15.709-12.735 28.444-28.444 28.444s-28.444-12.735-28.444-28.444v0-44.373c0-47.128-38.205-85.333-85.333-85.333s-85.333 38.205-85.333 85.333v0 44.373c0.033 0.529 0.051 1.146 0.051 1.769 0 16.127-12.542 29.324-28.405 30.369l-0.091 0.005c-15.947-1.058-28.481-14.251-28.481-30.373 0-0.522 0.013-1.042 0.039-1.558l-0.003 0.072v-44.658c0.008-0.43 0.012-0.937 0.012-1.445 0-47.532-37.976-86.194-85.242-87.3l-0.103-0.002c-10.251 0.094-20.014 2.069-28.997 5.596l0.552-0.191v-30.151c0-0.001 0-0.002 0-0.003 0-29.177 23.491-52.867 52.592-53.188h0.030zM199.111 900.551v-193.422c-0.023-0.443-0.036-0.963-0.036-1.485 0-16.121 12.534-29.315 28.389-30.368l0.092-0.005c15.947 1.058 28.481 14.251 28.481 30.373 0 0.522-0.013 1.042-0.039 1.558l0.003-0.072v44.373c-0.011 0.515-0.017 1.121-0.017 1.729 0 47.534 37.979 86.197 85.248 87.3l0.103 0.002c47.369-1.108 85.345-39.77 85.345-87.302 0-0.508-0.004-1.015-0.013-1.521l0.001 0.076v-44.658c0-15.709 12.735-28.444 28.444-28.444s28.444 12.735 28.444 28.444v0 44.373c0 47.128 38.205 85.333 85.333 85.333s85.333-38.205 85.333-85.333v0-48.071c0-15.709 12.735-28.444 28.444-28.444s28.444 12.735 28.444 28.444v0 44.373c-0.011 0.515-0.017 1.121-0.017 1.729 0 47.534 37.979 86.197 85.248 87.3l0.103 0.002c11.105-0.089 21.651-2.381 31.255-6.459l-0.535 0.202v69.12z"></path>
<path d="M510.009 200.818s1.707 0 2.56 0c102.116-67.698 15.36-161.849 0-182.898-0.572-0.605-1.38-0.981-2.276-0.981s-1.704 0.376-2.274 0.98l-0.001 0.001c-106.667 91.022-24.462 165.547 1.991 182.898z"></path>
</svg>
