<svg id="Layer_2" data-name="Layer 2" xmlns="http://www.w3.org/2000/svg" viewBox="0 0 36 36"><defs><style>.cls-1{fill:#4f4f4f;}</style></defs><title>birthday</title><path class="cls-1" d="M27.32,17H21V7.38H15V17H8.87A3.87,3.87,0,0,0,5,20.87V31.66a2,2,0,0,0,2,2H29.14a2,2,0,0,0,2-2V20.78A3.79,3.79,0,0,0,27.32,17ZM17,9.38h2V17H17ZM8.87,19H27.32a1.78,1.78,0,0,1,1.78,1.78v5.13a1,1,0,0,0-.08.38,1,1,0,1,1-2,0V24.73a3,3,0,1,0-6,.09v1.6a1,1,0,1,1-2,0V24.86a3,3,0,1,0-6,0v1.56a1.07,1.07,0,0,1-1,1.13,1.07,1.07,0,0,1-1-1.12V24.86a3.07,3.07,0,0,0-3-3.12,2.86,2.86,0,0,0-1,.19V20.87A1.87,1.87,0,0,1,8.87,19ZM7,31.66v-4H7v-2.8a1.07,1.07,0,0,1,1-1.12,1.07,1.07,0,0,1,1,1.12v1.56a3.07,3.07,0,0,0,3,3.13,3.07,3.07,0,0,0,3-3.12V24.86a1,1,0,1,1,2,0v1.56a3,3,0,1,0,6,0V24.73a1,1,0,1,1,2,0v1.56a3.07,3.07,0,0,0,3,3.13,2.87,2.87,0,0,0,1.08-.22v2.43Z"/><path class="cls-1" d="M17.93,7.06s.06,0,.09,0c3.59-2.38.54-5.69,0-6.43a.11.11,0,0,0-.16,0C14.11,3.83,17,6.45,17.93,7.06Z"/></svg>