<svg id="Layer_2" data-name="Layer 2" xmlns="http://www.w3.org/2000/svg" viewBox="0 0 36 36"><defs><style>.cls-1{fill:#4f4f4f;}</style></defs><title>bookmarcs</title><path class="cls-1" d="M11,33a1.89,1.89,0,0,1-.8-.18A2,2,0,0,1,9,30.94V9.34A3.25,3.25,0,0,1,12.15,6h11.7A3.25,3.25,0,0,1,27,9.34V30.93a2,2,0,0,1-1.18,1.87,1.88,1.88,0,0,1-2-.33l-5.41-4.88a.27.27,0,0,0-.37,0l-5.76,4.95A1.92,1.92,0,0,1,11,33ZM12.15,8A1.27,1.27,0,0,0,11,9.34v21.6l-.08.08,5.77-5a2.26,2.26,0,0,1,3,0L25,30.87V9.34A1.27,1.27,0,0,0,23.85,8Z"/></svg>