<!-- Generated by IcoMoon.io -->
<svg version="1.1" xmlns="http://www.w3.org/2000/svg" width="1024" height="1024" viewBox="0 0 1024 1024">
<title></title>
<g id="icomoon-ignore">
</g>
<path d="M312.889 895.995c-8.269-0.023-16.092-1.908-23.079-5.26l0.323 0.14c-20.269-9.001-34.149-28.953-34.149-52.146 0-0.467 0.006-0.933 0.017-1.398l-0.001 0.069v-614.4c-0.023-0.775-0.037-1.687-0.037-2.603 0-50.068 39.803-90.84 89.493-92.398l0.143-0.004h332.8c49.833 1.562 89.637 42.333 89.637 92.402 0 0.915-0.013 1.827-0.040 2.736l0.003-0.133v614.116c0.009 0.386 0.015 0.841 0.015 1.297 0 22.975-13.619 42.768-33.224 51.749l-0.355 0.146c-6.224 2.746-13.481 4.344-21.112 4.344-13.78 0-26.342-5.212-35.824-13.772l0.047 0.042-153.884-138.809c-1.371-1.292-3.224-2.086-5.262-2.086s-3.891 0.794-5.266 2.090l0.004-0.004-163.84 140.8c-9.48 8.138-21.9 13.092-35.477 13.092-0.328 0-0.655-0.003-0.981-0.009l0.049 0.001zM345.6 184.884c-18.457 1.77-32.775 17.197-32.775 35.969 0 0.755 0.023 1.505 0.069 2.249l-0.005-0.102v614.4l-2.276 2.276 164.124-142.222c11.294-10.056 26.263-16.201 42.667-16.201s31.373 6.144 42.731 16.257l-0.064-0.056 151.040 137.956v-612.409c0.041-0.642 0.064-1.391 0.064-2.147 0-18.772-14.318-34.199-32.628-35.957l-0.146-0.011z"></path>
</svg>
