<!-- Generated by IcoMoon.io -->
<svg version="1.1" xmlns="http://www.w3.org/2000/svg" width="1024" height="1024" viewBox="0 0 1024 1024">
<title></title>
<g id="icomoon-ignore">
</g>
<path d="M678.4 127.998h-332.8c-49.833 1.562-89.637 42.333-89.637 92.402 0 0.915 0.013 1.827 0.040 2.736l-0.003-0.133v614.4c-0.014 0.47-0.022 1.023-0.022 1.578 0 22.977 13.622 42.773 33.231 51.752l0.355 0.146c6.707 3.233 14.583 5.122 22.901 5.122 0.149 0 0.298-0.001 0.446-0.002h-0.023c13.639-0.063 26.086-5.115 35.621-13.425l163.491-140.744c1.342-1.358 3.204-2.199 5.262-2.199s3.921 0.841 5.261 2.198l0.001 0.001 153.884 138.809c9.403 8.547 21.951 13.78 35.722 13.78 7.654 0 14.931-1.617 21.507-4.527l-0.34 0.134c20.569-8.874 34.705-28.979 34.705-52.385 0-0.183-0.001-0.367-0.003-0.55v0.028-614.116c0.023-0.775 0.037-1.687 0.037-2.603 0-50.068-39.803-90.84-89.493-92.398l-0.143-0.004z"></path>
</svg>
