<svg id="Layer_2" data-name="Layer 2" xmlns="http://www.w3.org/2000/svg" viewBox="0 0 36 36"><defs><style>.cls-1{fill:#4f4f4f;}</style></defs><title>clean</title><path class="cls-1" d="M18.31,21.18l-5-4H13a8.68,8.68,0,0,0-6.28,2.7c-2.13,2.31-2.93,5.82-2.4,10.44l-.47,3.52,3.86-.93c.74-.08,5.88-.71,8.78-4.26a9.08,9.08,0,0,0,1.85-7.09ZM15,27.41C12.45,30.5,7.53,31,7.48,31l-1.24.29.12-.87v-.13a20,20,0,0,1-.14-3.13L6.26,27a3.92,3.92,0,0,1,2-1.57,1,1,0,1,0-.37-2A4,4,0,0,0,6.7,24a7.11,7.11,0,0,1,1.49-2.67,6.74,6.74,0,0,1,4.45-2.07l3.77,3A7,7,0,0,1,15,27.41Z"/><path class="cls-1" d="M29.8,2.91A1,1,0,0,0,28.39,3L17.66,15.23l-.24-.2L14,16.74l4.85,3.82.59-3.89-.22-.18L29.89,4.32A1,1,0,0,0,29.8,2.91Z"/></svg>