<!-- Generated by IcoMoon.io -->
<svg version="1.1" xmlns="http://www.w3.org/2000/svg" width="1024" height="1024" viewBox="0 0 1024 1024">
<title></title>
<g id="icomoon-ignore">
</g>
<path d="M520.818 602.453l-142.222-113.778h-8.818c-70.263 0.095-133.633 29.526-178.535 76.698l-0.097 0.102c-60.587 65.707-83.342 165.547-68.267 296.96l-13.369 100.124 109.796-26.453c21.049-2.276 167.253-20.196 249.742-121.173 34.852-43.636 55.925-99.607 55.925-160.501 0-14.537-1.201-28.794-3.509-42.677l0.207 1.506zM426.667 779.662c-72.533 87.893-212.48 102.116-213.902 102.116l-35.271 8.249 3.413-24.747v-3.698c-2.741-20.976-4.305-45.234-4.305-69.858 0-6.743 0.117-13.458 0.35-20.144l-0.027 0.971 1.138-4.551c13.474-20.575 33.039-36.187 56.11-44.415l0.779-0.242c13.555-2.575 23.665-14.329 23.665-28.444 0-15.976-12.951-28.927-28.927-28.927-1.861 0-3.68 0.176-5.443 0.511l0.181-0.029c-12.9 3.786-24.154 9.324-34.202 16.451l0.353-0.238c9.016-29.418 23.561-54.809 42.56-76.15l-0.178 0.203c32.259-33.711 76.582-55.647 126.011-58.851l0.567-0.029 107.236 85.333c0.974 7.399 1.53 15.954 1.53 24.64 0 46.102-15.668 88.545-41.971 122.294l0.334-0.445z"></path>
<path d="M847.644 82.773c-4.982-4.392-11.563-7.073-18.771-7.073-8.483 0-16.098 3.713-21.31 9.603l-0.026 0.030-305.209 347.876-6.827-5.689-97.28 48.64 137.956 108.658 16.782-110.649-6.258-5.12 303.502-346.169c4.392-4.982 7.073-11.563 7.073-18.771 0-8.483-3.713-16.098-9.603-21.31l-0.030-0.026z"></path>
</svg>
