<svg id="Layer_2" data-name="Layer 2" xmlns="http://www.w3.org/2000/svg" viewBox="0 0 36 36"><defs><style>.cls-1{fill:#4f4f4f;}</style></defs><title>bug</title><path class="cls-1" d="M24.68,19.92a9.7,9.7,0,0,0,.06-2.67l1.27.17-.08,1.43a1,1,0,0,0,.94,1.06h.06a1,1,0,0,0,1-.94l.19-3.28-3.81-.52h0a9.43,9.43,0,0,0-.38-1l1.18-.9,1,1.07A1,1,0,1,0,27.53,13l-2.18-2.45-2.49,1.89a7.7,7.7,0,0,0-1-1.06s0,0,0,0a4.27,4.27,0,0,0-4.08-4.42,4.27,4.27,0,0,0-4.08,4.42s0,0,0,0a7.59,7.59,0,0,0-.75.75l-2.49-1.89L8.29,12.73a1,1,0,0,0,1.49,1.33l1-1.07,1.1.84a9.25,9.25,0,0,0-.47,1.05l-3.66.5.19,3.28a1,1,0,0,0,1,.94H9a1,1,0,0,0,.94-1.06l-.08-1.43,1-.14a9.61,9.61,0,0,0,0,2.81l-3,1.9,1.54,2.9a1,1,0,1,0,1.77-.94l-.67-1.27.86-.54a8.9,8.9,0,0,0,1.27,2.33l-1.95,2.56,2.46,2.18a1,1,0,0,0,1.33-1.49l-1.07-1,.65-.86a6,6,0,0,0,7.62-.13l.68.89-1.07,1a1,1,0,1,0,1.33,1.49l2.46-2.18-2-2.64a8.94,8.94,0,0,0,1.09-2l1.16.74-.67,1.27A1,1,0,0,0,25,25.3a1,1,0,0,0,1.35-.41L27.94,22,24.7,19.93Zm-6.9-11a2,2,0,0,1,1.77,1.16,5.62,5.62,0,0,0-3.54,0A2,2,0,0,1,17.78,8.94Zm-5,9.42c0-3.61,2.25-6.55,5-6.55s5,2.94,5,6.55-2.25,6.55-5,6.55S12.76,22,12.76,18.36Z"/></svg>