<!-- Generated by IcoMoon.io -->
<svg version="1.1" xmlns="http://www.w3.org/2000/svg" width="1024" height="1024" viewBox="0 0 1024 1024">
<title></title>
<g id="icomoon-ignore">
</g>
<path d="M702.009 566.613c2.258-13.261 3.549-28.536 3.549-44.113 0-11.217-0.669-22.279-1.97-33.146l0.128 1.312 36.124 4.836-2.276 40.676c-0.035 0.525-0.054 1.137-0.054 1.755 0 15.128 11.81 27.498 26.713 28.393l0.079 0.004h1.707c0.015 0 0.033 0 0.051 0 15.109 0 27.467-11.78 28.389-26.657l0.004-0.081 5.404-93.298-108.373-14.791c-3.664-11.558-7.33-20.979-11.494-30.124l0.685 1.68 33.564-25.6 28.444 30.436c5.054 8.365 14.098 13.872 24.428 13.872 15.709 0 28.444-12.735 28.444-28.444 0-9.75-4.906-18.355-12.384-23.48l-0.097-0.063-62.009-69.689-70.827 53.76c-8.718-11.137-18.042-21.002-28.201-29.941l-0.243-0.21s0 0 0 0c0.050-1.307 0.079-2.842 0.079-4.383 0-65.206-51.384-118.411-115.869-121.331l-0.263-0.009c-64.748 2.93-116.132 56.135-116.132 121.341 0 1.541 0.029 3.076 0.086 4.604l-0.007-0.22s0 0 0 0c-7.673 6.69-14.643 13.661-21.115 21.077l-0.219 0.256-70.827-53.76-61.724 70.827c-3.9 4.828-6.26 11.040-6.26 17.803 0 15.709 12.735 28.444 28.444 28.444 7.897 0 15.042-3.218 20.196-8.414l0.002-0.002 28.444-30.436 31.289 23.893c-4.374 8.078-8.873 17.92-12.762 28.065l-0.607 1.802-104.107 14.222 5.404 93.298c0.927 14.958 13.284 26.738 28.393 26.738 0.018 0 0.036 0 0.054 0h1.704c14.982-0.899 26.792-13.268 26.792-28.396 0-0.617-0.020-1.23-0.058-1.838l0.004 0.083-2.276-40.676 28.444-3.982c-1.869 12.010-2.937 25.863-2.937 39.964s1.068 27.954 3.127 41.481l-0.19-1.517-85.333 54.044 43.804 82.489c4.89 9.073 14.324 15.134 25.173 15.134 15.742 0 28.503-12.761 28.503-28.503 0-4.892-1.233-9.497-3.404-13.52l0.075 0.151-19.058-36.124 24.462-15.36c9.359 25.325 21.56 47.238 36.573 66.888l-0.449-0.612-55.467 72.818 69.973 62.009c4.828 3.9 11.040 6.26 17.803 6.26 15.709 0 28.444-12.735 28.444-28.444 0-7.897-3.218-15.042-8.414-20.196l-0.002-0.002-30.436-28.444 18.489-24.462c28.846 23.062 65.857 37.008 106.125 37.008 42.315 0 81.034-15.4 110.856-40.901l-0.234 0.196 19.342 25.316-30.436 28.444c-6.512 5.257-10.642 13.238-10.642 22.184 0 15.709 12.735 28.444 28.444 28.444 7.813 0 14.89-3.15 20.030-8.249l-0.002 0.002 69.973-62.009-56.889-75.093c12.015-16.411 22.441-35.167 30.401-55.171l0.603-1.718 32.996 21.049-19.058 36.124c-2.057 3.837-3.266 8.394-3.266 13.234 0 10.062 5.224 18.903 13.108 23.96l0.113 0.068c3.864 2.093 8.459 3.323 13.341 3.323 10.78 0 20.159-5.997 24.984-14.836l0.074-0.149 45.227-82.204-92.16-58.88zM505.742 253.724c22.244 0.52 41.282 13.729 50.2 32.649l0.147 0.347c-15.026-5.158-32.338-8.135-50.347-8.135s-35.321 2.978-51.473 8.468l1.126-0.332c9.215-19.035 28.217-32.018 50.293-32.426l0.053-0.001zM363.52 521.671c0-102.684 64-186.311 142.222-186.311s142.222 83.627 142.222 186.311-64 186.311-142.222 186.311-142.791-82.204-142.791-185.742z"></path>
</svg>
