<!-- Generated by IcoMoon.io -->
<svg version="1.1" xmlns="http://www.w3.org/2000/svg" width="1024" height="1024" viewBox="0 0 1024 1024">
<title></title>
<g id="icomoon-ignore">
</g>
<path d="M807.538 316.729v-34.702c0-32.996-17.92-56.889-42.667-56.889h-56.889c-24.747 0-42.667 23.893-42.667 56.889v26.169h-208.782v-26.169c0-31.419-25.47-56.889-56.889-56.889v0h-113.778c-31.419 0-56.889 25.47-56.889 56.889v0 30.436c-34.806 11.192-59.579 43.216-59.733 81.048v320.018c0 47.128 38.205 85.333 85.333 85.333v0h514.844c47.128 0 85.333-38.205 85.333-85.333v0-320c0.001-0.134 0.001-0.293 0.001-0.452 0-33.236-19.001-62.035-46.734-76.125l-0.485-0.224zM722.204 282.027h28.444v26.169h-28.444zM399.644 282.027v26.169h-113.778v-26.169zM797.866 713.529c0 15.709-12.735 28.444-28.444 28.444v0h-514.56c-15.709 0-28.444-12.735-28.444-28.444v0-320c0-15.709 12.735-28.444 28.444-28.444v0h514.56c15.709 0 28.444 12.735 28.444 28.444v0z"></path>
<path d="M515.982 374.187c-94.257 0-170.667 76.41-170.667 170.667s76.41 170.667 170.667 170.667c94.257 0 170.667-76.41 170.667-170.667v0c0-94.257-76.41-170.667-170.667-170.667v0zM515.982 658.632c-62.838 0-113.778-50.94-113.778-113.778s50.94-113.778 113.778-113.778c62.838 0 113.778 50.94 113.778 113.778v0c0.006 0.423 0.009 0.922 0.009 1.422 0 62.838-50.94 113.778-113.778 113.778-0.003 0-0.006 0-0.009 0h0.001z"></path>
<path d="M604.444 544.569c0 50.113-40.625 90.738-90.738 90.738s-90.738-40.625-90.738-90.738c0-50.113 40.625-90.738 90.738-90.738s90.738 40.625 90.738 90.738z"></path>
</svg>
