<svg id="Layer_2" data-name="Layer 2" xmlns="http://www.w3.org/2000/svg" viewBox="0 0 36 36"><defs><style>.cls-1{fill:#4f4f4f;}</style></defs><title>camara</title><path class="cls-1" d="M28.34,10.36V9.14c0-1.16-.63-2-1.5-2h-2c-.87,0-1.5.84-1.5,2v.92H16V9.14a2,2,0,0,0-2-2H10a2,2,0,0,0-2,2v1.07a3,3,0,0,0-2.1,2.85V24.31a3,3,0,0,0,3,3H27a3,3,0,0,0,3-3V13.06A3,3,0,0,0,28.34,10.36Zm-3-1.22h1v.92h-1ZM14,9.14v.92H10V9.14ZM28,24.31a1,1,0,0,1-1,1H8.91a1,1,0,0,1-1-1V13.06a1,1,0,0,1,1-1H27a1,1,0,0,1,1,1Z"/><path class="cls-1" d="M18.09,12.38a6,6,0,1,0,6,6A6,6,0,0,0,18.09,12.38Zm0,10a4,4,0,1,1,4-4A4,4,0,0,1,18.09,22.43Z"/><circle class="cls-1" cx="18.01" cy="18.37" r="3.19"/></svg>