<!-- Generated by IcoMoon.io -->
<svg version="1.1" xmlns="http://www.w3.org/2000/svg" width="1024" height="1024" viewBox="0 0 1024 1024">
<title></title>
<g id="icomoon-ignore">
</g>
<path d="M196.871 858.666h85.675c44.694-0.093 80.888-36.348 80.888-81.054 0 0 0 0 0 0v0-51.009h297.142v51.009c0 44.765 36.289 81.054 81.054 81.054v0h85.675c44.694-0.093 80.888-36.348 80.888-81.054 0 0 0 0 0 0v0-216.088c-0.052-2.899-0.472-5.677-1.211-8.321l0.057 0.233c-4.515-34.615-22.846-64.24-49.184-83.62l-0.341-0.239-63.721-216.088c-15.659-51.262-62.45-87.943-117.843-88.154h-327.873c-55.35 0.285-102.058 36.943-117.472 87.277l-0.231 0.874-63.721 216.088c-26.676 19.622-45.007 49.246-49.458 83.24l-0.066 0.622c-0.734 2.397-1.209 5.164-1.319 8.026l-0.002 0.062v216.088c0 44.765 36.289 81.054 81.054 81.054v0zM297.404 777.612c0 8.297-6.724 15.021-15.021 15.021h-85.512c-8.297 0-15.021-6.724-15.021-15.021v0-65.208c16.549 8.929 36.219 14.184 57.113 14.196h58.442zM785.050 512c31.545 0 57.117 25.572 57.117 57.117v0 34.337c0 31.545-25.572 57.117-57.117 57.117v0h-546.083c-31.545 0-57.117-25.572-57.117-57.117v0-34.337c0-31.545 25.572-57.117 57.117-57.117v0zM561.533 445.967c0-17.663 23.112-33.016 49.525-33.016s49.525 15.354 49.525 33.016zM827.145 792.633h-85.512c-8.297 0-15.021-6.724-15.021-15.021v0-51.009h58.438c20.901-0.015 40.567-5.267 57.769-14.517l-0.652 0.321v65.208c0 8.297-6.724 15.021-15.021 15.021v0zM293.608 272.141c7.193-23.728 28.842-40.714 54.469-40.775h327.855c25.633 0.061 47.283 17.047 54.37 40.37l0.106 0.405 51.175 173.829h-54.971c0-54.642-51.834-99.046-115.555-99.046s-115.555 44.408-115.555 99.046h-253.067z"></path>
<path d="M388.199 586.287h247.62c13.675 0 24.762-11.087 24.762-24.762s-11.087-24.762-24.762-24.762v0h-247.62c-13.675 0-24.762 11.087-24.762 24.762s11.087 24.762 24.762 24.762v0z"></path>
<path d="M388.199 644.062h247.62c13.675 0 24.762-11.087 24.762-24.762s-11.087-24.762-24.762-24.762v0h-247.62c-13.675 0-24.762 11.087-24.762 24.762s11.087 24.762 24.762 24.762v0z"></path>
</svg>
