<!-- Generated by IcoMoon.io -->
<svg version="1.1" xmlns="http://www.w3.org/2000/svg" width="1024" height="1024" viewBox="0 0 1024 1024">
<title></title>
<g id="icomoon-ignore">
</g>
<path d="M512 684.658c-0.062 0-0.136 0-0.209 0-23.583 0-44.932-9.567-60.377-25.031l-0.001-0.001-203.662-204.516c-15.42-15.439-24.956-36.757-24.956-60.302 0-47.102 38.162-85.291 85.254-85.333h407.897c47.096 0.043 85.258 38.231 85.258 85.333 0 23.546-9.536 44.864-24.957 60.303l-203.661 203.661c-15.381 15.827-36.813 25.702-60.553 25.884h-0.034zM308.053 367.218c-15.659 0.067-28.327 12.776-28.327 28.444 0 7.755 3.103 14.785 8.136 19.916l-0.004-0.005 203.947 203.947c5.169 5.283 12.371 8.558 20.338 8.558s15.169-3.275 20.333-8.553l203.667-203.667c5.197-5.156 8.414-12.3 8.414-20.196 0-15.709-12.735-28.444-28.444-28.444-0.058 0-0.116 0-0.174 0.001h0.009zM756.338 436.053v0z"></path>
</svg>
