<!-- Generated by IcoMoon.io -->
<svg version="1.1" xmlns="http://www.w3.org/2000/svg" width="1024" height="1024" viewBox="0 0 1024 1024">
<title></title>
<g id="icomoon-ignore">
</g>
<path d="M716.231 684.658h-408.178c-0.063 0-0.137 0-0.211 0-47.128 0-85.333-38.205-85.333-85.333 0-23.687 9.651-45.12 25.236-60.581l0.006-0.005 203.662-203.662c15.707-15.057 37.064-24.327 60.587-24.327s44.88 9.27 60.618 24.357l-0.031-0.029 203.662 205.369c15.42 15.439 24.956 36.757 24.956 60.302 0 47.102-38.162 85.291-85.254 85.333h-0.004zM512 367.218c-7.912 0.034-15.056 3.293-20.191 8.529l-0.004 0.005-203.662 203.662c-5.197 5.156-8.414 12.3-8.414 20.196 0 15.709 12.735 28.444 28.444 28.444 0.058 0 0.116 0 0.174-0.001h407.884c15.659-0.067 28.327-12.776 28.327-28.444 0-7.755-3.103-14.785-8.136-19.916l0.004 0.005-204.231-204.231c-5.139-5.099-12.217-8.249-20.031-8.249-0.058 0-0.116 0-0.173 0.001h0.009z"></path>
</svg>
