<!-- Generated by IcoMoon.io -->
<svg version="1.1" xmlns="http://www.w3.org/2000/svg" width="1024" height="1024" viewBox="0 0 1024 1024">
<title></title>
<g id="icomoon-ignore">
</g>
<path d="M613.262 787.058c-23.49-0.183-44.692-9.829-60.011-25.308l-0.007-0.007-203.378-203.662c-15.59-15.467-25.241-36.9-25.241-60.587s9.651-45.12 25.236-60.581l0.006-0.006 203.947-203.662c15.439-15.42 36.757-24.956 60.302-24.956 47.102 0 85.291 38.162 85.333 85.254v407.897c0 0.077 0 0.169 0 0.261 0 35.325-21.465 65.637-52.063 78.604l-0.559 0.211c-9.682 4.139-20.949 6.546-32.777 6.546-0.277 0-0.554-0.001-0.83-0.004h0.042zM613.262 265.102c-7.667 0.113-14.581 3.242-19.628 8.251l-203.945 203.945c-5.283 5.169-8.558 12.371-8.558 20.338s3.275 15.169 8.553 20.333l203.667 203.667c5.156 5.197 12.3 8.414 20.196 8.414 15.709 0 28.444-12.735 28.444-28.444 0-0.058 0-0.116-0.001-0.174v0.009-408.178c0.003-0.145 0.004-0.315 0.004-0.486 0-11.266-6.549-21.002-16.048-25.608l-0.169-0.074c-3.419-1.444-7.394-2.283-11.565-2.283-0.234 0-0.468 0.003-0.701 0.008l0.035-0.001z"></path>
</svg>
