<!-- Generated by IcoMoon.io -->
<svg version="1.1" xmlns="http://www.w3.org/2000/svg" width="1024" height="1024" viewBox="0 0 1024 1024">
<title></title>
<g id="icomoon-ignore">
</g>
<path d="M410.453 787.058c-12.028-0.024-23.465-2.533-33.831-7.040l0.551 0.213c-31.15-13.175-52.612-43.475-52.622-78.79v-407.894c0-0.063 0-0.137 0-0.211 0-47.128 38.205-85.333 85.333-85.333 23.687 0 45.12 9.651 60.581 25.236l0.005 0.006 203.662 203.662c15.59 15.467 25.241 36.9 25.241 60.587s-9.651 45.12-25.236 60.581l-203.953 203.953c-15.297 15.317-36.385 24.849-59.698 25.031h-0.035zM410.453 265.102c-4.11 0.039-8.015 0.871-11.583 2.351l0.206-0.076c-10.437 4.37-17.636 14.5-17.636 26.311 0 0.050 0 0.1 0 0.15v-0.008 407.609c0.067 15.659 12.776 28.327 28.444 28.327 7.755 0 14.785-3.103 19.916-8.136l-0.005 0.004 203.947-203.947c5.283-5.169 8.558-12.371 8.558-20.338s-3.275-15.169-8.553-20.333l-0.005-0.005-203.378-203.662c-5.009-5.111-11.923-8.339-19.591-8.533l-0.036-0.001z"></path>
</svg>
