<svg id="Layer_2" data-name="Layer 2" xmlns="http://www.w3.org/2000/svg" viewBox="0 0 36 36"><defs><style>.cls-1{fill:#4f4f4f;}</style></defs><title>matriz</title><path class="cls-1" d="M29.05,30H8a2,2,0,0,1-1.48-.59A2.05,2.05,0,0,1,6,27.94v-21a1,1,0,0,1,2,0V28H29.05a1,1,0,1,1,0,2Z"/><path class="cls-1" d="M14.9,27.73h-.17a1.75,1.75,0,0,1-1.41-1.56c0-.37-.3-2.86-.45-4.31l-2.63,3.24L8.7,23.83l3.37-4.15a1.55,1.55,0,0,1,1.6-.6,1.59,1.59,0,0,1,1.1,1.51l.36,3.47c.69-2.34,2-6.68,2.24-7.55.37-1.21,1.19-1.57,1.82-1.5s1.45.65,1.6,2.11c.06.64.18,1.81.29,2.9.76-2.53,2-6.7,2.14-7.13A1.78,1.78,0,0,1,25,11.59c.31,0,1.32.2,1.57,1.71l.18,1.15L28,7a1,1,0,1,1,2,.35l-1.64,9.33C28,18.17,27,18.25,26.71,18.25a1.83,1.83,0,0,1-1.64-1.45c-.05-.27-.21-1.23-.33-2L22.4,22.53C22,24,21.15,24.18,20.7,24.13a1.56,1.56,0,0,1-1.35-1.44c-.07-.48-.32-2.93-.46-4.35-.76,2.56-2.3,7.77-2.32,7.84C16.09,27.48,15.38,27.73,14.9,27.73ZM27,16.42h0Z"/></svg>