<!-- Generated by IcoMoon.io -->
<svg version="1.1" xmlns="http://www.w3.org/2000/svg" width="1024" height="1024" viewBox="0 0 1024 1024">
<title></title>
<g id="icomoon-ignore">
</g>
<path d="M825.637 854.173h-598.756c-0.514 0.017-1.119 0.026-1.726 0.026-15.782 0-30.063-6.426-40.369-16.805l-0.003-0.003c-9.224-10.271-14.864-23.923-14.864-38.892 0-1.028 0.027-2.049 0.079-3.064l-0.006 0.142v-597.333c0-15.709 12.735-28.444 28.444-28.444s28.444 12.735 28.444 28.444v0 599.040h598.756c15.709 0 28.444 12.735 28.444 28.444s-12.735 28.444-28.444 28.444v0z"></path>
<path d="M423.148 789.604h-4.836c-21.628-4.301-38.032-22.154-40.092-44.176l-0.015-0.198c0-10.524-8.533-81.351-12.8-122.596l-74.809 92.16-43.804-36.124 95.858-118.044c8.109-11.071 21.060-18.179 35.672-18.179 3.489 0 6.883 0.405 10.138 1.171l-0.299-0.059c18.288 6.056 31.255 22.985 31.289 42.947v0.004l10.24 98.702c19.627-66.56 56.889-190.009 63.716-214.756 10.524-34.418 33.849-44.658 51.769-42.667s41.244 18.489 45.511 60.018c1.707 18.204 5.12 51.484 8.249 82.489 21.618-71.964 56.889-190.578 60.871-202.809 6.153-21.523 25.65-37.012 48.765-37.012 0.656 0 1.31 0.012 1.96 0.037l-0.094-0.003c8.818 0 37.547 5.689 44.658 48.64l5.12 32.711 35.556-211.911c2.456-13.665 14.255-23.899 28.444-23.899 15.948 0 28.877 12.929 28.877 28.877 0 1.759-0.157 3.481-0.458 5.153l0.026-0.176-46.649 265.387c-10.24 42.382-38.684 44.658-46.933 44.658-23.152-1.98-41.856-18.848-46.587-40.903l-0.061-0.342c-1.422-7.68-5.973-34.987-9.387-56.889l-66.56 219.876c-11.378 41.813-35.556 46.933-48.356 45.511-20.826-2.858-36.913-19.823-38.392-40.819l-0.008-0.141c-1.991-13.653-9.102-83.342-13.084-123.733-21.618 72.818-65.422 221.013-65.991 223.004-13.653 36.978-33.849 44.089-47.502 44.089zM767.326 467.898v0z"></path>
</svg>
