<!-- Generated by IcoMoon.io -->
<svg version="1.1" xmlns="http://www.w3.org/2000/svg" width="1024" height="1024" viewBox="0 0 1024 1024">
<title></title>
<g id="icomoon-ignore">
</g>
<path d="M787.35 266.299v-118.62c0-18.717-15.175-33.892-33.892-33.892v0h-118.62c-10.111 0.015-19.186 4.454-25.386 11.484l-0.031 0.035c-6.231-7.069-15.306-11.508-25.415-11.523h-144.039c-10.111 0.015-19.186 4.454-25.386 11.484l-0.031 0.035c-6.231-7.069-15.306-11.508-25.415-11.523h-118.622c-18.717 0-33.892 15.175-33.892 33.892v0 118.62c0.042 9.341 3.855 17.788 9.998 23.892l72.698 72.698c-4.080 9.029-6.455 19.57-6.455 30.67 0 42.020 34.066 76.086 76.086 76.086 0.067 0 0.13 0 0.197 0h2.703l-42.027 266.385c-32.116 10.505-57.922 32.729-72.877 61.497l-0.327 0.694-28.64 64.222c-1.884 4.084-2.981 8.861-2.981 13.894 0 18.717 15.175 33.892 33.892 33.892 0.033 0 0.070 0 0.103 0h474.473c0.006 0 0.017 0 0.023 0 18.717 0 33.892-15.175 33.892-33.892 0-4.97-1.069-9.687-2.99-13.939l0.084 0.215-28.64-64.222c-15.402-29.794-41.536-52.236-73.166-62.45l-0.889-0.248-56.092-266.045c0.201 0.002 0.441 0.003 0.677 0.003 42.114 0 76.256-34.142 76.256-76.256 0-0.001 0-0.002 0-0.003v0c-0.1-8.652-1.643-16.907-4.402-24.588l0.166 0.525 79.138-79.138c6.074-6.123 9.829-14.557 9.829-23.867 0-0.008 0-0.020 0-0.028v0.001zM701.269 842.45h-370.093l7.458-16.946c7.288-16.946 38.298-33.892 80.998-33.892h193.181c42.704 0 73.715 16.946 80.998 33.892zM609.931 723.831h-189.623l40.163-254.185h96.080zM626.877 401.865h-237.239c-4.679 0-8.471-3.792-8.471-8.471s3.792-8.471 8.471-8.471v0h237.239c4.679 0 8.471 3.792 8.471 8.471s-3.792 8.471-8.471 8.471v0zM719.569 252.234l-69.139 69.139c-7.153-2.592-15.412-4.136-24.018-4.235h-237.285c-6.063 0.1-11.89 0.897-17.469 2.315l0.523-0.115-67.781-67.781v-69.986h50.839v50.839c0 18.717 15.175 33.892 33.892 33.892v0h50.839c18.717 0 33.892-15.175 33.892-33.892v0-50.839h76.256v50.839c0 18.717 15.175 33.892 33.892 33.892v0h50.839c18.717 0 33.892-15.175 33.892-33.892v0-50.839h50.839z"></path>
</svg>
