<!-- Generated by IcoMoon.io -->
<svg version="1.1" xmlns="http://www.w3.org/2000/svg" width="1024" height="1024" viewBox="0 0 1024 1024">
<title></title>
<g id="icomoon-ignore">
</g>
<path d="M672.142 675.84c-0.059 0-0.128 0.001-0.198 0.001-11.042 0-20.614-6.291-25.327-15.485l-0.075-0.16-119.751-239.502c-4.788-9.354-14.36-15.645-25.402-15.645-0.070 0-0.139 0-0.209 0.001h0.011c-0.059 0-0.128-0.001-0.198-0.001-11.042 0-20.614 6.291-25.327 15.485l-0.075 0.16-119.751 239.502c-4.897 8.998-14.281 15.002-25.067 15.002-15.709 0-28.444-12.735-28.444-28.444 0-4.306 0.957-8.389 2.67-12.047l-0.073 0.174 119.751-239.502c14.314-28.217 43.112-47.218 76.348-47.218 0.059 0 0.118 0 0.177 0h-0.009c0.050 0 0.109 0 0.168 0 33.236 0 62.034 19.001 76.124 46.733l0.224 0.485 119.751 239.502c1.918 3.726 3.043 8.132 3.043 12.8 0 15.679-12.686 28.395-28.354 28.444h-0.005z"></path>
</svg>
