<!-- Generated by IcoMoon.io -->
<svg version="1.1" xmlns="http://www.w3.org/2000/svg" width="1024" height="1024" viewBox="0 0 1024 1024">
<title></title>
<g id="icomoon-ignore">
</g>
<path d="M647.36 710.986c-4.678-0.029-9.080-1.183-12.957-3.204l0.157 0.075-239.502-119.751c-28.245-14.305-47.269-43.117-47.269-76.373s19.024-62.069 46.783-76.15l0.486-0.224 239.502-119.751c3.484-1.639 7.567-2.596 11.873-2.596 15.709 0 28.444 12.735 28.444 28.444 0 10.787-6.004 20.171-14.853 24.993l-0.149 0.074-239.218 119.751c-9.415 4.768-15.756 14.372-15.756 25.458s6.341 20.69 15.594 25.383l0.162 0.075 239.502 119.751c9.577 4.713 16.052 14.402 16.052 25.603 0 15.709-12.735 28.444-28.444 28.444-0.143 0-0.286-0.001-0.429-0.003h0.022z"></path>
</svg>
