<!-- Generated by IcoMoon.io -->
<svg version="1.1" xmlns="http://www.w3.org/2000/svg" width="1024" height="1024" viewBox="0 0 1024 1024">
<title></title>
<g id="icomoon-ignore">
</g>
<path d="M796.444 512c0-157.094-127.35-284.444-284.444-284.444s-284.444 127.35-284.444 284.444c0 157.094 127.35 284.444 284.444 284.444v0c157.094 0 284.444-127.35 284.444-284.444v0zM494.364 386.276l-102.684 244.622c-4.45 10.254-14.487 17.297-26.169 17.297-15.69 0-28.413-12.704-28.444-28.387v-0.003c0.008-4.009 0.844-7.822 2.347-11.277l-0.071 0.184 102.684-244.622c10.516-29.050 37.864-49.435 69.973-49.435s59.457 20.384 69.809 48.918l0.164 0.517 102.684 244.622c1.942 3.746 3.081 8.177 3.081 12.875 0 15.709-12.735 28.444-28.444 28.444-12.48 0-23.082-8.037-26.914-19.217l-0.060-0.2-102.684-244.622c-1.147-8.731-8.541-15.4-17.493-15.4s-16.346 6.67-17.484 15.311l-0.010 0.089z"></path>
</svg>
