<!-- Generated by IcoMoon.io -->
<svg version="1.1" xmlns="http://www.w3.org/2000/svg" width="1024" height="1024" viewBox="0 0 1024 1024">
<title></title>
<g id="icomoon-ignore">
</g>
<path d="M501.476 675.84c-0.050 0-0.109 0-0.168 0-33.236 0-62.034-19.001-76.124-46.733l-0.224-0.485-119.751-239.502c-2.126-3.889-3.377-8.52-3.377-13.443 0-15.709 12.735-28.444 28.444-28.444 11.403 0 21.239 6.71 25.775 16.397l0.073 0.174 119.751 239.502c4.768 9.415 14.372 15.756 25.458 15.756s20.69-6.341 25.383-15.594l0.075-0.162 119.751-239.502c4.609-9.862 14.445-16.572 25.848-16.572 15.709 0 28.444 12.735 28.444 28.444 0 4.923-1.251 9.554-3.451 13.592l-119.392 239.353c-14.314 28.217-43.112 47.218-76.348 47.218-0.059 0-0.118 0-0.177 0h0.009z"></path>
</svg>
