<!-- Generated by IcoMoon.io -->
<svg version="1.1" xmlns="http://www.w3.org/2000/svg" width="1024" height="1024" viewBox="0 0 1024 1024">
<title></title>
<g id="icomoon-ignore">
</g>
<path d="M512 796.444c157.094 0 284.444-127.35 284.444-284.444s-127.35-284.444-284.444-284.444c-157.094 0-284.444 127.35-284.444 284.444v0c0 157.094 127.35 284.444 284.444 284.444v0zM637.724 495.787l-244.622-102.684c-10.254-4.45-17.297-14.487-17.297-26.169 0-15.69 12.704-28.413 28.387-28.444h0.003c4.009 0.008 7.822 0.844 11.277 2.347l-0.184-0.071 244.622 102.684c29.050 10.516 49.435 37.864 49.435 69.973s-20.384 59.457-48.918 69.809l-0.517 0.164-244.622 102.684c-2.693 0.932-5.798 1.471-9.027 1.471-15.709 0-28.444-12.735-28.444-28.444 0-11.012 6.257-20.562 15.411-25.289l0.159-0.075 244.622-102.684c8.731-1.147 15.4-8.541 15.4-17.493s-6.67-16.346-15.311-17.484l-0.089-0.010z"></path>
</svg>
