<!-- Generated by IcoMoon.io -->
<svg version="1.1" xmlns="http://www.w3.org/2000/svg" width="1024" height="1024" viewBox="0 0 1024 1024">
<title></title>
<g id="icomoon-ignore">
</g>
<path d="M512 227.556c-157.094 0-284.444 127.35-284.444 284.444s127.35 284.444 284.444 284.444c157.094 0 284.444-127.35 284.444-284.444v0c0-157.094-127.35-284.444-284.444-284.444v0zM386.276 529.636l244.622 102.684c10.254 4.45 17.297 14.487 17.297 26.169 0 15.69-12.704 28.413-28.387 28.444h-0.003c-4.009-0.008-7.822-0.844-11.277-2.347l0.184 0.071-244.622-102.684c-29.050-10.516-49.435-37.864-49.435-69.973s20.384-59.457 48.918-69.809l0.517-0.164 244.622-102.684c3.746-1.942 8.177-3.081 12.875-3.081 15.709 0 28.444 12.735 28.444 28.444 0 12.48-8.037 23.082-19.217 26.914l-0.2 0.060-244.622 102.684c-8.731 1.147-15.4 8.541-15.4 17.493s6.67 16.346 15.311 17.484l0.089 0.010z"></path>
</svg>
