<!-- Generated by IcoMoon.io -->
<svg version="1.1" xmlns="http://www.w3.org/2000/svg" width="1024" height="1024" viewBox="0 0 1024 1024">
<title></title>
<g id="icomoon-ignore">
</g>
<path d="M377.044 711.235c-15.637-0.096-28.276-12.794-28.276-28.444 0-10.975 6.216-20.498 15.318-25.241l0.157-0.075 239.502-119.751c9.415-4.768 15.756-14.372 15.756-25.458s-6.341-20.69-15.594-25.383l-0.162-0.075-239.502-119.751c-9.862-4.609-16.572-14.445-16.572-25.848 0-15.709 12.735-28.444 28.444-28.444 4.923 0 9.554 1.251 13.592 3.451l-0.149-0.074 239.502 119.751c28.245 14.305 47.269 43.117 47.269 76.373s-19.024 62.069-46.783 76.15l-0.486 0.224-239.502 119.751c-3.623 1.795-7.888 2.845-12.399 2.845-0.041 0-0.082 0-0.123 0h0.006z"></path>
</svg>
