<!-- Generated by IcoMoon.io -->
<svg version="1.1" xmlns="http://www.w3.org/2000/svg" width="1024" height="1024" viewBox="0 0 1024 1024">
<title></title>
<g id="icomoon-ignore">
</g>
<path d="M227.556 512c0 157.094 127.35 284.444 284.444 284.444s284.444-127.35 284.444-284.444c0-157.094-127.35-284.444-284.444-284.444v0c-157.094 0-284.444 127.35-284.444 284.444v0zM528.213 637.724l102.684-244.622c4.45-10.254 14.487-17.297 26.169-17.297 15.69 0 28.413 12.704 28.444 28.387v0.003c-0.008 4.009-0.844 7.822-2.347 11.277l0.071-0.184-102.684 244.622c-10.516 29.050-37.864 49.435-69.973 49.435s-59.457-20.384-69.809-48.918l-0.164-0.517-102.684-244.622c-0.932-2.693-1.471-5.798-1.471-9.027 0-15.709 12.735-28.444 28.444-28.444 11.012 0 20.562 6.257 25.289 15.411l0.075 0.159 102.684 244.622c1.147 8.731 8.541 15.4 17.493 15.4s16.346-6.67 17.484-15.311l0.010-0.089z"></path>
</svg>
