<!-- Generated by IcoMoon.io -->
<svg version="1.1" xmlns="http://www.w3.org/2000/svg" width="1024" height="1024" viewBox="0 0 1024 1024">
<title></title>
<g id="icomoon-ignore">
</g>
<path d="M469.333 114.631q10.24-1.138 20.764-1.707-10.524 0.853-20.764 1.707z"></path>
<path d="M490.524 112.924q10.667 0 21.476 0c-7.253-0.569-14.222-0.427-21.476 0z"></path>
<path d="M526.222 112.782v0z"></path>
<path d="M469.333 114.631v0 0 0z"></path>
<path d="M490.098 112.924v0z"></path>
<path d="M177.067 294.258c4.693-7.111 9.387-14.222 14.222-20.907-4.836 6.684-9.671 13.653-14.222 20.907z"></path>
<path d="M867.556 694.898c-12.432 23.913-25.746 44.452-40.764 63.589l0.657-0.869c14.367-18.269 27.681-38.808 39.057-60.521l1.049-2.199z"></path>
<path d="M810.667 777.387q7.964-8.96 15.36-18.489-7.396 9.102-15.36 18.489z"></path>
<path d="M191.431 273.209v0 0 0z"></path>
<path d="M173.653 298.667l3.271-5.12z"></path>
<path d="M384 654.222c0-0.008 0-0.017 0-0.026 0-44.841-29.645-82.758-70.406-95.22l-0.705-0.185v-174.791c-0.006-8.951-4.145-16.934-10.612-22.144l-0.055-0.043-110.649-88.604c-5.12 6.827-9.813 14.222-14.222 20.907l-3.271 5.12c-4.551 7.253-8.96 14.222-13.084 22.044l95.004 76.942v160.569c-41.387 12.697-70.959 50.575-70.959 95.36s29.571 82.663 70.253 95.173l0.705 0.187v69.262c16.728 14.053 35.325 27.168 54.99 38.655l1.899 1.025v-108.8c41.466-12.648 71.111-50.565 71.111-95.406 0-0.009 0-0.018 0-0.027v0.001zM241.778 654.222c0-23.564 19.103-42.667 42.667-42.667s42.667 19.103 42.667 42.667c0 23.564-19.103 42.667-42.667 42.667v0c-23.564 0-42.667-19.103-42.667-42.667v0z"></path>
<path d="M810.667 777.387v0 0 0z"></path>
<path d="M827.164 757.476l-1.138 1.422z"></path>
<path d="M867.271 694.898v0 0 0z"></path>
<path d="M827.164 757.476c14.464-18.245 27.867-38.734 39.34-60.402l1.051-2.176c-0.541-8.163-4.448-15.318-10.333-20.156l-0.049-0.039-60.729-48.924v-46.791c41.387-12.697 70.959-50.575 70.959-95.36s-29.571-82.663-70.253-95.173l-0.705-0.187v-99.556l27.164-27.164c-12.27-15.184-24.927-28.787-38.462-41.465l-0.223-0.206-36.978 36.978c-5.184 5.153-8.393 12.289-8.393 20.175 0 0.107 0.001 0.215 0.002 0.322v-0.016 110.791c-41.387 12.697-70.959 50.575-70.959 95.36s29.571 82.663 70.253 95.173l0.705 0.187v61.156c0.006 8.951 4.145 16.934 10.612 22.144l0.055 0.043 60.444 48.924v66.844q7.964-8.96 15.36-18.489zM725.333 483.556c0-23.564 19.103-42.667 42.667-42.667s42.667 19.103 42.667 42.667c0 23.564-19.103 42.667-42.667 42.667v0c-23.564 0-42.667-19.103-42.667-42.667v0z"></path>
<path d="M625.778 533.049v-195.698l64.569-77.369c4.071-4.886 6.542-11.229 6.542-18.149 0-0.020 0-0.039 0-0.059v0.003-84.053c-15.826-8.517-34.619-16.736-54.099-23.48l-2.789-0.84v98.133l-64.569 77.369c-4.071 4.886-6.542 11.229-6.542 18.149 0 0.020 0 0.039 0 0.059v-0.003 213.333c-0.002 0.132-0.003 0.289-0.003 0.445 0 5.057 1.319 9.805 3.633 13.92l-0.074-0.143 67.556 121.173v214.756c22.27-7.584 41.063-15.803 59.034-25.361l-2.145 1.041v-197.831c0.002-0.132 0.003-0.289 0.003-0.445 0-5.057-1.319-9.805-3.633-13.92l0.074 0.143z"></path>
<path d="M553.387 783.502l-84.053-84.196v-120.32c41.387-12.697 70.959-50.575 70.959-95.36s-29.571-82.663-70.253-95.173l-0.705-0.187v-53.618l53.191-92.871c2.326-4.033 3.698-8.869 3.698-14.026 0-0.069 0-0.138-0.001-0.207v0.011-113.778s0 0 0-0.996h-14.222q-10.809 0-21.476 0v0q-10.382 0-20.764 1.707v0 105.387l-53.618 93.013c-2.326 4.033-3.698 8.869-3.698 14.026 0 0.069 0 0.138 0.001 0.207v-0.011 61.013c-41.387 12.697-70.959 50.575-70.959 95.36s29.571 82.663 70.253 95.173l0.705 0.187v132.267c0.034 7.841 3.235 14.928 8.39 20.052l84.054 84.054v96.142h7.111c17.563-0.015 34.844-1.152 51.795-3.342l-2.017 0.213v-104.676c-0.034-7.841-3.235-14.928-8.39-20.052l-0.001-0.001zM398.222 483.556c0-23.564 19.103-42.667 42.667-42.667s42.667 19.103 42.667 42.667c0 23.564-19.103 42.667-42.667 42.667v0c-23.564 0-42.667-19.103-42.667-42.667v0z"></path>
</svg>
