<svg id="Layer_2" data-name="Layer 2" xmlns="http://www.w3.org/2000/svg" viewBox="0 0 36 36"><defs><style>.cls-1{fill:#4f4f4f;}</style></defs><title>settings</title><path class="cls-1" d="M18,30a12.21,12.21,0,0,1-1.66-.12,1.62,1.62,0,0,1-1.35-2,.86.86,0,0,0-.05-.55.9.9,0,0,0-1.17-.45.86.86,0,0,0-.4.37,1.62,1.62,0,0,1-2.33.51,11.92,11.92,0,0,1-2.65-2.58,1.62,1.62,0,0,1,.44-2.35.88.88,0,0,0-.15-1.57.85.85,0,0,0-.54,0,1.62,1.62,0,0,1-2-1.29,11.93,11.93,0,0,1,0-3.69A1.62,1.62,0,0,1,8,15a.89.89,0,0,0,.55-.05.88.88,0,0,0,.1-1.56A1.62,1.62,0,0,1,8.2,11a11.93,11.93,0,0,1,2.56-2.63,1.62,1.62,0,0,1,2.33.42.86.86,0,0,0,.42.34.9.9,0,0,0,1.14-.51.88.88,0,0,0,0-.53,1.61,1.61,0,0,1,.22-1.27A1.63,1.63,0,0,1,16,6.14a11.91,11.91,0,0,1,3.66-.05A1.62,1.62,0,0,1,21,8a.87.87,0,0,0,.06.54A.9.9,0,0,0,22.23,9a.87.87,0,0,0,.39-.35,1.62,1.62,0,0,1,2.32-.49,12,12,0,0,1,2.64,2.55,1.62,1.62,0,0,1-.41,2.34.87.87,0,0,0,.16,1.56.89.89,0,0,0,.53,0,1.62,1.62,0,0,1,2,1.29h0a12,12,0,0,1,.07,3.68A1.62,1.62,0,0,1,28,21a.86.86,0,0,0-.55.05A.89.89,0,0,0,27,22.2a.86.86,0,0,0,.36.4,1.62,1.62,0,0,1,.51,2.33,11.94,11.94,0,0,1-2.57,2.66,1.62,1.62,0,0,1-2.35-.43.88.88,0,0,0-.42-.36.9.9,0,0,0-1.14.51.86.86,0,0,0,0,.54,1.62,1.62,0,0,1-1.29,2A12,12,0,0,1,18,30Zm-1.06-1.64h0ZM17,28a9.93,9.93,0,0,0,2.31,0,2.83,2.83,0,0,1,.17-1.36,2.93,2.93,0,0,1,3.72-1.66,2.83,2.83,0,0,1,1.16.83A9.93,9.93,0,0,0,26,24.09,2.83,2.83,0,0,1,25.14,23,2.88,2.88,0,0,1,28,19a10,10,0,0,0,0-2.3,2.87,2.87,0,0,1-2.19-5A10,10,0,0,0,24.1,10a2.89,2.89,0,0,1-2.22,1,2.89,2.89,0,0,1-2.64-1.71A2.85,2.85,0,0,1,19,8a9.93,9.93,0,0,0-2.3,0,2.86,2.86,0,0,1-.18,1.31A2.94,2.94,0,0,1,12.79,11a2.84,2.84,0,0,1-1.13-.79,9.91,9.91,0,0,0-1.61,1.65,2.88,2.88,0,0,1-.65,4.87A2.79,2.79,0,0,1,8,17a9.88,9.88,0,0,0,0,2.3,2.84,2.84,0,0,1,1.35.17,2.87,2.87,0,0,1,.83,4.88,9.94,9.94,0,0,0,1.66,1.61A2.87,2.87,0,0,1,13,25.11a2.94,2.94,0,0,1,3.81,1.46A2.86,2.86,0,0,1,17,28Zm7.05-2h0Zm4.29-9.4h0ZM9.83,12.18h0ZM26,11.93h0Zm-14.57-2h0Zm8-1.83h0Zm-2.75-.43h0ZM18,23.74a5.74,5.74,0,1,1,2.33-.5h0A5.69,5.69,0,0,1,18,23.74Zm0-9.49a3.74,3.74,0,1,0,1.52,7.16h0A3.74,3.74,0,0,0,18,14.26Z"/></svg>