<!-- Generated by IcoMoon.io -->
<svg version="1.1" xmlns="http://www.w3.org/2000/svg" width="1024" height="1024" viewBox="0 0 1024 1024">
<title></title>
<g id="icomoon-ignore">
</g>
<path d="M512 853.333c-16.717-0.068-33.082-1.307-49.094-3.637l1.876 0.224c-22.6-3.201-39.792-22.417-39.792-45.649 0-3.992 0.508-7.866 1.462-11.56l-0.070 0.32c0.432-1.719 0.679-3.693 0.679-5.725 0-3.591-0.774-7.002-2.164-10.074l0.062 0.154c-4.161-8.842-12.996-14.853-23.235-14.853-3.629 0-7.082 0.755-10.21 2.117l0.165-0.064c-4.879 2.239-8.793 5.878-11.314 10.4l-0.064 0.124c-8.138 13.774-22.91 22.867-39.806 22.867-9.914 0-19.096-3.131-26.613-8.457l0.143 0.096c-29.097-20.769-53.976-45.016-74.758-72.531l-0.619-0.856c-5.777-7.615-9.254-17.251-9.254-27.699 0-16.446 8.615-30.879 21.578-39.033l0.191-0.112c7.153-4.489 11.838-12.334 11.838-21.272 0-10.615-6.608-19.687-15.935-23.327l-0.17-0.059c-2.291-0.794-4.932-1.252-7.68-1.252s-5.389 0.458-7.85 1.303l0.17-0.051c-3.45 0.926-7.411 1.457-11.496 1.457-22.647 0-41.479-16.338-45.351-37.87l-0.042-0.28c-2.598-15.775-4.083-33.954-4.083-52.48s1.485-36.705 4.341-54.425l-0.259 1.945c4.36-21.28 22.931-37.060 45.189-37.060 2.726 0 5.398 0.237 7.994 0.691l-0.276-0.040c1.696 0.405 3.642 0.637 5.643 0.637 3.615 0 7.053-0.758 10.164-2.123l-0.163 0.064c8.891-3.971 14.975-12.736 14.975-22.922 0-9.059-4.813-16.994-12.021-21.388l-0.11-0.062c-13.6-8.177-22.559-22.855-22.559-39.625 0-10.74 3.674-20.621 9.834-28.457l-0.075 0.099c20.644-28.848 44.698-53.534 71.97-74.193l0.848-0.615c7.588-5.712 17.171-9.148 27.557-9.148 16.165 0 30.385 8.323 38.61 20.918l0.108 0.177c2.845 4.385 6.941 7.747 11.78 9.614l0.167 0.057c2.584 0.962 5.569 1.518 8.685 1.518 10.688 0 19.846-6.55 23.68-15.855l0.062-0.17c0.737-2.253 1.162-4.846 1.162-7.538s-0.425-5.285-1.211-7.715l0.050 0.177c-0.836-3.273-1.316-7.030-1.316-10.899 0-9.393 2.828-18.125 7.679-25.392l-0.105 0.167c7.399-10.434 18.794-17.616 31.91-19.318l0.233-0.025c17.024-3.032 36.623-4.766 56.626-4.766 16.749 0 33.214 1.215 49.312 3.563l-1.832-0.219c22.205 3.567 38.964 22.59 38.964 45.527 0 3.114-0.309 6.155-0.898 9.096l0.049-0.294c-0.336 1.528-0.528 3.284-0.528 5.084 0 3.726 0.823 7.259 2.298 10.429l-0.064-0.152c4.111 8.972 13.013 15.091 23.344 15.091 3.588 0 7.003-0.738 10.103-2.071l-0.166 0.064c4.688-2.159 8.481-5.586 11.031-9.843l0.062-0.113c8.205-13.468 22.811-22.325 39.485-22.325 9.93 0 19.126 3.141 26.649 8.483l-0.143-0.096c28.934 20.578 53.707 44.538 74.49 71.711l0.603 0.822c5.857 7.647 9.385 17.348 9.385 27.872 0 16.145-8.303 30.351-20.872 38.58l-0.176 0.108c-7.129 4.427-11.805 12.214-11.805 21.093 0 10.657 6.737 19.741 16.184 23.225l0.172 0.055c2.254 0.728 4.847 1.148 7.538 1.148s5.284-0.42 7.717-1.198l-0.179 0.049c3.45-0.926 7.411-1.457 11.496-1.457 22.647 0 41.479 16.338 45.351 37.87l0.042 0.28c3.241 17.664 5.094 37.992 5.094 58.753 0 16.195-1.128 32.127-3.309 47.722l0.206-1.799c-2.506 23.305-22.068 41.292-45.831 41.292-3.209 0-6.341-0.328-9.365-0.952l0.298 0.051c-1.719-0.432-3.693-0.679-5.725-0.679-3.591 0-7.002 0.774-10.074 2.164l0.154-0.062c-8.77 4.104-14.737 12.855-14.737 22.999 0 3.504 0.712 6.843 1.999 9.878l-0.062-0.166c2.168 4.845 5.707 8.751 10.123 11.315l0.117 0.063c13.774 8.138 22.867 22.91 22.867 39.806 0 9.914-3.131 19.096-8.457 26.613l0.096-0.143c-20.685 29.196-44.841 54.165-72.271 75.055l-0.831 0.607c-7.638 5.833-17.318 9.345-27.82 9.345-16.365 0-30.738-8.531-38.914-21.389l-0.111-0.187c-2.796-4.585-6.896-8.134-11.781-10.179l-0.165-0.061c-2.584-0.962-5.569-1.518-8.685-1.518-10.688 0-19.846 6.55-23.68 15.855l-0.062 0.17c-0.784 2.292-1.237 4.933-1.237 7.68s0.453 5.388 1.288 7.852l-0.051-0.172c0.926 3.45 1.457 7.411 1.457 11.496 0 22.647-16.338 41.479-37.87 45.351l-0.28 0.042c-16.26 2.745-34.993 4.313-54.092 4.313-1.984 0-3.963-0.017-5.939-0.051l0.297 0.004zM481.849 806.684v0zM483.556 796.444c9.862 1.221 21.276 1.917 32.853 1.917s22.992-0.697 34.205-2.050l-1.351 0.133c-0.37-2.899-0.581-6.252-0.581-9.655 0-10.442 1.988-20.419 5.607-29.575l-0.19 0.545c12.665-30.884 42.499-52.239 77.321-52.239 10.224 0 20.018 1.841 29.068 5.209l-0.576-0.188c13.207 5.154 24.303 13.233 32.893 23.484l0.102 0.125c17.485-14.477 32.82-30.534 46.129-48.204l0.52-0.72c-10.483-8.106-18.796-18.516-24.257-30.5l-0.206-0.504c-4.135-9.462-6.541-20.488-6.541-32.076 0-45.243 36.677-81.92 81.92-81.92 2.102 0 4.185 0.079 6.246 0.235l-0.275-0.017c1.202-9.818 1.887-21.185 1.887-32.711s-0.686-22.893-2.018-34.061l0.131 1.35c-2.405 0.251-5.196 0.395-8.020 0.395-45.086 0-81.636-36.549-81.636-81.636 0-24.212 10.54-45.962 27.282-60.912l0.080-0.070c-14.392-18.159-30.368-34.045-48.021-47.888l-0.619-0.467c-15.158 17.468-37.393 28.45-62.193 28.45-0.335 0-0.67-0.002-1.004-0.006h0.051c-0.016 0-0.035 0-0.053 0-33.244 0-61.879-19.733-74.83-48.126l-0.21-0.514c-4.373-9.644-6.921-20.913-6.921-32.776 0-1.378 0.034-2.748 0.102-4.108l-0.008 0.191c-9.818-1.21-21.184-1.901-32.711-1.901s-22.893 0.69-34.058 2.032l1.347-0.132c0.242 2.356 0.38 5.090 0.38 7.857 0 10.578-2.019 20.685-5.693 29.956l0.192-0.551c-12.563 31.3-42.656 52.999-77.816 52.999-10.144 0-19.866-1.806-28.862-5.114l0.58 0.187c-12.785-4.968-23.57-12.645-32.060-22.375l-0.082-0.096c-17.126 13.949-32.166 29.351-45.318 46.293l-0.478 0.64c18.547 15.139 30.294 38 30.294 63.606 0 33.249-19.808 61.871-48.267 74.71l-0.516 0.208c-10.067 4.961-21.915 7.863-34.44 7.863-1.894 0-3.772-0.066-5.632-0.197l0.251 0.014c-1.216 9.819-1.91 21.184-1.91 32.711s0.694 22.892 2.043 34.056l-0.132-1.345c2.822-0.349 6.088-0.549 9.401-0.549 10.429 0 20.396 1.976 29.547 5.574l-0.548-0.19c31.065 12.016 52.697 41.649 52.697 76.334 0 25.014-11.25 47.4-28.967 62.375l-0.121 0.099c14.031 17.122 29.525 32.165 46.56 45.308l0.658 0.488c8.675-10.559 19.767-18.819 32.449-23.981l0.546-0.197c9.631-4.193 20.85-6.633 32.639-6.633 33.309 0 62.069 19.473 75.517 47.657l0.217 0.505c3.806 9.082 6.018 19.636 6.018 30.706 0 3.514-0.223 6.976-0.655 10.373l0.042-0.403zM684.089 739.556v0zM806.116 472.178v0zM279.609 346.453v0zM739.556 339.342v0zM325.12 282.453v0zM552.676 230.4v0zM474.453 218.169v0zM512 675.271c-0.111 0-0.242 0-0.373 0-90.172 0-163.271-73.099-163.271-163.271s73.099-163.271 163.271-163.271c90.172 0 163.271 73.099 163.271 163.271 0 66.034-39.201 122.912-95.601 148.631l-1.021 0.417c-19.478 8.974-42.264 14.212-66.272 14.222h-0.004zM512 405.333c-58.676 0.103-106.202 47.692-106.202 106.382 0 58.753 47.629 106.382 106.382 106.382 15.585 0 30.387-3.351 43.725-9.373l-0.67 0.271c37.27-17.087 62.692-54.073 62.692-96.997 0-58.593-47.37-106.123-105.903-106.381h-0.025z"></path>
</svg>
