<!-- Generated by IcoMoon.io -->
<svg version="1.1" xmlns="http://www.w3.org/2000/svg" width="1024" height="1024" viewBox="0 0 1024 1024">
<title></title>
<g id="icomoon-ignore">
</g>
<path d="M512 915.556c-222.879 0-403.556-180.677-403.556-403.556s180.677-403.556 403.556-403.556c222.879 0 403.556 180.677 403.556 403.556v0c0 222.879-180.677 403.556-403.556 403.556v0zM512 173.013c-187.218 0-338.987 151.769-338.987 338.987s151.769 338.987 338.987 338.987c187.218 0 338.987-151.769 338.987-338.987v0c0-187.218-151.769-338.987-338.987-338.987v0z"></path>
<path d="M512 802.56v0c-0.125 0-0.274 0-0.422 0-39.857 0-77.831-8.070-112.372-22.667l1.897 0.711c-11.821-4.983-19.968-16.471-19.968-29.863 0-17.849 14.469-32.315 32.315-32.315 4.456 0 8.7 0.902 12.561 2.531l-0.211-0.079c25.402 10.821 54.954 17.11 85.974 17.11 0.079 0 0.159 0 0.238 0h-0.011c17.83 0 32.284 14.454 32.284 32.284s-14.454 32.284-32.284 32.284v0zM610.791 782.866c-0.049 0-0.105 0-0.162 0-17.83 0-32.284-14.454-32.284-32.284 0-13.408 8.172-24.903 19.805-29.785l0.212-0.079c28.483-11.831 52.821-28.196 73.306-48.448l-0.022 0.021c5.846-5.846 13.921-9.461 22.842-9.461 17.839 0 32.303 14.461 32.303 32.303 0 8.921-3.615 16.996-9.461 22.842v0c-26.227 26.355-57.483 47.674-92.214 62.402l-1.895 0.713c-3.174 1.145-6.836 1.809-10.652 1.809-0.51 0-1.018-0.010-1.524-0.034l0.072 0.002zM329.593 727.175c-0.007 0-0.018 0-0.026 0-8.87 0-16.902-3.577-22.735-9.364l0.002 0.002c-26.361-26.223-47.681-57.481-62.403-92.215l-0.712-1.894c-1.797-3.894-2.847-8.453-2.847-13.257 0-17.83 14.454-32.284 32.284-32.284 13.656 0 25.332 8.479 30.050 20.461l0.076 0.22c11.85 28.422 28.209 52.705 48.446 73.143l-0.019-0.019c5.899 5.852 9.551 13.959 9.551 22.923 0 17.83-14.454 32.284-32.284 32.284-0.008 0-0.019 0-0.027 0h0.001zM750.581 643.075c-0.021 0-0.044 0-0.068 0-17.83 0-32.284-14.454-32.284-32.284 0-4.486 0.914-8.758 2.569-12.64l-0.079 0.21c10.918-25.508 17.269-55.192 17.273-86.359v-0.001c0-17.83 14.454-32.284 32.284-32.284v0c17.83 0 32.284 14.454 32.284 32.284v0 0c0.001 0.221 0.001 0.481 0.001 0.741 0 39.857-8.070 77.832-22.667 112.373l0.711-1.896c-4.998 11.758-16.451 19.854-29.795 19.854-0.024 0-0.048 0-0.071 0h0.003zM253.724 544.284c-17.83 0-32.284-14.454-32.284-32.284v0s0-1.454 0-1.938c0.046-39.439 8.051-76.995 22.498-111.162l-0.706 1.882c4.005-13.599 16.375-23.358 31.026-23.358 17.83 0 32.284 14.454 32.284 32.284 0 5.988-1.632 11.599-4.472 16.405l0.081-0.15c-10.22 24.766-16.153 53.52-16.153 83.66 0 0.836 0.004 1.67 0.015 2.504l-0.001-0.127c0 17.83-14.454 32.284-32.284 32.284v0zM750.258 444.203c-0.021 0-0.044 0-0.068 0-13.344 0-24.797-8.096-29.716-19.644l-0.079-0.21c-12.060-28.466-28.687-52.75-49.217-73.11l-0.017-0.017c-5.895-5.853-9.541-13.963-9.541-22.923 0-17.839 14.461-32.303 32.303-32.303 8.88 0 16.923 3.583 22.761 9.382l-0.002-0.002c26.443 26.077 47.863 57.17 62.722 91.748l0.717 1.877c1.572 3.673 2.49 7.944 2.49 12.43 0 17.798-14.401 32.231-32.185 32.284h-0.005zM328.786 361.877c-0.007 0-0.018 0-0.026 0-17.83 0-32.284-14.454-32.284-32.284 0-8.881 3.586-16.925 9.389-22.761l-0.001 0.001c26.195-26.374 57.389-47.739 92.054-62.556l1.895-0.722c3.894-1.797 8.453-2.847 13.257-2.847 17.83 0 32.284 14.454 32.284 32.284 0 13.656-8.479 25.332-20.461 30.050l-0.22 0.076c-28.455 12.085-52.739 28.709-73.113 49.223l-0.011 0.011c-5.74 5.933-13.716 9.67-22.567 9.845h-0.032zM609.984 305.056c0 0-0.001 0-0.001 0-4.423 0-8.642-0.889-12.48-2.5l0.211 0.079c-25.099-10.518-54.268-16.627-84.863-16.627-0.3 0-0.601 0.001-0.901 0.002h0.047c-17.83 0-32.284-14.454-32.284-32.284v0c0-17.83 14.454-32.284 32.284-32.284v0 0c0.167 0 0.361 0 0.558 0 39.558 0 77.262 7.949 111.6 22.34l-1.907-0.708c11.847 4.961 20.018 16.456 20.018 29.863 0 17.83-14.454 32.284-32.284 32.284 0 0-0.001 0-0.001 0v0z"></path>
<path d="M490.692 648.885c-15.495-2.072-29.542-6.325-42.51-12.477l0.864 0.37c-13.084-5.832-24.294-13.425-33.945-22.643l0.046 0.044 15.175-21.469c1.289-1.936 2.969-3.51 4.934-4.643l0.072-0.036c1.87-1.115 4.127-1.775 6.535-1.775 0.029 0 0.057 0 0.086 0h-0.004c3.328 0.135 6.381 1.204 8.937 2.945l10.755 6.904c3.808 2.501 8.351 5.129 13.038 7.519l0.843 0.389c5.325 2.713 11.504 4.791 18.010 5.918l0.394 0.055 7.264-85.070q-13.561-3.875-26.635-8.878c-9.078-3.534-16.92-8.104-23.908-13.697l0.178 0.137c-7.054-5.801-12.763-12.958-16.782-21.096l-0.167-0.373c-3.861-8.96-6.107-19.392-6.107-30.347s2.246-21.387 6.302-30.857l-0.196 0.51c3.907-9.602 9.366-17.808 16.151-24.709l-0.009 0.009c7.633-7.383 16.619-13.42 26.542-17.698l0.576-0.221c10.467-4.498 22.651-7.115 35.445-7.115 0.534 0 1.067 0.004 1.599 0.015l-0.080-0.001 2.098-24.213c0.311-3.237 1.734-6.096 3.875-8.231v0c2.027-2.185 4.874-3.584 8.048-3.711l0.023-0.001h17.273l-3.228 37.287c12.965 1.867 24.663 5.834 35.26 11.574l-0.554-0.275c9.689 5.383 18.056 11.486 25.585 18.478l-0.081-0.075-11.46 17.273c-1.48 2.197-3.245 4.065-5.27 5.607l-0.056 0.043c-1.723 1.214-3.867 1.941-6.181 1.941-0.097 0-0.194-0.001-0.288-0.003h0.016c-2.492-0.096-4.811-0.74-6.868-1.818l0.090 0.043-8.878-4.359-10.332-5.003c-3.785-1.695-8.256-3.194-12.893-4.261l-0.504-0.098-6.78 78.613q13.721 4.196 27.118 9.202c9.247 3.479 17.243 7.888 24.476 13.263l-0.263-0.186c7.119 5.326 12.963 11.941 17.271 19.543l0.162 0.311c4.473 8.214 7.106 17.986 7.106 28.374 0 0.182-0.001 0.364-0.002 0.549v-0.028c0.001 0.125 0.001 0.273 0.001 0.421 0 11.743-2.192 22.972-6.187 33.301l0.216-0.631c-4.043 10.593-9.851 19.668-17.142 27.313l0.030-0.031c-7.846 8.464-17.288 15.32-27.866 20.119l-0.546 0.222c-11.088 4.902-23.959 8.094-37.478 8.863l-0.296 0.015-2.261 27.925c-0.351 3.178-1.765 5.974-3.875 8.071l-0.001 0.001c-2.128 2.291-5.16 3.717-8.521 3.717-0.126 0-0.251-0.002-0.376-0.005h-17.414zM471.484 444.203c-0.008 0.28-0.016 0.609-0.016 0.939 0 8.533 3.6 16.226 9.361 21.644l0.017 0.016c3.052 2.883 6.498 5.402 10.235 7.458l0.258 0.13c3.679 2.060 8.043 4.070 12.566 5.754l0.671 0.219 5.973-70.219c-6.636 0.754-12.695 2.346-18.369 4.686l0.452-0.166c-4.674 1.947-8.684 4.56-12.131 7.77l0.024-0.023c-2.957 2.785-5.314 6.178-6.871 9.98l-0.070 0.192c-1.33 3.4-2.098 7.336-2.098 11.451 0 0.059 0 0.121 0 0.18v-0.008zM563.815 568.498c0.003-0.17 0.005-0.37 0.005-0.57 0-4.357-0.954-8.492-2.664-12.205l0.075 0.181c-1.831-3.794-4.271-7.012-7.235-9.659l-0.029-0.026c-3.167-2.827-6.78-5.252-10.699-7.143l-0.277-0.121c-3.731-1.858-8.27-3.715-12.948-5.267l-0.773-0.222-6.457 77.159c11.911-0.903 22.509-5.902 30.526-13.576l-0.019 0.018c6.528-7.079 10.532-16.57 10.532-26.996 0-0.61-0.015-1.217-0.042-1.822l0.003 0.085z"></path>
</svg>
