<!-- Generated by IcoMoon.io -->
<svg version="1.1" xmlns="http://www.w3.org/2000/svg" width="1024" height="1024" viewBox="0 0 1024 1024">
<title></title>
<g id="icomoon-ignore">
</g>
<path fill="#000" d="M491.784 375.741c-3.238 7.704-5.12 16.658-5.12 26.051 0 0.041 0 0.083 0 0.124v-0.006c-0.007 0.349-0.011 0.76-0.011 1.173 0 9.893 2.206 19.272 6.152 27.67l-0.168-0.398c3.985 7.788 9.342 14.327 15.814 19.537l0.115 0.089c6.363 5.155 13.695 9.47 21.622 12.603l0.564 0.197q12.516 4.836 25.316 8.533l-6.542 97.564c-7.885-0.812-15.108-2.826-21.765-5.866l0.432 0.177c-5.974-2.785-11.009-5.629-15.803-8.81l0.443 0.276-10.809-7.964c-2.12-1.921-4.876-3.175-7.919-3.41l-0.046-0.003c-0.725-0.201-1.558-0.317-2.418-0.317s-1.693 0.116-2.484 0.332l0.066-0.015c-1.48 0.884-2.713 2.026-3.673 3.376l-0.025 0.037-9.956 15.076c8.892 9.196 19.337 16.822 30.923 22.469l0.651 0.286c11.856 5.804 25.658 9.755 40.222 11.060l0.454 0.033-3.413 44.373h12.231c0.131 0.007 0.283 0.011 0.437 0.011 2.392 0 4.554-0.984 6.103-2.57l0.002-0.002c1.649-1.598 2.713-3.792 2.843-6.234l0.001-0.024 2.276-32.142c12.794-0.706 24.72-3.672 35.635-8.505l-0.648 0.256c10.075-4.47 18.664-10.508 25.867-17.902l0.017-0.018c6.895-7.125 12.398-15.644 16.040-25.089l0.173-0.511c3.427-8.883 5.412-19.162 5.412-29.905 0-0.387-0.003-0.773-0.008-1.158l0.001 0.058c0.032-0.718 0.051-1.56 0.051-2.406 0-9.509-2.333-18.473-6.458-26.351l0.149 0.313c-4.292-7.511-9.918-13.773-16.614-18.657l-0.168-0.117c-6.635-4.847-14.245-8.974-22.384-12.016l-0.656-0.215-26.169-9.102 5.973-89.031c6.086 0.971 11.538 2.556 16.682 4.727l-0.469-0.176c4.818 1.963 8.84 3.966 12.694 6.224l-0.463-0.251 9.102 5.404c1.756 1.246 3.894 2.067 6.209 2.272l0.049 0.003c3.692-0.186 6.851-2.301 8.507-5.35l0.027-0.054 7.964-12.231c-7.207-7.179-15.444-13.33-24.47-18.211l-0.561-0.278c-9.657-5.070-20.922-8.598-32.853-9.917l-0.427-0.038 2.276-36.124h-12.231c-0.091-0.004-0.198-0.006-0.305-0.006-2.486 0-4.716 1.1-6.228 2.84l-0.009 0.010c-1.523 1.646-2.482 3.833-2.56 6.242v0.015l-1.991 26.453c-12.175 0.292-23.669 2.878-34.173 7.341l0.609-0.23c-9.582 4.048-17.785 9.516-24.773 16.238l0.026-0.025c-6.408 6.154-11.593 13.526-15.19 21.751l-0.17 0.436zM577.117 478.994q9.102 2.844 16.782 6.258c5.328 2.229 9.924 4.999 14.045 8.333l-0.107-0.084c3.842 3.095 6.99 6.879 9.292 11.184l0.095 0.194c2.163 4.355 3.429 9.485 3.429 14.91 0 0.358-0.006 0.715-0.016 1.071l0.001-0.052c0.004 0.233 0.006 0.508 0.006 0.783 0 6.452-1.149 12.637-3.253 18.359l0.119-0.369c-2.226 5.888-5.515 10.915-9.672 15.076v0c-4.39 4.34-9.577 7.886-15.319 10.397l-0.326 0.127c-6.254 2.718-13.507 4.546-21.112 5.107l-0.221 0.013zM520.229 383.99c2.013-4.908 4.907-9.079 8.517-12.5l0.016-0.015c4.088-3.787 8.9-6.864 14.195-8.992l0.312-0.111c6.091-2.524 13.147-4.247 20.525-4.821l0.239-0.015-5.973 83.342c-6.312-2.107-11.577-4.32-16.645-6.869l0.716 0.326c-4.886-2.402-9.096-5.248-12.859-8.585l0.059 0.052c-3.497-3.153-6.363-6.928-8.438-11.161l-0.096-0.216c-1.982-4.272-3.138-9.273-3.138-14.544 0-0.287 0.003-0.573 0.010-0.858l-0.001 0.042c-0.014-0.383-0.022-0.834-0.022-1.286 0-4.961 0.948-9.7 2.672-14.047l-0.090 0.258z"></path>
<path fill="#000" d="M913.046 387.972c-39.431-165.045-185.671-285.859-360.13-285.859-154.189 0-286.337 94.372-341.833 228.507l-0.9 2.455c-1.363 1.057-2.572 2.176-3.677 3.39l-0.021 0.023c-18.721 25.913-34.334 55.764-45.356 87.754l-0.724 2.415c-36.649 50.592-58.623 113.9-58.623 182.341 0 172.804 140.085 312.889 312.889 312.889 25.335 0 49.967-3.011 73.558-8.695l-2.135 0.434c44.168-10.17 82.973-28.408 116.628-53.227l-0.859 0.605c1.125-1.044 2.15-2.16 3.082-3.351l0.047-0.063c32.57-11.705 60.78-26.796 86.32-45.34l-0.986 0.682c137.088-56.166 231.893-188.566 231.893-343.108 0-29.019-3.343-57.257-9.664-84.35l0.491 2.499zM482.966 164.683c20.895-4.974 44.885-7.826 69.541-7.826 172.804 0 312.889 140.085 312.889 312.889s-140.085 312.889-312.889 312.889c-148.144 0-272.242-102.957-304.643-241.221l-0.418-2.117c-4.975-20.898-7.828-44.891-7.828-69.55 0-148.148 102.961-272.247 241.23-304.645l2.117-0.418zM416.122 813.216c-102.931-26.473-182.295-106.215-207.792-207.376l-0.422-1.975c38.221 96.037 112.661 170.755 206.016 208.465l2.481 0.886zM165.811 664.736c0-3.413 0-6.542-1.707-9.956 27.118 71.87 75.51 130.548 137.417 169.841l1.391 0.825c22.41 14.342 48.2 26.681 75.497 35.709l2.441 0.699c-105.814-15.495-189.745-93.871-213.281-195.393l-0.337-1.727z"></path>
<path fill="#000" d="M802.397 545.839c-3.27-1.421-7.080-2.248-11.082-2.248-11.692 0-21.737 7.054-26.109 17.139l-0.071 0.184c-10.185 23.449-23.076 43.634-38.633 61.427l0.233-0.272c-3.981 4.856-6.394 11.131-6.394 17.969 0 15.709 12.735 28.444 28.444 28.444 8.255 0 15.688-3.516 20.884-9.132l0.017-0.019c19.088-21.836 35.133-46.999 47.063-74.368l0.724-1.863c1.421-3.27 2.248-7.080 2.248-11.082 0-11.692-7.054-21.737-17.139-26.109l-0.184-0.071z"></path>
<path fill="#000" d="M671.269 668.434c-19.328 11.675-41.741 20.889-65.564 26.431l-1.565 0.307c-14.4 1.63-25.487 13.743-25.487 28.444 0 15.804 12.812 28.616 28.616 28.616 1.102 0 2.19-0.062 3.26-0.184l-0.131 0.012h6.258c31.637-7.354 59.554-18.918 84.908-34.286l-1.282 0.721c7.134-5.232 11.714-13.583 11.714-23.004 0-15.709-12.735-28.444-28.444-28.444-4.245 0-8.273 0.93-11.891 2.597l0.177-0.073z"></path>
<path fill="#000" d="M353.829 588.79c-4.576-9.948-14.456-16.73-25.92-16.73-15.709 0-28.444 12.735-28.444 28.444 0 6.288 2.041 12.1 5.496 16.809l-0.056-0.079c15.824 26.612 34.71 49.392 56.599 68.867l0.289 0.253c4.856 3.981 11.131 6.394 17.969 6.394 15.709 0 28.444-12.735 28.444-28.444 0-8.255-3.516-15.688-9.132-20.884l-0.019-0.017c-17.591-15.612-32.597-33.605-44.649-53.581l-0.578-1.032z"></path>
<path fill="#000" d="M779.073 418.408c3.616 15.366 5.689 33.010 5.689 51.138 0 0.122 0 0.244 0 0.366v-0.019c0 6.827 0 13.653 0 20.48-0.128 1.014-0.201 2.188-0.201 3.379 0 13.768 9.782 25.251 22.775 27.879l0.182 0.031h2.56c0.034 0 0.075 0 0.115 0 14.808 0 26.973-11.316 28.321-25.772l0.008-0.113q0-12.8 0-25.6c0-0.187 0.001-0.409 0.001-0.631 0-21.956-2.488-43.331-7.197-63.859l0.369 1.912v-3.698c-3.568-11.92-14.437-20.459-27.301-20.459-2.426 0-4.781 0.304-7.029 0.875l0.197-0.042c-11.374 3.895-19.406 14.495-19.406 26.97 0 2.546 0.334 5.014 0.962 7.362l-0.045-0.199z"></path>
<path fill="#000" d="M531.891 700.292c-25.782-2.363-49.511-8.624-71.453-18.212l1.48 0.576c-3.313-1.46-7.175-2.31-11.236-2.31-15.728 0-28.479 12.75-28.479 28.479 0 11.668 7.017 21.697 17.060 26.097l0.183 0.072c25.529 11.309 55.135 19.182 86.182 22.1l1.142 0.087h2.56c0.382 0.018 0.83 0.029 1.28 0.029 15.725 0 28.473-12.748 28.473-28.473 0-15.275-12.028-27.741-27.13-28.442l-0.063-0.002z"></path>
<path fill="#000" d="M272.193 536.452l27.022-8.533 28.444-6.827c-3.917-15.466-6.288-33.279-6.54-51.604l-0.002-0.165c0-6.827 0-13.369 0-20.196 0.073-0.767 0.115-1.659 0.115-2.56 0-15.773-12.786-28.559-28.559-28.559-14.872 0-27.088 11.367-28.436 25.887l-0.008 0.113c0 8.249 0 16.782 0 25.316 0.018 22.396 2.608 44.179 7.492 65.079l-0.381-1.933z"></path>
<path fill="#000" d="M302.344 394.23c3.27 1.421 7.080 2.248 11.082 2.248 11.692 0 21.737-7.054 26.109-17.139l0.071-0.184c10.145-23.562 23.042-43.845 38.635-61.715l-0.235 0.275c4.676-5.053 7.543-11.838 7.543-19.293 0-15.709-12.735-28.444-28.444-28.444-8.871 0-16.794 4.061-22.010 10.425l-0.040 0.050c-19.006 21.527-35.033 46.302-47.055 73.257l-0.732 1.837c-1.759 3.592-2.788 7.816-2.788 12.281 0 11.898 7.305 22.089 17.674 26.334l0.19 0.069z"></path>
<path fill="#000" d="M418.682 275.616c5.601-0.403 10.675-2.369 14.869-5.46l-0.078 0.055c19.322-11.791 41.731-21.1 65.566-26.712l1.563-0.31c12.733-3.013 22.062-14.284 22.062-27.733 0-15.719-12.743-28.462-28.462-28.462-2.27 0-4.477 0.266-6.593 0.768l0.193-0.039c-31.636 7.338-59.555 18.903-84.902 34.283l1.276-0.719c-8.399 5.047-13.932 14.109-13.932 24.464 0 15.709 12.735 28.444 28.444 28.444 0.098 0 0.196 0 0.293-0.001h-0.015z"></path>
<path fill="#000" d="M572.566 239.492c25.878 2.336 49.708 8.599 71.741 18.212l-1.483-0.577c3.314 1.453 7.176 2.299 11.236 2.299 15.801 0 28.61-12.809 28.61-28.61 0-11.741-7.072-21.83-17.19-26.239l-0.185-0.072c-25.631-11.254-55.352-19.036-86.511-21.823l-1.098-0.079c-0.724-0.065-1.567-0.103-2.418-0.103-15.766 0-28.547 12.781-28.547 28.547 0 14.915 11.438 27.158 26.021 28.437l0.108 0.008z"></path>
<path fill="#000" d="M750.629 350.71c5.079 8.242 14.056 13.654 24.297 13.654 0.058 0 0.116 0 0.175-0.001h-0.009c0.049 0 0.108 0 0.166 0 15.709 0 28.444-12.735 28.444-28.444 0-5.469-1.544-10.578-4.219-14.914l0.070 0.123c-15.847-26.497-34.728-49.18-56.592-68.577l-0.297-0.259c-4.856-3.981-11.131-6.394-17.969-6.394-15.709 0-28.444 12.735-28.444 28.444 0 8.255 3.516 15.688 9.132 20.884l0.019 0.017c17.612 15.857 32.627 34.131 44.639 54.395l0.588 1.072z"></path>
</svg>
