<!-- Generated by IcoMoon.io -->
<svg version="1.1" xmlns="http://www.w3.org/2000/svg" width="1024" height="1024" viewBox="0 0 1024 1024">
<title></title>
<g id="icomoon-ignore">
</g>
<path fill="#000" d="M512 867.556c-196.368 0-355.556-159.188-355.556-355.556s159.188-355.556 355.556-355.556c196.368 0 355.556 159.188 355.556 355.556v0c0 196.368-159.188 355.556-355.556 355.556v0zM512 213.333c-164.949 0-298.667 133.718-298.667 298.667s133.718 298.667 298.667 298.667c164.949 0 298.667-133.718 298.667-298.667v0c0-164.949-133.718-298.667-298.667-298.667v0z"></path>
<path fill="#000" d="M512 768v0c-0.11 0-0.241 0-0.371 0-35.117 0-68.573-7.11-99.007-19.97l1.672 0.627c-10.414-4.389-17.592-14.512-17.592-26.311 0-15.725 12.747-28.472 28.472-28.472 3.925 0 7.665 0.794 11.067 2.231l-0.187-0.070c22.381 9.534 48.417 15.076 75.747 15.076 0.070 0 0.141 0 0.211 0h-0.011c15.709 0 28.444 12.735 28.444 28.444s-12.735 28.444-28.444 28.444v0zM599.040 750.649c-0.043 0-0.093 0-0.144 0-15.709 0-28.444-12.735-28.444-28.444 0-11.812 7.2-21.942 17.45-26.242l0.188-0.070c25.096-10.424 46.539-24.842 64.588-42.685l-0.019 0.018c5.15-5.15 12.265-8.336 20.124-8.336 15.718 0 28.46 12.742 28.46 28.46 0 7.859-3.186 14.974-8.336 20.124v0c-23.107 23.22-50.646 42.004-81.246 54.98l-1.67 0.629c-2.796 1.010-6.023 1.593-9.386 1.593-0.45 0-0.898-0.010-1.344-0.031l0.063 0.002zM351.289 701.582c-0.007 0-0.015 0-0.023 0-7.814 0-14.892-3.151-20.032-8.251l0.002 0.002c-23.226-23.103-42.011-50.644-54.981-81.247l-0.628-1.669c-1.584-3.432-2.508-7.448-2.508-11.679 0-15.709 12.735-28.444 28.444-28.444 12.033 0 22.32 7.471 26.477 18.028l0.067 0.193c10.44 25.041 24.855 46.435 42.683 64.443l-0.016-0.016c5.197 5.156 8.414 12.3 8.414 20.196 0 15.709-12.735 28.444-28.444 28.444-0.008 0-0.016 0-0.024 0h0.001zM722.204 627.484c-0.018 0-0.038 0-0.059 0-15.709 0-28.444-12.735-28.444-28.444 0-3.952 0.806-7.717 2.263-11.137l-0.070 0.186c9.619-22.475 15.214-48.628 15.218-76.087v-0.001c0-15.709 12.735-28.444 28.444-28.444v0c15.709 0 28.444 12.735 28.444 28.444v0 0c0.001 0.194 0.001 0.424 0.001 0.654 0 35.117-7.11 68.574-19.97 99.008l0.627-1.671c-4.404 10.36-14.495 17.493-26.252 17.493-0.021 0-0.042 0-0.062 0h0.003zM284.444 540.444c-15.709 0-28.444-12.735-28.444-28.444v0s0-1.28 0-1.707c0.040-34.747 7.094-67.836 19.822-97.941l-0.622 1.657c3.528-11.982 14.428-20.58 27.336-20.58 15.709 0 28.444 12.735 28.444 28.444 0 5.277-1.437 10.219-3.941 14.455l0.072-0.132c-9.005 21.82-14.233 47.154-14.233 73.709 0 0.737 0.004 1.472 0.012 2.207l-0.001-0.112c0 15.709-12.735 28.444-28.444 28.444v0zM721.92 452.267c-0.018 0-0.038 0-0.059 0-11.757 0-21.848-7.133-26.182-17.307l-0.070-0.186c-10.626-25.079-25.276-46.477-43.364-64.413l-0.014-0.014c-5.193-5.157-8.407-12.301-8.407-20.196 0-15.718 12.742-28.46 28.46-28.46 7.824 0 14.91 3.157 20.055 8.266l-0.002-0.002c23.299 22.975 42.169 50.369 55.261 80.834l0.633 1.655c1.386 3.235 2.193 6.999 2.193 10.951 0 15.68-12.688 28.397-28.357 28.444h-0.005zM350.578 379.733c-0.007 0-0.015 0-0.023 0-15.709 0-28.444-12.735-28.444-28.444 0-7.825 3.16-14.912 8.273-20.055l-0.001 0.001c23.078-23.236 50.564-42.060 81.104-55.116l1.67-0.635c3.432-1.584 7.448-2.508 11.679-2.508 15.709 0 28.444 12.735 28.444 28.444 0 12.033-7.471 22.32-18.028 26.477l-0.193 0.067c-25.071 10.648-46.466 25.295-64.416 43.367l-0.011 0.011c-5.056 5.228-12.084 8.521-19.882 8.675h-0.029zM598.329 329.671c0 0-0.001 0-0.001 0-3.898 0-7.613-0.784-10.995-2.203l0.187 0.070c-22.114-9.267-47.812-14.65-74.768-14.65-0.264 0-0.529 0.001-0.793 0.002h0.041c-15.709 0-28.444-12.735-28.444-28.444v0c0-15.709 12.735-28.444 28.444-28.444v0 0c0.146 0 0.319 0 0.492 0 34.854 0 68.073 7.004 98.325 19.682l-1.679-0.624c10.437 4.37 17.636 14.5 17.636 26.311 0 15.709-12.735 28.444-28.444 28.444 0 0-0.001 0-0.001 0v0z"></path>
<path fill="#000" d="M493.227 632.604c-13.653-1.826-26.029-5.572-37.455-10.992l0.762 0.325c-11.527-5.139-21.405-11.829-29.907-19.949l0.040 0.038 13.369-18.916c1.136-1.705 2.615-3.093 4.346-4.091l0.063-0.033c1.648-0.983 3.635-1.565 5.758-1.565 0.026 0 0.051 0 0.077 0h-0.004c2.932 0.12 5.622 1.060 7.875 2.594l9.477 6.082c3.355 2.204 7.358 4.52 11.487 6.625l0.744 0.344c4.692 2.389 10.136 4.221 15.868 5.213l0.346 0.049 6.4-74.951q-11.947-3.413-23.467-7.822c-7.998-3.114-14.907-7.141-21.064-12.068l0.157 0.122c-6.214-5.111-11.245-11.416-14.787-18.588l-0.146-0.328c-3.402-7.895-5.381-17.085-5.381-26.738s1.979-18.843 5.552-27.188l-0.172 0.45c3.442-8.459 8.253-15.69 14.231-21.769l-0.009 0.009c6.724-6.504 14.642-11.824 23.386-15.592l0.507-0.194c9.222-3.964 19.957-6.269 31.23-6.269 0.471 0 0.941 0.004 1.41 0.012l-0.071-0.001 1.849-21.333c0.275-2.853 1.527-5.37 3.413-7.253v0c1.787-1.924 4.295-3.158 7.091-3.27l0.020-0.001h15.218l-2.844 32.853c11.423 1.645 21.729 5.141 31.066 10.197l-0.488-0.242c8.537 4.744 15.908 10.121 22.543 16.279l-0.072-0.066-10.098 15.218c-1.303 1.936-2.858 3.582-4.643 4.941l-0.050 0.037c-1.519 1.070-3.408 1.71-5.446 1.71-0.085 0-0.17-0.001-0.255-0.003h0.013c-2.195-0.084-4.238-0.653-6.052-1.602l0.078 0.037-7.822-3.84-9.102-4.409c-3.335-1.494-7.275-2.813-11.36-3.754l-0.444-0.086-5.973 69.262q12.089 3.698 23.893 8.107c8.146 3.065 15.191 6.949 21.566 11.685l-0.233-0.165c6.273 4.693 11.421 10.522 15.216 17.218l0.144 0.275c3.942 7.236 6.26 15.847 6.26 24.999 0 0.161-0.001 0.322-0.002 0.483v-0.025c0.001 0.11 0.001 0.24 0.001 0.37 0 10.345-1.931 20.239-5.452 29.341l0.189-0.556c-3.563 9.333-8.678 17.328-15.102 24.064l0.027-0.028c-6.913 7.456-15.233 13.499-24.551 17.725l-0.48 0.195c-9.768 4.32-21.109 7.131-33.020 7.81l-0.26 0.012-1.991 24.604c-0.309 2.8-1.555 5.263-3.413 7.111l-0.001 0.001c-1.876 2.018-4.545 3.276-7.507 3.276-0.111 0-0.221-0.002-0.331-0.005h-15.344zM476.302 452.267c-0.008 0.247-0.013 0.537-0.013 0.828 0 7.519 3.171 14.297 8.248 19.070l0.014 0.013c2.689 2.541 5.724 4.76 9.017 6.57l0.228 0.115c3.241 1.814 7.086 3.587 11.072 5.070l0.59 0.192 5.262-61.867c-5.847 0.664-11.186 2.067-16.185 4.128l0.398-0.145c-4.119 1.716-7.652 4.017-10.688 6.846l0.021-0.020c-2.606 2.455-4.681 5.443-6.055 8.792l-0.061 0.168c-1.171 2.995-1.849 6.463-1.849 10.089 0 0.053 0 0.106 0 0.159v-0.008zM557.653 561.778c0.003-0.149 0.005-0.325 0.005-0.501 0-3.838-0.84-7.481-2.346-10.753l0.066 0.16c-1.612-3.344-3.764-6.178-6.374-8.51l-0.026-0.023c-2.789-2.491-5.973-4.628-9.427-6.294l-0.244-0.106c-3.287-1.636-7.286-3.274-11.409-4.64l-0.68-0.195-5.689 67.982c10.495-0.795 19.833-5.2 26.896-11.962l-0.016 0.015c5.751-6.236 9.278-14.599 9.278-23.786 0-0.538-0.012-1.073-0.036-1.606l0.003 0.076z"></path>
</svg>
