<svg id="Layer_2" data-name="Layer 2" xmlns="http://www.w3.org/2000/svg" viewBox="0 0 36 36"><defs><style>.cls-1{fill:#4f4f4f;}</style></defs><title>by_price</title><path class="cls-1" d="M31.71,13.14A13,13,0,0,0,7,11.21a1,1,0,0,0-.13.12A12.08,12.08,0,0,0,5.25,14.5h0A11,11,0,0,0,16.7,31.62a11,11,0,0,0,4.07-1.85,1,1,0,0,0,.11-.12,12,12,0,0,0,3-1.57A13,13,0,0,0,31.71,13.14ZM16.59,5.29A11,11,0,1,1,8.31,18.46,11,11,0,0,1,16.59,5.29Zm-2.35,22.8a10.06,10.06,0,0,1-7.32-7.36A13,13,0,0,0,14.25,28.09Zm-8.8-5.22c0-.12,0-.23-.06-.35a12,12,0,0,0,4.88,6A12.15,12.15,0,0,0,13,29.8a9,9,0,0,1-7.51-6.93Z"/><path class="cls-1" d="M27.82,18.69a1,1,0,0,0-1.31.53,8.18,8.18,0,0,1-1.35,2.15,1,1,0,0,0,1.51,1.31A10.16,10.16,0,0,0,28.35,20,1,1,0,0,0,27.82,18.69Z"/><path class="cls-1" d="M27,14.21a8.2,8.2,0,0,1,.2,1.81c0,.24,0,.49,0,.73A1,1,0,0,0,28,17.84h.09a1,1,0,0,0,1-.91c0-.3,0-.6,0-.91a10,10,0,0,0-.25-2.21l0-.12a1,1,0,0,0-1.2-.69A1,1,0,0,0,27,14.21Z"/><path class="cls-1" d="M12.05,20.2a1,1,0,1,0-1.72,1,10,10,0,0,0,2,2.43,1,1,0,1,0,1.31-1.51A8.07,8.07,0,0,1,12.05,20.2Z"/><path class="cls-1" d="M18.3,24.12a8.08,8.08,0,0,1-2.46-.62,1,1,0,1,0-.79,1.84,10.08,10.08,0,0,0,3.07.78h.09a1,1,0,0,0,.09-2Z"/><path class="cls-1" d="M26,11.83a1,1,0,0,0,1.71-1,10.07,10.07,0,0,0-2-2.43,1,1,0,0,0-1.31,1.51A8.1,8.1,0,0,1,26,11.83Z"/><path class="cls-1" d="M23.21,23a8.15,8.15,0,0,1-2.36.94,1,1,0,0,0,.22,2l.22,0a10.12,10.12,0,0,0,2.94-1.18,1,1,0,0,0-1-1.72Z"/><path class="cls-1" d="M10.24,13.36a1,1,0,0,0,1.31-.53,8.15,8.15,0,0,1,1.35-2.16,1,1,0,1,0-1.51-1.31A10.16,10.16,0,0,0,9.71,12,1,1,0,0,0,10.24,13.36Z"/><path class="cls-1" d="M9.18,18.36l.95-.3,1-.24A8.18,8.18,0,0,1,10.9,16q0-.36,0-.71a1,1,0,0,0-2-.18c0,.29,0,.59,0,.89a10.06,10.06,0,0,0,.26,2.25Z"/><path class="cls-1" d="M14.33,9.19A1,1,0,0,0,14.85,9a8.07,8.07,0,0,1,2.36-.95,1,1,0,1,0-.45-1.95,10.06,10.06,0,0,0-2.94,1.18,1,1,0,0,0,.52,1.86Z"/><path class="cls-1" d="M19.74,7.92a8.09,8.09,0,0,1,2.47.62A1,1,0,0,0,23,6.69a10.06,10.06,0,0,0-3.08-.77,1,1,0,0,0-.17,2Z"/><path class="cls-1" d="M14.73,12.42a2.89,2.89,0,0,1-1.35,2.31s.08,2,1.9,1.28c1.6-.59,1,1.56.87,2.09a.56.56,0,0,1-.12.21l-1.4,1.6a.58.58,0,0,0,0,.79,5.29,5.29,0,0,0,4.09,1.69,8.32,8.32,0,0,0,4.18-1.79.58.58,0,0,0,0-.95l-1.45-.9s2.28.08,2.12-.68a5.19,5.19,0,0,1,.3-2.05h.83l-.86-1.48a.56.56,0,0,1,0-.52c.06-.13.06-.34-.17-.65-.45-.61.46-1.74-.3-2.12S20.44,9,18.24,9.88,14.64,11,14.73,12.42Z"/></svg>