<svg id="Layer_2" data-name="Layer 2" xmlns="http://www.w3.org/2000/svg" viewBox="0 0 36 36"><defs><style>.cls-1{fill:#4f4f4f;}</style></defs><title>by_price copy</title><path class="cls-1" d="M16.9,12.71a2.42,2.42,0,0,0-.18.92,2.29,2.29,0,0,0,.21,1,2.09,2.09,0,0,0,.56.69,2.93,2.93,0,0,0,.78.45q.44.17.89.3l-.23,3.43a2.43,2.43,0,0,1-.75-.2,4.21,4.21,0,0,1-.54-.3l-.38-.28a.47.47,0,0,0-.28-.12.33.33,0,0,0-.17,0,.42.42,0,0,0-.13.12l-.35.53a3.86,3.86,0,0,0,1.11.8,4.15,4.15,0,0,0,1.43.39L18.75,22h.43a.3.3,0,0,0,.23-.09.33.33,0,0,0,.1-.22l.08-1.13a3.57,3.57,0,0,0,1.23-.29,2.88,2.88,0,0,0,.91-.63,2.63,2.63,0,0,0,.57-.9,3,3,0,0,0,.19-1.09,2,2,0,0,0-.22-1,2.07,2.07,0,0,0-.59-.66,3.34,3.34,0,0,0-.81-.43l-.92-.32.21-3.13a2.51,2.51,0,0,1,.57.16,3.45,3.45,0,0,1,.43.21l.32.19a.45.45,0,0,0,.22.08.36.36,0,0,0,.3-.19l.28-.43a3.73,3.73,0,0,0-.88-.65,3.34,3.34,0,0,0-1.17-.35l.08-1.27h-.43a.29.29,0,0,0-.23.1.34.34,0,0,0-.09.22l-.07.93a3.27,3.27,0,0,0-1.18.25,2.82,2.82,0,0,0-.87.57A2.38,2.38,0,0,0,16.9,12.71Zm3,3.63q.32.1.59.22a2,2,0,0,1,.49.29,1.27,1.27,0,0,1,.33.4,1.2,1.2,0,0,1,.12.56,1.87,1.87,0,0,1-.11.66,1.48,1.48,0,0,1-.34.53,1.78,1.78,0,0,1-.55.37,2.36,2.36,0,0,1-.75.18ZM17.9,13a1.25,1.25,0,0,1,.3-.44,1.63,1.63,0,0,1,.51-.32,2.45,2.45,0,0,1,.73-.17L19.23,15a4.38,4.38,0,0,1-.56-.23,2,2,0,0,1-.45-.3,1.29,1.29,0,0,1-.3-.4,1.24,1.24,0,0,1-.11-.54A1.34,1.34,0,0,1,17.9,13Z"/><path class="cls-1" d="M31.71,13.14A13,13,0,0,0,7,11.21a1,1,0,0,0-.13.12A12.08,12.08,0,0,0,5.25,14.5h0A11,11,0,0,0,16.7,31.62a11,11,0,0,0,4.07-1.85,1,1,0,0,0,.11-.12,12,12,0,0,0,3-1.57A13,13,0,0,0,31.71,13.14ZM16.59,5.29A11,11,0,1,1,8.31,18.46,11,11,0,0,1,16.59,5.29Zm-2.35,22.8a10.06,10.06,0,0,1-7.32-7.36A13,13,0,0,0,14.25,28.09Zm-8.8-5.22c0-.12,0-.23-.06-.35a12,12,0,0,0,4.88,6A12.15,12.15,0,0,0,13,29.8a9,9,0,0,1-7.51-6.93Z"/><path class="cls-1" d="M27.82,18.69a1,1,0,0,0-1.31.53,8.18,8.18,0,0,1-1.35,2.15,1,1,0,0,0,1.51,1.31A10.16,10.16,0,0,0,28.35,20,1,1,0,0,0,27.82,18.69Z"/><path class="cls-1" d="M23.21,23a8.15,8.15,0,0,1-2.36.94,1,1,0,0,0,.22,2l.22,0a10.12,10.12,0,0,0,2.94-1.18,1,1,0,0,0-1-1.72Z"/><path class="cls-1" d="M12.05,20.2a1,1,0,1,0-1.72,1,10.08,10.08,0,0,0,2,2.43,1,1,0,0,0,1.31-1.51A8.08,8.08,0,0,1,12.05,20.2Z"/><path class="cls-1" d="M27,14.21a8.18,8.18,0,0,1,.2,1.81c0,.24,0,.48,0,.72A1,1,0,0,0,28,17.84h.09a1,1,0,0,0,1-.91q0-.45,0-.9a10,10,0,0,0-.24-2.2l0-.13a1,1,0,0,0-1.2-.69A1,1,0,0,0,27,14.21Z"/><path class="cls-1" d="M18.31,24.12a8.08,8.08,0,0,1-2.46-.62,1,1,0,1,0-.79,1.84,10.07,10.07,0,0,0,3.07.78h.09a1,1,0,0,0,.09-2Z"/><path class="cls-1" d="M9.18,18.36l.95-.3,1-.24A8.18,8.18,0,0,1,10.9,16c0-.24,0-.47,0-.71a1,1,0,1,0-2-.18c0,.29,0,.59,0,.89a10.05,10.05,0,0,0,.25,2.22Z"/><path class="cls-1" d="M10.24,13.36a1,1,0,0,0,1.31-.53,8.15,8.15,0,0,1,1.35-2.16,1,1,0,1,0-1.51-1.31A10.16,10.16,0,0,0,9.71,12,1,1,0,0,0,10.24,13.36Z"/><path class="cls-1" d="M14.33,9.19A1,1,0,0,0,14.85,9a8.11,8.11,0,0,1,2.36-.95,1,1,0,1,0-.45-1.95,10.09,10.09,0,0,0-2.94,1.18,1,1,0,0,0,.52,1.86Z"/><path class="cls-1" d="M19.74,7.92a8.09,8.09,0,0,1,2.47.62A1,1,0,0,0,23,6.69a10.06,10.06,0,0,0-3.08-.77,1,1,0,1,0-.17,2Z"/><path class="cls-1" d="M26,11.83a1,1,0,0,0,.86.48,1,1,0,0,0,.86-1.52,10.09,10.09,0,0,0-2-2.42,1,1,0,0,0-1.31,1.51A8.14,8.14,0,0,1,26,11.83Z"/></svg>