<!-- Generated by IcoMoon.io -->
<svg version="1.1" xmlns="http://www.w3.org/2000/svg" width="1024" height="1024" viewBox="0 0 1024 1024">
<title></title>
<g id="icomoon-ignore">
</g>
<path d="M913.046 387.972c-39.431-165.045-185.671-285.859-360.13-285.859-154.189 0-286.337 94.372-341.833 228.507l-0.9 2.455c-1.363 1.057-2.572 2.176-3.677 3.39l-0.021 0.023c-18.721 25.913-34.334 55.764-45.356 87.754l-0.724 2.415c-36.649 50.592-58.623 113.9-58.623 182.341 0 172.804 140.085 312.889 312.889 312.889 25.335 0 49.967-3.011 73.558-8.695l-2.135 0.434c44.168-10.17 82.973-28.408 116.628-53.227l-0.859 0.605c1.125-1.044 2.15-2.16 3.082-3.351l0.047-0.063c32.57-11.705 60.78-26.796 86.32-45.34l-0.986 0.682c137.088-56.166 231.893-188.566 231.893-343.108 0-29.019-3.343-57.257-9.664-84.35l0.491 2.499zM482.966 164.683c20.895-4.974 44.885-7.826 69.541-7.826 172.804 0 312.889 140.085 312.889 312.889s-140.085 312.889-312.889 312.889c-148.144 0-272.242-102.957-304.643-241.221l-0.418-2.117c-4.975-20.898-7.828-44.891-7.828-69.55 0-148.148 102.961-272.247 241.23-304.645l2.117-0.418zM416.122 813.216c-102.931-26.473-182.295-106.215-207.792-207.376l-0.422-1.975c38.221 96.037 112.661 170.755 206.016 208.465l2.481 0.886zM165.811 664.736c0-3.413 0-6.542-1.707-9.956 27.118 71.87 75.51 130.548 137.417 169.841l1.391 0.825c22.41 14.342 48.2 26.681 75.497 35.709l2.441 0.699c-105.814-15.495-189.745-93.871-213.281-195.393l-0.337-1.727z"></path>
<path d="M802.397 545.839c-3.27-1.421-7.080-2.248-11.082-2.248-11.692 0-21.737 7.054-26.109 17.139l-0.071 0.184c-10.185 23.449-23.076 43.634-38.633 61.427l0.233-0.272c-3.981 4.856-6.394 11.131-6.394 17.969 0 15.709 12.735 28.444 28.444 28.444 8.255 0 15.688-3.516 20.884-9.132l0.017-0.019c19.088-21.836 35.133-46.999 47.063-74.368l0.724-1.863c1.421-3.27 2.248-7.080 2.248-11.082 0-11.692-7.054-21.737-17.139-26.109l-0.184-0.071z"></path>
<path d="M779.073 418.408c3.616 15.385 5.689 33.051 5.689 51.201 0 0.1 0 0.2 0 0.299v-0.016c0 6.827 0 13.938 0 20.764-0.108 0.93-0.169 2.008-0.169 3.101 0 13.756 9.765 25.232 22.742 27.873l0.183 0.031h2.56c0.034 0 0.075 0 0.115 0 14.808 0 26.973-11.316 28.321-25.772l0.008-0.113c0-8.533 0-17.067 0-25.884-0.028-22.301-2.618-43.984-7.491-64.787l0.38 1.925v-3.413c-3.568-11.92-14.437-20.459-27.301-20.459-2.426 0-4.781 0.304-7.029 0.875l0.197-0.042c-11.274 3.951-19.214 14.501-19.214 26.905 0 2.673 0.369 5.26 1.058 7.713l-0.048-0.2z"></path>
<path d="M353.829 588.79c-4.576-9.948-14.456-16.73-25.92-16.73-15.709 0-28.444 12.735-28.444 28.444 0 6.288 2.041 12.1 5.496 16.809l-0.056-0.079c15.79 26.63 34.68 49.414 56.595 68.864l0.294 0.256c5.053 4.676 11.838 7.543 19.293 7.543 15.709 0 28.444-12.735 28.444-28.444 0-8.871-4.061-16.794-10.425-22.010l-0.050-0.040c-17.595-15.61-32.601-33.603-44.65-53.582l-0.577-1.031z"></path>
<path d="M531.606 700.292c-25.782-2.363-49.511-8.624-71.453-18.212l1.48 0.576c-3.313-1.46-7.175-2.31-11.236-2.31-15.728 0-28.479 12.75-28.479 28.479 0 11.668 7.017 21.697 17.060 26.097l0.183 0.072c25.528 11.304 55.134 19.177 86.179 22.1l1.145 0.087h2.56c0.382 0.018 0.83 0.029 1.28 0.029 15.725 0 28.473-12.748 28.473-28.473 0-15.275-12.028-27.741-27.13-28.442l-0.063-0.002z"></path>
<path d="M750.629 350.71c5.255 6.627 13.307 10.84 22.342 10.84 15.709 0 28.444-12.735 28.444-28.444 0-3.91-0.789-7.636-2.216-11.027l0.070 0.187c-15.82-26.615-34.706-49.394-56.599-68.867l-0.29-0.253c-4.856-3.981-11.131-6.394-17.969-6.394-15.709 0-28.444 12.735-28.444 28.444 0 8.255 3.516 15.688 9.132 20.884l0.019 0.017c17.696 15.61 32.793 33.604 44.935 53.591l0.576 1.022z"></path>
<path d="M671.269 668.434c-19.328 11.675-41.741 20.889-65.564 26.431l-1.565 0.307c-14.4 1.63-25.487 13.743-25.487 28.444 0 15.804 12.812 28.616 28.616 28.616 1.102 0 2.19-0.062 3.26-0.184l-0.131 0.012h6.258c31.637-7.354 59.554-18.918 84.908-34.286l-1.282 0.721c7.134-5.232 11.714-13.583 11.714-23.004 0-15.709-12.735-28.444-28.444-28.444-4.245 0-8.273 0.93-11.891 2.597l0.177-0.073z"></path>
<path d="M302.344 394.23c3.27 1.421 7.080 2.248 11.082 2.248 11.692 0 21.737-7.054 26.109-17.139l0.071-0.184c10.145-23.562 23.042-43.845 38.635-61.715l-0.235 0.275c4.676-5.053 7.543-11.838 7.543-19.293 0-15.709-12.735-28.444-28.444-28.444-8.871 0-16.794 4.061-22.010 10.425l-0.040 0.050c-19.006 21.527-35.033 46.302-47.055 73.257l-0.732 1.837c-1.759 3.592-2.788 7.816-2.788 12.281 0 11.898 7.305 22.089 17.674 26.334l0.19 0.069z"></path>
<path d="M272.193 536.452l27.022-8.533 28.444-6.827c-3.917-15.466-6.288-33.279-6.54-51.604l-0.002-0.165q0-10.24 0-20.196c0.073-0.767 0.115-1.659 0.115-2.56 0-15.773-12.786-28.559-28.559-28.559-14.872 0-27.088 11.367-28.436 25.887l-0.008 0.113c0 8.249 0 16.782 0 25.316 0.052 22.722 2.745 44.79 7.787 65.946l-0.391-1.946z"></path>
<path d="M418.682 275.616c5.601-0.403 10.675-2.369 14.869-5.46l-0.078 0.055c19.321-11.81 41.732-21.121 65.575-26.715l1.554-0.307c12.733-3.013 22.062-14.284 22.062-27.733 0-15.719-12.743-28.462-28.462-28.462-2.27 0-4.477 0.266-6.593 0.768l0.193-0.039c-31.635 7.322-59.556 18.889-84.896 34.281l1.27-0.716c-8.399 5.047-13.932 14.109-13.932 24.464 0 15.709 12.735 28.444 28.444 28.444 0.098 0 0.196 0 0.293-0.001h-0.015z"></path>
<path d="M572.566 239.492c25.878 2.336 49.708 8.599 71.741 18.212l-1.483-0.577c3.314 1.453 7.176 2.299 11.236 2.299 15.801 0 28.61-12.809 28.61-28.61 0-11.741-7.072-21.83-17.19-26.239l-0.185-0.072c-25.631-11.254-55.352-19.036-86.511-21.823l-1.098-0.079c-0.724-0.065-1.567-0.103-2.418-0.103-15.766 0-28.547 12.781-28.547 28.547 0 14.915 11.438 27.158 26.021 28.437l0.108 0.008z"></path>
<path d="M430.060 367.492c-1.359 27.676-16.208 51.611-38.066 65.508l-0.334 0.198s2.276 56.889 54.044 36.409c45.511-16.782 28.444 44.373 24.747 59.449-0.734 2.318-1.904 4.314-3.425 5.986l0.012-0.013-39.822 45.511c-2.737 2.937-4.417 6.89-4.417 11.236s1.68 8.299 4.426 11.245l-0.009-0.010c27.564 29.679 66.802 48.19 110.363 48.19 2.101 0 4.192-0.043 6.272-0.128l-0.298 0.010c45.657-6.018 86.216-24.244 119.326-51.254l-0.428 0.338c4.274-3.022 7.031-7.945 7.031-13.511s-2.757-10.489-6.979-13.476l-0.052-0.035-41.244-25.6s64.853 2.276 60.302-19.342c-0.146-2.453-0.228-5.322-0.228-8.209 0-17.973 3.212-35.195 9.092-51.125l-0.331 1.023h23.609l-24.462-42.098c-1.147-2.145-1.821-4.691-1.821-7.396s0.674-5.251 1.863-7.481l-0.042 0.086c1.707-3.698 1.707-9.671-4.836-18.489-12.8-17.351 13.084-49.493-8.533-60.302s-83.342-64-145.92-38.969-102.4 31.858-99.84 72.249z"></path>
</svg>
