<!-- Generated by IcoMoon.io -->
<svg version="1.1" xmlns="http://www.w3.org/2000/svg" width="1024" height="1024" viewBox="0 0 1024 1024">
<title></title>
<g id="icomoon-ignore">
</g>
<path fill="#000" d="M739.284 541.050c2.479 15.513-8.087 30.098-23.599 32.577s-30.098-8.087-32.577-23.599c-2.479-15.513 8.087-30.098 23.599-32.577s30.098 8.087 32.577 23.599z"></path>
<path fill="#000" d="M664.462 295.681c-40.107-86.471-143.929-148.196-266.24-148.196-157.013 0-284.444 101.831-284.444 227.556 2.918 77.3 46.211 143.866 109.292 179.496l1.073 0.557s3.129 0 3.129 1.991c0 17.067-2.844 77.084 0 102.4 0.886 13.89 12.368 24.82 26.403 24.82 6.415 0 12.297-2.283 16.876-6.082l-0.044 0.035c13.431-11.495 25.6-23.393 36.943-36.047l0.319-0.362c22.544 43.784 55.339 79.498 95.336 104.882l1.090 0.647c-0.028 19.179-1.267 38.040-3.646 56.544l0.233-2.215c0 9.671-1.991 19.058-2.56 28.444-0.19 1.519-0.299 3.277-0.299 5.060 0 16.107 8.866 30.144 21.985 37.495l0.217 0.112c4.625 2.332 10.081 3.698 15.855 3.698 0.026 0 0.052 0 0.078 0h-0.004c10.231-0.138 19.508-4.114 26.481-10.549l-0.027 0.025c26.074-25.402 56.071-46.952 88.96-63.621l2.062-0.948c7.314 0.483 15.857 0.758 24.464 0.758 6.803 0 13.565-0.172 20.283-0.512l-0.943 0.038c172.658 0 312.889-113.778 312.889-256 0-122.311-105.244-224.711-245.76-250.027zM507.449 346.597c1.242-0.192 2.675-0.302 4.134-0.302 15.709 0 28.444 12.735 28.444 28.444s-12.735 28.444-28.444 28.444c-13.995 0-25.629-10.107-28.002-23.419l-0.025-0.172c-0.265-1.459-0.417-3.138-0.417-4.853 0-14.251 10.48-26.054 24.153-28.123l0.157-0.020zM393.671 346.597c1.242-0.192 2.675-0.302 4.134-0.302 15.709 0 28.444 12.735 28.444 28.444s-12.735 28.444-28.444 28.444c-13.995 0-25.629-10.107-28.002-23.419l-0.025-0.172c-0.265-1.459-0.417-3.138-0.417-4.853 0-14.251 10.48-26.054 24.153-28.123l0.157-0.020zM256 379.592c-0.224-1.34-0.352-2.884-0.352-4.458 0-15.709 12.735-28.444 28.444-28.444s28.444 12.735 28.444 28.444c0 14.078-10.228 25.768-23.659 28.044l-0.168 0.023c-1.388 0.24-2.987 0.377-4.618 0.377-14.135 0-25.863-10.311-28.071-23.822l-0.022-0.164zM597.333 744.819c-0.276 0.001-0.604 0.001-0.932 0.001-12.799 0-25.429-0.724-37.852-2.133l1.521 0.14c-26.169-3.129-67.413 23.609-101.262 50.062 4.267-44.089 5.404-75.662-17.636-89.6-40.009-22.83-70.985-57.569-88.528-99.343l-0.503-1.351c0.855-0.199 1.836-0.313 2.844-0.313s1.99 0.114 2.932 0.33l-0.088-0.017c6.035 0.364 13.091 0.571 20.196 0.571s14.16-0.207 21.162-0.616l-0.967 0.045c0.772 0.007 1.686 0.010 2.6 0.010 62.915 0 121.728-17.563 171.803-48.054l-1.461 0.826c4.077 11.039 14.51 18.768 26.748 18.768 1.401 0 2.779-0.101 4.126-0.297l-0.153 0.018c13.674-2.231 23.984-13.958 23.984-28.092 0-9.313-4.476-17.581-11.394-22.77l-0.074-0.053c41.095-36.449 67.18-89.029 68.264-147.721l0.003-0.19c0-5.689 0-11.378 0-17.067 99.84 28.444 170.667 100.978 170.667 187.733 0 109.796-113.778 199.111-256 199.111z"></path>
</svg>
