<svg xmlns="http://www.w3.org/2000/svg" viewBox="0 0 44.5 40.73"><defs><style>.a{fill:#e9fcff;}.b{fill:#4f4f4f;}.c{fill:#0892cd;}.d{fill:#fff;}</style></defs><title>comments-dots-color</title><path class="a" d="M28,21a1.55,1.55,0,0,1,.5.55,1.65,1.65,0,0,1,.2.72,1.7,1.7,0,0,1-.16.74,1.55,1.55,0,0,1-.48.57,1.44,1.44,0,0,1-.68.3,1.59,1.59,0,0,1-.75-.05,1.61,1.61,0,0,1-.64-.38,1.52,1.52,0,0,1-.39-.64,18.49,18.49,0,0,1-9.67,2.64,18.86,18.86,0,0,1-2.25-.13.86.86,0,0,0-.32,0,11.47,11.47,0,0,0,5,5.68c1.27.76,1.22,2.54,1,5,1.9-1.49,4.18-3,5.66-2.8a18.12,18.12,0,0,0,2.07.2c7.94,0,14.3-5,14.3-11.13,0-4.85-4-9-9.53-10.49v1a11.3,11.3,0,0,1-1.05,4.54A11.46,11.46,0,0,1,28,21Zm5.16-.32a1.58,1.58,0,0,1,.91.14,1.54,1.54,0,0,1,.68.61,1.65,1.65,0,0,1,.23.89,1.63,1.63,0,0,1-.3.87,1.6,1.6,0,0,1-2.44.16,1.56,1.56,0,0,1-.41-.83,1.67,1.67,0,0,1,0-.63,1.58,1.58,0,0,1,.73-1A1.55,1.55,0,0,1,33.12,20.66Z"/><path class="b" d="M27.27,23.84a1.62,1.62,0,0,0,.83-.4,1.64,1.64,0,0,0,.47-.79,1.7,1.7,0,0,0-.05-.92A1.68,1.68,0,0,0,28,21a15.16,15.16,0,0,1-2.4,1.82,1.62,1.62,0,0,0,.67.81A1.55,1.55,0,0,0,27.27,23.84Z"/><path class="b" d="M33.63,23.81a1.59,1.59,0,1,0-1.82-1.32A1.59,1.59,0,0,0,33.63,23.81Z"/><path class="b" d="M30.77,8.28a10.92,10.92,0,0,1,.62,1.59,11.15,11.15,0,0,1,.4,1.89c5.57,1.59,9.53,5.64,9.53,10.49,0,6.13-6.36,11.13-14.3,11.13a18,18,0,0,1-2.08-.12c-1.47-.15-3.77,1.31-5.66,2.8.24-2.46.28-4.23-1-5a11.51,11.51,0,0,1-5-5.63,2.51,2.51,0,0,0-.67.44c-.63.58-1.23,1.18-1.8,1.82a15,15,0,0,0,5.39,5.89,26.61,26.61,0,0,1-.2,3c0,.54-.12,1.05-.15,1.59a2.42,2.42,0,0,0,.25,1.38,2.39,2.39,0,0,0,1,1,2.07,2.07,0,0,0,.89.2,2.16,2.16,0,0,0,1.47-.58,20.2,20.2,0,0,1,5.09-3.61,22.25,22.25,0,0,0,2.45,0c9.65,0,17.48-6.35,17.48-14.3C44.5,15.42,38.62,9.69,30.77,8.28Z"/><path class="c" d="M31.45,10a9.89,9.89,0,0,0-.62-1.59C28.53,3.45,22.73,0,15.89,0,7.12,0,0,5.69,0,12.71a12,12,0,0,0,1.76,5.84,11.9,11.9,0,0,0,4.41,4.22s.17,0,.17.12c0,.95-.16,4.3,0,5.72a1.45,1.45,0,0,0,.27.75,1.4,1.4,0,0,0,.62.51A1.43,1.43,0,0,0,8,30a1.54,1.54,0,0,0,.74-.32,21.07,21.07,0,0,0,2.08-2,24.55,24.55,0,0,1,1.87-1.81,2.68,2.68,0,0,1,.67-.44.58.58,0,0,1,.32,0,20,20,0,0,0,2.19.06,18.49,18.49,0,0,0,9.67-2.64A15.56,15.56,0,0,0,28,21a11.46,11.46,0,0,0,2.78-3.73,11.3,11.3,0,0,0,1.05-4.54v-1A10.13,10.13,0,0,0,31.45,10Z"/><path class="d" d="M20.66,12.46v-.21a1.76,1.76,0,0,1,.19-.39l.08-.13a1.54,1.54,0,0,1,.37-.35h0a1.58,1.58,0,0,1,.95-.25,1.45,1.45,0,0,1,.83.23,1.51,1.51,0,0,1,.58.62,1.58,1.58,0,0,1-.29,1.86,1.56,1.56,0,0,1-1.12.46,1.54,1.54,0,0,1-.76-.2,1.56,1.56,0,0,1-.57-.54,1.46,1.46,0,0,1-.18-.45V13h0a2.45,2.45,0,0,1-.08-.29A1,1,0,0,1,20.66,12.46Z"/><path class="d" d="M15.64,11.13a1.58,1.58,0,0,1,1.59.74,1.65,1.65,0,0,1,.23.89,1.6,1.6,0,0,1-1,1.43,1.61,1.61,0,0,1-.92.06,1.62,1.62,0,0,1-.8-.46,1.58,1.58,0,0,1-.39-1.45,1.64,1.64,0,0,1,.26-.57,1.49,1.49,0,0,1,.47-.43A1.55,1.55,0,0,1,15.64,11.13Z"/><path class="d" d="M8,13a1.59,1.59,0,0,1,1.62-1.84,1.6,1.6,0,0,1,1.44,1,1.61,1.61,0,0,1,.05.92,1.59,1.59,0,0,1-1.29,1.21,1.85,1.85,0,0,1-.62,0A1.68,1.68,0,0,1,8.59,14a1.57,1.57,0,0,1-.43-.46A1.5,1.5,0,0,1,8,13Z"/></svg>