<!-- Generated by IcoMoon.io -->
<svg version="1.1" xmlns="http://www.w3.org/2000/svg" width="1024" height="1024" viewBox="0 0 1024 1024">
<title></title>
<g id="icomoon-ignore">
</g>
<path fill="#e9fcff" d="M637.156 523.378c4.746 3.214 8.585 7.416 11.286 12.333l0.092 0.183c2.632 4.734 4.286 10.339 4.548 16.305l0.003 0.079c0.002 0.134 0.003 0.291 0.003 0.45 0 5.951-1.344 11.587-3.744 16.623l0.1-0.234c-2.616 5.244-6.313 9.596-10.824 12.902l-0.099 0.069c-4.278 3.458-9.532 5.879-15.286 6.802l-0.187 0.025c-1.862 0.34-4.006 0.534-6.195 0.534-3.882 0-7.622-0.612-11.128-1.744l0.256 0.071c-5.692-1.81-10.573-4.781-14.573-8.656l0.010 0.009c-4.019-3.934-7.079-8.831-8.808-14.318l-0.067-0.245c-61.839 37.742-136.654 60.088-216.688 60.088-1.181 0-2.36-0.005-3.539-0.015l0.18 0.001c-0.264 0.001-0.576 0.001-0.889 0.001-17.73 0-35.209-1.075-52.375-3.164l2.064 0.205c-1.095-0.217-2.353-0.342-3.641-0.342s-2.546 0.124-3.764 0.362l0.123-0.020c22.885 55.382 62.513 100.006 112.498 128.578l1.28 0.674c28.9 17.294 27.762 57.799 22.756 113.778 43.236-33.906 95.118-68.267 128.796-63.716 13.581 2.233 29.818 3.863 46.303 4.526l0.801 0.026c180.679 0 325.404-113.778 325.404-253.269 0-110.364-91.022-204.8-216.86-238.706v22.756c-0.76 37.634-9.489 73.048-24.559 104.873l0.666-1.562c-16.066 32.912-37.568 60.743-63.633 83.475l-0.31 0.265zM754.574 516.096c1.54-0.234 3.316-0.367 5.124-0.367 5.667 0 11.028 1.311 15.796 3.647l-0.212-0.094c6.521 3.039 11.803 7.809 15.386 13.725l0.088 0.156c3.299 5.474 5.25 12.084 5.25 19.149 0 0.388-0.006 0.775-0.018 1.16l0.001-0.056c-0.353 7.461-2.858 14.275-6.902 19.908l0.076-0.111c-6.705 9.016-17.327 14.794-29.299 14.794-10.295 0-19.592-4.273-26.214-11.142l-0.011-0.011c-4.792-5.033-8.126-11.495-9.302-18.682l-0.028-0.205c-0.434-2.155-0.682-4.633-0.682-7.168s0.248-5.013 0.722-7.409l-0.040 0.241c2.311-9.73 8.332-17.758 16.451-22.665l0.161-0.090c3.637-2.448 7.915-4.27 12.517-5.196l0.226-0.038z"></path>
<path fill="#4f4f4f" d="M620.544 588.004c7.352-1.221 13.794-4.463 18.917-9.129l-0.029 0.026c5.072-4.735 8.812-10.836 10.636-17.716l0.059-0.26c0.593-2.538 0.933-5.453 0.933-8.447 0-4.471-0.758-8.765-2.154-12.76l0.083 0.271c-2.478-6.69-6.548-12.298-11.764-16.557l-0.069-0.054c-16.169 15.046-34.033 28.713-53.141 40.565l-1.472 0.85c2.993 7.792 8.309 14.136 15.089 18.341l0.157 0.091c5.197 3.185 11.489 5.071 18.221 5.071 1.599 0 3.172-0.106 4.715-0.312l-0.18 0.020z"></path>
<path fill="#4f4f4f" d="M765.269 587.321c17.388-2.843 30.497-17.757 30.497-35.732 0-19.982-16.199-36.181-36.181-36.181s-36.181 16.199-36.181 36.181c0 2.011 0.164 3.983 0.479 5.904l-0.028-0.21c2.847 17.384 17.759 30.487 35.73 30.487 2.007 0 3.976-0.163 5.894-0.478l-0.209 0.028z"></path>
<path fill="#4f4f4f" d="M700.188 233.927c5.003 10.029 9.793 22.017 13.638 34.421l0.47 1.76c3.894 12.236 7.085 26.794 8.973 41.757l0.129 1.251c126.748 36.181 216.86 128.341 216.86 238.706 0 139.492-144.725 253.269-325.404 253.269-0.034 0-0.074 0-0.114 0-16.639 0-33.046-0.992-49.165-2.92l1.947 0.19c-33.451-3.413-85.788 29.81-128.796 63.716 5.461-55.979 6.372-96.256-22.756-113.778-51.056-29.029-90.625-73.224-113.132-126.396l-0.646-1.718c-5.858 2.656-10.89 6.013-15.288 10.050l0.042-0.038c-14.336 13.198-27.989 26.852-40.96 41.415 28.754 55.579 70.452 100.924 121.264 133.206l1.388 0.824c-0.252 24.335-1.898 48.009-4.864 71.272l0.313-3.005c0 12.288-2.731 23.893-3.413 36.181-0.231 1.893-0.362 4.084-0.362 6.306 0 9.162 2.237 17.801 6.196 25.402l-0.145-0.305c5.213 9.754 13.001 17.543 22.464 22.613l0.291 0.143c5.912 2.872 12.86 4.551 20.2 4.551 0.018 0 0.037 0 0.055 0h-0.003c12.943-0.017 24.711-5.035 33.479-13.225l-0.028 0.026c33.176-32.323 71.348-59.74 113.202-80.942l2.623-1.205c8.329 0.489 18.070 0.768 27.876 0.768s19.547-0.279 29.215-0.829l-1.339 0.061c219.591 0 397.767-144.498 397.767-325.404 0.455-155.648-133.348-286.037-311.979-318.123z"></path>
<path fill="#0892cd" d="M715.662 273.067c-4.159-14.044-8.955-26.039-14.698-37.478l0.59 1.296c-52.338-112.868-184.32-191.374-339.968-191.374-199.566 0-361.586 129.479-361.586 289.223 1.819 49.392 16.483 95.007 40.723 134.056l-0.673-1.164c24.871 40.288 58.758 72.791 98.985 95.325l1.367 0.704s3.868 0 3.868 2.731c0 21.618-3.641 97.849 0 130.162 0.446 6.452 2.682 12.306 6.21 17.162l-0.066-0.095c3.475 5.122 8.27 9.112 13.901 11.526l0.208 0.079c4.089 1.989 8.895 3.152 13.972 3.152 1.251 0 2.485-0.071 3.698-0.208l-0.149 0.014c6.459-0.955 12.185-3.546 16.908-7.335l-0.069 0.053c17.119-14.395 32.574-29.273 46.981-45.12l0.35-0.391c13.469-14.47 27.351-27.919 41.897-40.626l0.656-0.561c4.381-3.943 9.405-7.293 14.873-9.855l0.374-0.157c1.091-0.325 2.344-0.512 3.641-0.512s2.55 0.187 3.734 0.536l-0.093-0.024c11.191 0.978 24.212 1.536 37.363 1.536 4.386 0 8.757-0.062 13.113-0.185l-0.641 0.014c0.998 0.009 2.178 0.013 3.359 0.013 80.034 0 154.848-22.346 218.545-61.139l-1.857 1.051c21.105-12.923 39.416-26.818 56.222-42.32l-0.243 0.222c26.209-23.338 47.509-51.553 62.585-83.298l0.675-1.581c14.404-30.263 23.133-65.676 23.889-103.047l0.004-0.264v-22.756c-1.954-14.868-4.981-28.178-9.1-40.999l0.453 1.631z"></path>
<path fill="#fff" d="M470.13 329.045v-4.779c1.175-3.389 2.636-6.321 4.417-9.025l-0.093 0.151 1.82-2.958c2.365-3.109 5.148-5.747 8.297-7.886l0.122-0.078c5.509-3.606 12.257-5.751 19.506-5.751 0.743 0 1.481 0.023 2.213 0.067l-0.101-0.005c0.307-0.010 0.668-0.016 1.030-0.016 6.634 0 12.811 1.958 17.985 5.328l-0.127-0.078c5.662 3.386 10.167 8.183 13.108 13.915l0.090 0.193c2.596 4.846 4.121 10.602 4.121 16.714 0 10.022-4.101 19.087-10.716 25.607l-0.004 0.004c-6.431 6.467-15.335 10.469-25.173 10.469-0.11 0-0.22-0.001-0.33-0.002h0.017c-0.007 0-0.016 0-0.024 0-6.349 0-12.305-1.689-17.441-4.641l0.17 0.090c-5.352-2.989-9.725-7.144-12.885-12.142l-0.086-0.146c-1.825-2.945-3.24-6.369-4.055-10.019l-0.041-0.221v-2.503c-0.636-1.76-1.263-3.97-1.754-6.232l-0.067-0.367c-0.114-0.854-0.178-1.842-0.178-2.844s0.065-1.99 0.191-2.959l-0.012 0.114z"></path>
<path fill="#fff" d="M355.897 298.78c1.644-0.266 3.54-0.419 5.471-0.419 12.944 0 24.29 6.84 30.621 17.103l0.089 0.155c3.299 5.474 5.25 12.084 5.25 19.149 0 0.388-0.006 0.775-0.018 1.16l0.001-0.056c-0.508 14.704-9.661 27.15-22.514 32.452l-0.242 0.088c-3.789 1.451-8.173 2.291-12.752 2.291-2.902 0-5.724-0.337-8.431-0.975l0.248 0.049c-7.216-1.75-13.405-5.427-18.19-10.452l-0.014-0.015c-6.094-6.428-9.841-15.134-9.841-24.715 0-2.938 0.352-5.794 1.017-8.527l-0.051 0.246c1.21-4.942 3.252-9.28 5.992-13.081l-0.076 0.11c2.839-3.991 6.408-7.269 10.536-9.698l0.159-0.086c3.655-2.291 7.943-3.964 12.534-4.749l0.209-0.030z"></path>
<path fill="#fff" d="M182.044 341.333c-0.288-1.715-0.453-3.692-0.453-5.707 0-19.982 16.199-36.181 36.181-36.181 0.399 0 0.797 0.006 1.193 0.019l-0.058-0.001c14.795 0.415 27.347 9.595 32.68 22.514l0.088 0.242c1.364 3.682 2.152 7.935 2.152 12.373 0 3.039-0.37 5.991-1.067 8.814l0.053-0.252c-3.379 14.233-14.829 25.071-29.141 27.504l-0.214 0.030c-2.121 0.379-4.562 0.595-7.054 0.595s-4.933-0.217-7.306-0.632l0.252 0.037c-5.309-1.332-9.954-3.611-13.975-6.668l0.094 0.069c-3.939-2.818-7.205-6.301-9.697-10.315l-0.088-0.152c-1.882-3.565-3.176-7.729-3.629-12.143l-0.012-0.145z"></path>
</svg>
