<!-- Generated by IcoMoon.io -->
<svg version="1.1" xmlns="http://www.w3.org/2000/svg" width="1024" height="1024" viewBox="0 0 1024 1024">
<title></title>
<g id="icomoon-ignore">
</g>
<path fill="#e9fcff" d="M615.935 523.277c3.762 2.548 6.809 5.88 8.95 9.777l0.074 0.147c2.086 3.756 3.398 8.197 3.606 12.927l0.003 0.061c0.002 0.104 0.003 0.231 0.003 0.356 0 4.721-1.068 9.187-2.97 13.179l0.080-0.186c-2.076 4.158-5.005 7.61-8.582 10.232l-0.080 0.057c-3.39 2.744-7.558 4.661-12.121 5.392l-0.149 0.019c-1.478 0.268-3.178 0.425-4.911 0.425-3.078 0-6.044-0.486-8.824-1.384l0.202 0.057c-4.515-1.436-8.383-3.791-11.555-6.862l0.010 0.009c-3.185-3.118-5.615-7.001-6.984-11.354l-0.055-0.195c-49.035 29.928-108.358 47.644-171.82 47.644-0.935 0-1.873-0.005-2.807-0.011l0.144 0.001c-0.21 0.001-0.456 0.001-0.703 0.001-14.058 0-27.919-0.853-41.532-2.51l1.638 0.163c-0.867-0.172-1.867-0.27-2.885-0.27s-2.018 0.1-2.984 0.287l0.099-0.014c18.145 43.916 49.571 79.3 89.206 101.956l1.016 0.536c22.918 13.712 22.014 45.829 18.046 90.222 34.284-26.886 75.424-54.131 102.126-50.522 10.767 1.771 23.644 3.065 36.715 3.59l0.633 0.020c143.269 0 258.027-90.222 258.027-200.829 0-87.51-72.176-162.394-171.956-189.278v18.046c-0.604 29.84-7.525 57.922-19.474 83.159l0.528-1.238c-12.741 26.096-29.79 48.167-50.457 66.189l-0.244 0.211zM709.041 517.503c1.222-0.186 2.631-0.289 4.062-0.289 4.492 0 8.743 1.041 12.526 2.891l-0.17-0.076c5.171 2.409 9.361 6.192 12.2 10.881l0.070 0.126c2.615 4.34 4.164 9.582 4.164 15.183 0 0.31-0.006 0.613-0.012 0.92l0.001-0.044c-0.281 5.917-2.264 11.317-5.474 15.786l0.058-0.087c-5.319 7.15-13.739 11.73-23.233 11.73-8.165 0-15.536-3.389-20.784-8.835l-0.011-0.011c-3.802-3.989-6.445-9.113-7.376-14.812l-0.022-0.163c-0.344-1.711-0.54-3.673-0.54-5.686s0.195-3.975 0.572-5.873l-0.034 0.193c1.831-7.714 6.606-14.080 13.043-17.973l0.126-0.072c2.884-1.942 6.277-3.388 9.925-4.122l0.178-0.032z"></path>
<path fill="#4f4f4f" d="M602.761 574.523c5.828-0.969 10.938-3.539 14.999-7.239l-0.023 0.020c4.022-3.757 6.988-8.592 8.434-14.050l0.047-0.206c0.471-2.011 0.741-4.325 0.741-6.698 0-3.547-0.602-6.951-1.71-10.12l0.065 0.217c-1.965-5.304-5.192-9.754-9.328-13.131l-0.057-0.042c-12.821 11.932-26.987 22.767-42.137 32.165l-1.166 0.676c2.375 6.178 6.587 11.208 11.963 14.543l0.126 0.073c4.123 2.525 9.111 4.021 14.447 4.021 1.269 0 2.516-0.082 3.737-0.246l-0.144 0.014z"></path>
<path fill="#4f4f4f" d="M717.522 573.982c13.788-2.255 24.184-14.079 24.184-28.334 0-15.843-12.845-28.688-28.688-28.688s-28.688 12.845-28.688 28.688c0 1.597 0.128 3.159 0.379 4.68l-0.022-0.168c2.259 13.784 14.081 24.175 28.332 24.175 1.593 0 3.154-0.127 4.676-0.379l-0.167 0.022z"></path>
<path fill="#4f4f4f" d="M665.915 293.76c3.965 7.953 7.765 17.457 10.812 27.293l0.374 1.394c3.090 9.704 5.618 21.244 7.113 33.111l0.103 0.993c100.504 28.688 171.956 101.767 171.956 189.278 0 110.608-114.761 200.829-258.027 200.829-0.028 0-0.057 0-0.090 0-13.195 0-26.206-0.788-38.983-2.314l1.545 0.149c-26.527-2.705-68.025 23.636-102.126 50.522 4.331-44.387 5.052-76.324-18.046-90.222-40.484-23.017-71.862-58.062-89.708-100.224l-0.514-1.364c-4.646 2.104-8.634 4.768-12.121 7.968l0.034-0.032c-11.366 10.466-22.193 21.29-32.479 32.841 22.802 44.071 55.866 80.026 96.154 105.624l1.1 0.655c-0.198 19.295-1.505 38.067-3.856 56.513l0.247-2.381c0 9.744-2.167 18.945-2.705 28.688-0.183 1.503-0.287 3.238-0.287 4.998 0 7.266 1.775 14.117 4.912 20.14l-0.115-0.241c4.133 7.732 10.307 13.913 17.814 17.933l0.231 0.113c4.688 2.278 10.196 3.609 16.018 3.609 0.012 0 0.031 0 0.043 0h-0.003c10.261-0.011 19.593-3.991 26.549-10.489l-0.022 0.020c26.306-25.632 56.576-47.368 89.762-64.184l2.079-0.954c6.606 0.387 14.327 0.609 22.104 0.609s15.498-0.219 23.167-0.655l-1.063 0.049c174.123 0 315.405-114.578 315.405-258.027 0.359-123.422-105.736-226.811-247.383-252.255z"></path>
<path fill="#0892cd" d="M678.185 324.794c-3.297-11.134-7.101-20.645-11.656-29.72l0.47 1.026c-41.502-89.498-146.154-151.75-269.576-151.75-158.244 0-286.718 102.671-286.718 229.337 1.441 39.165 13.069 75.333 32.293 106.3l-0.535-0.924c19.723 31.948 46.59 57.719 78.489 75.585l1.085 0.56s3.068 0 3.068 2.167c0 17.142-2.885 77.587 0 103.21 0.356 5.114 2.125 9.756 4.926 13.61l-0.054-0.077c2.755 4.060 6.56 7.226 11.021 9.138l0.166 0.061c3.243 1.575 7.053 2.498 11.080 2.498 0.993 0 1.969-0.057 2.93-0.166l-0.119 0.011c5.121-0.757 9.662-2.814 13.407-5.817l-0.057 0.041c13.573-11.413 25.83-23.213 37.255-35.778l0.278-0.31c10.679-11.476 21.687-22.139 33.221-32.214l0.518-0.447c3.475-3.127 7.456-5.781 11.795-7.815l0.296-0.126c0.863-0.259 1.858-0.404 2.885-0.404s2.022 0.149 2.96 0.425l-0.075-0.018c8.875 0.774 19.198 1.218 29.629 1.218 3.48 0 6.945-0.050 10.397-0.149l-0.509 0.011c0.793 0.009 1.728 0.011 2.663 0.011 63.462 0 122.784-17.72 173.293-48.479l-1.473 0.835c16.737-10.247 31.256-21.266 44.582-33.559l-0.195 0.174c20.783-18.508 37.672-40.879 49.625-66.049l0.537-1.252c11.422-23.999 18.345-52.079 18.945-81.711l0.004-0.21v-18.046c-1.551-11.79-3.949-22.346-7.216-32.509l0.357 1.295z"></path>
<path fill="#fff" d="M483.493 369.183v-3.789c0.931-2.687 2.090-5.013 3.504-7.158l-0.075 0.121 1.442-2.346c1.873-2.467 4.080-4.559 6.581-6.254l0.098-0.060c4.369-2.861 9.719-4.561 15.468-4.561 0.587 0 1.175 0.017 1.757 0.055l-0.080-0.005c0.241-0.010 0.53-0.011 0.816-0.011 5.26 0 10.159 1.551 14.259 4.224l-0.103-0.060c4.492 2.684 8.061 6.491 10.396 11.035l0.072 0.151c2.056 3.844 3.269 8.406 3.269 13.252 0 7.946-3.251 15.133-8.496 20.303l-0.004 0.004c-5.099 5.129-12.161 8.303-19.959 8.303-0.086 0-0.172-0.001-0.264-0.002h0.011c-0.007 0-0.011 0-0.018 0-5.035 0-9.755-1.341-13.829-3.681l0.134 0.072c-4.242-2.371-7.709-5.664-10.215-9.628l-0.068-0.116c-1.447-2.333-2.568-5.049-3.215-7.943l-0.034-0.173v-1.987c-0.504-1.394-1-3.148-1.39-4.942l-0.055-0.289c-0.090-0.678-0.142-1.459-0.142-2.256s0.053-1.576 0.149-2.347l-0.011 0.090z"></path>
<path fill="#fff" d="M392.912 345.185c1.302-0.212 2.808-0.333 4.337-0.333 10.262 0 19.262 5.424 24.279 13.563l0.071 0.125c2.615 4.34 4.164 9.582 4.164 15.183 0 0.31-0.006 0.613-0.012 0.92l0.001-0.044c-0.402 11.661-7.663 21.528-17.852 25.732l-0.194 0.070c-3.003 1.151-6.481 1.817-10.112 1.817-2.302 0-4.538-0.265-6.685-0.771l0.195 0.037c-5.722-1.39-10.627-4.305-14.422-8.286l-0.011-0.011c-4.834-5.096-7.801-12.002-7.801-19.597 0-2.332 0.28-4.594 0.807-6.763l-0.039 0.195c0.958-3.918 2.58-7.36 4.75-10.374l-0.058 0.086c2.251-3.163 5.082-5.763 8.352-7.688l0.126-0.068c2.899-1.817 6.299-3.142 9.938-3.765l0.167-0.024z"></path>
<path fill="#fff" d="M255.053 378.925c-0.228-1.361-0.357-2.93-0.357-4.525 0-15.843 12.845-28.688 28.688-28.688 0.315 0 0.632 0.006 0.947 0.013l-0.046-0.001c11.73 0.331 21.683 7.609 25.912 17.852l0.070 0.194c1.082 2.92 1.708 6.291 1.708 9.811 0 2.409-0.292 4.749-0.845 6.99l0.041-0.198c-2.677 11.287-11.757 19.881-23.105 21.81l-0.172 0.024c-1.683 0.301-3.619 0.471-5.595 0.471s-3.913-0.172-5.794-0.5l0.198 0.031c-4.211-1.056-7.893-2.861-11.083-5.288l0.076 0.057c-3.123-2.236-5.711-4.998-7.687-8.179l-0.070-0.122c-1.492-2.827-2.516-6.127-2.879-9.629l-0.011-0.115z"></path>
</svg>
