<!-- Generated by IcoMoon.io -->
<svg version="1.1" xmlns="http://www.w3.org/2000/svg" width="1024" height="1024" viewBox="0 0 1024 1024">
<title></title>
<g id="icomoon-ignore">
</g>
<path d="M772.551 196.836h-362.382c-47.128 0-85.333 38.205-85.333 85.333v0 11.947h-73.387c-47.128 0-85.333 38.205-85.333 85.333v0 362.382c0 47.128 38.205 85.333 85.333 85.333v0h362.382c47.128 0 85.333-38.205 85.333-85.333v0-11.947h73.387c47.128 0 85.333-38.205 85.333-85.333v0-362.382c0-47.128-38.205-85.333-85.333-85.333v0zM642.275 741.832c0 15.709-12.735 28.444-28.444 28.444v0h-362.382c-15.709 0-28.444-12.735-28.444-28.444v0-362.667c0-15.709 12.735-28.444 28.444-28.444v0h73.387v293.831c0 47.128 38.205 85.333 85.333 85.333v0h232.107zM800.995 644.552c0 15.709-12.735 28.444-28.444 28.444v0h-362.382c-15.709 0-28.444-12.735-28.444-28.444v0-362.382c0-15.709 12.735-28.444 28.444-28.444v0h362.382c15.709 0 28.444 12.735 28.444 28.444v0z"></path>
</svg>
