<svg id="Layer_2" data-name="Layer 2" xmlns="http://www.w3.org/2000/svg" viewBox="0 0 36 36"><defs><style>.cls-1{fill:#4f4f4f;}</style></defs><title>clone</title><path class="cls-1" d="M27.18,7.52H14.44a3,3,0,0,0-3,3v.42H8.86a3,3,0,0,0-3,3V26.68a3,3,0,0,0,3,3H21.6a3,3,0,0,0,3-3v-.42h2.58a3,3,0,0,0,3-3V10.52A3,3,0,0,0,27.18,7.52ZM22.6,26.68a1,1,0,0,1-1,1H8.86a1,1,0,0,1-1-1V13.93a1,1,0,0,1,1-1h2.58V23.26a3,3,0,0,0,3,3H22.6Zm5.58-3.42a1,1,0,0,1-1,1H14.44a1,1,0,0,1-1-1V10.52a1,1,0,0,1,1-1H27.18a1,1,0,0,1,1,1Z"/></svg>