<!-- Generated by IcoMoon.io -->
<svg version="1.1" xmlns="http://www.w3.org/2000/svg" width="1425" height="1024" viewBox="0 0 1425 1024">
<title></title>
<g id="icomoon-ignore">
</g>
<path fill="#f2c94c" d="M1077.163 798.544h-729.331c-0.058 0-0.132 0-0.206 0-48.209 0-87.376-38.753-88.039-86.804l-0.001-0.061v-426.864c0.444-48.287 39.692-87.264 88.046-87.264 0.072 0 0.143 0 0.212 0h729.317c48.118 0.216 87.102 38.999 87.652 87.013l0.001 0.056v427.065c-0.659 47.985-39.603 86.65-87.632 86.864h-0.020z"></path>
<path fill="#af913e" d="M331.919 790.686s390.511-75.078 773.154 0z"></path>
<path fill="#af913e" d="M315.999 236.862s390.511 253.329 773.154 0z"></path>
<path fill="#f4f4f4" d="M459.464 739.192h-79.794c-23.988 0-43.432-19.444-43.432-43.432s19.444-43.432 43.432-43.432h79.794c23.988 0 43.432 19.444 43.432 43.432s-19.444 43.432-43.432 43.432v0z"></path>
<path fill="#f4f4f4" d="M858.030 739.192h-239.179c-23.988 0-43.432-19.444-43.432-43.432s19.444-43.432 43.432-43.432h239.179c23.988 0 43.432 19.444 43.432 43.432s-19.444 43.432-43.432 43.432v0z"></path>
<path fill="#4f4f4f" d="M1085.026 154.315h-745.249c-0.002 0-0.005 0-0.008 0-67.531 0-122.359 54.411-123.023 121.784l-0.001 0.061v471.677c0.665 67.435 55.493 121.848 123.024 121.848 0.003 0 0.006 0 0.009 0h745.249c0.057 0 0.13 0 0.203 0 67.531 0 122.359-54.411 123.023-121.784l0.001-0.061v-471.677c-0.665-67.435-55.493-121.848-123.024-121.848-0.073 0-0.145 0-0.212 0h0.011zM339.777 241.181h745.249c0.123-0.002 0.261-0.003 0.408-0.003 19.519 0 35.403 15.548 35.952 34.932l0.002 0.053v78.612h-817.769v-78.612c0.548-19.438 16.435-34.982 35.954-34.982 0.077 0 0.145 0 0.22 0.001h-0.011zM1085.026 782.827h-745.249c-0.060 0.001-0.137 0.001-0.212 0.001-19.518 0-35.401-15.548-35.952-34.93l-0.002-0.053v-305.018h817.769v305.018c-0.548 19.438-16.435 34.984-35.954 34.984-0.145 0-0.283-0.001-0.43-0.004h0.021z"></path>
</svg>
