<!-- Generated by IcoMoon.io -->
<svg version="1.1" xmlns="http://www.w3.org/2000/svg" width="1024" height="1024" viewBox="0 0 1024 1024">
<title></title>
<g id="icomoon-ignore">
</g>
<path d="M806.969 278.471h-585.102c-34.438 0.161-62.294 28.116-62.294 62.577 0 0.1 0 0.2 0.001 0.301v-0.015 95.573h711.111v-95.573c0-0.088 0.001-0.191 0.001-0.295 0-34.561-28.017-62.578-62.578-62.578-0.4 0-0.8 0.004-1.198 0.011l0.060-0.001z"></path>
<path d="M159.573 730.169c0.161 34.339 27.954 62.133 62.278 62.293h585.117c34.339-0.161 62.133-27.954 62.293-62.278v-186.326l-709.689-3.413zM441.458 657.351h187.164c15.95 1.571 28.309 14.916 28.309 31.147s-12.359 29.576-28.18 31.136l-0.129 0.010h-187.164c-0.893 0.091-1.931 0.142-2.98 0.142-17.28 0-31.289-14.009-31.289-31.289s14.009-31.289 31.289-31.289c1.049 0 2.087 0.052 3.109 0.153l-0.129-0.010zM254.293 657.351h62.293c0.893-0.091 1.931-0.142 2.98-0.142 17.28 0 31.289 14.009 31.289 31.289s-14.009 31.289-31.289 31.289c-1.049 0-2.087-0.052-3.109-0.153l0.129 0.010h-62.293c-0.893 0.091-1.931 0.142-2.98 0.142-17.28 0-31.289-14.009-31.289-31.289s14.009-31.289 31.289-31.289c1.049 0 2.087 0.052 3.109 0.153l-0.129-0.010z"></path>
</svg>
