<!-- Generated by IcoMoon.io -->
<svg version="1.1" xmlns="http://www.w3.org/2000/svg" width="1024" height="1024" viewBox="0 0 1024 1024">
<title></title>
<g id="icomoon-ignore">
</g>
<path d="M760.32 256h-532.764c-47.128 0-85.333 38.205-85.333 85.333v0 339.342c0 47.128 38.205 85.333 85.333 85.333v0h532.764c47.128 0 85.333-38.205 85.333-85.333v0-339.342c0-47.128-38.205-85.333-85.333-85.333v0zM227.556 312.889h532.764c15.709 0 28.444 12.735 28.444 28.444v0 58.596h-589.653v-58.596c0-15.709 12.735-28.444 28.444-28.444v0zM760.32 709.12h-532.764c-15.709 0-28.444-12.735-28.444-28.444v0-224.142h589.653v223.858c0.001 0.085 0.001 0.184 0.001 0.284 0 15.709-12.735 28.444-28.444 28.444 0 0-0.001 0-0.001 0v0z"></path>
</svg>
