<!-- Generated by IcoMoon.io -->
<svg version="1.1" xmlns="http://www.w3.org/2000/svg" width="1024" height="1024" viewBox="0 0 1024 1024">
<title></title>
<g id="icomoon-ignore">
</g>
<path fill="#f2c94c" d="M778.791 721.637h-533.581c-0.040 0-0.096 0-0.152 0-35.269 0-63.925-28.351-64.411-63.506l-0.001-0.043v-312.295c0.324-35.327 29.038-63.843 64.414-63.843 0.054 0 0.107 0 0.156 0h533.573c35.205 0.156 63.726 28.531 64.126 63.661l0.001 0.040v312.442c-0.483 35.107-28.974 63.394-64.112 63.549h-0.014z"></path>
<path fill="#af913e" d="M233.563 715.891s285.701-54.928 565.644 0z"></path>
<path fill="#af913e" d="M221.916 310.708s285.701 185.337 565.644 0z"></path>
<path fill="#f4f4f4" d="M326.878 678.215h-58.379c-17.55 0-31.774-14.224-31.774-31.774s14.224-31.774 31.774-31.774h58.379c17.55 0 31.774 14.224 31.774 31.774s-14.224 31.774-31.774 31.774v0z"></path>
<path fill="#f4f4f4" d="M618.47 678.215h-174.985c-17.55 0-31.774-14.224-31.774-31.774s14.224-31.774 31.774-31.774h174.985c17.55 0 31.774 14.224 31.774 31.774s-14.224 31.774-31.774 31.774v0z"></path>
<path fill="#4f4f4f" d="M784.542 250.316h-545.227c-0.002 0-0.005 0-0.009 0-49.405 0-89.521 39.807-90.005 89.096l-0.001 0.043v345.083c0.485 49.336 40.601 89.143 90.006 89.143 0.003 0 0.006 0 0.009 0h545.227c0.040 0 0.094 0 0.149 0 49.405 0 89.521-39.807 90.005-89.096l0.001-0.043v-345.083c-0.485-49.336-40.601-89.143-90.006-89.143-0.055 0-0.107 0-0.156 0h0.009zM239.314 313.866h545.227c0.089-0.002 0.189-0.003 0.3-0.003 14.281 0 25.899 11.376 26.304 25.554l0.002 0.040v57.514h-598.283v-57.514c0.4-14.22 12.025-25.592 26.306-25.592 0.058 0 0.107 0 0.16 0.001h-0.009zM784.542 710.138h-545.227c-0.042 0.001-0.101 0.001-0.156 0.001-14.28 0-25.899-11.376-26.304-25.554l-0.002-0.040v-223.154h598.283v223.154c-0.4 14.22-12.025 25.594-26.306 25.594-0.107 0-0.205-0.001-0.316-0.004h0.015z"></path>
</svg>
