<svg xmlns="http://www.w3.org/2000/svg" viewBox="0 0 50.09 36"><defs><style>.a{fill:#f2c94c;}.b{fill:#af913e;}.c{fill:#f4f4f4;}.d{fill:#4f4f4f;}</style></defs><title>credit-card-color</title><path class="a" d="M43.6,32.58H6.49A4.48,4.48,0,0,1,2,28.16V6.44A4.48,4.48,0,0,1,6.49,2H43.6a4.48,4.48,0,0,1,4.46,4.43V28.16A4.48,4.48,0,0,1,43.6,32.58Z"/><path class="b" d="M5.68,32.18s19.87-3.82,39.34,0Z"/><path class="b" d="M4.87,4S24.74,16.89,44.21,4Z"/><path class="c" d="M12.17,29.56H8.11a2.21,2.21,0,0,1,0-4.42h4.06a2.21,2.21,0,1,1,0,4.42Z"/><path class="c" d="M32.45,29.56H20.28a2.21,2.21,0,0,1,0-4.42H32.45a2.21,2.21,0,0,1,0,4.42Z"/><path class="d" d="M44-.2H6.08A6.26,6.26,0,0,0-.18,6V30A6.26,6.26,0,0,0,6.08,36.2H44A6.26,6.26,0,0,0,50.27,30V6A6.26,6.26,0,0,0,44-.2ZM6.08,4.22H44A1.83,1.83,0,0,1,45.85,6v4H4.24V6A1.83,1.83,0,0,1,6.08,4.22ZM44,31.78H6.08A1.83,1.83,0,0,1,4.24,30V14.48H45.85V30A1.83,1.83,0,0,1,44,31.78Z"/></svg>