<svg id="Layer_2" data-name="Layer 2" xmlns="http://www.w3.org/2000/svg" viewBox="0 0 36 36"><defs><style>.cls-1{fill:#4f4f4f;}</style></defs><title>wallet</title><path class="cls-1" d="M28.37,9.79H7.8A2.2,2.2,0,0,0,5.61,12v3.36h25V12A2.2,2.2,0,0,0,28.37,9.79Z"/><path class="cls-1" d="M5.61,25.67A2.2,2.2,0,0,0,7.8,27.86H28.37a2.2,2.2,0,0,0,2.19-2.19V19.12L5.61,19Zm9.91-2.56H22.1a1.1,1.1,0,0,1,0,2.19H15.52a1.1,1.1,0,1,1,0-2.19Zm-6.58,0h2.19a1.1,1.1,0,1,1,0,2.19H8.94a1.1,1.1,0,1,1,0-2.19Z"/></svg>