<!-- Generated by IcoMoon.io -->
<svg version="1.1" xmlns="http://www.w3.org/2000/svg" width="1024" height="1024" viewBox="0 0 1024 1024">
<title></title>
<g id="icomoon-ignore">
</g>
<path d="M341.333 170.667c0-15.709-12.735-28.444-28.444-28.444s-28.444 12.735-28.444 28.444v0 116.907h56.889z"></path>
<path d="M341.333 679.538v-334.791h-56.889v391.68h398.222v-56.889h-341.333z"></path>
<path d="M853.333 679.253h-113.778v56.889h113.778c15.709 0 28.444-12.735 28.444-28.444s-12.735-28.444-28.444-28.444v0z"></path>
<path d="M682.667 853.333c0 15.709 12.735 28.444 28.444 28.444s28.444-12.735 28.444-28.444v0-117.191h-56.889z"></path>
<path d="M170.667 287.573c-15.709 0-28.444 12.735-28.444 28.444s12.735 28.444 28.444 28.444v0h113.778v-56.889z"></path>
<path d="M682.667 344.747v334.791h56.889v-391.68h-398.222v56.889h341.333z"></path>
</svg>
