<svg id="Layer_2" data-name="Layer 2" xmlns="http://www.w3.org/2000/svg" viewBox="0 0 36 36"><defs><style>.cls-1{fill:none;}.cls-2{fill:#4f4f4f;}</style></defs><title>crop</title><rect class="cls-1" x="12" y="12.11" width="12" height="11.77"/><path class="cls-2" d="M12,6a1,1,0,0,0-2,0v4.11h2Z"/><polygon class="cls-2" points="12 23.89 12 12.12 10 12.12 10 25.89 24 25.89 24 23.89 12 23.89"/><path class="cls-2" d="M30,23.88H26v2h4a1,1,0,0,0,0-2Z"/><path class="cls-2" d="M24,30a1,1,0,0,0,2,0V25.88H24Z"/><path class="cls-2" d="M6,10.11a1,1,0,0,0,0,2h4v-2Z"/><polygon class="cls-2" points="24 12.12 24 23.89 26 23.89 26 10.12 12 10.12 12 12.12 24 12.12"/></svg>