<!-- Generated by IcoMoon.io -->
<svg version="1.1" xmlns="http://www.w3.org/2000/svg" width="1024" height="1024" viewBox="0 0 1024 1024">
<title></title>
<g id="icomoon-ignore">
</g>
<path fill="#000" d="M512 933.333c-232.698 0-421.333-188.635-421.333-421.333s188.635-421.333 421.333-421.333c232.698 0 421.333 188.635 421.333 421.333v0c0 232.698-188.635 421.333-421.333 421.333v0zM512 160.891c-193.914 0-351.109 157.2-351.109 351.109s157.2 351.109 351.109 351.109c193.914 0 351.109-157.2 351.109-351.109v0c0-193.914-157.2-351.109-351.109-351.109v0z"></path>
<path fill="#000" d="M513.053 405.613l-34.76 72.68 37.92 68.467-77.597-9.131-53.371 60.389-12.989-78.651-70.923-31.251 69.52-39.323 9.48-79.349 55.827 54.069 76.893-17.907z"></path>
<path fill="#000" d="M422.816 813.957l-191.707-161.509c-7.541-6.479-12.292-16.029-12.292-26.683 0-19.39 15.721-35.111 35.111-35.111 8.736 0 16.724 3.189 22.867 8.47l-0.048-0.042 142.549 121.483 306.52-284.051c6.248-5.795 14.646-9.35 23.877-9.35 19.415 0 35.157 15.742 35.157 35.157 0 10.189-4.336 19.363-11.261 25.785l-0.023 0.022z"></path>
</svg>
