<!-- Generated by IcoMoon.io -->
<svg version="1.1" xmlns="http://www.w3.org/2000/svg" width="1024" height="1024" viewBox="0 0 1024 1024">
<title></title>
<g id="icomoon-ignore">
</g>
<path d="M512 945.849c-239.607 0-433.849-194.242-433.849-433.849s194.242-433.849 433.849-433.849c239.607 0 433.849 194.242 433.849 433.849v0c0 239.607-194.242 433.849-433.849 433.849v0zM512 160.874c-0.151 0-0.332 0-0.511 0-194.062 0-351.381 157.318-351.381 351.381s157.318 351.381 351.381 351.381c193.792 0 350.943-156.88 351.38-350.57v-0.041s0 0 0 0c-0.145-193.928-157.023-351.166-350.801-351.892h-0.068z"></path>
<path d="M780.658 304.296l-43.795 91.688 48.148 86.821-97.834-11.525-67.357 76.065-16.391-99.115-89.895-39.697 87.844-49.429 11.782-100.651 70.686 68.381 96.81-22.538z"></path>
<path d="M435.68 507.645l16.904 26.891-19.464 26.379 30.22 8.963 1.281 32.525 29.453-13.318 21.257 23.562 14.854-29.196 31.501 3.329-6.658-31.501 27.148-18.183-25.098-19.209 9.732-30.989-32.013 2.305-11.782-29.965-23.562 22.538-28.172-14.087-4.353 32.27-31.246 7.684z"></path>
<path d="M267.415 662.591l15.878-3.586-6.403-14.854 7.427-15.111-15.366-4.098-6.915-14.854-13.061 9.989-15.878-3.329-0.769 16.391-12.806 10.244 12.037 10.756-0.512 16.391 16.135-3.329 12.294 10.244 7.939-14.854z"></path>
<path d="M404.434 594.723l-22.793 6.146-15.878-17.159-12.549 20.745-23.306-0.257 5.122 23.306-17.159 16.904 19.976 11.782-0.769 24.074 22.793-6.146 15.878 17.159 12.549-20.745h23.306l-5.379-23.050 17.416-16.904-19.976-12.037 0.769-23.819z"></path>
</svg>
