<svg id="Layer_2" data-name="Layer 2" xmlns="http://www.w3.org/2000/svg" viewBox="0 0 36 36"><defs><style>.cls-1{fill:#4f4f4f;}</style></defs><title>check copy 2</title><path class="cls-1" d="M18.06,35.28A16.94,16.94,0,1,1,35,18.34,16.94,16.94,0,0,1,18.06,35.28Zm0-30.65a13.72,13.72,0,1,0,13.7,13.75s0,0,0,0A13.75,13.75,0,0,0,18.06,4.64Z"/><polygon class="cls-1" points="28.55 10.23 26.84 13.81 28.72 17.2 24.9 16.75 22.27 19.72 21.63 15.85 18.12 14.3 21.55 12.37 22.01 8.44 24.77 11.11 28.55 10.23"/><polygon class="cls-1" points="15.08 18.17 15.74 19.22 14.98 20.25 16.16 20.6 16.21 21.87 17.36 21.35 18.19 22.27 18.77 21.13 20 21.26 19.74 20.03 20.8 19.32 19.82 18.57 20.2 17.36 18.95 17.45 18.49 16.28 17.57 17.16 16.47 16.61 16.3 17.87 15.08 18.17"/><polygon class="cls-1" points="8.51 24.22 9.13 24.08 8.88 23.5 9.17 22.91 8.57 22.75 8.3 22.17 7.79 22.56 7.17 22.43 7.14 23.07 6.64 23.47 7.11 23.89 7.09 24.53 7.72 24.4 8.2 24.8 8.51 24.22"/><polygon class="cls-1" points="13.86 21.57 12.97 21.81 12.35 21.14 11.86 21.95 10.95 21.94 11.15 22.85 10.48 23.51 11.26 23.97 11.23 24.91 12.12 24.67 12.74 25.34 13.23 24.53 14.14 24.53 13.93 23.63 14.61 22.97 13.83 22.5 13.86 21.57"/></svg>