<svg id="Layer_2" data-name="Layer 2" xmlns="http://www.w3.org/2000/svg" viewBox="0 0 36 36"><defs><style>.cls-1{fill:#4f4f4f;}</style></defs><title>completado</title><path class="cls-1" d="M18,30A12,12,0,1,1,30,18,12,12,0,0,1,18,30ZM18,8A10,10,0,1,0,28,18,10,10,0,0,0,18,8Z"/><polygon class="cls-1" points="18.03 14.97 17.04 17.04 18.12 18.99 15.91 18.73 14.39 20.45 14.02 18.21 12 17.32 13.98 16.2 14.25 13.94 15.84 15.48 18.03 14.97"/><path class="cls-1" d="M15.46,26.6,10,22a1,1,0,0,1,1.3-1.52l4.06,3.46,8.73-8.09a1,1,0,0,1,1.36,1.47Z"/></svg>