<svg id="Layer_2" data-name="Layer 2" xmlns="http://www.w3.org/2000/svg" viewBox="0 0 36 36"><defs><style>.cls-1{fill:#4f4f4f;}</style></defs><title>post update</title><path class="cls-1" d="M31.91,7.78,28.6,4.47a1.34,1.34,0,0,0-1.89,0L7.1,24.09a1.34,1.34,0,0,0-.37.7l-.52,2.75a2.26,2.26,0,0,0,2.64,2.64l2.75-.52h0a1.33,1.33,0,0,0,.7-.37L31.91,9.67A1.34,1.34,0,0,0,31.91,7.78Zm-8.79,3.11,2.37,2.37L12.73,26l-2.37-2.37ZM8.48,28.2a.26.26,0,0,1-.23-.07.25.25,0,0,1-.07-.23l.48-2.54.29-.29,2.37,2.37-.29.29ZM26.9,11.85,24.54,9.48l3.12-3.12L30,8.73Z"/><path class="cls-1" d="M23.22,31.38H5.7V5.09H25.22a2,2,0,0,0-2-2H5.7a2,2,0,0,0-2,2V31.38a2,2,0,0,0,2,2H23.22a2,2,0,0,0,2-2V20h-2Z"/></svg>