<!-- Generated by IcoMoon.io -->
<svg version="1.1" xmlns="http://www.w3.org/2000/svg" width="1024" height="1024" viewBox="0 0 1024 1024">
<title></title>
<g id="icomoon-ignore">
</g>
<path fill="#000" d="M907.664 214.613l-94.151-94.151c-6.89-6.855-16.39-11.092-26.88-11.092s-19.99 4.237-26.882 11.094l-557.794 558.078c-5.272 5.264-9.010 12.064-10.486 19.671l-0.039 0.24-14.791 78.222c-0.71 3.585-1.116 7.708-1.116 11.925 0 35.503 28.781 64.284 64.284 64.284 4.217 0 8.339-0.406 12.33-1.181l-0.405 0.066 78.222-14.791c7.852-1.496 14.656-5.238 19.909-10.523l557.798-558.082c6.855-6.89 11.092-16.39 11.092-26.88s-4.237-19.99-11.094-26.882l0.002 0.002zM657.638 303.075l67.413 67.413-362.951 362.382-67.413-67.413zM241.211 795.448c-0.409 0.080-0.88 0.126-1.362 0.126-2.018 0-3.847-0.808-5.182-2.119l0.001 0.001c-1.322-1.292-2.142-3.094-2.142-5.087 0-0.515 0.055-1.018 0.159-1.502l-0.008 0.047 13.653-72.249 8.249-8.249 67.413 67.413-8.249 8.249zM765.158 330.382l-67.129-67.413 88.747-88.747 66.56 67.413z"></path>
<path fill="#000" d="M660.482 885.902h-498.347v-747.804h555.236c0-31.419-25.47-56.889-56.889-56.889v0h-498.347c-31.419 0-56.889 25.47-56.889 56.889v0 747.804c0 31.419 25.47 56.889 56.889 56.889v0h498.347c31.419 0 56.889-25.47 56.889-56.889v0-323.698h-56.889z"></path>
</svg>
