<!-- Generated by IcoMoon.io -->
<svg version="1.1" xmlns="http://www.w3.org/2000/svg" width="1024" height="1024" viewBox="0 0 1024 1024">
<title></title>
<g id="icomoon-ignore">
</g>
<path d="M533.379 78.935c39.616 9.277 64.21 48.913 54.933 88.528s-48.913 64.21-88.528 54.933c-39.616-9.277-64.21-48.913-54.933-88.528s48.913-64.21 88.528-54.933z"></path>
<path d="M533.467 442.633c39.616 9.277 64.21 48.913 54.933 88.528s-48.913 64.21-88.528 54.933c-39.616-9.277-64.21-48.913-54.933-88.528s48.913-64.21 88.528-54.933z"></path>
<path d="M533.278 806.266c39.616 9.277 64.21 48.913 54.933 88.528s-48.913 64.21-88.528 54.933c-39.616-9.277-64.21-48.913-54.933-88.528s48.913-64.21 88.528-54.933z"></path>
</svg>
