<!-- Generated by IcoMoon.io -->
<svg version="1.1" xmlns="http://www.w3.org/2000/svg" width="1024" height="1024" viewBox="0 0 1024 1024">
<title></title>
<g id="icomoon-ignore">
</g>
<path fill="#000" d="M525.114 172.172c30.922 7.243 50.116 38.178 42.873 69.094s-38.178 50.116-69.094 42.873c-30.922-7.243-50.116-38.178-42.873-69.094s38.178-50.116 69.094-42.873z"></path>
<path fill="#000" d="M525.184 456.040c30.922 7.243 50.116 38.178 42.873 69.094s-38.178 50.116-69.094 42.873c-30.922-7.243-50.116-38.178-42.873-69.094s38.178-50.116 69.094-42.873z"></path>
<path fill="#000" d="M525.037 739.855c30.922 7.243 50.116 38.178 42.873 69.094s-38.178 50.116-69.094 42.873c-30.922-7.243-50.116-38.178-42.873-69.094s38.178-50.116 69.094-42.873z"></path>
</svg>
