<!-- Generated by IcoMoon.io -->
<svg version="1.1" xmlns="http://www.w3.org/2000/svg" width="1024" height="1024" viewBox="0 0 1024 1024">
<title></title>
<g id="icomoon-ignore">
</g>
<path d="M762.88 250.88h-501.76c-65.6 0.161-118.736 53.297-118.898 118.882v284.46c0.161 65.6 53.297 118.736 118.882 118.898h501.776c65.6-0.161 118.736-53.297 118.898-118.882v-284.46c-0.161-65.6-53.297-118.736-118.882-118.898h-0.016zM757.76 307.769l-217.316 204.231c-7.986 8.721-19.423 14.169-32.133 14.169-11.441 0-21.851-4.415-29.619-11.634l0.027 0.025-241.493-201.671c7.053-3.050 15.264-4.828 23.89-4.836h0.003zM824.889 654.222c-0.161 34.182-27.827 61.848-61.993 62.009h-501.775c-34.182-0.161-61.848-27.827-62.009-61.993v-284.459c0.064-4.874 0.682-9.573 1.795-14.077l-0.089 0.424 242.347 202.24c17.592 15.32 40.664 24.751 65.932 25.031l0.059 0.001c27.87-0.379 53.021-11.711 71.406-29.877l-0.010 0.010 232.676-219.876c7.289 9.976 11.662 22.485 11.662 36.015 0 0.039 0 0.077 0 0.116v-0.006z"></path>
</svg>
