<!-- Generated by IcoMoon.io -->
<svg version="1.1" xmlns="http://www.w3.org/2000/svg" width="1024" height="1024" viewBox="0 0 1024 1024">
<title></title>
<g id="icomoon-ignore">
</g>
<path d="M762.88 250.88h-501.76c-65.6 0.161-118.736 53.297-118.898 118.882v284.46c0.161 65.6 53.297 118.736 118.882 118.898h501.776c65.6-0.161 118.736-53.297 118.898-118.882v-284.46c-0.161-65.6-53.297-118.736-118.882-118.898h-0.016zM661.902 476.444l151.324-142.222c7.201 9.855 11.559 22.186 11.662 35.531v284.469c-0.031 5.784-0.86 11.361-2.382 16.645l0.106-0.432zM757.76 307.769l-217.316 204.231c-7.986 8.721-19.423 14.169-32.133 14.169-11.441 0-21.851-4.415-29.619-11.634l0.027 0.025-241.493-201.671c7.053-3.050 15.264-4.828 23.89-4.836h0.003zM199.111 664.462c-0.136-1.534-0.214-3.318-0.214-5.12s0.078-3.586 0.23-5.349l-0.016 0.229v-284.444c0.064-4.874 0.682-9.573 1.795-14.077l-0.089 0.424 150.756 125.724zM260.267 716.516c-9.296-0.035-18.094-2.128-25.974-5.848l0.374 0.159 159.289-192.284 48.071 40.107c17.592 15.32 40.664 24.751 65.932 25.031l0.059 0.001c27.87-0.379 53.021-11.711 71.406-29.877l-0.010 0.010 40.107-37.831 163.84 195.129c-6.173 2.316-13.306 3.669-20.752 3.698h-0.012z"></path>
</svg>
