<svg id="Layer_2" data-name="Layer 2" xmlns="http://www.w3.org/2000/svg" viewBox="0 0 36 36"><defs><style>.cls-1{fill:#4f4f4f;}</style></defs><title>message-alt</title><path class="cls-1" d="M26.82,8.82H9.18A4.19,4.19,0,0,0,5,13V23a4.19,4.19,0,0,0,4.18,4.18H26.82A4.19,4.19,0,0,0,31,23V13A4.19,4.19,0,0,0,26.82,8.82Zm-.18,2L19,18a1.53,1.53,0,0,1-2.17.09L8.34,11a2.17,2.17,0,0,1,.84-.17ZM29,23a2.19,2.19,0,0,1-2.18,2.18H9.18A2.19,2.19,0,0,1,7,23V13a2.17,2.17,0,0,1,.06-.48l8.52,7.11a3.6,3.6,0,0,0,2.32.88,3.64,3.64,0,0,0,2.51-1.05l8.18-7.73A2.16,2.16,0,0,1,29,13Z"/></svg>