<svg id="Layer_2" data-name="Layer 2" xmlns="http://www.w3.org/2000/svg" viewBox="0 0 36 36"><defs><style>.cls-1{fill:#4f4f4f;}</style></defs><title>message</title><path class="cls-1" d="M26.82,8.82H9.18A4.19,4.19,0,0,0,5,13V23a4.19,4.19,0,0,0,4.18,4.18H26.82A4.19,4.19,0,0,0,31,23V13A4.19,4.19,0,0,0,26.82,8.82Zm-3.55,7.93,5.32-5A2.16,2.16,0,0,1,29,13V23a2.15,2.15,0,0,1-.08.57Zm3.37-5.93L19,18a1.53,1.53,0,0,1-2.17.09L8.34,11a2.17,2.17,0,0,1,.84-.17ZM7,23.36A2.16,2.16,0,0,1,7,23V13a2.17,2.17,0,0,1,.06-.48l5.3,4.42Zm2.15,1.83a2.16,2.16,0,0,1-.9-.2l5.6-6.76,1.69,1.41a3.6,3.6,0,0,0,2.32.88,3.64,3.64,0,0,0,2.51-1.05l1.41-1.33L27.54,25a2.16,2.16,0,0,1-.73.13Z"/></svg>