<!-- Generated by IcoMoon.io -->
<svg version="1.1" xmlns="http://www.w3.org/2000/svg" width="1024" height="1024" viewBox="0 0 1024 1024">
<title></title>
<g id="icomoon-ignore">
</g>
<path d="M512 881.778c-204.223 0-369.778-165.555-369.778-369.778s165.555-369.778 369.778-369.778c204.223 0 369.778 165.555 369.778 369.778v0c0 204.223-165.555 369.778-369.778 369.778v0zM512 199.111c-172.804 0-312.889 140.085-312.889 312.889s140.085 312.889 312.889 312.889c172.804 0 312.889-140.085 312.889-312.889v0c0-172.804-140.085-312.889-312.889-312.889v0z"></path>
<path d="M471.324 690.916c-0.034-0.595-0.054-1.291-0.054-1.991 0-20.265 16.428-36.693 36.693-36.693 0.019 0 0.038 0 0.057 0h-0.003c21.365 0 38.684 17.32 38.684 38.684s-17.32 38.684-38.684 38.684v0c-0.016 0-0.035 0-0.054 0-20.265 0-36.693-16.428-36.693-36.693 0-0.7 0.020-1.396 0.058-2.087l-0.004 0.096zM486.969 601.6l-8.818-299.804h60.018l-8.818 299.804z"></path>
</svg>
