<!-- Generated by IcoMoon.io -->
<svg version="1.1" xmlns="http://www.w3.org/2000/svg" width="1024" height="1024" viewBox="0 0 1024 1024">
<title></title>
<g id="icomoon-ignore">
</g>
<path d="M325.973 317.156l126.578-126.578v579.982c0 15.709 12.735 28.444 28.444 28.444s28.444-12.735 28.444-28.444v0-579.982l126.578 126.578c4.941 4.251 11.419 6.84 18.502 6.84 15.709 0 28.444-12.735 28.444-28.444 0-7.083-2.589-13.56-6.871-18.539l0.031 0.037-145.067-145.067c-12.875-12.907-30.678-20.892-50.347-20.892s-37.472 7.985-50.345 20.89l-0.001 0.001-145.92 145.067c-4.251 4.941-6.84 11.419-6.84 18.502 0 15.709 12.735 28.444 28.444 28.444 7.083 0 13.56-2.589 18.539-6.871l-0.037 0.031z"></path>
<path d="M794.453 268.516c-15.709 0-28.444 12.735-28.444 28.444v0 526.222h-568.889v-526.222c0-15.709-12.735-28.444-28.444-28.444s-28.444 12.735-28.444 28.444v0 583.111h682.667v-583.111c0-15.709-12.735-28.444-28.444-28.444v0z"></path>
</svg>
