<!-- Generated by IcoMoon.io -->
<svg version="1.1" xmlns="http://www.w3.org/2000/svg" width="1024" height="1024" viewBox="0 0 1024 1024">
<title></title>
<g id="icomoon-ignore">
</g>
<path d="M512 678.4v0c-192.569 0-332.8-122.596-398.222-195.129l-17.636-19.342 17.92-19.342c46.593-50.234 100.749-92.6 160.831-125.495l3.293-1.652c4.088-2.364 8.992-3.758 14.222-3.758 15.9 0 28.789 12.889 28.789 28.789 0 10.67-5.804 19.984-14.428 24.957l-0.139 0.074c-38.646 21.109-72.003 44.306-102.601 70.62l0.77-0.647c-9.956 8.533-19.627 17.351-28.444 26.738 65.422 65.707 183.751 156.444 338.773 157.298 24.234-0.032 47.962-2.1 71.050-6.042l-2.499 0.353c1.411-0.245 3.036-0.385 4.693-0.385 15.922 0 28.829 12.907 28.829 28.829 0 14.264-10.36 26.109-23.966 28.421l-0.17 0.024c-21.777 3.672-46.866 5.77-72.445 5.77-3.031 0-6.056-0.029-9.074-0.088l0.452 0.007z"></path>
<path d="M742.969 613.831c-0.059 0-0.129 0.001-0.199 0.001-15.709 0-28.444-12.735-28.444-28.444 0-10.554 5.747-19.765 14.283-24.674l0.138-0.073c46.794-27.516 87.15-59.18 122.793-95.485l0.087-0.088c-128.853-121.173-263.68-170.667-401.067-149.333-1.368 0.23-2.944 0.362-4.551 0.362-15.909 0-28.806-12.897-28.806-28.806 0-14.302 10.423-26.17 24.088-28.422l0.167-0.023c163.271-26.169 321.422 35.84 469.902 184.036l18.204 18.204-16.213 19.911c-44.199 50.408-95.742 92.982-153.246 126.435l-2.914 1.565c-4.004 2.743-8.879 4.503-14.141 4.831l-0.082 0.004z"></path>
<path d="M382.009 466.204c-0.003 0.338-0.005 0.738-0.005 1.138 0 71.792 58.199 129.991 129.991 129.991 0.002 0 0.004 0 0.005 0v0c19.678-0.125 38.25-4.73 54.788-12.845l-0.744 0.33-170.667-170.667c-7.783 15.149-12.641 32.954-13.362 51.819l-0.007 0.234z"></path>
<path d="M641.991 466.204c0-71.792-58.199-129.991-129.991-129.991v0c-12.122 0.162-23.748 2.021-34.735 5.351l0.886-0.231 158.72 158.72c3.099-10.101 4.958-21.727 5.119-33.763l0.001-0.086z"></path>
<path d="M790.187 761.458c-0.049 0-0.107 0-0.164 0-7.814 0-14.892-3.151-20.033-8.251l-516.834-516.834c-5.108-5.143-8.265-12.23-8.265-20.053 0-15.718 12.742-28.46 28.46-28.46 7.894 0 15.038 3.214 20.194 8.406l516.553 516.553c5.197 5.156 8.414 12.3 8.414 20.196 0 15.709-12.735 28.444-28.444 28.444-0.058 0-0.116 0-0.174-0.001h0.009z"></path>
</svg>
