<svg id="Layer_2" data-name="Layer 2" xmlns="http://www.w3.org/2000/svg" viewBox="0 0 36 36"><defs><style>.cls-1{fill:#4f4f4f;}</style></defs><title>ojo cerrado</title><path class="cls-1" d="M18,23.85H18c-6.77,0-11.7-4.31-14-6.86l-.62-.68.63-.68a22.23,22.23,0,0,1,5.77-4.47,1,1,0,0,1,1,1.76,20.52,20.52,0,0,0-3.58,2.46c-.35.3-.69.61-1,.94,2.3,2.31,6.46,5.5,11.91,5.53a14.85,14.85,0,0,0,2.41-.2,1,1,0,1,1,.33,2A16.09,16.09,0,0,1,18,23.85Z"/><path class="cls-1" d="M26.12,21.58a1,1,0,0,1-.5-1.87,20.51,20.51,0,0,0,4.32-3.36c-4.53-4.26-9.27-6-14.1-5.25a1,1,0,0,1-.32-2c5.74-.92,11.3,1.26,16.52,6.47l.64.64-.57.7a21.47,21.47,0,0,1-5.49,4.5A1,1,0,0,1,26.12,21.58Z"/><path class="cls-1" d="M13.43,16.39A4.57,4.57,0,0,0,18,21a4.44,4.44,0,0,0,1.9-.44l-6-6A4.44,4.44,0,0,0,13.43,16.39Z"/><path class="cls-1" d="M22.57,16.39A4.57,4.57,0,0,0,18,11.82a4.4,4.4,0,0,0-1.19.18l5.58,5.58A4.4,4.4,0,0,0,22.57,16.39Z"/><path class="cls-1" d="M27.78,26.77a1,1,0,0,1-.71-.29L8.9,8.31A1,1,0,1,1,10.32,6.9L28.48,25.06a1,1,0,0,1-.71,1.71Z"/></svg>