<!-- Generated by IcoMoon.io -->
<svg version="1.1" xmlns="http://www.w3.org/2000/svg" width="1024" height="1024" viewBox="0 0 1024 1024">
<title></title>
<g id="icomoon-ignore">
</g>
<path fill="#000" d="M515.129 724.073c-138.24 0-273.351-65.138-402.204-194.276l-18.489-18.489 17.067-19.911c6.258-7.396 158.436-182.329 384.284-191.147 144.213-5.404 284.444 56.889 415.573 189.724l18.204 18.204-16.213 19.911c-6.258 7.396-152.462 184.32-375.467 195.698zM172.942 509.886c117.76 110.649 238.364 163.556 361.244 157.582 156.444-7.964 274.204-112.071 317.156-155.876-113.778-106.951-233.529-159.289-353.28-154.169-158.436 5.404-280.178 108.373-325.12 152.462z"></path>
<path fill="#000" d="M641.991 511.877c0 71.792-58.199 129.991-129.991 129.991s-129.991-58.199-129.991-129.991c0-71.792 58.199-129.991 129.991-129.991s129.991 58.199 129.991 129.991z"></path>
</svg>
