<svg id="Layer_2" data-name="Layer 2" xmlns="http://www.w3.org/2000/svg" viewBox="0 0 36 36"><defs><style>.cls-1{fill:#4f4f4f;}</style></defs><title>ojo abierto</title><path class="cls-1" d="M17.61,25.53c-4.86,0-9.61-2.29-14.14-6.83l-.65-.65.6-.7c.22-.26,5.57-6.41,13.51-6.72,5.07-.19,10,2,14.61,6.67l.64.64-.57.7c-.22.26-5.36,6.48-13.2,6.88ZM5.58,18c4.14,3.89,8.38,5.75,12.7,5.54,5.5-.28,9.64-3.94,11.15-5.48-4-3.76-8.21-5.6-12.42-5.42C11.44,12.83,7.16,16.45,5.58,18Z"/><circle class="cls-1" cx="17.5" cy="18.07" r="4.57"/></svg>