<svg id="Layer_2" data-name="Layer 2" xmlns="http://www.w3.org/2000/svg" viewBox="0 0 36 36"><defs><style>.cls-1{fill:#4f4f4f;}</style></defs><title>file</title><path class="cls-1" d="M22.43,6H12A3,3,0,0,0,9,9V27a3,3,0,0,0,3,3H24a3,3,0,0,0,3-3V10.87ZM22,8.48l2.54,2.71H22.73a.72.72,0,0,1-.72-.72ZM24,28H12a1,1,0,0,1-1-1V9a1,1,0,0,1,1-1h8v2.46a2.72,2.72,0,0,0,2.72,2.72H25V27A1,1,0,0,1,24,28Z"/><rect class="cls-1" x="12.85" y="14.09" width="10.49" height="2"/><rect class="cls-1" x="12.76" y="17.06" width="10.49" height="2"/><rect class="cls-1" x="12.76" y="20.03" width="7.25" height="2"/><rect class="cls-1" x="20" y="23" width="3.24" height="2"/></svg>