<!-- Generated by IcoMoon.io -->
<svg version="1.1" xmlns="http://www.w3.org/2000/svg" width="1024" height="1024" viewBox="0 0 1024 1024">
<title></title>
<g id="icomoon-ignore">
</g>
<path fill="#000" d="M638.010 170.667h-296.676c-47.128 0-85.333 38.205-85.333 85.333v0 512c0 47.128 38.205 85.333 85.333 85.333v0h341.333c47.128 0 85.333-38.205 85.333-85.333v0-458.809zM625.779 241.209l72.249 77.084h-51.484c-11.311 0-20.48-9.169-20.48-20.48v0zM682.668 796.444h-341.333c-15.709 0-28.444-12.735-28.444-28.444v0-512c0-15.709 12.735-28.444 28.444-28.444v0h227.556v69.973c0 42.73 34.639 77.369 77.369 77.369v0h64.853v393.102c0 15.709-12.735 28.444-28.444 28.444v0z"></path>
<path fill="#000" d="M365.512 400.782h298.382v56.889h-298.382v-56.889z"></path>
<path fill="#000" d="M362.952 485.262h298.382v56.889h-298.382v-56.889z"></path>
<path fill="#000" d="M362.952 569.742h206.222v56.889h-206.222v-56.889z"></path>
<path fill="#000" d="M568.89 654.222h92.16v56.889h-92.16v-56.889z"></path>
</svg>
