<!-- Generated by IcoMoon.io -->
<svg version="1.1" xmlns="http://www.w3.org/2000/svg" width="1024" height="1024" viewBox="0 0 1024 1024">
<title></title>
<g id="icomoon-ignore">
</g>
<path d="M732.16 174.364h-415.573c-30.319 0-54.898 24.579-54.898 54.898v0 565.476c0 30.319 24.579 54.898 54.898 54.898v0h415.573c30.319 0 54.898-24.579 54.898-54.898v0-565.476c0-30.319-24.579-54.898-54.898-54.898v0zM737.28 795.022c-0.147 2.767-2.353 4.973-5.107 5.119l-0.013 0.001h-85.333v-92.729c0-18.38-14.9-33.28-33.28-33.28v0h-175.218c-18.38 0-33.28 14.9-33.28 33.28v0 92.729h-88.462c-2.767-0.147-4.973-2.353-5.119-5.107l-0.001-0.013v-565.76c0.147-2.767 2.353-4.973 5.107-5.119l0.013-0.001h90.169c-0.9 2.512-1.51 5.419-1.702 8.44l-0.005 0.094v94.72c0 18.38 14.9 33.28 33.28 33.28v0h175.787c18.38 0 33.28-14.9 33.28-33.28v-95.004c-0.197-3.114-0.806-6.021-1.776-8.758l0.069 0.225h85.333c2.767 0.147 4.973 2.353 5.119 5.107l0.001 0.013z"></path>
<path d="M336.213 240.924h56.889v49.493h-56.889v-49.493z"></path>
<path d="M336.213 362.951h56.889v49.493h-56.889v-49.493z"></path>
<path d="M336.213 485.262h56.889v49.493h-56.889v-49.493z"></path>
<path d="M336.213 607.573h56.889v49.493h-56.889v-49.493z"></path>
<path d="M336.213 729.884h56.889v49.493h-56.889v-49.493z"></path>
<path d="M659.342 236.089h56.889v50.347h-56.889v-50.347z"></path>
<path d="M659.342 361.529h56.889v50.347h-56.889v-50.347z"></path>
<path d="M659.342 486.684h56.889v50.347h-56.889v-50.347z"></path>
<path d="M659.342 612.124h56.889v50.347h-56.889v-50.347z"></path>
<path d="M659.342 737.564h56.889v50.347h-56.889v-50.347z"></path>
<path d="M438.329 448.853h175.502c18.38 0 33.28 14.9 33.28 33.28v94.436c0 18.38-14.9 33.28-33.28 33.28h-175.502c-18.38 0-33.28-14.9-33.28-33.28v-94.436c0-18.38 14.9-33.28 33.28-33.28z"></path>
</svg>
