<svg id="Layer_2" data-name="Layer 2" xmlns="http://www.w3.org/2000/svg" viewBox="0 0 36 36"><defs><style>.cls-1{fill:#4f4f4f;}</style></defs><title>video</title><path class="cls-1" d="M25.74,6.13H11.13A1.93,1.93,0,0,0,9.2,8.06V27.94a1.93,1.93,0,0,0,1.93,1.93H25.74a1.93,1.93,0,0,0,1.93-1.93V8.06A1.93,1.93,0,0,0,25.74,6.13Zm.18,21.82a.19.19,0,0,1-.18.18h-3V24.87a1.17,1.17,0,0,0-1.17-1.17H15.41a1.17,1.17,0,0,0-1.17,1.17v3.26H11.13a.19.19,0,0,1-.18-.18V8.06a.19.19,0,0,1,.18-.18H14.3a1.13,1.13,0,0,0-.06.3v3.33a1.17,1.17,0,0,0,1.17,1.17h6.18a1.17,1.17,0,0,0,1.17-1.17V8.17a1.13,1.13,0,0,0-.06-.3h3a.19.19,0,0,1,.18.18Z"/><rect class="cls-1" x="11.82" y="8.47" width="2" height="1.74"/><rect class="cls-1" x="11.82" y="12.76" width="2" height="1.74"/><rect class="cls-1" x="11.82" y="17.06" width="2" height="1.74"/><rect class="cls-1" x="11.82" y="21.36" width="2" height="1.74"/><rect class="cls-1" x="11.82" y="25.66" width="2" height="1.74"/><rect class="cls-1" x="23.18" y="8.3" width="2" height="1.77"/><rect class="cls-1" x="23.18" y="12.71" width="2" height="1.77"/><rect class="cls-1" x="23.18" y="17.11" width="2" height="1.77"/><rect class="cls-1" x="23.18" y="21.52" width="2" height="1.77"/><rect class="cls-1" x="23.18" y="25.93" width="2" height="1.77"/><rect class="cls-1" x="14.24" y="15.78" width="8.51" height="5.66" rx="1.17" ry="1.17"/></svg>