<!-- Generated by IcoMoon.io -->
<svg version="1.1" xmlns="http://www.w3.org/2000/svg" width="1024" height="1024" viewBox="0 0 1024 1024">
<title></title>
<g id="icomoon-ignore">
</g>
<path fill="#000" d="M286.698 267.947l203.662 203.662c10.393 10.311 16.828 24.6 16.828 40.391s-6.434 30.080-16.824 40.387l-203.951 203.951c-10.283 10.224-24.457 16.543-40.107 16.543-31.335 0-56.753-25.334-56.888-56.637v-407.906c-0.001-0.098-0.001-0.215-0.001-0.331 0-31.419 25.47-56.889 56.889-56.889 15.792 0 30.081 6.435 40.388 16.825l0.004 0.004z"></path>
<path fill="#000" d="M614.094 267.947l203.662 203.662c10.393 10.311 16.828 24.6 16.828 40.391s-6.434 30.080-16.824 40.387l-203.951 203.951c-10.283 10.224-24.457 16.543-40.107 16.543-31.335 0-56.753-25.334-56.888-56.637v-407.906c-0.001-0.098-0.001-0.215-0.001-0.331 0-31.419 25.47-56.889 56.889-56.889 15.792 0 30.081 6.435 40.388 16.825l0.004 0.004z"></path>
</svg>
