<!-- Generated by IcoMoon.io -->
<svg version="1.1" xmlns="http://www.w3.org/2000/svg" width="1024" height="1024" viewBox="0 0 1024 1024">
<title></title>
<g id="icomoon-ignore">
</g>
<path d="M907.45 667.228c-75.664-75.664-90.527-144.57-90.527-238.133 0-171.76-164.33-322.41-351.46-322.41-94.747 0-162.81 19.253-220.57 62.49-7.959 5.976-13.053 15.396-13.053 26.006 0 3.75 0.636 7.352 1.807 10.705l-0.070-0.227 40.197 118.224c4.688 12.619 16.627 21.45 30.63 21.45 4.23 0 8.274-0.807 11.982-2.274l-0.222 0.077c14.534-4.897 31.673-8.81 49.346-11.014l1.321-0.133v35.296c-80.73 1.184-146.767 42.053-196.42 121.77v0c-25.579 42.439-47.114 91.443-62.082 143.23l-1.085 4.381c-0.904 2.84-1.421 6.108-1.421 9.498 0 17.909 14.518 32.427 32.427 32.427 9.528 0 18.095-4.108 24.031-10.65l0.025-0.027c56.24-62.32 124.304-116.874 145.584-116.874 14.044 0.096 25.408 11.455 25.504 25.492v0.008c0 20.603-43.573 24.827-55.227 24.827h-19.93c-17.909 0-32.427 14.518-32.427 32.427v0 251.14c0.025 17.889 14.534 32.382 32.427 32.382 7.851 0 15.049-2.789 20.661-7.43l-0.054 0.045c49.894-42.633 104.933-84.962 162.102-124.432l6.788-4.432c6.518 2.506 12.082 5.289 17.33 8.531l-0.44-0.254c21.928 14.485 48.745 23.253 77.589 23.642l0.102 0.001c61.984 0 75.83-118.224 78.704-179.194v0l66.544-18.917c33.776 71.27 101.333 107.584 198.107 107.584 0.024 0 0.052 0 0.079 0 17.909 0 32.427-14.518 32.427-32.427 0-8.973-3.646-17.097-9.535-22.97l-0.001-0.001zM533.023 748.465c-14.126-2.286-26.722-7.456-37.646-14.899l0.322 0.206c-14.8-9.965-32.873-16.171-52.343-16.886l-0.18-0.004c-10.304 0-26.683 0-152 101.333v-152.17c55.563-3.547 108.090-31.584 108.090-89.344-0.097-49.862-40.491-90.26-90.345-90.357h-0.008c-31.105 3.844-58.755 16.282-81.161 34.833l0.26-0.209c38-59.616 84.447-88.667 143.22-88.667 92.047 0 185.78 58.603 185.78 170.58-1.35 66.71-14.016 126.667-23.984 145.584zM431.686 375.384v-43.744c0.042-0.606 0.066-1.314 0.066-2.027s-0.024-1.42-0.070-2.123l0.004 0.096h9.456c119.573 13.344 185.78 79.717 224.96 225.973l-48.47 13.68c-14.864-105.893-95.76-171.93-185.61-192.533zM735.69 562.855c-44.923-191.013-133.93-283.397-289.311-300.117h-3.547c-1.815-0.022-3.955-0.032-6.102-0.032-39.691 0-78.418 4.132-115.769 11.99l3.647-0.641-21.616-66.037c42.39-25.504 92.554-36.65 162.474-36.65 135.114 0 287.114 110.117 287.114 257.557 0 78.363 10.47 147.61 53.877 215.674-35.349-14.362-61.754-44.323-70.931-81.096l-0.173-0.814z"></path>
</svg>
