<!-- Generated by IcoMoon.io -->
<svg version="1.1" xmlns="http://www.w3.org/2000/svg" width="1024" height="1024" viewBox="0 0 1024 1024">
<title></title>
<g id="icomoon-ignore">
</g>
<path d="M598.187 490.524c-0.021 0-0.045 0-0.069 0-19.401 0-35.129 15.728-35.129 35.129s15.728 35.129 35.129 35.129c19.401 0 35.129-15.728 35.129-35.129 0-2.365-0.234-4.675-0.679-6.908l0.037 0.224c-3.293-16.265-17.431-28.352-34.408-28.444h-0.010z"></path>
<path d="M364.089 487.538l-46.080 8.96 11.093 57.458-57.458 11.236 8.96 46.080 57.458-11.236 11.236 57.458 45.938-8.818-11.093-57.6 57.458-11.093-8.818-46.080-57.6 11.236-11.093-57.6z"></path>
<path d="M665.458 405.902c-0.021 0-0.045 0-0.069 0-19.401 0-35.129 15.728-35.129 35.129s15.728 35.129 35.129 35.129c19.401 0 35.129-15.728 35.129-35.129 0-2.365-0.234-4.675-0.679-6.908l0.037 0.224c-3.293-16.265-17.431-28.352-34.408-28.444h-0.010z"></path>
<path d="M692.196 544c-0.021 0-0.045 0-0.069 0-19.401 0-35.129 15.728-35.129 35.129s15.728 35.129 35.129 35.129c19.401 0 35.129-15.728 35.129-35.129 0-2.365-0.234-4.675-0.679-6.908l0.037 0.224c-3.293-16.265-17.431-28.352-34.408-28.444h-0.010z"></path>
<path d="M759.324 459.236c-0.021 0-0.045 0-0.069 0-19.401 0-35.129 15.728-35.129 35.129s15.728 35.129 35.129 35.129c19.401 0 35.129-15.728 35.129-35.129 0-2.365-0.234-4.675-0.679-6.908l0.037 0.224c-3.293-16.265-17.431-28.352-34.408-28.444h-0.010z"></path>
<path d="M900.693 440.036c-28.444-91.022-126.862-162.418-224.284-162.418-5.547 0-11.093 0-16.498 0-9.705 0.849-18.358 2.106-26.848 3.813l1.532-0.257-88.036 17.493s0-1.138 0-1.707l-11.378-58.738c-2.649-13.187-14.138-22.982-27.915-22.982-1.898 0-3.752 0.186-5.546 0.54l0.181-0.030-97.138 18.916c-13.187 2.649-22.982 14.138-22.982 27.915 0 1.898 0.186 3.752 0.54 5.546l-0.030-0.181 11.378 58.738s0 1.138 0 1.564l-80.782 15.929c-10.017 1.98-18.327 4.143-26.451 6.725l1.704-0.468c-96.121 33.78-163.795 123.771-163.795 229.568 0 3.794 0.087 7.568 0.259 11.32l-0.019-0.532c10.131 120.221 109.93 214.037 231.764 214.613h0.058c5.973 0 12.089 0 18.062 0 54.461-4.4 102.974-26.856 140.246-61.299l-0.157 0.143c7.792-7.525 17.329-13.296 27.941-16.645l0.504-0.137 8.96-2.133 9.244-1.422h6.258c0.053 0 0.116 0 0.179 0 9.47 0 18.501 1.881 26.739 5.29l-0.464-0.17c25.399 10.362 54.87 16.376 85.746 16.376 128.503 0 232.676-104.172 232.676-232.676 0-25.995-4.263-50.994-12.128-74.336l0.48 1.641zM449.564 315.876l-5.973-31.431 40.96-7.964 5.973 30.862s0 0.996 0 1.564l-41.387 7.964s0.569-0.427 0.427-0.996zM843.236 571.876c-25.783 66.981-89.611 113.648-164.339 113.648-22.362 0-43.748-4.179-63.42-11.798l1.199 0.408c-13.987-5.76-30.226-9.103-47.245-9.103-0.191 0-0.381 0-0.572 0.001h0.030c-4.124 0-8.249 0-12.373 0s-9.387 1.28-14.222 2.133-9.671 2.133-14.222 3.413c-20.298 6.153-37.724 16.594-51.948 30.329l0.037-0.035c-28.055 26.387-64.928 43.685-105.752 47.034l-0.63 0.042q-6.969 0-14.222 0c-91.751-0.545-166.805-71.297-174.181-161.219l-0.042-0.63c-0.055-1.69-0.086-3.677-0.086-5.671 0-80.329 50.683-148.821 121.816-175.242l1.293-0.421c4.919-1.597 11.275-3.221 17.755-4.502l1.161-0.191 322.133-62.436c5.277-1.101 11.839-2.057 18.504-2.652l0.696-0.050q5.831 0 11.804 0c72.107 0 148.764 54.329 170.667 122.738 4.927 15.456 7.766 33.233 7.766 51.673 0 22.585-4.259 44.175-12.018 64.011l0.412-1.196z"></path>
</svg>
