<!-- Generated by IcoMoon.io -->
<svg version="1.1" xmlns="http://www.w3.org/2000/svg" width="1024" height="1024" viewBox="0 0 1024 1024">
<title></title>
<g id="icomoon-ignore">
</g>
<path d="M596.176 491.128c-0.022 0-0.047 0-0.073 0-20.453 0-37.034 16.581-37.034 37.034s16.581 37.034 37.034 37.034c20.453 0 37.034-16.581 37.034-37.034 0-2.493-0.247-4.928-0.716-7.283l0.039 0.236c-3.472-17.147-18.376-29.889-36.274-29.986h-0.011z"></path>
<path d="M349.385 487.98l-48.579 9.446 11.694 60.574-60.574 11.845 9.446 48.579 60.574-11.845 11.845 60.574 48.429-9.296-11.694-60.723 60.574-11.694-9.296-48.579-60.723 11.845-11.694-60.723z"></path>
<path d="M667.095 401.917c-0.022 0-0.047 0-0.073 0-20.453 0-37.034 16.581-37.034 37.034s16.581 37.034 37.034 37.034c20.453 0 37.034-16.581 37.034-37.034 0-2.493-0.247-4.928-0.716-7.283l0.039 0.236c-3.472-17.147-18.376-29.889-36.274-29.986h-0.011z"></path>
<path d="M695.283 547.503c-0.022 0-0.047 0-0.073 0-20.453 0-37.034 16.581-37.034 37.034s16.581 37.034 37.034 37.034c20.453 0 37.034-16.581 37.034-37.034 0-2.493-0.247-4.928-0.716-7.283l0.039 0.236c-3.472-17.147-18.376-29.889-36.274-29.986h-0.011z"></path>
<path d="M766.051 458.143c-0.022 0-0.047 0-0.073 0-20.453 0-37.034 16.581-37.034 37.034s16.581 37.034 37.034 37.034c20.453 0 37.034-16.581 37.034-37.034 0-2.493-0.247-4.928-0.716-7.283l0.039 0.236c-3.472-17.147-18.376-29.889-36.274-29.986h-0.011z"></path>
<path d="M915.085 437.902c-29.986-95.957-133.741-171.225-236.445-171.225-5.848 0-11.694 0-17.393 0-10.231 0.895-19.353 2.22-28.304 4.020l1.615-0.271-92.81 18.442s0-1.2 0-1.8l-11.995-61.923c-2.793-13.902-14.905-24.228-29.429-24.228-2.001 0-3.955 0.196-5.847 0.569l0.191-0.032-102.405 19.942c-13.902 2.793-24.228 14.905-24.228 29.429 0 2.001 0.196 3.955 0.569 5.847l-0.032-0.191 11.995 61.923s0 1.2 0 1.649l-85.162 16.793c-10.56 2.087-19.321 4.368-27.885 7.090l1.796-0.493c-101.333 35.612-172.676 130.482-172.676 242.016 0 4 0.092 7.978 0.273 11.934l-0.020-0.561c10.68 126.74 115.891 225.643 244.331 226.25h0.061c6.297 0 12.744 0 19.041 0 57.414-4.639 108.557-28.312 147.85-64.623l-0.166 0.151c8.215-7.933 18.269-14.017 29.456-17.548l0.531-0.144 9.446-2.249 9.745-1.499h6.597c0.056 0 0.122 0 0.189 0 9.983 0 19.504 1.983 28.189 5.577l-0.489-0.179c26.776 10.924 57.845 17.264 90.395 17.264 135.471 0 245.292-109.82 245.292-245.292 0-27.405-4.494-53.759-12.786-78.367l0.506 1.73zM439.495 307.010l-6.297-33.135 43.181-8.396 6.297 32.535s0 1.050 0 1.649l-43.631 8.396s0.6-0.45 0.45-1.050zM854.512 576.891c-27.181 70.613-94.47 119.81-173.25 119.81-23.575 0-46.12-4.406-66.859-12.438l1.264 0.43c-14.745-6.072-31.865-9.597-49.807-9.597-0.201 0-0.402 0-0.603 0.001h0.032c-4.348 0-8.696 0-13.044 0s-9.896 1.349-14.993 2.249-10.195 2.249-14.993 3.598c-21.399 6.487-39.769 17.494-54.765 31.974l0.039-0.037c-29.576 27.818-68.449 46.054-111.486 49.584l-0.664 0.044q-7.347 0-14.993 0c-96.726-0.575-175.85-75.163-183.625-169.961l-0.044-0.664c-0.058-1.782-0.091-3.876-0.091-5.978 0-84.685 53.431-156.89 128.421-184.744l1.363-0.444c5.186-1.684 11.886-3.396 18.718-4.746l1.224-0.201 339.6-65.821c5.563-1.161 12.481-2.169 19.507-2.796l0.734-0.053q6.147 0 12.444 0c76.017 0 156.83 57.275 179.921 129.393 5.194 16.294 8.187 35.035 8.187 54.475 0 23.81-4.49 46.57-12.67 67.482l0.434-1.261z"></path>
</svg>
