<svg id="Layer_2" data-name="Layer 2" xmlns="http://www.w3.org/2000/svg" viewBox="0 0 36 36"><defs><style>.cls-1{fill:#4f4f4f;}</style></defs><title>top donaciones</title><path class="cls-1" d="M33.65,14.69l-1.09-1.06a.13.13,0,0,1,0-.12L32.78,12a.13.13,0,0,0-.2-.14l-1.34.71a.13.13,0,0,1-.13,0l-1.34-.71a.13.13,0,0,0-.2.14l.26,1.49a.13.13,0,0,1,0,.12l-1.09,1.06a.13.13,0,0,0,.07.23l1.5.22a.13.13,0,0,1,.1.07l.67,1.36a.13.13,0,0,0,.24,0L32,15.21a.13.13,0,0,1,.1-.07l1.5-.22A.13.13,0,0,0,33.65,14.69Z"/><path class="cls-1" d="M23.33,16h4.62L27,15.1A.13.13,0,0,1,27,15l.26-1.49a.13.13,0,0,0-.2-.14L25.7,14a.13.13,0,0,1-.13,0l-1.34-.71a.13.13,0,0,0-.2.14L24.3,15a.13.13,0,0,1,0,.12Z"/><path class="cls-1" d="M19,33.91h8.32A3,3,0,0,0,30,30.71l0-14.06-11,0Zm2-15.27h7l0,12.06c0,.74-.4,1.22-.68,1.22H21Z"/><path class="cls-1" d="M6.07,30.67A3,3,0,0,0,8.73,33.9H17l0-17.27H6.1Zm2-12.05H15l0,13.27H8.74c-.27,0-.66-.48-.66-1.22Z"/><path class="cls-1" d="M29.6,6.64a2,2,0,0,0-2.45-1.51L17.64,7l1.29,6.5,11.58-2.3Zm-9.1,4.53L20,8.59l7.55-1.5c.06,0,.1,0,.11,0l.51,2.58Z"/><path class="cls-1" d="M15.33,7.5,5.82,9.39a2.2,2.2,0,0,0-1.31.79,1.9,1.9,0,0,0-.38,1.54L5,16.29,16.62,14ZM6.6,13.94l-.52-2.53a.2.2,0,0,1,.12-.06l7.55-1.5.51,2.57Z"/><path class="cls-1" d="M13.17,7a2.84,2.84,0,0,0,.56-.06l1.84-.37a1.63,1.63,0,0,0,.63-.29,1.63,1.63,0,0,0,.39.05,1.67,1.67,0,0,0,.33,0l1.83-.37h0a2.78,2.78,0,0,0,2.15-2A2.93,2.93,0,0,0,18.83.3a2,2,0,0,0-2.27,1l-1,1.83L13.95,1.82a2,2,0,0,0-2.47,0A2.93,2.93,0,0,0,11,5.94,2.75,2.75,0,0,0,13.17,7Zm5.16-4.76A.93.93,0,0,1,19,3.44a.77.77,0,0,1-.61.53l-1.09.22ZM12.7,3.38l1.72,1.39L13.33,5a.76.76,0,0,1-.76-.26A.91.91,0,0,1,12.7,3.38Z"/></svg>