<!-- Generated by IcoMoon.io -->
<svg version="1.1" xmlns="http://www.w3.org/2000/svg" width="1024" height="1024" viewBox="0 0 1024 1024">
<title></title>
<g id="icomoon-ignore">
</g>
<path fill="#000" d="M957.156 417.849l-31.004-30.151c-0.263-0.495-0.417-1.083-0.417-1.707s0.154-1.211 0.427-1.727l-0.010 0.020 6.258-42.951c0.079-0.285 0.124-0.612 0.124-0.949 0-2.042-1.656-3.698-3.698-3.698-0.792 0-1.525 0.249-2.127 0.672l0.012-0.008-38.116 20.196c-0.53 0.311-1.168 0.495-1.849 0.495s-1.319-0.184-1.866-0.505l-38.099-20.187c-0.59-0.416-1.323-0.665-2.115-0.665-2.042 0-3.698 1.656-3.698 3.698 0 0.337 0.045 0.664 0.13 0.975l-0.006-0.026 7.396 42.382c0.263 0.495 0.417 1.083 0.417 1.707s-0.154 1.211-0.427 1.727l0.010-0.020-31.004 30.151c-0.83 0.683-1.355 1.711-1.355 2.861 0 1.918 1.461 3.496 3.331 3.68l0.015 0.001 42.667 6.258c1.247 0.157 2.288 0.915 2.835 1.971l0.010 0.021 19.058 38.684c0.572 1.348 1.884 2.276 3.413 2.276s2.841-0.928 3.404-2.251l0.009-0.024 19.342-38.116c0.557-1.076 1.598-1.834 2.826-1.989l0.018-0.002 42.667-6.258c1.658-0.389 2.874-1.855 2.874-3.605 0-1.193-0.565-2.255-1.443-2.931l-0.009-0.006z"></path>
<path fill="#000" d="M663.609 455.111h131.413l-27.022-25.6c-0.18-0.42-0.284-0.909-0.284-1.422s0.105-1.002 0.294-1.446l-0.009 0.024 7.396-42.382c0.079-0.285 0.124-0.612 0.124-0.949 0-2.042-1.656-3.698-3.698-3.698-0.792 0-1.525 0.249-2.127 0.672l0.012-0.008-38.684 17.92c-0.53 0.311-1.168 0.495-1.849 0.495s-1.319-0.184-1.866-0.505l-38.099-20.187c-0.59-0.416-1.323-0.665-2.115-0.665-2.042 0-3.698 1.656-3.698 3.698 0 0.337 0.045 0.664 0.13 0.975l-0.006-0.026 7.68 44.658c0.263 0.495 0.417 1.083 0.417 1.707s-0.154 1.211-0.427 1.727l0.010-0.020z"></path>
<path fill="#000" d="M540.444 964.551h236.658c43.151-4.647 76.453-40.87 76.453-84.87 0-2.165-0.081-4.311-0.239-6.436l0.017 0.283v-399.929h-312.889zM597.333 530.204h199.111v343.040c0 21.049-11.378 34.702-19.342 34.702h-179.769z"></path>
<path fill="#000" d="M172.658 872.391c-0.186 2.114-0.292 4.574-0.292 7.059 0 43.824 33.036 79.932 75.563 84.78l0.392 0.036h235.236v-491.236h-310.044zM229.547 529.636h197.12v377.458h-178.062c-7.68 0-18.773-13.653-18.773-34.702z"></path>
<path fill="#000" d="M841.956 188.871c-5.782-25.766-28.464-44.73-55.574-44.73-5.015 0-9.878 0.649-14.511 1.867l0.396-0.089-270.507 53.191 36.693 184.889 329.387-65.422zM583.111 317.724l-14.222-73.387 214.756-42.667c1.707 0 2.844 0 3.129 0l14.507 73.387z"></path>
<path fill="#000" d="M436.053 213.333l-270.507 53.76c-15.176 2.951-28.094 11.041-37.167 22.348l-0.095 0.123c-7.333 9.145-11.768 20.889-11.768 33.668 0 3.585 0.349 7.089 1.015 10.479l-0.056-0.342 24.747 129.991 330.524-65.138zM187.733 396.516l-14.791-71.964c0.881-0.916 2.062-1.537 3.385-1.704l0.028-0.003 214.756-42.667 14.507 73.102z"></path>
<path fill="#000" d="M374.613 199.111c5.664-0.043 11.158-0.663 16.46-1.802l-0.531 0.096 52.338-10.524c6.851-1.542 12.867-4.408 18.035-8.332l-0.115 0.084c3.322 0.878 7.141 1.395 11.077 1.422h0.017c1.407 0.148 3.040 0.232 4.693 0.232s3.286-0.084 4.895-0.249l-0.202 0.017 52.053-10.524c29.716-5.954 53.104-27.919 61.023-56.333l0.132-0.556c2.142-7.029 3.375-15.109 3.375-23.476 0-38.533-26.15-70.958-61.672-80.497l-0.583-0.133c-4.289-1.159-9.213-1.825-14.292-1.825-21.679 0-40.526 12.126-50.128 29.966l-0.149 0.303-28.444 52.053-45.796-37.262c-9.572-7.569-21.816-12.142-35.129-12.142s-25.557 4.573-35.248 12.233l0.12-0.091c-19.378 15.399-31.693 38.966-31.693 65.408 0 19.646 6.797 37.704 18.169 51.95l-0.129-0.168c14.448 18.424 36.709 30.151 61.708 30.151 0.006 0 0.012 0 0.017 0h-0.001zM521.387 63.716c11.792 2.832 20.419 13.287 20.419 25.756 0 2.997-0.498 5.878-1.417 8.564l0.055-0.186c-2.507 7.844-9.105 13.684-17.222 15.058l-0.129 0.018-31.004 6.258zM361.244 96.142l48.924 39.538-31.004 6.542c-1.463 0.353-3.142 0.555-4.868 0.555-6.737 0-12.755-3.082-16.719-7.913l-0.030-0.038c-4.343-4.618-7.012-10.855-7.012-17.715 0-8.594 4.189-16.211 10.636-20.918l0.073-0.051z"></path>
</svg>
