<svg id="Layer_2" data-name="Layer 2" xmlns="http://www.w3.org/2000/svg" viewBox="0 0 36 36"><defs><style>.cls-1{fill:#4f4f4f;}</style></defs><title>location</title><path class="cls-1" d="M30,18A12,12,0,1,0,18,30h.27a11.48,11.48,0,0,0,9.65-5.25A11.94,11.94,0,0,0,30,18ZM8.33,16.32a.38.38,0,0,0,.15.2l1.91,1.27-.44.44a.38.38,0,0,0-.11.27v1.15a.38.38,0,0,0,0,.17l.77,1.53a.38.38,0,0,0,.27.2l1.61.32V25.4a.38.38,0,0,0,0,.14l.44,1.1A10,10,0,0,1,8.21,16ZM18,28a10,10,0,0,1-2.79-.4V26l1.38-1a.38.38,0,0,0,.15-.31v-1l1.42-1.42a.38.38,0,0,0,.1-.2l.38-1.92a.38.38,0,0,0-.3-.45H17l-1-1.73a.38.38,0,0,0-.33-.19H13.14l-.66-1.32a.38.38,0,0,0-.28-.21.38.38,0,0,0-.33.11l-.5.5V16.2a.38.38,0,0,0-.11-.27l-.65-.65v-.66L13,14.28a.39.39,0,0,0,.14-.05L15,13.08a.38.38,0,0,0,.13-.13l1.08-1.8,1-.34a.38.38,0,0,0,.24-.24l.38-1.15a.38.38,0,0,0-.24-.48h-.06l-2.22-.37-.2-.13a10,10,0,0,1,6.74.37l-.26.13H20.19a.38.38,0,0,0-.34.21l-.77,1.53a.38.38,0,0,0,.17.51l0,0,1.15.38a.38.38,0,0,0,.21,0l1.43-.36,1,.35h0L25.1,12a.38.38,0,0,0,.29-.06l.36-.24a10,10,0,0,1,1,1.43l-1.19.4-2-.34-.67-1a.38.38,0,0,0-.32-.17h-2.3a.38.38,0,0,0-.27.11l-1.15,1.15a.38.38,0,0,0-.11.33L19,16.25a.38.38,0,0,0,.23.3L22,17.7a.38.38,0,0,0,.24,0l1.37-.34.84.56v1.33a.38.38,0,0,0,0,.17l1.49,3v1.44A.38.38,0,0,0,26,24,10,10,0,0,1,18,28Z"/></svg>