<!-- Generated by IcoMoon.io -->
<svg version="1.1" xmlns="http://www.w3.org/2000/svg" width="1024" height="1024" viewBox="0 0 1024 1024">
<title></title>
<g id="icomoon-ignore">
</g>
<path d="M853.333 512c0-188.513-152.82-341.333-341.333-341.333s-341.333 152.82-341.333 341.333c0 188.513 152.82 341.333 341.333 341.333v0h7.68c0.063 0 0.139 0 0.214 0 114.486 0 215.211-58.917 273.509-148.085l0.766-1.249c37.039-53.608 59.165-119.99 59.165-191.54 0-0.162 0-0.323 0-0.485v0.025zM236.942 464.213c0.771 2.374 2.27 4.333 4.229 5.665l0.038 0.024 54.329 36.124-12.516 12.516c-1.934 1.952-3.129 4.64-3.129 7.606 0 0.026 0 0.052 0 0.078v-0.004 32.711c-0.174 0.726-0.274 1.56-0.274 2.418s0.1 1.691 0.288 2.491l-0.015-0.073 21.902 43.52c1.538 2.943 4.311 5.062 7.613 5.679l0.067 0.010 45.796 9.102v100.409c-0.118 0.599-0.185 1.287-0.185 1.991s0.067 1.392 0.196 2.059l-0.011-0.068 12.516 31.289c-84.45-50.365-140.136-141.239-140.136-245.12 0-20.367 2.141-40.235 6.209-59.39l-0.331 1.861zM512 796.444c-28.291-0.029-55.6-4.184-81.373-11.895l2.013 0.517v-45.511l39.253-28.444c2.605-1.994 4.269-5.106 4.269-8.606 0-0.075-0.001-0.149-0.002-0.223v0.011-28.444l40.391-40.391c1.45-1.517 2.464-3.461 2.835-5.625l0.009-0.064 10.809-54.613c0.142-0.658 0.224-1.413 0.224-2.188 0-5.244-3.734-9.615-8.688-10.601l-0.069-0.011h-38.116l-28.444-49.209c-1.904-3.254-5.381-5.404-9.361-5.404-0.009 0-0.018 0-0.027 0h-71.963l-18.773-37.547c-1.529-3.123-4.432-5.37-7.9-5.964l-0.064-0.009c-0.497-0.081-1.070-0.127-1.654-0.127-3.029 0-5.768 1.246-7.73 3.254l-14.224 14.224v-18.773c0-0.022 0-0.048 0-0.074 0-2.966-1.195-5.654-3.13-7.607l-18.488-18.488v-18.773l67.982-9.671c1.495-0.233 2.837-0.732 4.032-1.45l-0.050 0.028 52.907-32.711c1.526-0.927 2.771-2.172 3.671-3.65l0.027-0.048 30.72-51.2 28.444-9.671c3.229-1.102 5.725-3.597 6.804-6.751l0.023-0.076 10.809-32.711c0.349-1.016 0.55-2.186 0.55-3.404 0-4.742-3.053-8.77-7.301-10.227l-0.076-0.023h-1.707l-63.147-10.524-5.689-3.698c24.3-7.507 52.236-11.831 81.181-11.831 39.915 0 77.909 8.221 112.382 23.063l-1.848-0.708-7.396 3.698h-39.822c-0.001 0-0.003 0-0.004 0-4.207 0-7.852 2.403-9.639 5.912l-0.028 0.061-21.902 43.52c-0.721 1.409-1.143 3.074-1.143 4.837 0 4.209 2.406 7.856 5.917 9.641l0.061 0.028 32.711 10.809c0.895 0.267 1.923 0.421 2.987 0.421s2.092-0.154 3.063-0.44l-0.076 0.019 40.676-10.24 28.444 9.956 58.596 12.516c0.634 0.132 1.362 0.207 2.108 0.207 2.296 0 4.426-0.716 6.176-1.937l-0.035 0.023 10.24-6.827c10.088 11.964 19.49 25.262 27.717 39.33l0.727 1.346-33.849 11.378-56.889-9.671-19.058-28.444c-1.964-2.932-5.264-4.836-9.009-4.836-0.033 0-0.066 0-0.099 0h-65.417c-0.022 0-0.048 0-0.074 0-2.966 0-5.654 1.195-7.607 3.13l-32.71 32.71c-2.010 1.965-3.256 4.703-3.256 7.732 0 0.584 0.046 1.157 0.135 1.716l-0.008-0.062 7.396 75.093c0.534 3.868 3.049 7.045 6.472 8.507l0.071 0.027 78.791 32.711c1.019 0.351 2.192 0.553 3.413 0.553s2.395-0.202 3.489-0.576l-0.076 0.023 38.969-9.671 23.893 15.929v37.831c-0.174 0.726-0.274 1.56-0.274 2.418s0.1 1.691 0.288 2.491l-0.015-0.073 42.382 85.333v40.96c0.318 1.513 0.911 2.85 1.73 4.017l-0.023-0.035c-52.445 69.397-134.817 113.778-227.556 113.778v0z"></path>
</svg>
