<!-- Generated by IcoMoon.io -->
<svg version="1.1" xmlns="http://www.w3.org/2000/svg" width="1024" height="1024" viewBox="0 0 1024 1024">
<title></title>
<g id="icomoon-ignore">
</g>
<path d="M917.071 428.362l-393.788-176.144c-3.629-1.661-7.874-2.629-12.344-2.629s-8.714 0.968-12.533 2.706l0.19-0.078-393.788 176.144c-10.639 4.855-17.899 15.4-17.899 27.641s7.261 22.786 17.711 27.564l0.19 0.078 136.311 60.583v146.914c0 0.010 0 0.020 0 0.031 0 16.25 12.796 29.511 28.861 30.258l0.067 0.002c6.21 0 154.487 7.876 226.428 48.921 4.345 2.552 9.569 4.058 15.145 4.058s10.801-1.507 15.288-4.136l-0.143 0.078c73.153-41.651 224.914-48.77 227.185-48.921 16.133-0.75 28.928-14.010 28.928-30.261 0-0.011 0-0.021 0-0.032v0.002-146.914l136.311-60.583c10.639-4.855 17.899-15.4 17.899-27.641s-7.261-22.786-17.711-27.564l-0.19-0.078zM720.631 663.575c-47.86 4.089-144.188 15.145-209.768 46.952-65.429-31.806-161.453-43.165-209.768-46.952v-134.646c38.47-16.812 103.748-31.958 182.355-38.773 8.009-0.742 17.321-1.165 26.732-1.165s18.723 0.423 27.918 1.251l-1.186-0.086c97.538 7.573 159.333 22.567 183.718 36.047zM767.128 484.856c-33.017-27.413-108.747-45.437-225.52-55.13-9.574-0.869-20.708-1.364-31.958-1.364s-22.384 0.495-33.381 1.466l1.424-0.101c-57.705 5.604-163.725 19.992-222.49 54.827v0l-63.915-28.474 319.574-142.824 319.574 142.824z"></path>
</svg>
