<!-- Generated by IcoMoon.io -->
<svg version="1.1" xmlns="http://www.w3.org/2000/svg" width="1024" height="1024" viewBox="0 0 1024 1024">
<title></title>
<g id="icomoon-ignore">
</g>
<path d="M893.44 433.351l-369.778-165.404c-3.408-1.56-7.394-2.469-11.591-2.469s-8.183 0.909-11.769 2.541l0.178-0.073-369.778 165.404c-9.99 4.559-16.808 14.461-16.808 25.956s6.818 21.397 16.631 25.883l0.178 0.073 128 56.889v137.956c0 0.009 0 0.019 0 0.029 0 15.259 12.016 27.712 27.101 28.413l0.063 0.002c5.831 0 145.067 7.396 212.622 45.938 4.080 2.396 8.986 3.811 14.222 3.811s10.142-1.415 14.356-3.884l-0.134 0.073c68.693-39.111 211.2-45.796 213.333-45.938 15.149-0.704 27.164-13.156 27.164-28.416 0-0.010 0-0.020 0-0.030v0.002-137.956l128-56.889c9.99-4.559 16.808-14.461 16.808-25.956s-6.818-21.397-16.631-25.883l-0.178-0.073zM708.978 654.222c-44.942 3.84-135.396 14.222-196.978 44.089-61.44-29.867-151.609-40.533-196.978-44.089v-126.436c36.124-15.787 97.422-30.009 171.236-36.409 7.521-0.697 16.265-1.094 25.102-1.094s17.581 0.397 26.216 1.175l-1.114-0.081c91.591 7.111 149.618 21.191 172.516 33.849zM752.64 486.4c-31.004-25.742-102.116-42.667-211.769-51.769-8.99-0.816-19.445-1.281-30.009-1.281s-21.019 0.465-31.346 1.377l1.337-0.095c-54.187 5.262-153.742 18.773-208.924 51.484v0l-60.018-26.738 300.089-134.116 300.089 134.116z"></path>
</svg>
