<!-- Generated by IcoMoon.io -->
<svg version="1.1" xmlns="http://www.w3.org/2000/svg" width="1024" height="1024" viewBox="0 0 1024 1024">
<title></title>
<g id="icomoon-ignore">
</g>
<path fill="#000" d="M511.997 388.69c-15.709 0-28.444-12.735-28.444-28.444v0-156.444c0-15.709 12.735-28.444 28.444-28.444s28.444 12.735 28.444 28.444v0 156.444c0 15.709-12.735 28.444-28.444 28.444v0z"></path>
<path fill="#000" d="M611.553 374.468c-15.574-0.177-28.132-12.843-28.132-28.443 0-5.237 1.415-10.144 3.884-14.358l-0.073 0.134 55.324-90.88c5.082-8.254 14.068-13.674 24.32-13.674 15.721 0 28.465 12.744 28.465 28.465 0 5.469-1.542 10.577-4.215 14.914l0.071-0.123-55.324 89.742c-4.957 8.474-13.968 14.104-24.303 14.222h-0.017z"></path>
<path fill="#000" d="M418.13 369.063c-9.626-0.016-18.129-4.812-23.264-12.14l-0.061-0.091-55.751-80.213c-3.172-4.526-5.069-10.148-5.069-16.213 0-15.72 12.744-28.464 28.464-28.464 9.655 0 18.188 4.808 23.335 12.159l0.061 0.092 55.040 80.213c3.175 4.526 5.073 10.148 5.073 16.213 0 15.693-12.708 28.418-28.395 28.444h-0.003z"></path>
<path fill="#000" d="M725.33 832.139c-12.942 14.222-46.649 15.502-46.933 15.502l-110.791 0.996c-0.127 0.001-0.277 0.002-0.428 0.002-22.13 0-40.088-17.86-40.248-39.951v-62.451c-0.006-0.464-0.010-1.012-0.010-1.561 0-38.030 17.748-71.914 45.414-93.822l0.249-0.191 24.747-20.196c17.426-14.349 28.452-35.925 28.452-60.077 0-0.379-0.003-0.758-0.008-1.136l0.001 0.057v-58.88c-0.002-0.152-0.002-0.331-0.002-0.511 0-30.319 24.579-54.898 54.898-54.898 1.753 0 3.488 0.082 5.199 0.243l-0.219-0.017h2.987v-68.978c0.349-18.207 8.95-34.337 22.207-44.849l0.121-0.093c12.27-10.352 28.258-16.643 45.717-16.643 4.757 0 9.404 0.467 13.9 1.358l-0.452-0.075c29.829 4.57 52.529 29.668 53.332 60.22l0.002 0.082 1.422 237.511c0.004 0.48 0.006 1.047 0.006 1.615 0 51.877-17.436 99.681-46.766 137.872l0.396-0.537-52.053 68.124zM573.153 802.13l104.818-0.996c5.408-0.633 10.233-1.582 14.921-2.865l-0.698 0.163 48.924-64c22.988-29.906 36.84-67.876 36.84-109.081 0-0.451-0.002-0.902-0.005-1.352v0.069l-2.133-237.084c-0.878-8.044-7.281-14.35-15.295-15.071l-0.065-0.005c-1.45-0.298-3.118-0.469-4.824-0.469-6.076 0-11.646 2.165-15.981 5.765l0.041-0.033c-2.918 2.113-4.984 5.248-5.675 8.871l-0.014 0.089v75.804c8.080 11.032 12.97 24.845 13.084 39.795v0.028l1.138 121.316c0.017 0.833 0.026 1.815 0.026 2.799 0 29.587-8.539 57.18-23.288 80.448l0.364-0.615-23.893 38.542-12.231 2.844c-1.961 0.439-4.218 0.697-6.532 0.711h-0.010c-0.176 0.004-0.383 0.006-0.59 0.006-16.966 0-30.72-13.754-30.72-30.72 0-7.818 2.92-14.953 7.729-20.375l-0.028 0.032 14.933-23.609c8.92-13.692 14.224-30.448 14.224-48.443 0-0.219-0.001-0.439-0.002-0.658v0.034l-1.28-118.756c-1.153-2.030-3.151-3.466-5.503-3.834l-0.043-0.006c-0.256-0.028-0.553-0.044-0.853-0.044-4.634 0-8.391 3.757-8.391 8.391 0 0.015 0 0.031 0 0.046v-0.002 58.88c0.015 0.715 0.023 1.557 0.023 2.402 0 38.918-18.009 73.63-46.148 96.256l-0.24 0.186-24.889 19.769c-17.379 13.58-28.447 34.541-28.447 58.087 0 0.229 0.001 0.457 0.003 0.685v-0.035z"></path>
<path fill="#000" d="M297.953 830.859l-52.053-68.124c-29.193-37.757-46.794-85.768-46.794-137.889 0-0.373 0.001-0.746 0.003-1.119v0.057l2.133-237.084c0.804-30.634 23.505-55.733 52.984-60.258l0.349-0.044c4.043-0.816 8.691-1.283 13.448-1.283 17.458 0 33.447 6.291 45.823 16.731l-0.106-0.087c13.379 10.605 21.98 26.735 22.328 44.885l0.001 0.057v68.978h2.987c1.277-0.106 2.765-0.166 4.267-0.166 30.319 0 54.898 24.579 54.898 54.898 0 0.008 0 0.017 0 0.025v-0.001 58.88c0 0.084-0.001 0.183-0.001 0.282 0 24.598 11.437 46.525 29.284 60.752l0.157 0.121 24.604 19.484c27.84 22.099 45.535 55.939 45.535 93.911 0 0.835-0.009 1.667-0.026 2.498l0.002-0.124v62.436c-0.16 22.107-18.118 39.967-40.248 39.967-0.15 0-0.301-0.001-0.451-0.002l-110.768-0.995s-34.133-0.996-46.933-15.502zM451.553 745.81c0.002-0.193 0.003-0.422 0.003-0.65 0-23.546-11.068-44.508-28.285-57.965l-0.162-0.122-24.889-19.484c-28.869-22.807-47.228-57.813-47.228-97.108 0-0.561 0.004-1.12 0.011-1.679l-0.001 0.085v-58.88c0-0.013 0-0.028 0-0.044 0-4.634-3.757-8.391-8.391-8.391-0.301 0-0.597 0.016-0.89 0.047l0.036-0.003c-2.396 0.374-4.394 1.81-5.527 3.802l-0.020 0.038-1.138 118.471c-0.001 0.185-0.002 0.405-0.002 0.624 0 17.995 5.305 34.751 14.436 48.789l-0.211-0.347 15.076 23.467c4.703 5.369 7.572 12.447 7.572 20.196 0 16.928-13.692 30.658-30.606 30.72h-0.006c-2.325-0.014-4.581-0.272-6.755-0.75l0.213 0.039-12.231-2.844-23.893-38.116c-14.812-22.899-23.617-50.886-23.617-80.929 0-0.548 0.003-1.096 0.009-1.643l-0.001 0.083 1.138-120.747c0.115-14.977 5.004-28.79 13.219-40.016l-0.135 0.193v-75.804c-0.705-3.712-2.771-6.847-5.648-8.931l-0.041-0.029c-4.294-3.567-9.864-5.732-15.94-5.732-1.707 0-3.374 0.171-4.985 0.496l0.16-0.027c-8.079 0.725-14.482 7.031-15.353 15l-0.007 0.076-2.133 237.084c-0.003 0.381-0.005 0.832-0.005 1.283 0 41.205 13.852 79.175 37.154 109.507l-0.314-0.426 48.924 64c3.989 1.12 8.814 2.069 13.751 2.657l0.472 0.046 104.676 0.996z"></path>
</svg>
