<!-- Generated by IcoMoon.io -->
<svg version="1.1" xmlns="http://www.w3.org/2000/svg" width="1024" height="1024" viewBox="0 0 1024 1024">
<title></title>
<g id="icomoon-ignore">
</g>
<path d="M265.441 886.1c-23.845-7.773-42.571-47.341-42.748-47.872l-58.648-131.246c-2.725-6.175-4.313-13.371-4.313-20.94 0-21.22 12.472-39.529 30.485-47.988l0.326-0.135 74.016-33.031c18.747-8.672 40.678-13.729 63.795-13.729 26.907 0 52.211 6.851 74.264 18.905l-0.812-0.406 35.329 19.252c13.725 7.47 30.055 11.862 47.416 11.862 14.81 0 28.873-3.2 41.539-8.938l-0.634 0.257 69.773-31.091c8.612-4.026 18.697-6.372 29.328-6.372 31.329 0 57.894 20.391 67.153 48.623l0.144 0.497 1.058 3.712 81.612-36.388c8.586-3.65 18.571-5.774 29.049-5.774 13.101 0 25.423 3.314 36.179 9.154l-0.402-0.2c24.556 12.45 42.542 34.84 48.807 61.731l0.124 0.623c1.771 6.331 2.79 13.599 2.79 21.107 0 32.355-18.911 60.295-46.284 73.364l-0.49 0.21-280.691 125.418c-35.398 16.313-76.803 25.821-120.436 25.821-24.399 0-48.104-2.975-70.769-8.579l2.020 0.42-107.928-26.676zM222.167 690.378l55.291 123.651c3.507 6.136 7.065 11.39 10.984 16.348l-0.208-0.275 101.396 25.086c16.673 4.258 35.812 6.7 55.522 6.7 34.326 0 66.919-7.412 96.27-20.723l-1.465 0.594 280.691-125.418c6.664-3.843 11.077-10.926 11.077-19.040 0-2.543-0.434-4.984-1.231-7.258l0.048 0.154c-2.301-9.82-8.806-17.777-17.472-21.995l-0.195-0.083c-2.644-1.664-5.858-2.649-9.307-2.649-1.523 0-3.005 0.196-4.417 0.559l0.124-0.027-88.676 39.036c-9.564 15.626-23.4 27.815-39.89 35.105l-0.564 0.224-143.789 64.122c-23.425 10.802-50.831 17.104-79.711 17.104-10.836 0-21.469-0.889-31.821-2.593l1.128 0.153-57.762-8.127-9.717-13.069c-1.545-2.097-2.959-4.471-4.132-6.985l-0.106-0.257c-2.358-4.928-3.736-10.715-3.736-16.816 0-21.953 17.797-39.745 39.745-39.745 4.432 0 8.692 0.724 12.671 2.060l-0.281-0.081 35.329 5.651c5.464 0.908 11.758 1.431 18.175 1.431 17.148 0 33.433-3.716 48.086-10.384l-0.726 0.299 140.254-62.709c1.202-1.639 1.922-3.693 1.922-5.918 0-0.914-0.122-1.794-0.35-2.635l0.018 0.072c-1.453-4.465-5.573-7.638-10.439-7.638-1.592 0-3.105 0.339-4.469 0.95l0.071-0.027-69.246 32.149c-19.291 8.88-41.853 14.059-65.63 14.059-27.715 0-53.787-7.036-76.529-19.423l0.842 0.417-35.329-19.252c-13.065-7.162-28.631-11.375-45.179-11.375-14.159 0-27.598 3.083-39.675 8.619l0.594-0.247z"></path>
<path d="M309.607 336.030c-63.707-1.386-114.819-53.359-114.819-117.265 0-64.78 52.515-117.291 117.291-117.291 64.768 0 117.279 52.498 117.291 117.263v0.001c-0.795 64.949-53.632 117.299-118.697 117.299-0.377 0-0.749-0.001-1.126-0.004h0.056zM309.607 155.677c-33.824 1.273-60.764 28.999-60.764 63.020 0 34.826 28.232 63.063 63.063 63.063 34.814 0 63.039-28.208 63.063-63.018v-0.002c-0.69-34.978-29.206-63.071-64.289-63.071-0.378 0-0.751 0.003-1.128 0.008l0.056-0.001z"></path>
<path d="M311.9 534.933c-66.837-0.283-126.67-30.028-167.22-76.914l-0.237-0.282c-7.127-7.415-11.515-17.505-11.515-28.625 0-3.062 0.333-6.051 0.967-8.924l-0.051 0.276c3.96-38.646 24.212-71.894 53.671-93.183l0.384-0.263c8.807-6.77 19.991-10.85 32.127-10.85 1.814 0 3.6 0.093 5.366 0.266l-0.224-0.020c4.229 0.661 8.030 1.829 11.573 3.467l-0.266-0.109c6.276 2.96 11.678 6.5 16.522 10.677l-0.095-0.078 1.59 1.236c14.977 12.126 34.122 19.633 55.005 20.137l0.109 0.002c20.984-0.148 40.202-7.589 55.27-19.91l-0.157 0.126c7.1-6.936 16.091-11.965 26.128-14.239l0.365-0.071c2.389-0.408 5.14-0.641 7.951-0.641 5.036 0 9.901 0.749 14.48 2.148l-0.353-0.094c25.455 8.103 45.672 26.3 56.293 49.769l0.233 0.574c4.927 10.161 8.955 21.982 11.491 34.346l0.171 0.983c1.236 5.302 2.122 10.953 3.18 16.427 0.974 3.081 1.536 6.624 1.536 10.298 0 2.037-0.174 4.036-0.506 5.982l0.029-0.208c-1.638 7.41-5.178 13.824-10.081 18.913l0.009-0.010c-11.898 15.294-25.511 28.461-40.755 39.521l-0.58 0.401c-31.518 22.736-70.423 37.12-112.559 39.198l-0.493 0.021zM188.25 424.352c31.17 34.553 76.1 56.172 126.081 56.172 0.018 0 0.030 0 0.048 0h4.591c31.504-1.568 60.248-12.189 84.022-29.292l-0.466 0.317c10.53-7.604 19.652-16.219 27.529-25.885l0.205-0.259c0-3.357-1.236-6.537-1.944-9.54-1.697-8.801-4.264-16.608-7.679-23.943l0.261 0.624c-3.876-8.769-10.461-15.75-18.675-20.032l-0.228-0.107-1.236 1.058c-24.257 20.071-55.636 32.311-89.873 32.504h-0.043c-33.963-0.227-65.139-11.963-89.87-31.503l0.309 0.234-1.944-1.59-1.767-1.413c-15.941 12.691-26.782 31.2-29.285 52.268l-0.034 0.375zM214.394 369.415v0z"></path>
<path d="M680.558 336.030c-63.707-1.386-114.819-53.359-114.819-117.265 0-64.78 52.515-117.291 117.291-117.291 64.768 0 117.279 52.498 117.291 117.263v0.001c-0.795 64.949-53.632 117.299-118.697 117.299-0.377 0-0.749-0.001-1.126-0.004h0.056zM680.558 155.677c-33.824 1.273-60.764 28.999-60.764 63.020 0 34.826 28.232 63.063 63.063 63.063 34.814 0 63.039-28.208 63.063-63.018v-0.002c-0.69-34.978-29.206-63.071-64.289-63.071-0.378 0-0.751 0.003-1.128 0.008l0.056-0.001z"></path>
<path d="M682.857 534.933c-66.837-0.283-126.67-30.028-167.22-76.914l-0.237-0.282c-7.127-7.415-11.515-17.505-11.515-28.625 0-3.062 0.333-6.051 0.967-8.924l-0.051 0.276c3.96-38.646 24.212-71.894 53.671-93.183l0.384-0.263c8.807-6.77 19.991-10.85 32.127-10.85 1.814 0 3.6 0.093 5.366 0.266l-0.224-0.020c4.229 0.661 8.030 1.829 11.573 3.467l-0.266-0.109c6.276 2.96 11.678 6.5 16.522 10.677l-0.095-0.078 1.59 1.236c14.977 12.126 34.122 19.633 55.005 20.137l0.109 0.002c20.984-0.148 40.202-7.589 55.27-19.91l-0.157 0.126c7.1-6.936 16.091-11.965 26.128-14.239l0.365-0.071c2.389-0.408 5.14-0.641 7.951-0.641 5.036 0 9.901 0.749 14.48 2.148l-0.353-0.094c25.455 8.103 45.672 26.3 56.293 49.769l0.233 0.574c4.927 10.161 8.955 21.982 11.491 34.346l0.171 0.983c1.236 5.302 2.122 10.953 3.18 16.427 0.974 3.081 1.536 6.624 1.536 10.298 0 2.037-0.174 4.036-0.506 5.982l0.029-0.208c-1.638 7.41-5.178 13.824-10.081 18.913l0.009-0.010c-11.898 15.294-25.511 28.461-40.755 39.521l-0.58 0.401c-31.518 22.736-70.423 37.12-112.559 39.198l-0.493 0.021zM559.207 424.352c31.17 34.553 76.1 56.172 126.081 56.172 0.018 0 0.030 0 0.048 0h4.591c31.504-1.568 60.248-12.189 84.022-29.292l-0.466 0.317c10.53-7.604 19.652-16.219 27.529-25.885l0.205-0.259c0-3.357-1.236-6.537-1.944-9.54-1.697-8.801-4.264-16.608-7.679-23.943l0.261 0.624c-3.876-8.769-10.461-15.75-18.675-20.032l-0.228-0.107-1.236 1.058c-24.257 20.071-55.636 32.311-89.873 32.504h-0.043c-33.963-0.227-65.139-11.963-89.87-31.503l0.309 0.234-1.944-1.59-1.767-1.413c-15.941 12.691-26.782 31.2-29.285 52.268l-0.034 0.375zM585.345 369.415v0z"></path>
</svg>
