<!-- Generated by IcoMoon.io -->
<svg version="1.1" xmlns="http://www.w3.org/2000/svg" width="1024" height="1024" viewBox="0 0 1024 1024">
<title></title>
<g id="icomoon-ignore">
</g>
<path fill="#000" d="M302.694 819.155c-19.2-6.258-34.276-38.116-34.418-38.542l-47.218-105.671c-2.195-4.97-3.473-10.766-3.473-16.86 0-17.085 10.042-31.824 24.545-38.638l0.261-0.11 59.591-26.596c15.092-6.982 32.753-11.054 51.365-11.054 21.662 0 42.036 5.516 59.794 15.22l-0.652-0.326 28.444 15.502c11.050 6.015 24.2 9.552 38.176 9.552 11.925 0 23.248-2.575 33.444-7.198l-0.509 0.207 56.178-25.031c6.932-3.241 15.052-5.132 23.613-5.132 25.224 0 46.614 16.416 54.068 39.148l0.114 0.402 0.853 2.987 65.707-29.298c6.911-2.94 14.951-4.649 23.389-4.649 10.546 0 20.468 2.669 29.129 7.369l-0.322-0.16c19.771 10.025 34.252 28.050 39.297 49.701l0.099 0.503c1.426 5.096 2.245 10.949 2.245 16.992 0 26.050-15.226 48.545-37.264 59.069l-0.395 0.17-225.991 100.978c-28.498 13.133-61.838 20.791-96.966 20.791-19.644 0-38.729-2.395-56.979-6.909l1.625 0.34-86.898-21.476zM267.85 661.573l44.516 99.556c2.822 4.941 5.69 9.17 8.844 13.163l-0.168-0.22 81.636 20.196c13.423 3.428 28.832 5.395 44.702 5.395 27.636 0 53.879-5.967 77.51-16.683l-1.18 0.479 225.991-100.978c5.364-3.093 8.917-8.796 8.917-15.33 0-2.048-0.349-4.014-0.991-5.843l0.038 0.124c-1.851-7.905-7.091-14.312-14.067-17.71l-0.155-0.068c-2.129-1.339-4.718-2.134-7.492-2.134-1.228 0-2.42 0.156-3.557 0.449l0.099-0.022-71.396 31.431c-7.699 12.581-18.84 22.395-32.115 28.265l-0.454 0.179-115.769 51.627c-18.86 8.697-40.926 13.769-64.176 13.769-8.726 0-17.284-0.714-25.621-2.088l0.908 0.123-46.507-6.542-7.822-10.524c-1.245-1.687-2.384-3.601-3.327-5.625l-0.086-0.207c-1.898-3.968-3.006-8.625-3.006-13.541 0-17.673 14.327-32 32-32 3.567 0 6.997 0.584 10.201 1.66l-0.226-0.066 28.444 4.551c4.399 0.733 9.468 1.151 14.635 1.151 13.808 0 26.918-2.991 38.716-8.359l-0.586 0.239 112.924-50.489c0.967-1.319 1.547-2.973 1.547-4.763 0-0.734-0.097-1.444-0.28-2.12l0.013 0.057c-1.168-3.595-4.488-6.148-8.404-6.148-1.282 0-2.5 0.274-3.599 0.765l0.056-0.022-55.751 25.884c-15.531 7.15-33.698 11.319-52.84 11.319-22.315 0-43.307-5.666-61.614-15.638l0.677 0.337-28.444-15.502c-10.52-5.767-23.051-9.16-36.374-9.16-11.399 0-22.218 2.483-31.945 6.939l0.479-0.197z"></path>
<path fill="#000" d="M492.703 568.275c-9.626-0.016-18.129-4.812-23.264-12.14l-0.061-0.091-12.516-18.062c-21.605-28.783-45.692-53.864-72.479-75.767l-0.765-0.607c-43.804-38.4-93.44-81.778-93.44-159.289 0-0.024 0-0.052 0-0.081 0-69.986 56.734-126.72 126.72-126.72 25.645 0 49.511 7.618 69.458 20.714l-0.48-0.296 6.542 4.551 6.542-4.551c19.467-12.8 43.333-20.418 68.978-20.418 69.986 0 126.72 56.734 126.72 126.72 0 0.028 0 0.057 0 0.085v-0.004c0.001 0.17 0.001 0.37 0.001 0.571 0 35.438-11.869 68.104-31.849 94.239l0.275-0.375c-18.309 23.12-38.278 43.496-60.19 61.604l-0.681 0.547c-28 22.761-52.278 48.484-72.864 77.045l-0.807 1.177-12.089 18.347c-5.084 7.641-13.604 12.647-23.302 12.8h-0.023zM416.898 232.489c-38.584 0.081-69.831 31.378-69.831 69.973 0 0 0 0 0 0v0c0 51.627 32.569 80.213 73.956 116.48 26.137 21.687 49.424 44.974 70.409 70.241l0.703 0.87c21.873-27.345 45.56-51.528 71.451-73.164l0.798-0.649c19.513-16.068 36.81-33.499 52.231-52.512l0.533-0.679c12.862-16.405 20.625-37.341 20.625-60.091 0-0.274-0.001-0.548-0.003-0.822v0.042c0-0.018 0-0.040 0-0.062 0-38.567-31.264-69.831-69.831-69.831-21.494 0-40.72 9.711-53.529 24.985l-0.088 0.108c-5.412 6.007-13.218 9.768-21.902 9.768s-16.49-3.76-21.879-9.741l-0.023-0.026c-12.869-15.261-32.001-24.889-53.381-24.889-0.083 0-0.166 0-0.25 0h0.013z"></path>
</svg>
