<!-- Generated by IcoMoon.io -->
<svg version="1.1" xmlns="http://www.w3.org/2000/svg" width="1024" height="1024" viewBox="0 0 1024 1024">
<title></title>
<g id="icomoon-ignore">
</g>
<path d="M511.995 359.389c-19.444 0-35.204-15.76-35.204-35.204v0-193.624c0-19.444 15.76-35.204 35.204-35.204s35.204 15.76 35.204 35.204v0 193.624c0 19.444-15.76 35.204-35.204 35.204v0z"></path>
<path d="M635.211 341.787c-19.274-0.217-34.817-15.893-34.817-35.203 0-6.482 1.75-12.554 4.809-17.768l-0.088 0.164 68.469-112.475c6.292-10.214 17.413-16.924 30.1-16.924 19.456 0 35.23 15.774 35.23 35.23 0 6.769-1.907 13.092-5.215 18.459l0.086-0.153-68.469 111.067c-6.137 10.489-17.288 17.454-30.078 17.602h-0.022z"></path>
<path d="M395.823 335.097c-11.916-0.021-22.439-5.957-28.794-15.025l-0.076-0.111-69.001-99.273c-3.927-5.601-6.274-12.558-6.274-20.068 0-19.455 15.774-35.229 35.229-35.229 11.95 0 22.508 5.953 28.88 15.049l0.076 0.112 68.12 99.273c3.93 5.601 6.278 12.558 6.278 20.068 0 19.423-15.728 35.173-35.145 35.204h-0.003z"></path>
<path d="M776.023 908.223c-16.017 17.602-57.734 19.187-58.088 19.187l-137.121 1.231c-0.157 0.001-0.342 0.002-0.528 0.002-27.39 0-49.613-22.105-49.813-49.446v-77.291c-0.006-0.574-0.010-1.252-0.010-1.931 0-47.065 21.968-89.004 56.204-116.117l0.309-0.236 30.627-24.996c21.566-17.759 35.212-44.46 35.212-74.352 0-0.469-0.003-0.938-0.008-1.406l0.001 0.072v-72.87c-0.002-0.187-0.002-0.411-0.002-0.631 0-37.524 30.419-67.943 67.943-67.943 2.168 0 4.318 0.102 6.434 0.303l-0.269-0.022h3.697v-85.368c0.434-22.532 11.075-42.497 27.482-55.509l0.151-0.113c15.185-12.812 34.973-20.598 56.582-20.598 5.887 0 11.639 0.577 17.205 1.683l-0.557-0.095c36.919 5.655 65.014 36.718 66.007 74.53l0.002 0.102 1.762 293.951c0.004 0.595 0.006 1.297 0.006 2 0 64.207-21.581 123.371-57.881 170.637l0.491-0.667-64.423 84.314zM587.681 871.079l129.728-1.231c6.693-0.783 12.663-1.957 18.466-3.545l-0.863 0.203 60.549-79.21c28.453-37.011 45.595-84.006 45.595-135.001 0-0.556-0.002-1.117-0.005-1.672v0.084l-2.638-293.424c-1.088-9.954-9.011-17.76-18.93-18.651l-0.080-0.005c-1.795-0.368-3.858-0.579-5.969-0.579-7.521 0-14.416 2.68-19.781 7.135l0.051-0.043c-3.613 2.613-6.169 6.493-7.025 10.981l-0.019 0.109v93.819c10 13.652 16.050 30.75 16.194 49.25v0.033l1.408 150.146c0.022 1.033 0.031 2.245 0.031 3.464 0 36.617-10.569 70.77-28.823 99.568l0.449-0.76-29.573 47.702-15.136 3.519c-2.426 0.544-5.218 0.862-8.082 0.881h-0.010c-0.216 0.004-0.473 0.006-0.73 0.006-20.996 0-38.020-17.024-38.020-38.020 0-9.678 3.615-18.508 9.564-25.215l-0.033 0.042 18.483-29.219c11.040-16.947 17.604-37.683 17.604-59.953 0-0.269-0.001-0.544-0.002-0.813v0.044l-1.585-146.976c-1.428-2.51-3.901-4.291-6.813-4.744l-0.053-0.006c-0.316-0.033-0.683-0.054-1.058-0.054-5.734 0-10.386 4.652-10.386 10.386 0 0.020 0 0.036 0 0.056v-0.002 72.87c0.020 0.885 0.028 1.927 0.028 2.972 0 48.168-22.289 91.13-57.113 119.131l-0.295 0.231-30.804 24.469c-21.509 16.805-35.207 42.751-35.207 71.892 0 0.284 0.001 0.567 0.003 0.85v-0.045z"></path>
<path d="M247.086 906.638l-64.423-84.314c-36.128-46.732-57.914-106.148-57.914-170.659 0-0.463 0.001-0.921 0.003-1.384v0.072l2.638-293.424c0.994-37.914 29.090-68.978 65.574-74.578l0.434-0.054c5.003-1.011 10.756-1.588 16.643-1.588 21.608 0 41.397 7.786 56.713 20.706l-0.131-0.107c16.559 13.125 27.205 33.090 27.633 55.55l0.001 0.072v85.368h3.697c1.582-0.131 3.42-0.206 5.282-0.206 37.524 0 67.943 30.419 67.943 67.943 0 0.008 0 0.022 0 0.030v-0.001 72.87c0 0.104-0.001 0.228-0.001 0.347 0 30.443 14.157 57.58 36.244 75.187l30.639 24.265c34.455 27.349 56.355 69.234 56.355 116.226 0 1.035-0.009 2.062-0.031 3.093l0.002-0.154v77.271c-0.2 27.362-22.423 49.467-49.813 49.467-0.185 0-0.371-0.001-0.556-0.002l-137.093-1.23s-42.243-1.231-58.088-19.187zM437.186 801.379c0.002-0.238 0.003-0.522 0.003-0.805 0-29.141-13.698-55.083-35.005-71.74l-0.202-0.152-30.804-24.114c-35.729-28.227-58.453-71.553-58.453-120.183 0-0.696 0.004-1.385 0.016-2.079l-0.001 0.105v-72.87c0-0.018 0-0.033 0-0.054 0-5.734-4.652-10.386-10.386-10.386-0.371 0-0.737 0.021-1.1 0.057l0.046-0.003c-2.966 0.464-5.439 2.24-6.842 4.707l-0.025 0.048-1.408 146.626c-0.001 0.23-0.002 0.5-0.002 0.774 0 22.27 6.565 43.011 17.866 60.384l-0.261-0.427 18.661 29.042c5.823 6.644 9.372 15.407 9.372 24.996 0 20.953-16.947 37.943-37.881 38.020h-0.006c-2.88-0.019-5.671-0.337-8.36-0.93l0.263 0.049-15.136-3.519-29.573-47.176c-18.332-28.339-29.227-62.981-29.227-100.159 0-0.678 0.003-1.356 0.009-2.033l-0.001 0.103 1.408-149.442c0.14-18.537 6.194-35.63 16.359-49.526l-0.165 0.238v-93.819c-0.875-4.592-3.431-8.472-6.988-11.051l-0.051-0.034c-5.314-4.417-12.209-7.092-19.73-7.092-2.112 0-4.174 0.211-6.17 0.616l0.2-0.032c-9.999 0.895-17.922 8.701-19.003 18.565l-0.007 0.096-2.638 293.424c-0.003 0.471-0.005 1.032-0.005 1.588 0 50.995 17.142 97.99 45.984 135.532l-0.389-0.526 60.549 79.21c4.939 1.385 10.909 2.559 17.021 3.287l0.582 0.056 129.551 1.231z"></path>
</svg>
