<!-- Generated by IcoMoon.io -->
<svg version="1.1" xmlns="http://www.w3.org/2000/svg" width="1024" height="1024" viewBox="0 0 1024 1024">
<title></title>
<g id="icomoon-ignore">
</g>
<path d="M603.832 929.779h-188.644c-17.749 0-32.137-14.388-32.137-32.137v0-189.608l-153.133 94.804c-4.823 3.047-10.689 4.853-16.98 4.853-11.847 0-22.194-6.408-27.766-15.949l-0.082-0.153-80.342-138.347c-2.705-4.606-4.301-10.147-4.301-16.058 0-11.818 6.377-22.143 15.878-27.727l0.152-0.082 171.129-98.822-160.684-92.875c-9.653-5.665-16.030-15.991-16.030-27.809 0-5.911 1.596-11.452 4.382-16.21l-0.082 0.152 80.342-138.347c5.657-9.691 16.005-16.102 27.851-16.102 6.291 0 12.16 1.807 17.113 4.931l-0.133-0.078 142.688 89.018v-186.875c0-17.749 14.388-32.137 32.137-32.137v0h188.644c17.749 0 32.137 14.388 32.137 32.137v0 189.608l147.667-91.751c4.823-3.047 10.689-4.853 16.98-4.853 11.847 0 22.194 6.408 27.766 15.949l0.082 0.153 80.342 138.347c2.705 4.606 4.301 10.147 4.301 16.058 0 11.818-6.377 22.143-15.878 27.727l-0.152 0.082-160.684 92.875 171.129 98.822c9.653 5.665 16.030 15.991 16.030 27.809 0 5.911-1.596 11.452-4.382 16.21l0.082-0.152-80.342 138.347c-5.657 9.691-16.005 16.102-27.851 16.102-6.291 0-12.16-1.807-17.113-4.931l0.133 0.078-158.112-98.018v192.822c0 17.749-14.388 32.137-32.137 32.137v0zM447.325 865.504h125.013v-218.049c0.021-17.733 14.402-32.1 32.137-32.1 6.245 0 12.073 1.781 17.006 4.863l-0.135-0.079 178.84 110.551 47.24-81.787-192.178-110.391c-9.641-5.667-16.011-15.988-16.011-27.799s6.37-22.132 15.86-27.715l0.151-0.082 181.253-104.765-47.080-81.627-168.556 104.605c-4.834 3.064-10.722 4.885-17.032 4.885-17.749 0-32.137-14.388-32.137-32.137 0-0.023 0-0.046 0-0.069v0.003-215.316h-124.369v212.586c0 0.020 0 0.043 0 0.063 0 17.749-14.388 32.137-32.137 32.137-6.313 0-12.198-1.821-17.163-4.963l0.132 0.078-164.218-101.875-47.080 81.627 181.253 104.765c9.641 5.667 16.011 15.988 16.011 27.799s-6.37 22.132-15.86 27.715l-0.151 0.082-191.534 110.551 47.080 81.787 174.022-107.818c4.941-3.257 11.002-5.194 17.517-5.194 17.749 0 32.137 14.388 32.137 32.137 0 0.131-0.001 0.262-0.002 0.393v-0.021z"></path>
<path d="M556.268 461.707l-35.030-3.213v-18.64c12.56-4.561 21.37-16.392 21.37-30.281 0-17.749-14.388-32.137-32.137-32.137s-32.137 14.388-32.137 32.137c0 13.889 8.809 25.72 21.148 30.209l0.225 0.072v16.067l-41.938-3.857c-0.289-0.027-0.625-0.044-0.964-0.044-5.971 0-10.809 4.838-10.809 10.809 0 5.631 4.305 10.256 9.801 10.762l0.044 0.003 44.027 4.018v35.030l-24.423 2.249c-16.533 1.454-29.405 15.232-29.405 32.020 0 0.042 0 0.081 0 0.124v-0.006 4.178c0 0.057-0.001 0.127-0.001 0.194 0 16.503 12.439 30.102 28.455 31.929l0.149 0.015 25.067 2.733v24.102l-6.911 0.964c-14.368 2.262-25.227 14.553-25.227 29.383 0 0.007 0 0.016 0 0.023v-0.001c-0.001 0.079-0.001 0.174-0.001 0.266 0 14.391 10.395 26.354 24.089 28.792l0.177 0.026 8.035 1.768v17.355c0 5.947 4.821 10.765 10.765 10.765s10.765-4.821 10.765-10.765v0-12.854l8.516 1.768c0.841 0.237 1.809 0.372 2.81 0.372 5.947 0 10.765-4.821 10.765-10.765 0-5.406-3.986-9.88-9.176-10.65l-0.058-0.006-13.014-2.733v-24.586l17.996-2.57c14.16-2.117 24.895-14.197 24.895-28.78 0-14.928-11.246-27.228-25.726-28.894l-0.134-0.011-17.192-1.929v-34.387l35.191-3.213c16.533-1.454 29.405-15.232 29.405-32.020 0-0.042 0-0.081 0-0.124v0.006-3.534c0-0.034 0-0.076 0-0.115 0-16.787-12.872-30.569-29.282-32.012l-0.123-0.008zM510.472 399.521c5.947 0 10.765 4.821 10.765 10.765s-4.821 10.765-10.765 10.765c-5.947 0-10.765-4.821-10.765-10.765v0c0-5.947 4.821-10.765 10.765-10.765v0zM499.708 650.348l-4.178-1.608c-4.437 0-8.035-3.598-8.035-8.035s3.598-8.035 8.035-8.035v0h3.857zM536.023 591.058c3.673 0.554 6.453 3.688 6.453 7.471s-2.783 6.917-6.413 7.467l-0.043 0.005-15.103 2.089v-19.281zM499.708 565.348l-22.657-2.57c-5.407-0.583-9.587-5.098-9.64-10.6v-4.183c0-0.011 0-0.028 0-0.044 0-5.607 4.285-10.212 9.76-10.721l0.044-0.003 22.497-2.089zM563.982 498.023c0 0.011 0 0.028 0 0.044 0 5.607-4.285 10.212-9.76 10.721l-0.044 0.003-33.262 2.893v-31.814l33.102 3.053c5.503 0.428 9.802 4.998 9.802 10.575 0 0.068-0.001 0.134-0.002 0.202v-0.009z"></path>
</svg>
