<!-- Generated by IcoMoon.io -->
<svg version="1.1" xmlns="http://www.w3.org/2000/svg" width="1024" height="1024" viewBox="0 0 1024 1024">
<title></title>
<g id="icomoon-ignore">
</g>
<path fill="#000" d="M593.28 881.778h-166.969c-15.709 0-28.444-12.735-28.444-28.444v0-167.822l-135.538 83.911c-4.268 2.696-9.462 4.295-15.030 4.295-10.485 0-19.644-5.673-24.577-14.116l-0.073-0.135-71.111-122.453c-2.393-4.078-3.806-8.98-3.806-14.213 0-10.459 5.645-19.599 14.054-24.541l0.134-0.073 151.467-87.467-142.222-82.204c-8.543-5.014-14.188-14.155-14.188-24.614 0-5.233 1.413-10.135 3.878-14.347l-0.073 0.134 71.111-122.453c5.006-8.578 14.166-14.251 24.65-14.251 5.568 0 10.762 1.6 15.148 4.364l-0.118-0.069 126.293 78.791v-165.404c0-15.709 12.735-28.444 28.444-28.444v0h166.969c15.709 0 28.444 12.735 28.444 28.444v0 167.822l130.702-81.209c4.268-2.696 9.462-4.295 15.030-4.295 10.485 0 19.644 5.673 24.577 14.116l0.073 0.135 71.111 122.453c2.393 4.078 3.806 8.98 3.806 14.213 0 10.459-5.645 19.599-14.054 24.541l-0.134 0.073-142.222 82.204 151.467 87.467c8.543 5.014 14.188 14.155 14.188 24.614 0 5.233-1.413 10.135-3.878 14.347l0.073-0.134-71.111 122.453c-5.006 8.578-14.166 14.251-24.65 14.251-5.568 0-10.762-1.6-15.148-4.364l0.118 0.069-139.947-86.756v170.667c0 15.709-12.735 28.444-28.444 28.444v0zM454.755 824.889h110.649v-192.996c0.018-15.696 12.746-28.413 28.444-28.413 5.528 0 10.687 1.577 15.053 4.305l-0.12-0.070 158.293 97.849 41.813-72.391-170.098-97.707c-8.534-5.016-14.172-14.152-14.172-24.604s5.638-19.588 14.039-24.532l0.133-0.073 160.427-92.729-41.671-72.249-149.191 92.587c-4.279 2.713-9.489 4.324-15.076 4.324-15.709 0-28.444-12.735-28.444-28.444 0-0.020 0-0.040 0-0.060v0.003-190.578h-110.080v188.16c0 0.017 0 0.037 0 0.057 0 15.709-12.735 28.444-28.444 28.444-5.587 0-10.797-1.611-15.192-4.393l0.117 0.069-145.351-90.169-41.671 72.249 160.427 92.729c8.534 5.016 14.172 14.152 14.172 24.604s-5.638 19.588-14.039 24.532l-0.133 0.073-169.529 97.849 41.671 72.391 154.027-95.431c4.374-2.882 9.739-4.597 15.504-4.597 15.709 0 28.444 12.735 28.444 28.444 0 0.116-0.001 0.232-0.002 0.348v-0.018z"></path>
<path fill="#000" d="M551.182 467.484l-31.004-2.844v-16.498c11.117-4.036 18.916-14.508 18.916-26.801 0-15.709-12.735-28.444-28.444-28.444s-28.444 12.735-28.444 28.444c0 12.293 7.798 22.765 18.718 26.738l0.198 0.063v14.222l-37.12-3.413c-0.256-0.024-0.553-0.038-0.853-0.038-5.284 0-9.567 4.283-9.567 9.567 0 4.983 3.81 9.077 8.676 9.526l0.038 0.003 38.969 3.556v31.004l-21.618 1.991c-14.634 1.286-26.027 13.483-26.027 28.342 0 0.036 0 0.072 0 0.109v-0.006 3.698c0 0.051-0.001 0.112-0.001 0.173 0 14.607 11.011 26.643 25.185 28.26l0.131 0.012 22.187 2.418v21.333l-6.116 0.853c-12.718 2.001-22.329 12.882-22.329 26.008 0 0.007 0 0.013 0 0.020v-0.001c-0.001 0.070-0.001 0.153-0.001 0.236 0 12.738 9.201 23.327 21.32 25.483l0.156 0.023 7.111 1.564v15.36c0 5.263 4.266 9.529 9.529 9.529s9.529-4.266 9.529-9.529v0-11.378l7.538 1.564c0.745 0.21 1.602 0.33 2.486 0.33 5.263 0 9.529-4.266 9.529-9.529 0-4.785-3.527-8.746-8.123-9.426l-0.052-0.006-11.52-2.418v-21.76l15.929-2.276c12.534-1.874 22.036-12.565 22.036-25.474 0-13.212-9.953-24.099-22.771-25.573l-0.119-0.011-15.218-1.707v-30.436l31.147-2.844c14.634-1.286 26.027-13.483 26.027-28.342 0-0.036 0-0.072 0-0.109v0.006-3.129c0-0.031 0-0.067 0-0.103 0-14.858-11.393-27.056-25.919-28.334l-0.108-0.008zM510.648 412.444c5.263 0 9.529 4.266 9.529 9.529s-4.266 9.529-9.529 9.529c-5.263 0-9.529-4.266-9.529-9.529v0c0-5.263 4.266-9.529 9.529-9.529v0zM501.12 634.453l-3.698-1.422c-3.927 0-7.111-3.184-7.111-7.111s3.184-7.111 7.111-7.111v0h3.413zM533.262 581.973c3.25 0.491 5.712 3.265 5.712 6.613s-2.462 6.122-5.675 6.609l-0.037 0.005-13.369 1.849v-17.067zM501.12 559.218l-20.053-2.276c-4.786-0.517-8.486-4.513-8.533-9.382v-3.703c0-0.011 0-0.025 0-0.038 0-4.962 3.793-9.039 8.638-9.488l0.038-0.003 19.911-1.849zM558.008 499.627c0 0.011 0 0.025 0 0.038 0 4.962-3.793 9.039-8.638 9.488l-0.038 0.003-29.44 2.56v-28.16l29.298 2.702c4.87 0.38 8.677 4.425 8.677 9.36 0 0.059-0.001 0.119-0.002 0.178v-0.009z"></path>
</svg>
