<!-- Generated by IcoMoon.io -->
<svg version="1.1" xmlns="http://www.w3.org/2000/svg" width="1024" height="1024" viewBox="0 0 1024 1024">
<title></title>
<g id="icomoon-ignore">
</g>
<path d="M649.671 181.76c-0.059 0-0.128 0-0.197 0-41.388 0-79.901 12.311-112.076 33.472l0.771-0.476c-9.101 5.901-16.991 11.893-24.413 18.407l0.235-0.202c-7.187-6.314-15.077-12.306-23.381-17.717l-0.797-0.487c-31.476-20.664-70.053-32.96-111.502-32.96-113.265 0-205.084 91.819-205.084 205.084 0 0.087 0 0.175 0 0.262v-0.014c0 128.853 81.351 199.111 160.142 269.084 50.992 41.845 95.535 88.554 133.905 140.127l1.49 2.095 46.649 66.844 44.942-68.836c39.624-55.108 84.519-102.802 134.921-144.014l1.328-1.053c39.343-32.49 74.144-67.922 104.987-106.645l1.11-1.444c32.829-42.37 52.626-96.277 52.626-154.808 0-0.475-0.001-0.951-0.004-1.425v0.073c0 0 0 0 0 0 0-113.422-91.947-205.369-205.369-205.369-0.1 0-0.2 0-0.3 0h0.015z"></path>
</svg>
