<!-- Generated by IcoMoon.io -->
<svg version="1.1" xmlns="http://www.w3.org/2000/svg" width="1024" height="1024" viewBox="0 0 1024 1024">
<title></title>
<g id="icomoon-ignore">
</g>
<path d="M515.413 864.427l-46.649-67.982c-39.861-53.668-84.403-100.377-134.024-141.129l-1.372-1.093c-77.369-67.129-160.142-138.24-160.142-267.093-0.001-0.179-0.001-0.39-0.001-0.602 0-113.265 91.819-205.084 205.084-205.084 52.395 0 100.202 19.648 136.452 51.979l-0.203-0.178c7.187-6.311 15.077-12.303 23.38-17.716l0.798-0.488c31.539-20.777 70.219-33.144 111.787-33.144 113.265 0 205.084 91.819 205.084 205.084 0 0.052 0 0.105 0 0.157v-0.008c0.002 0.402 0.004 0.877 0.004 1.352 0 58.53-19.797 112.437-53.059 155.39l0.433-0.582c-31.954 40.167-66.754 75.599-104.899 107.127l-1.198 0.962c-51.844 42.258-96.832 89.955-135.029 142.877l-1.504 2.189zM378.596 238.649c-81.781 0.162-148.034 66.415-148.196 148.18v0.015c0 103.253 65.138 160.142 140.8 227.556 53.472 44.108 100.249 93.233 140.641 147.4l1.582 2.218c41.98-58.536 89.498-109.215 142.837-153.071l1.376-1.098c36.326-29.935 68.5-62.471 97.13-97.984l1.004-1.287c25.904-33.279 41.531-75.67 41.531-121.712 0-0.311-0.001-0.622-0.002-0.932v0.048c0-0.015 0-0.032 0-0.049 0-81.846-66.349-148.196-148.196-148.196-45.609 0-86.406 20.603-113.591 53.011l-0.187 0.229-21.902 26.453-21.902-26.453c-27.311-32.756-68.125-53.456-113.774-53.476h-0.003z"></path>
</svg>
