<!-- Generated by IcoMoon.io -->
<svg version="1.1" xmlns="http://www.w3.org/2000/svg" width="1024" height="1024" viewBox="0 0 1024 1024">
<title></title>
<g id="icomoon-ignore">
</g>
<path d="M912.72 807.644c-33.58-96.224-108.6-170.389-203.105-202.108l-2.283-0.662c-22.14-6.727-47.587-10.596-73.936-10.596-8.806 0-17.513 0.433-26.098 1.279l1.087-0.087c-43.726 3.136-76.824-20.38-98.249-69.681-160.268-374.538-228.73-364.781-254.685-361.645-2.305 0.319-4.362 0.805-6.343 1.464l0.245-0.070c-5.749 1.916-139.362 48.952-139.362 238.486 1.19 47.695 11.519 92.669 29.289 133.668l-0.894-2.316c14.286 34.84 17.422 137.271 17.422 290.396 0 19.241 15.599 34.84 34.84 34.84v0h113.232c0.035 0 0.071 0 0.111 0 19.241 0 34.84-15.599 34.84-34.84 0-0.981-0.041-1.954-0.122-2.914l0.007 0.127c-2.621-29.652-4.118-64.149-4.118-98.999 0-21.063 0.546-41.993 1.627-62.788l-0.122 2.912c31.636 42.408 51.799 95.044 55.015 152.21l0.035 0.742c0 19.241 15.599 34.84 34.84 34.84v0h452.93c0.072 0 0.16 0.001 0.247 0.001 19.241 0 34.84-15.599 34.84-34.84 0-3.35-0.474-6.587-1.354-9.654l0.061 0.245zM225.485 791.272c0-136.748-4.181-209.043-13.589-252.594 24.486 18.025 46.098 36.71 66.164 56.93l0.036 0.036c-10.453 29.962-17.422 87.103-11.324 195.632zM458.397 782.56c-12.718-93.371-72.12-170.892-99.12-201.729-12.37-14.635-91.11-104.521-175.073-136.748-2.315-11.867-3.765-25.627-4.005-39.682l-0.002-0.211c0-116.717 63.235-158.352 84.838-169.15 29.44 16.377 100.688 129.609 181.171 317.401 46.862 109.225 132.741 114.975 167.412 112.361 5.92-0.635 12.786-1 19.737-1 19.027 0 37.419 2.72 54.812 7.792l-1.38-0.346c59.214 19.218 107.315 58.726 137.171 110.147l0.627 1.169z"></path>
</svg>
