<!-- Generated by IcoMoon.io -->
<svg version="1.1" xmlns="http://www.w3.org/2000/svg" width="1024" height="1024" viewBox="0 0 1024 1024">
<title></title>
<g id="icomoon-ignore">
</g>
<path fill="#000" d="M839.154 753.374c-27.416-78.56-88.664-139.109-165.817-165.004l-1.863-0.542c-18.076-5.491-38.851-8.652-60.364-8.652-7.19 0-14.297 0.353-21.306 1.043l0.887-0.071c-35.698 2.56-62.72-16.64-80.213-56.889-130.844-305.778-186.738-297.813-207.929-295.253-1.881 0.259-3.562 0.657-5.179 1.196l0.201-0.058c-4.693 1.564-113.778 39.964-113.778 194.702 0.97 38.939 9.403 75.657 23.913 109.128l-0.73-1.892c11.662 28.444 14.222 112.071 14.222 237.084 0 15.709 12.735 28.444 28.444 28.444v0h92.444c0.027 0 0.059 0 0.091 0 15.709 0 28.444-12.735 28.444-28.444 0-0.801-0.033-1.594-0.098-2.378l0.007 0.103c-2.141-24.208-3.362-52.373-3.362-80.823 0-17.195 0.446-34.285 1.327-51.26l-0.098 2.376c25.828 34.624 42.291 77.596 44.915 124.266l0.027 0.606c0 15.709 12.735 28.444 28.444 28.444v0h369.778c0.060 0 0.132 0.001 0.203 0.001 15.709 0 28.444-12.735 28.444-28.444 0-2.734-0.386-5.379-1.106-7.882l0.049 0.201zM278.087 740.006c0-111.644-3.413-170.667-11.093-206.222 19.99 14.717 37.634 29.97 54.016 46.478l0.028 0.028c-8.533 24.462-14.222 71.111-9.244 159.716zM468.239 732.894c-10.382-76.231-58.88-139.52-80.924-164.693-10.098-11.947-74.382-85.333-142.933-111.644-1.891-9.687-3.073-20.923-3.269-32.398l-0.002-0.171c0-95.289 51.627-129.28 69.262-138.098 24.036 13.369 82.204 105.813 147.911 259.129 38.258 89.173 108.373 93.867 136.676 91.733 4.832-0.519 10.438-0.816 16.113-0.816 15.535 0 30.551 2.22 44.748 6.36l-1.128-0.282c48.342 15.69 87.615 47.946 111.987 89.927l0.511 0.953z"></path>
</svg>
