<!-- Generated by IcoMoon.io -->
<svg version="1.1" xmlns="http://www.w3.org/2000/svg" width="1024" height="1024" viewBox="0 0 1024 1024">
<title></title>
<g id="icomoon-ignore">
</g>
<path d="M568.887 846.223h199.111c15.709 0 28.444-12.735 28.444-28.444v0-270.222c-0.010-9.449-4.626-17.818-11.723-22.983l-0.082-0.057-256-184.889c-4.612-3.36-10.391-5.375-16.64-5.375s-12.028 2.015-16.722 5.432l0.082-0.057-256 184.889c-7.179 5.222-11.794 13.591-11.804 23.038v270.224c0 15.709 12.735 28.444 28.444 28.444v0h199.111c15.709 0 28.444-12.735 28.444-28.444v0-128h56.889v128c0 15.709 12.735 28.444 28.444 28.444v0zM455.109 632.89c-15.709 0-28.444 12.735-28.444 28.444v0 128h-142.222v-227.556l227.556-163.982 227.556 163.982v227.556h-142.222v-128c0-15.709-12.735-28.444-28.444-28.444v0z"></path>
<path d="M159.002 556.374l352.996-257.991 352.996 257.991c4.64 3.423 10.471 5.478 16.782 5.478 15.711 0 28.447-12.736 28.447-28.447 0-9.4-4.559-17.734-11.586-22.914l-0.078-0.055-102.116-74.809s0-1.849 0-1.849v-227.556c0-15.709-12.735-28.444-28.444-28.444v0h-128c-15.709 0-28.444 12.735-28.444 28.444v0 94.436l-82.773-60.444c-4.64-3.423-10.471-5.478-16.782-5.478s-12.142 2.055-16.86 5.533l0.078-0.055-369.778 270.222c-7.106 5.235-11.664 13.569-11.664 22.969 0 15.711 12.736 28.447 28.447 28.447 6.311 0 12.142-2.055 16.86-5.533l-0.078 0.055zM668.442 234.668h71.111v159.431l-71.111-51.911z"></path>
</svg>
