<!-- Generated by IcoMoon.io -->
<svg version="1.1" xmlns="http://www.w3.org/2000/svg" width="1024" height="1024" viewBox="0 0 1024 1024">
<title></title>
<g id="icomoon-ignore">
</g>
<path d="M768 170.667h-507.733c-47.849 0.161-86.594 38.907-86.756 86.74v509.172c0.161 47.849 38.907 86.594 86.74 86.756h507.749c47.849-0.161 86.594-38.907 86.756-86.74v-509.172c-0.161-47.849-38.907-86.594-86.74-86.756h-0.016zM260.267 227.556h507.733c0.425-0.022 0.922-0.034 1.422-0.034 16.495 0 29.867 13.372 29.867 29.867 0 0.012 0 0.024 0 0.036v-0.002 436.622l-15.644-28.444c-20.409-35.644-58.218-59.272-101.547-59.272s-81.138 23.629-101.246 58.703l-0.301 0.569-10.524 18.489-85.333-170.667c-16.337-32.583-49.478-54.557-87.751-54.557s-71.414 21.974-87.495 53.994l-0.256 0.563-78.791 160.427v-416.427c0-16.495 13.372-29.867 29.867-29.867v0zM260.267 796.444c-0.098 0.001-0.213 0.002-0.329 0.002-8.765 0-16.603-3.964-21.821-10.197l-0.036-0.045 122.596-247.182c6.942-13.566 20.823-22.691 36.836-22.691s29.893 9.125 36.727 22.458l0.108 0.232 88.178 177.778c8.838 17.367 26.579 29.056 47.050 29.056 19.45 0 36.435-10.552 45.544-26.244l0.135-0.252 14.507-25.6c10.443-18.298 29.831-30.433 52.053-30.433s41.61 12.135 51.899 30.14l0.154 0.293 36.693 64.569 16.782 31.573c-4.89 4.085-11.244 6.566-18.178 6.566-0.41 0-0.817-0.009-1.223-0.026l0.058 0.002z"></path>
<path d="M732.918 335.636c14.905 27.658 4.566 62.163-23.092 77.068s-62.163 4.566-77.068-23.092c-14.905-27.658-4.566-62.163 23.092-77.068s62.163-4.566 77.068 23.092z"></path>
</svg>
