<svg id="Layer_2" data-name="Layer 2" xmlns="http://www.w3.org/2000/svg" viewBox="0 0 36 36"><defs><style>.cls-1{fill:#4f4f4f;}</style></defs><title>Artboard 1 copy</title><path class="cls-1" d="M27,6H9.15A3.06,3.06,0,0,0,6.1,9.05V26.95A3.06,3.06,0,0,0,9.15,30H27a3.06,3.06,0,0,0,3.05-3.05V9.05A3.06,3.06,0,0,0,27,6ZM9.15,8H27A1.05,1.05,0,0,1,28.1,9.05V24.4l-.55-1a4.1,4.1,0,0,0-7.14,0l-.37.65-3-6a3.44,3.44,0,0,0-6.17,0L8.1,23.69V9.05A1.05,1.05,0,0,1,9.15,8Zm0,20a1,1,0,0,1-.78-.36l4.31-8.69a1.45,1.45,0,0,1,2.59,0l3.1,6.25a1.85,1.85,0,0,0,3.26.09l.51-.9a2.1,2.1,0,0,1,3.66,0l1.29,2.27.59,1.11A1,1,0,0,1,27,28Z"/><circle class="cls-1" cx="24" cy="12.75" r="2" transform="translate(-3.17 12.91) rotate(-28.32)"/></svg>