<!-- Generated by IcoMoon.io -->
<svg version="1.1" xmlns="http://www.w3.org/2000/svg" width="1024" height="1024" viewBox="0 0 1024 1024">
<title></title>
<g id="icomoon-ignore">
</g>
<path fill="#000" d="M375.402 738.877c-0.243 0.001-0.531 0.002-0.819 0.002-109.966 0-199.111-89.145-199.111-199.111s89.145-199.111 199.111-199.111c40.516 0 78.205 12.101 109.651 32.886l-0.743-0.461 256-85.333c4.958-1.666 10.668-2.628 16.602-2.628 23.715 0 43.844 15.356 50.985 36.666l0.11 0.379 38.684 118.329c1.684 4.983 2.655 10.721 2.655 16.687 0 23.62-15.233 43.682-36.41 50.899l-0.379 0.112h-76.516l-42.382 43.236-55.467-7.111-34.418 33.564-33.849 11.093c-22.694 86.85-100.451 149.904-192.935 149.904-0.271 0-0.543-0.001-0.814-0.002h0.042zM375.402 397.543c-78.351 0.26-141.766 63.835-141.766 142.221 0 78.547 63.675 142.222 142.222 142.222 70.41 0 128.87-51.166 140.227-118.345l0.117-0.837 2.844-17.067 53.476-17.636 45.511-43.52 55.467 7.111 38.684-36.978h77.938l-36.124-109.796-280.462 91.876-12.8-9.671c-23.446-17.857-53.122-28.64-85.313-28.729h-0.021z"></path>
<path fill="#000" d="M384.427 504.654c16.366 5.035 25.552 22.384 20.517 38.75s-22.384 25.552-38.75 20.517c-16.366-5.035-25.552-22.384-20.517-38.75s22.384-25.552 38.75-20.517z"></path>
</svg>
