<svg id="Layer_2" data-name="Layer 2" xmlns="http://www.w3.org/2000/svg" viewBox="0 0 36 36"><defs><style>.cls-1{fill:#4f4f4f;}</style></defs><title>account</title><path class="cls-1" d="M13,25.19A7,7,0,1,1,16.8,12.33l9-3a1.89,1.89,0,0,1,2.38,1.21l1.36,4.16a1.89,1.89,0,0,1-1.2,2.38l-.3,0-2.39,0L24.16,18.6l-1.95-.25L21,19.53l-1.19.39A7,7,0,0,1,13,25.19Zm0-12A5,5,0,1,0,17.95,19l.1-.6,1.88-.62,1.6-1.53,1.95.25,1.36-1.3,2.74,0-1.27-3.86-9.86,3.23L16,14.23A5,5,0,0,0,13,13.22Zm13.39-1.95Z"/><circle class="cls-1" cx="13" cy="18" r="1.09" transform="translate(-8.03 25.13) rotate(-72.9)"/></svg>