<!-- Generated by IcoMoon.io -->
<svg version="1.1" xmlns="http://www.w3.org/2000/svg" width="1024" height="1024" viewBox="0 0 1024 1024">
<title></title>
<g id="icomoon-ignore">
</g>
<path d="M687.787 219.022h199.111v49.209h-199.111v44.658h-53.76v-44.658h-220.444v44.658h-53.76v-44.658h-195.413v-49.209h195.413v-65.138l69.973 3.982c0 5.689-5.689 9.671-16.213 11.378v49.778h220.16v-65.138l69.12 3.982c0 6.542-4.836 9.671-15.36 11.378zM178.062 666.738v-134.827h693.76v135.111h-52.907v-91.022h-306.916c-3.114 2.012-6.92 3.208-11.005 3.208-0.632 0-1.257-0.029-1.875-0.085l0.079 0.006c-13.915 18.091-28.36 34.159-43.931 49.059l-0.158 0.15h245.191l9.671-2.276 37.831 20.196c-2.054 3.326-4.836 6.017-8.137 7.906l-0.111 0.059c-85.333 145.636-284.444 220.16-472.747 250.027-7.327-18.138-16.214-33.792-26.854-48.064l0.4 0.562c94.879-11.072 181.409-34.617 262.105-69.169l-6.105 2.324c-37.511-26.104-80.566-48.405-126.432-64.793l-3.843-1.198 32.996-28.444c53.937 18.884 100.669 42.927 143.357 72.409l-1.988-1.298c48.365-24.377 89.079-57.091 121.807-96.652l0.504-0.628h-260.267c-46.807 33.332-100.411 62.092-157.526 83.709l-4.891 1.625c-9.569-14.231-20.764-26.421-33.537-36.734l-0.312-0.244c91.252-28.059 169.191-76.687 231.417-140.675l0.121-0.125h-208.213v90.738zM245.76 321.138h564.907v170.667h-564.907zM416.427 450.56v-89.884h-120.889v90.169zM587.093 450.56v-89.884h-125.156v90.169zM760.604 450.56v-89.884h-126.578v90.169z"></path>
</svg>
