<svg id="Layer_2" data-name="Layer 2" xmlns="http://www.w3.org/2000/svg" viewBox="0 0 36 36"><defs><style>.cls-1{fill:#4f4f4f;}</style></defs><title>languaje</title><path class="cls-1" d="M24.18,7.7h7V9.43h-7V11H22.29V9.43H14.54V11H12.65V9.43H5.78V7.7h6.87V5.41l2.46.14c0,.2-.2.34-.57.4V7.7h7.74V5.41l2.43.14c0,.23-.17.34-.54.4ZM6.26,23.44V18.7H30.65v4.75H28.79V20.25H18a.72.72,0,0,1-.45.11A15,15,0,0,1,16,22.09h8.62l.34-.08,1.33.71A.8.8,0,0,1,26,23c-3,5.12-10,7.74-16.62,8.79a7.46,7.46,0,0,0-.93-1.67,32.93,32.93,0,0,0,9-2.35,19.35,19.35,0,0,0-4.58-2.32l1.16-1A20.9,20.9,0,0,1,19,26.95a13.15,13.15,0,0,0,4.3-3.42H14.15a25,25,0,0,1-5.71,3,5.77,5.77,0,0,0-1.19-1.3,19,19,0,0,0,8.14-4.95H8.07v3.19ZM8.64,11.29H28.5v6H8.64Zm6,4.55V12.68H10.39v3.17Zm6,0V12.68H16.24v3.17Zm6.1,0V12.68H22.29v3.17Z"/></svg>