<!-- Generated by IcoMoon.io -->
<svg version="1.1" xmlns="http://www.w3.org/2000/svg" width="1024" height="1024" viewBox="0 0 1024 1024">
<title></title>
<g id="icomoon-ignore">
</g>
<path d="M728.605 428.905h-340.561v-111.709c0-40.869 8.178-168.917 68.112-198.884 8.177-2.726 19.073-5.451 29.968-5.451h43.587c10.895 0 19.073 2.726 29.968 8.177 59.943 27.241 68.112 158.022 68.112 198.884l65.387 2.726c0-21.798 2.725-209.787-103.531-258.827-19.073-10.895-38.145-16.347-59.943-16.347h-43.587c-21.799 0-40.871 5.451-59.943 13.621-106.256 51.765-103.531 239.755-103.531 258.827v108.983h-27.241c-29.967 0-54.491 24.524-54.491 54.491v438.639c0 29.967 24.524 54.491 54.491 54.491h433.196c29.967 0 54.491-24.525 54.491-54.491v-438.639c0-29.967-21.798-54.491-54.491-54.491zM567.864 796.715v2.725c0 8.178-5.451 13.621-13.621 13.621h-89.91c-2.725 0-2.725 0-5.451 0-8.177-2.725-10.895-10.895-8.177-19.072l21.798-59.943c-2.726-2.726-5.452-5.452-10.895-8.178-21.799-24.524-21.799-65.387 5.451-87.184 24.524-21.798 65.387-21.798 87.184 5.452 21.799 24.524 21.799 65.387-5.451 87.184l19.072 65.387z"></path>
</svg>
