<svg id="Layer_2" data-name="Layer 2" xmlns="http://www.w3.org/2000/svg" viewBox="0 0 36 36"><defs><style>.cls-1{fill:#4f4f4f;}</style></defs><title>unlock</title><path class="cls-1" d="M24.42,15.3H11.89V11.25c-.05-1.57.29-6.28,2.47-7.34a2.38,2.38,0,0,1,1.07-.26h1.64a2.44,2.44,0,0,1,1.07.27c2.17,1,2.53,5.77,2.49,7.34l2.38.07c0-.78.11-7.67-3.81-9.55a4.81,4.81,0,0,0-2.11-.52H15.42a4.74,4.74,0,0,0-2.12.51c-3.94,1.91-3.82,8.78-3.79,9.51v4h-1a2,2,0,0,0-2,2V33.39a2,2,0,0,0,2,2h16a2,2,0,0,0,2-2V17.3A2,2,0,0,0,24.42,15.3Zm-16,2v0Zm16,16.09h-16V17.3H24.42Z"/><path class="cls-1" d="M15,26.53l-.82,2.15a.54.54,0,0,0,.5.73H18a.54.54,0,0,0,.52-.68l-.67-2.34a2.26,2.26,0,1,0-2.84.14Z"/></svg>