<!-- Generated by IcoMoon.io -->
<svg version="1.1" xmlns="http://www.w3.org/2000/svg" width="1024" height="1024" viewBox="0 0 1024 1024">
<title></title>
<g id="icomoon-ignore">
</g>
<path d="M694.613 435.2h-356.409v-115.2c-1.422-44.658 8.249-178.631 70.258-208.782 8.85-4.611 19.318-7.339 30.417-7.395h46.667c11.15 0.219 21.594 3.034 30.818 7.862l-0.382-0.182c61.724 28.444 71.964 164.124 70.827 208.782l67.698 1.991c0-22.187 3.129-218.169-108.373-271.644-17.459-9.048-38.069-14.48-59.918-14.79l-0.1-0.001h-47.502c-22.012 0.091-42.753 5.442-61.059 14.861l0.757-0.354c-112.071 54.329-108.658 249.742-107.804 270.507v113.778h-28.444c-31.419 0-56.889 25.47-56.889 56.889v0 458.24c0 31.419 25.47 56.889 56.889 56.889v0h455.111c31.419 0 56.889-25.47 56.889-56.889v0-457.671c0-0.017 0-0.037 0-0.058 0-31.419-25.47-56.889-56.889-56.889-0.9 0-1.796 0.021-2.686 0.062l0.126-0.005zM239.502 492.089v0zM694.613 949.76h-455.111v-457.671h455.111z"></path>
<path d="M426.667 754.631l-23.324 61.156c-0.622 1.605-0.982 3.463-0.982 5.405 0 8.428 6.789 15.271 15.196 15.359h94.444c8.464-0.025 15.316-6.892 15.316-15.36 0-1.416-0.192-2.788-0.551-4.090l0.025 0.108-19.058-66.56c13.18-11.822 21.433-28.907 21.433-47.919 0-35.503-28.781-64.284-64.284-64.284s-64.284 28.781-64.284 64.284c0 21.239 10.3 40.072 26.177 51.777l0.177 0.124z"></path>
</svg>
