<!-- Generated by IcoMoon.io -->
<svg version="1.1" xmlns="http://www.w3.org/2000/svg" width="1024" height="1024" viewBox="0 0 1024 1024">
<title></title>
<g id="icomoon-ignore">
</g>
<path fill="#000" d="M738.132 360.985h-40.391c0-53.76-10.524-207.644-108.089-256-17.111-8.437-37.249-13.372-58.54-13.372-0.319 0-0.638 0.001-0.957 0.003h-47.738c-1.044-0.031-2.272-0.049-3.504-0.049-20.609 0-40.059 4.958-57.223 13.748l0.709-0.33c-97.28 47.218-107.52 201.102-107.804 256h-30.151c-31.419 0-56.889 25.47-56.889 56.889v0 457.671c0 31.419 25.47 56.889 56.889 56.889v0h455.111c31.419 0 56.889-25.47 56.889-56.889v0-457.671c0-0.005 0-0.012 0-0.018 0-31.419-25.47-56.889-56.889-56.889-0.5 0-0.999 0.006-1.496 0.019l0.074-0.002zM451.696 167.278c7.736-4.197 16.939-6.664 26.717-6.664 1.308 0 2.606 0.044 3.893 0.131l-0.174-0.009h48.924c10.353 0.104 20.121 2.506 28.851 6.719l-0.406-0.177c56.889 28.444 68.836 140.231 69.689 193.991h-247.182c0.853-54.044 13.938-166.969 69.689-193.991zM284.443 417.874v0zM739.554 875.545h-455.111v-457.671h453.689z"></path>
<path fill="#000" d="M468.478 680.416l-23.893 61.156c-0.622 1.605-0.982 3.463-0.982 5.405 0 8.428 6.789 15.271 15.196 15.359h94.159c8.464-0.025 15.316-6.892 15.316-15.36 0-1.416-0.192-2.788-0.551-4.090l0.025 0.108-18.489-66.56c13.18-11.822 21.433-28.907 21.433-47.919 0-35.503-28.781-64.284-64.284-64.284s-64.284 28.781-64.284 64.284c0 21.239 10.3 40.072 26.177 51.777l0.177 0.124z"></path>
</svg>
