<!-- Generated by IcoMoon.io -->
<svg version="1.1" xmlns="http://www.w3.org/2000/svg" width="1024" height="1024" viewBox="0 0 1024 1024">
<title></title>
<g id="icomoon-ignore">
</g>
<path d="M757.046 349.655h-42.886c0-58.197-12.25-223.604-116.396-275.677-21.443-9.187-42.886-15.318-64.322-15.318h-52.073c-21.443 0-45.949 6.125-64.322 15.318-104.147 52.073-116.396 217.48-116.396 275.677h-33.692c-33.692 0-61.26 27.568-61.26 61.26v493.151c0 33.692 27.568 61.26 61.26 61.26h490.088c33.692 0 61.26-27.568 61.26-61.26v-493.151c0-33.692-27.568-61.26-61.26-61.26zM447.676 138.308c9.187-6.125 21.443-9.187 33.693-6.125h52.073c12.249 0 21.443 3.063 30.63 6.125 61.26 30.63 73.516 150.088 76.579 208.286h-266.484c0-55.135 15.318-177.655 73.516-208.286zM573.258 760.11v3.063c0 9.187-6.125 15.318-15.319 15.318h-101.083c-3.063 0-3.063 0-6.125 0-9.187-3.063-12.249-12.249-9.187-21.443l24.506-67.385c-3.063-3.063-6.125-6.125-12.25-9.187-24.506-27.567-24.506-73.516 6.125-98.014 27.568-24.506 73.516-24.506 98.014 6.125 24.506 27.567 24.506 73.516-6.124 98.014l21.443 73.516z"></path>
</svg>
