<svg id="Layer_2" data-name="Layer 2" xmlns="http://www.w3.org/2000/svg" viewBox="0 0 36 36"><defs><style>.cls-1{fill:#4f4f4f;}</style></defs><title>lock</title><path class="cls-1" d="M25.42,12.67H24c0-1.89-.37-7.3-3.8-9a4.74,4.74,0,0,0-2.09-.47H16.43a4.42,4.42,0,0,0-2.11.47c-3.42,1.66-3.78,7.07-3.79,9H9.47a2,2,0,0,0-2,2V30.76a2,2,0,0,0,2,2h16a2,2,0,0,0,2-2V14.67A2,2,0,0,0,25.42,12.67ZM15.35,5.86a2,2,0,0,1,1.07-.23h1.72a2.39,2.39,0,0,1,1,.23c2,1,2.42,4.93,2.45,6.82H12.9C12.93,10.78,13.39,6.81,15.35,5.86ZM9.47,14.67v0Zm16,16.09h-16V14.67H25.42Z"/><path class="cls-1" d="M15.94,23.9l-.84,2.15a.54.54,0,0,0,.5.73h3.31a.54.54,0,0,0,.52-.68l-.65-2.34a2.26,2.26,0,1,0-2.84.14Z"/></svg>