<!-- Generated by IcoMoon.io -->
<svg version="1.1" xmlns="http://www.w3.org/2000/svg" width="1024" height="1024" viewBox="0 0 1024 1024">
<title></title>
<g id="icomoon-ignore">
</g>
<path fill="#000" d="M884.338 498.347h-579.982l126.578-126.578c4.251-4.941 6.84-11.419 6.84-18.502 0-15.709-12.735-28.444-28.444-28.444-7.083 0-13.56 2.589-18.539 6.871l0.037-0.031-145.067 145.067c-12.907 12.875-20.892 30.678-20.892 50.347s7.985 37.472 20.89 50.345l145.068 145.068c4.941 4.251 11.419 6.84 18.502 6.84 15.709 0 28.444-12.735 28.444-28.444 0-7.083-2.589-13.56-6.871-18.539l0.031 0.037-126.578-127.147h579.982c15.709 0 28.444-12.735 28.444-28.444s-12.735-28.444-28.444-28.444v0z"></path>
<path fill="#000" d="M449.707 796.444h-251.733c-16.495 0-29.867-13.372-29.867-29.867v0-508.871c-0.001-0.085-0.001-0.184-0.001-0.284 0-16.495 13.372-29.867 29.867-29.867 0 0 0.001 0 0.001 0h251.733c15.709 0 28.444-12.735 28.444-28.444s-12.735-28.444-28.444-28.444v0h-251.733c-47.948 0.162-86.756 39.069-86.756 87.040 0 0 0 0 0 0v0 508.871c0.161 47.849 38.907 86.594 86.74 86.756h251.749c15.709 0 28.444-12.735 28.444-28.444s-12.735-28.444-28.444-28.444v0z"></path>
</svg>
