<!-- Generated by IcoMoon.io -->
<svg version="1.1" xmlns="http://www.w3.org/2000/svg" width="1024" height="1024" viewBox="0 0 1024 1024">
<title></title>
<g id="icomoon-ignore">
</g>
<path d="M853.333 483.556h-467.911l126.578-126.578c4.251-4.941 6.84-11.419 6.84-18.502 0-15.709-12.735-28.444-28.444-28.444-7.083 0-13.56 2.589-18.539 6.871l0.037-0.031-145.067 145.067c-12.907 12.875-20.892 30.678-20.892 50.347s7.985 37.472 20.89 50.345l145.068 145.068c5.154 5.084 12.237 8.224 20.053 8.224 15.774 0 28.562-12.787 28.562-28.562 0-7.958-3.254-15.155-8.505-20.335l-126.581-126.581h467.911c15.709 0 28.444-12.735 28.444-28.444s-12.735-28.444-28.444-28.444v0z"></path>
<path d="M770.56 745.244c-55.094 49.424-128.297 79.644-208.558 79.644-172.804 0-312.889-140.085-312.889-312.889s140.085-312.889 312.889-312.889c80.261 0 153.464 30.22 208.851 79.903l-0.293-0.259c4.828 3.9 11.040 6.26 17.803 6.26 15.709 0 28.444-12.735 28.444-28.444 0-7.897-3.218-15.042-8.414-20.196l-0.002-0.002c-65.115-58.426-151.639-94.151-246.507-94.151-204.223 0-369.778 165.555-369.778 369.778s165.555 369.778 369.778 369.778c94.868 0 181.392-35.725 246.852-94.456l-0.345 0.305c5.198-5.156 8.416-12.301 8.416-20.198 0-15.709-12.735-28.444-28.444-28.444-6.763 0-12.975 2.36-17.857 6.302l0.054-0.042z"></path>
</svg>
