<!-- Generated by IcoMoon.io -->
<svg version="1.1" xmlns="http://www.w3.org/2000/svg" width="1024" height="1024" viewBox="0 0 1024 1024">
<title></title>
<g id="icomoon-ignore">
</g>
<path d="M861.013 461.653l-145.067-145.067c-4.941-4.251-11.419-6.84-18.502-6.84-15.709 0-28.444 12.735-28.444 28.444 0 7.083 2.589 13.56 6.871 18.539l-0.031-0.037 126.578 126.862h-579.982c-15.709 0-28.444 12.735-28.444 28.444s12.735 28.444 28.444 28.444v0h579.982l-126.578 126.578c-6.102 5.248-9.943 12.978-9.943 21.605 0 15.709 12.735 28.444 28.444 28.444 8.627 0 16.357-3.841 21.573-9.905l0.031-0.037 145.067-145.067c12.822-12.861 20.749-30.607 20.749-50.204s-7.928-37.344-20.751-50.206l0.002 0.002z"></path>
<path d="M418.702 781.653h-251.733c-16.495 0-29.867-13.372-29.867-29.867v0-508.871c-0.001-0.085-0.001-0.184-0.001-0.284 0-16.495 13.372-29.867 29.867-29.867 0 0 0.001 0 0.001 0h251.733c15.709 0 28.444-12.735 28.444-28.444s-12.735-28.444-28.444-28.444v0h-251.733c-47.948 0.162-86.756 39.069-86.756 87.040 0 0 0 0 0 0v0 508.871c0.161 47.849 38.907 86.594 86.74 86.756h251.749c15.709 0 28.444-12.735 28.444-28.444s-12.735-28.444-28.444-28.444v0z"></path>
</svg>
