<svg id="Layer_2" data-name="Layer 2" xmlns="http://www.w3.org/2000/svg" viewBox="0 0 36 36"><defs><style>.cls-1{fill:#4f4f4f;}</style></defs><title>logout-alt</title><path class="cls-1" d="M30.27,16.23l-5.1-5.1a1,1,0,0,0-1.41,1.41L28.21,17H7.82a1,1,0,1,0,0,2H28.21l-4.45,4.45a1,1,0,1,0,1.41,1.41l5.1-5.1A2.5,2.5,0,0,0,30.27,16.23Z"/><path class="cls-1" d="M14.72,27.48H5.87a1.05,1.05,0,0,1-1.05-1.05V8.54A1.05,1.05,0,0,1,5.87,7.48h8.85a1,1,0,0,0,0-2H5.87A3.06,3.06,0,0,0,2.82,8.54V26.43a3.06,3.06,0,0,0,3.05,3.05h8.85a1,1,0,0,0,0-2Z"/></svg>