<!-- Generated by IcoMoon.io -->
<svg version="1.1" xmlns="http://www.w3.org/2000/svg" width="1024" height="1024" viewBox="0 0 1024 1024">
<title></title>
<g id="icomoon-ignore">
</g>
<path d="M658.489 745.244c-55.094 49.424-128.297 79.644-208.558 79.644-172.804 0-312.889-140.085-312.889-312.889s140.085-312.889 312.889-312.889c80.261 0 153.464 30.22 208.851 79.903l-0.293-0.259c5.139 5.097 12.216 8.247 20.028 8.247 15.709 0 28.444-12.735 28.444-28.444 0-8.946-4.13-16.928-10.588-22.142l-0.054-0.042c-65.115-58.426-151.639-94.151-246.507-94.151-204.223 0-369.778 165.555-369.778 369.778s165.555 369.778 369.778 369.778c94.868 0 181.392-35.725 246.852-94.456l-0.345 0.305c5.198-5.156 8.416-12.301 8.416-20.198 0-15.709-12.735-28.444-28.444-28.444-6.763 0-12.975 2.36-17.857 6.302l0.054-0.042z"></path>
<path d="M861.013 461.653l-145.067-145.067c-4.941-4.251-11.419-6.84-18.502-6.84-15.709 0-28.444 12.735-28.444 28.444 0 7.083 2.589 13.56 6.871 18.539l-0.031-0.037 126.578 126.862h-579.982c-15.709 0-28.444 12.735-28.444 28.444s12.735 28.444 28.444 28.444v0h579.982l-126.578 126.578c-6.102 5.248-9.943 12.978-9.943 21.605 0 15.709 12.735 28.444 28.444 28.444 8.627 0 16.357-3.841 21.573-9.905l0.031-0.037 145.067-145.067c12.822-12.861 20.749-30.607 20.749-50.204s-7.928-37.344-20.751-50.206l0.002 0.002z"></path>
</svg>
