<!-- Generated by IcoMoon.io -->
<svg version="1.1" xmlns="http://www.w3.org/2000/svg" width="1024" height="1024" viewBox="0 0 1024 1024">
<title></title>
<g id="icomoon-ignore">
</g>
<path d="M486.959 484.664h218.704c7.251 0 14.206 2.881 19.332 8.006s8.006 12.080 8.006 19.332-2.875 14.206-8.006 19.332c-5.125 5.125-12.080 8.006-19.332 8.006h-218.704c-7.251 0-14.206-2.881-19.332-8.006s-8.006-12.080-8.006-19.332c0-7.251 2.881-14.206 8.006-19.332s12.080-8.006 19.332-8.006z"></path>
<path d="M116.255 539.338h370.703v-54.676h-370.703v54.676z"></path>
<path d="M596.311 156.607c57.614-0.028 114.374 13.953 165.383 40.736s94.747 65.567 127.437 113.009c32.69 47.442 53.356 102.121 60.217 159.326 6.859 57.206-0.29 115.219-20.834 169.046s-53.867 101.852-97.097 139.941c-43.23 38.086-95.074 65.091-151.058 78.689-55.987 13.598-114.443 13.38-170.327-0.636-55.884-14.013-107.522-41.406-150.469-79.814-2.893-2.323-5.284-5.21-7.027-8.486s-2.8-6.876-3.108-10.571c-0.306-3.697 0.143-7.42 1.323-10.938s3.058-6.765 5.53-9.53c2.472-2.768 5.477-5.007 8.841-6.575 3.364-1.567 7.011-2.431 10.721-2.547 3.707-0.112 7.401 0.53 10.852 1.892s6.59 3.411 9.228 6.023c43.274 38.691 96.817 64.033 154.175 72.965 57.356 8.932 116.068 1.072 169.058-22.63 52.988-23.699 97.986-62.231 129.557-110.937 31.573-48.711 48.371-105.517 48.371-163.565s-16.8-114.854-48.371-163.564c-31.573-48.71-76.569-87.24-129.557-110.942s-111.703-31.561-169.058-22.628c-57.359 8.932-110.902 34.273-154.175 72.965-5.459 4.383-12.395 6.502-19.375 5.921-6.977-0.58-13.468-3.815-18.131-9.039-4.661-5.225-7.14-12.038-6.93-19.037s3.102-13.648 8.073-18.579c65.116-58.233 149.393-90.447 236.746-90.488z"></path>
<path d="M250.759 316.261c5.432-0.032 10.746 1.554 15.272 4.557s8.053 7.283 10.137 12.297c2.082 5.015 2.624 10.538 1.556 15.861s-3.697 10.208-7.553 14.032l-139.424 139.423c-1.28 1.272-2.3 2.784-2.991 4.449-0.695 1.668-1.052 3.455-1.052 5.256s0.358 3.591 1.052 5.256c0.695 1.665 1.711 3.177 2.991 4.449l139.424 139.424c4.477 5.232 6.819 11.959 6.553 18.839-0.266 6.877-3.119 13.406-7.984 18.275s-11.395 7.72-18.275 7.984c-6.879 0.265-13.606-2.078-18.837-6.553l-139.424-139.424c-6.365-6.347-11.414-13.891-14.86-22.193s-5.219-17.202-5.219-26.196c0-8.988 1.773-17.893 5.219-26.196s8.495-15.846 14.86-22.193l139.424-139.423c5.093-5.052 11.964-7.895 19.137-7.928z"></path>
</svg>
