<!-- Generated by IcoMoon.io -->
<svg version="1.1" xmlns="http://www.w3.org/2000/svg" width="1024" height="1024" viewBox="0 0 1024 1024">
<title></title>
<g id="icomoon-ignore">
</g>
<path d="M485.224 129.67c-65.88 11.623-116.807 62.443-127.819 127.415-2.023 11.719-2.122 15.36-1.714 138.328l0.301 126.206 2.626 10.611c7.783 31.123 20.719 54.36 42.24 75.883 57.797 57.797 148.029 61.637 210.882 8.888 26.272-22.029 44.253-52.44 52.037-87.806l2.323-10.611v-129.335c0-143.281 0.403-134.897-6.669-156.418-7.379-22.734-18.797-41.023-37.183-59.315-23.846-23.743-50.923-37.894-83.461-43.449-14.246-2.426-40.918-2.626-53.555-0.403zM538.477 175.853c37.792 9.9 68.203 39.609 79.114 76.997 4.548 15.866 4.646 20.211 4.346 144.494l-0.301 117.217-2.726 9.703c-3.636 13.545-7.98 23.238-14.752 33.747-20.719 32.032-55.17 51.026-92.658 51.129-13.137 0-21.724-1.213-33.147-4.749-40.318-12.631-70.226-47.186-76.997-88.818-2.218-13.641-2.218-236.041 0-249.677 4.548-28.089 20.211-53.855 43.248-71.237 13.337-10.003 31.825-17.981 49.106-21.12 2.528-0.506 11.52-0.709 19.807-0.608 12.326 0.301 16.976 0.806 24.96 2.931z"></path>
<path d="M472.495 271.133c-9.802 3.334-19.301 13.545-22.131 23.646-1.714 6.163-1.213 16.569 1.213 22.937 2.726 7.379 10.306 15.558 17.885 19.2l5.657 2.829h71.743l5.657-2.829c6.771-3.232 14.349-11.014 17.384-17.683 1.817-3.84 2.218-6.669 2.218-14.349 0-8.288-0.403-10.406-2.626-15.257-3.334-6.971-9.197-13.037-16.269-16.774l-5.357-2.829-35.366-0.205c-29.812-0.205-36.074 0-40.012 1.312z"></path>
<path d="M473.909 357.834c-9.703 3.13-18.893 11.82-22.432 21.42-1.92 4.953-2.218 7.475-1.92 14.55 0.301 7.379 0.909 9.497 3.84 14.957 3.737 7.072 8.792 11.923 16.062 15.558 4.646 2.323 5.049 2.323 41.529 2.323h36.883l5.357-2.829c7.072-3.737 12.934-9.802 16.269-16.774 2.218-4.851 2.626-6.971 2.626-15.257 0-8.384-0.301-10.306-2.829-15.257-3.232-6.771-11.014-14.349-17.683-17.384-4.548-2.122-6.163-2.218-39.103-2.426-26.272-0.205-35.366 0.103-38.597 1.114z"></path>
<path d="M474.209 442.912c-10.306 3.232-19.097 11.52-22.937 21.523-2.931 7.68-2.323 20.512 1.114 27.89 3.54 7.379 11.417 14.854 18.694 17.786 5.76 2.218 7.379 2.323 35.974 2.726 18.694 0.205 32.134-0.103 35.769-0.709 12.223-2.218 20.815-8.589 25.973-19.097 3.034-6.163 3.334-7.475 3.334-16.371 0-8.384-0.301-10.306-2.829-15.257-3.334-6.971-10.003-13.337-17.683-16.877l-5.76-2.726-33.343-0.205c-27.482-0.205-34.252 0.103-38.297 1.312z"></path>
<path d="M281.317 316.402c-7.98 2.931-14.145 9.094-16.672 16.672-0.709 1.92-1.213 9.6-1.213 17.885v14.349l-18.389 0.403c-17.786 0.301-18.694 0.403-23.546 3.034-6.875 3.54-12.934 9.802-16.371 16.774-2.426 5.049-2.829 6.971-2.829 14.854 0 7.68 0.403 10.003 2.626 14.752 3.737 7.98 9.094 13.44 16.877 17.28 6.669 3.334 6.771 3.334 24.051 3.636l17.384 0.403 0.506 49.612c0.301 45.069 0.608 50.827 2.528 61.842 7.783 43.955 25.766 83.966 52.749 117.313 23.34 28.697 57.189 54.762 90.635 69.517 19.301 8.589 43.346 15.763 62.754 18.797l7.277 1.213v70.429l-85.381 0.608-5.76 2.829c-6.971 3.437-13.235 9.497-16.774 16.371-2.426 4.548-2.726 6.163-2.726 15.66 0 9.197 0.301 11.315 2.426 15.66 3.54 7.174 11.923 15.054 18.797 17.58 5.76 2.122 5.863 2.122 126.609 1.92l120.952-0.301 5.049-2.726c6.368-3.334 14.049-11.417 16.877-17.683 1.714-3.737 2.218-6.971 2.218-13.946 0.103-7.783-0.301-9.9-2.528-14.752-3.737-7.98-9.094-13.44-16.877-17.28l-6.771-3.334-84.369-0.608v-71.135l11.417-2.218c98.52-19.097 176.020-97.003 195.824-196.835 3.232-16.269 4.044-28.997 4.646-72.952l0.608-45.575 15.763-0.403c14.55-0.301 16.166-0.506 21.42-2.931 7.98-3.737 13.44-9.094 17.28-16.877 3.034-6.060 3.334-7.577 3.334-15.866 0-7.883-0.403-9.802-2.829-14.854-3.437-6.971-9.497-13.235-16.371-16.774-4.749-2.528-5.961-2.726-21.823-3.034l-16.774-0.403-0.506-14.957c-0.403-13.74-0.709-15.462-3.232-20.614-10.611-21.724-42.643-18.694-49.612 4.646-1.312 4.548-1.517 17.58-1.517 96.293 0 57.395-0.403 94.175-1.011 99.532-5.457 43.346-23.646 81.746-53.452 112.464-59.717 61.637-149.649 77.699-227.247 40.62-51.737-24.755-91.141-73.26-104.683-128.827-5.457-22.636-5.657-26.777-5.657-125.195 0-99.628 0.205-96.797-6.060-104.478-4.953-5.961-11.117-8.992-18.995-9.497-4.243-0.205-8.186 0.205-10.611 1.114z"></path>
</svg>
