<!-- Generated by IcoMoon.io -->
<svg version="1.1" xmlns="http://www.w3.org/2000/svg" width="1024" height="1024" viewBox="0 0 1024 1024">
<title></title>
<g id="icomoon-ignore">
</g>
<path d="M512.221 398.999c33.955 0 61.481 27.526 61.481 61.481v0 145.926c0 33.955-27.526 61.481-61.481 61.481s-61.481-27.526-61.481-61.481v0-145.333c-0.002-0.176-0.003-0.384-0.003-0.593 0-33.955 27.526-61.481 61.481-61.481 0.001 0 0.002 0 0.003 0v0zM512.221 354.556c-58.501 0-105.926 47.425-105.926 105.926v0 145.926c0 58.501 47.425 105.926 105.926 105.926s105.926-47.425 105.926-105.926v0-145.333c0.001-0.176 0.002-0.384 0.002-0.593 0-58.501-47.425-105.926-105.926-105.926-0.001 0-0.001 0-0.002 0v0z"></path>
<path d="M529.702 569.962h-35.704c-12.273 0-22.222 9.949-22.222 22.222s9.949 22.222 22.222 22.222v0h35.704c12.273 0 22.222-9.949 22.222-22.222s-9.949-22.222-22.222-22.222v0z"></path>
<path d="M529.702 511.74h-35.704c-12.273 0-22.222 9.949-22.222 22.222s9.949 22.222 22.222 22.222v0h35.704c12.273 0 22.222-9.949 22.222-22.222s-9.949-22.222-22.222-22.222v0z"></path>
<path d="M529.702 453.518h-35.704c-12.273 0-22.222 9.949-22.222 22.222s9.949 22.222 22.222 22.222v0h35.704c12.273 0 22.222-9.949 22.222-22.222s-9.949-22.222-22.222-22.222v0z"></path>
<path d="M266.741 539.74c0 16.363 13.266 29.629 29.629 29.629v0h35.704c2.649-0.034 5.195-0.41 7.616-1.086l-0.208 0.050v45.926c0.359 85.355 62.515 156.086 144.022 169.785l1.015 0.141v64c-0.056 0.687-0.090 1.489-0.090 2.296s0.032 1.608 0.096 2.401l-0.006-0.104h-46.371c-16.363 0-29.629 13.266-29.629 29.629s13.266 29.629 29.629 29.629v0h151.704c16.363 0 29.629-13.266 29.629-29.629s-13.266-29.629-29.629-29.629v0h-46.519c0.056-0.687 0.090-1.489 0.090-2.296s-0.032-1.608-0.096-2.401l0.006 0.104v-64c80.829-15.481 141.094-85.578 141.185-169.767v-45.936c2.212 0.626 4.758 1.003 7.387 1.036h35.724c16.363 0 29.629-13.266 29.629-29.629s-13.266-29.629-29.629-29.629v0h-35.259c-2.649 0.034-5.195 0.41-7.616 1.086l0.208-0.050v-10.222c0-12.273-9.949-22.222-22.222-22.222s-22.222 9.949-22.222 22.222v0 113.333c0 70.856-57.44 128.295-128.295 128.295s-128.295-57.44-128.295-128.295v0-113.481c0-12.273-9.949-22.222-22.222-22.222s-22.222 9.949-22.222 22.222v0 10.222c-2.212-0.626-4.758-1.003-7.387-1.036h-35.724c-16.363 0-29.629 13.266-29.629 29.629v0z"></path>
<path d="M590.739 337.074c12.265-0.011 22.203-9.956 22.203-22.222 0-6.131-2.483-11.683-6.499-15.704v0c-24.13-24.137-57.47-39.068-94.295-39.068s-70.165 14.93-94.295 39.068v0c-3.696 3.957-5.965 9.289-5.965 15.149 0 12.273 9.949 22.222 22.222 22.222 5.86 0 11.192-2.269 15.162-5.976l-0.012 0.011c16.090-16.106 38.325-26.070 62.888-26.070s46.8 9.964 62.888 26.069l0.001 0.001c4.018 4.023 9.57 6.512 15.703 6.519h0.001z"></path>
<path d="M632.665 284.778c12.265-0.011 22.203-9.956 22.203-22.222 0-6.131-2.483-11.683-6.499-15.704v0c-34.849-34.831-82.982-56.374-136.147-56.374s-101.299 21.543-136.148 56.374l0.001-0.001c-3.696 3.957-5.965 9.289-5.965 15.149 0 12.273 9.949 22.222 22.222 22.222 5.86 0 11.192-2.269 15.162-5.976l-0.012 0.011c26.808-26.8 63.838-43.376 104.74-43.376s77.933 16.576 104.741 43.376v0c4.018 4.023 9.57 6.512 15.703 6.519h0.001z"></path>
<path d="M695.48 232.333c12.265-0.011 22.203-9.956 22.203-22.222 0-6.131-2.483-11.683-6.499-15.704v0c-50.937-50.937-121.308-82.443-199.037-82.443s-148.098 31.506-199.037 82.443v0c-3.696 3.957-5.965 9.289-5.965 15.149 0 12.273 9.949 22.222 22.222 22.222 5.86 0 11.192-2.269 15.162-5.976l-0.012 0.011c42.897-42.906 102.164-69.446 167.629-69.446s124.732 26.538 167.629 69.446v0c4.018 4.023 9.57 6.512 15.703 6.519h0.001z"></path>
</svg>
