<svg id="Layer_2" data-name="Layer 2" xmlns="http://www.w3.org/2000/svg" viewBox="0 0 36 36"><defs><style>.cls-1{fill:#4f4f4f;}</style></defs><title>sound</title><path class="cls-1" d="M27,6H9.15A3.06,3.06,0,0,0,6.1,9.05V26.95A3.06,3.06,0,0,0,9.15,30H27a3.06,3.06,0,0,0,3.05-3.05V9.05A3.06,3.06,0,0,0,27,6ZM28.1,26.95A1.05,1.05,0,0,1,27,28H9.15A1.05,1.05,0,0,1,8.1,26.95V9.05A1.05,1.05,0,0,1,9.15,8H27A1.05,1.05,0,0,1,28.1,9.05Z"/><path class="cls-1" d="M15.13,21.32a3.18,3.18,0,0,0-1.12-.1,3.55,3.55,0,0,0-1.4.37,2,2,0,0,0-1.14,2.29c.42,1.56,3,1.79,3.82.53a2.45,2.45,0,0,0,.37-1,3.64,3.64,0,0,0,0-.41v-.19s0-.05,0-.08,0-.17,0-.26V16.94l6-2.47v4.7a3.29,3.29,0,0,0-1.09-.09,3.55,3.55,0,0,0-1.4.37,2,2,0,0,0-1.14,2.29c.42,1.56,3,1.79,3.82.53a2.45,2.45,0,0,0,.37-1,3.92,3.92,0,0,0,0-.68v-.05h0v-9l-7.26,2.95Z"/></svg>