<!-- Generated by IcoMoon.io -->
<svg version="1.1" xmlns="http://www.w3.org/2000/svg" width="1024" height="1024" viewBox="0 0 1024 1024">
<title></title>
<g id="icomoon-ignore">
</g>
<path d="M782.222 227.556h-440.889c-15.709 0-28.444 12.735-28.444 28.444v0 56.889h-71.111c-15.709 0-28.444 12.735-28.444 28.444v0 365.653c0 49.406 40.052 89.458 89.458 89.458v0h438.329c38.377-0.081 69.466-31.17 69.547-69.539v-470.906c0-15.709-12.735-28.444-28.444-28.444v0zM270.222 369.778h42.667v330.098c0.001 0.126 0.002 0.274 0.002 0.422 0 15.244-7.995 28.621-20.020 36.167l-0.178 0.104-1.28 0.711c-12.414-4.723-21.093-16.482-21.191-30.281v-0.012zM753.778 726.898c0 6.991-5.667 12.658-12.658 12.658v0h-379.591c5.213-11.689 8.249-25.329 8.249-39.679 0 0 0-0.001 0-0.001v0-415.431h384z"></path>
<path d="M426.667 711.111h270.222c15.709 0 28.444-12.735 28.444-28.444s-12.735-28.444-28.444-28.444v0h-270.222c-15.709 0-28.444 12.735-28.444 28.444s12.735 28.444 28.444 28.444v0z"></path>
<path d="M426.667 625.778h270.222c15.709 0 28.444-12.735 28.444-28.444s-12.735-28.444-28.444-28.444v0h-270.222c-15.709 0-28.444 12.735-28.444 28.444s12.735 28.444 28.444 28.444v0z"></path>
<path d="M597.333 512h113.778c15.709 0 28.444-12.735 28.444-28.444s-12.735-28.444-28.444-28.444v0h-113.778c-15.709 0-28.444 12.735-28.444 28.444s12.735 28.444 28.444 28.444v0z"></path>
<path d="M597.333 426.667h113.778c15.709 0 28.444-12.735 28.444-28.444s-12.735-28.444-28.444-28.444v0h-113.778c-15.709 0-28.444 12.735-28.444 28.444s12.735 28.444 28.444 28.444v0z"></path>
<path d="M398.222 369.778h128v142.222h-128v-142.222z"></path>
</svg>
