<!-- Generated by IcoMoon.io -->
<svg version="1.1" xmlns="http://www.w3.org/2000/svg" width="1024" height="1024" viewBox="0 0 1024 1024">
<title></title>
<g id="icomoon-ignore">
</g>
<path d="M873.421 131.557h-589.689c-21.013 0-38.044 17.031-38.044 38.044v0 76.089h-95.111c-21.013 0-38.044 17.031-38.044 38.044v0 489.061c0 66.080 53.57 119.65 119.65 119.65v0h586.265c51.331-0.111 92.908-41.688 93.019-93.011v-629.834c0-21.013-17.031-38.044-38.044-38.044v0zM188.621 321.779h57.067v441.506c0.001 0.168 0.002 0.364 0.002 0.566 0 20.386-10.695 38.281-26.776 48.371l-0.238 0.14-1.712 0.951c-16.602-6.319-28.209-22.044-28.343-40.499v-0.018zM835.377 799.427c0 9.349-7.581 16.93-16.93 16.93v0h-507.703c6.971-15.637 11.033-33.879 11.033-53.071 0 0 0-0.001 0-0.001v0-555.639h513.6z"></path>
<path d="M397.866 778.312h361.422c21.013 0 38.044-17.031 38.044-38.044s-17.031-38.044-38.044-38.044v0h-361.422c-21.013 0-38.044 17.031-38.044 38.044s17.031 38.044 38.044 38.044v0z"></path>
<path d="M397.866 664.179h361.422c21.013 0 38.044-17.031 38.044-38.044s-17.031-38.044-38.044-38.044v0h-361.422c-21.013 0-38.044 17.031-38.044 38.044s17.031 38.044 38.044 38.044v0z"></path>
<path d="M626.132 512.001h152.178c21.013 0 38.044-17.031 38.044-38.044s-17.031-38.044-38.044-38.044v0h-152.178c-21.013 0-38.044 17.031-38.044 38.044s17.031 38.044 38.044 38.044v0z"></path>
<path d="M626.132 397.868h152.178c21.013 0 38.044-17.031 38.044-38.044s-17.031-38.044-38.044-38.044v0h-152.178c-21.013 0-38.044 17.031-38.044 38.044s17.031 38.044 38.044 38.044v0z"></path>
<path d="M359.821 321.779h171.2v190.222h-171.2v-190.222z"></path>
</svg>
