<!-- Generated by IcoMoon.io -->
<svg version="1.1" xmlns="http://www.w3.org/2000/svg" width="1024" height="1024" viewBox="0 0 1024 1024">
<title></title>
<g id="icomoon-ignore">
</g>
<path fill="#000" d="M505.026 514.791l-304.924 56.889c-5.063 1.002-9.385 3.654-12.488 7.362l-0.028 0.034c-3.138 3.652-5.066 8.422-5.12 13.642v271.655c-0.001 0.064-0.001 0.14-0.001 0.216 0 7.913 4.308 14.819 10.706 18.502l0.103 0.055c3.101 1.821 6.829 2.896 10.809 2.896s7.708-1.075 10.911-2.951l-0.102 0.055 615.822-350.436c3.33-1.939 6.026-4.634 7.909-7.862l0.055-0.103c1.797-3.060 2.858-6.739 2.858-10.667s-1.061-7.607-2.913-10.767l0.055 0.101c-1.939-3.33-4.634-6.026-7.862-7.909l-0.103-0.055-614.116-354.987c-2.926-1.577-6.404-2.504-10.098-2.504-7.703 0-14.465 4.029-18.294 10.094l-0.053 0.089c-1.789 3.054-2.845 6.726-2.845 10.644 0 0.058 0 0.116 0.001 0.174v-0.009 272.213c0 0.038 0 0.083 0 0.128 0 5.151 1.826 9.876 4.865 13.562l-0.029-0.036c3.13 3.742 7.453 6.394 12.378 7.373l0.138 0.023z"></path>
</svg>
