<?xml version="1.0" encoding="UTF-8" standalone="no"?>
<!-- Generated by IcoMoon.io -->

<svg
   xmlns:dc="http://purl.org/dc/elements/1.1/"
   xmlns:cc="http://creativecommons.org/ns#"
   xmlns:rdf="http://www.w3.org/1999/02/22-rdf-syntax-ns#"
   xmlns:svg="http://www.w3.org/2000/svg"
   xmlns="http://www.w3.org/2000/svg"
   xmlns:sodipodi="http://sodipodi.sourceforge.net/DTD/sodipodi-0.dtd"
   xmlns:inkscape="http://www.inkscape.org/namespaces/inkscape"
   version="1.1"
   width="1024"
   height="1024"
   viewBox="0 0 1024 1024"
   id="svg7"
   sodipodi:docname="paper-clip.svg"
   inkscape:version="0.92.4 (f8dce91, 2019-08-02)">
  <metadata
     id="metadata13">
    <rdf:RDF>
      <cc:Work
         rdf:about="">
        <dc:format>image/svg+xml</dc:format>
        <dc:type
           rdf:resource="http://purl.org/dc/dcmitype/StillImage" />
      </cc:Work>
    </rdf:RDF>
  </metadata>
  <defs
     id="defs11" />
  <sodipodi:namedview
     pagecolor="#ffffff"
     bordercolor="#666666"
     borderopacity="1"
     objecttolerance="10"
     gridtolerance="10"
     guidetolerance="10"
     inkscape:pageopacity="0"
     inkscape:pageshadow="2"
     inkscape:window-width="1366"
     inkscape:window-height="692"
     id="namedview9"
     showgrid="false"
     inkscape:zoom="0.23046875"
     inkscape:cx="47.728814"
     inkscape:cy="512"
     inkscape:window-x="0"
     inkscape:window-y="0"
     inkscape:window-maximized="1"
     inkscape:current-layer="svg7" />
  <title
     id="title2" />
  <g
     id="icomoon-ignore" />
  <path
     style="color:#000000;font-style:normal;font-variant:normal;font-weight:normal;font-stretch:normal;font-size:medium;line-height:normal;font-family:sans-serif;font-variant-ligatures:normal;font-variant-position:normal;font-variant-caps:normal;font-variant-numeric:normal;font-variant-alternates:normal;font-feature-settings:normal;text-indent:0;text-align:start;text-decoration:none;text-decoration-line:none;text-decoration-style:solid;text-decoration-color:#000000;letter-spacing:normal;word-spacing:normal;text-transform:none;writing-mode:lr-tb;direction:ltr;text-orientation:mixed;dominant-baseline:auto;baseline-shift:baseline;text-anchor:start;white-space:normal;shape-padding:0;clip-rule:nonzero;display:inline;overflow:visible;visibility:visible;opacity:1;isolation:auto;mix-blend-mode:normal;color-interpolation:sRGB;color-interpolation-filters:linearRGB;solid-color:#000000;solid-opacity:1;vector-effect:none;fill:#000000;fill-opacity:1;fill-rule:nonzero;stroke:none;stroke-width:73.14289856;stroke-linecap:round;stroke-linejoin:miter;stroke-miterlimit:10;stroke-dasharray:none;stroke-dashoffset:0;stroke-opacity:1;color-rendering:auto;image-rendering:auto;shape-rendering:auto;text-rendering:auto;enable-background:accumulate"
     d="m 344.48242,125.95508 c -36.5849,-2e-5 -73.1707,14.21473 -100.17187,42.64453 l -25.14844,26.48047 c -53.99831,56.85823 -53.99855,148.60391 0.002,205.45898 l 291.01563,306.39453 c 39.52022,41.61117 106.91916,41.60677 146.44531,0.002 l 0.004,-0.002 0.002,-0.002 c 39.51856,-41.61171 39.5177,-107.10636 0,-148.71875 l -0.002,-0.002 L 376.38867,263.16016 A 36.575106,36.575106 0 1 0 323.35352,313.5332 L 603.5957,608.58203 c 10.77585,11.34991 10.775,36.62994 0,47.97852 -10.78753,11.35247 -29.60546,11.34808 -40.38086,0.002 h -0.002 L 272.19727,350.16797 c -25.0355,-26.35893 -25.03575,-78.35498 0.002,-104.71875 l 25.14844,-26.48047 c 25.038,-26.36038 69.23366,-26.35922 94.26953,0.002 l 0.0645,0.0684 351.38672,366.17774 c 37.77141,42.86071 37.10303,108.61876 0.64844,146.99609 h -0.002 l -60.39453,63.58789 c -40.54614,39.66226 -98.00136,39.11137 -134.46875,0.71875 L 282.98242,516.59961 a 36.575106,36.575106 0 1 0 -53.03515,50.37305 l 265.86914,279.91796 h 0.002 c 64.07388,67.45846 171.75185,66.95599 238.9707,0.89844 l 0.44922,-0.4414 61.50977,-64.75977 0.002,-0.002 c 64.07407,-67.45573 63.45698,-175.51603 0.84766,-246.14258 L 797.11914,535.9043 444.65234,168.59961 C 417.6516,140.16954 381.06732,125.95509 344.48242,125.95508 Z"
     id="path5"
     inkscape:connector-curvature="0" />
</svg>
