<!-- Generated by IcoMoon.io -->
<svg version="1.1" xmlns="http://www.w3.org/2000/svg" width="1024" height="1024" viewBox="0 0 1024 1024">
<title></title>
<g id="icomoon-ignore">
</g>
<path d="M650.936 904.534c-18.674-0.008-36.408-4.029-52.387-11.242l0.806 0.323c-35.652-15.949-77.272-25.241-121.053-25.241s-85.401 9.292-122.983 26.006l1.931-0.765c-15.036 6.755-32.588 10.695-51.063 10.695-70.288 0-127.27-56.982-127.27-127.27 0-25.425 7.458-49.115 20.307-68.99l-0.3 0.497 101.664-159.082c38.106-58.839 103.433-97.226 177.722-97.226s139.616 38.387 177.224 96.4l0.498 0.826 101.099 158.898c12.569 19.317 20.047 42.958 20.047 68.344 0 31.493-11.506 60.297-30.543 82.436l0.142-0.168c-23.078 27.579-57.359 45.119-95.753 45.559l-0.075 0.001zM478.296 792.89c54.518 0.048 106.294 11.756 152.972 32.769l-2.36-0.952c6.183 2.818 13.412 4.46 21.021 4.46 15.751 0 29.859-7.036 39.354-18.131l0.057-0.071c7.753-8.975 12.479-20.755 12.479-33.637 0-10.453-3.111-20.184-8.457-28.309l0.121 0.195-101.664-158.707c-24.513-37.822-66.514-62.487-114.277-62.487s-89.764 24.665-113.956 61.956l-0.321 0.531-101.664 158.707c-4.808 7.727-7.656 17.104-7.656 27.152 0 28.699 23.262 51.961 51.961 51.961 7.036 0 13.742-1.398 19.865-3.93l-0.344 0.126c44.34-19.991 96.128-31.632 150.636-31.632 0.786 0 1.571 0.002 2.355 0.005h-0.121z"></path>
<path d="M173.494 530.64c-48.303-2.607-88.584-34.257-103.858-77.692l-0.249-0.815c-23.157-60.057 0-125.006 52.152-144.965 9.686-3.627 20.875-5.722 32.556-5.722 17.238 0 33.406 4.567 47.357 12.56l-0.467-0.246c39.159 22.912 65.045 64.765 65.045 112.662 0 14.303-2.308 28.066-6.573 40.94l0.265-0.916c-8.692 26.059-27.726 46.632-52.106 57.186l-0.61 0.238h-1.884c-9.321 4.005-20.145 6.471-31.508 6.774l-0.119 0.002zM139.608 425.024c8.47 21.838 27.11 33.512 37.654 29.559v0c5.124-2.691 8.932-7.294 10.505-12.84l0.033-0.147c1.449-4.693 2.284-10.090 2.284-15.682 0-19.085-9.722-35.896-24.487-45.754l-0.199-0.125c-3.083-2.042-6.865-3.261-10.934-3.261-2.010 0-3.949 0.296-5.781 0.852l0.143-0.040c-11.293 3.388-17.511 24.661-9.035 46.879z"></path>
<path d="M409.014 398.853c-66.458 0-120.488-62.69-120.488-139.693s54.030-139.693 120.488-139.693 120.488 62.69 120.488 139.693-54.785 139.693-120.488 139.693zM409.014 194.776c-24.477 0-45.185 29.559-45.185 64.384s20.708 64.384 45.185 64.384 45.185-29.369 45.185-64.384-20.708-64.574-45.185-64.574z"></path>
<path d="M681.814 442.909c-0.048 0-0.104 0-0.165 0-10.721 0-21.023-1.792-30.621-5.095l0.662 0.198c-56.479-18.824-85.663-88.296-63.819-154.38v0c10.043-31.818 30.477-57.926 57.242-74.976l0.556-0.327c15.532-10.569 34.706-16.874 55.348-16.874 43.173 0 79.903 27.574 93.544 66.069l0.216 0.692c5.912 14.714 9.343 31.77 9.343 49.629 0 15.941-2.73 31.238-7.753 45.46l0.294-0.956c-15.031 50.987-60.286 88.022-114.566 90.547l-0.276 0.008zM700.638 268.385c-6.127 0.276-11.749 2.207-16.503 5.347l0.122-0.075c-12.037 7.856-21.018 19.526-25.298 33.265l-0.118 0.436c-9.415 28.614 0 54.22 16.001 59.302s38.784-9.225 48.383-37.654c2.363-6.273 3.734-13.518 3.734-21.083s-1.371-14.816-3.875-21.511l0.141 0.422c-2.629-7.779-8.337-13.914-15.63-17.059l-0.18-0.071c-1.594-0.642-3.441-1.108-5.371-1.308l-0.091-0.006z"></path>
<path d="M842.964 655.081c-0.244 0.002-0.534 0.003-0.818 0.003-20.367 0-39.184-6.643-54.406-17.879l0.249 0.176c-44.621-32.947-49.703-101.854-12.048-153.625 21.584-30.328 56.173-50.191 95.456-51.393l0.181-0.003c0.244-0.002 0.533-0.003 0.816-0.003 20.309 0 39.062 6.644 54.214 17.877l-0.246-0.174c44.621 33.137 49.893 102.038 11.674 153.625v0c-16.505 22.789-39.884 39.699-67.066 47.775l-0.902 0.227c-7.94 2.155-17.050 3.39-26.45 3.39-0.229 0-0.464-0.001-0.693-0.002h0.033zM872.149 507.667c-14.738 1.302-27.386 9.221-35.101 20.728l-0.105 0.17c-14.123 18.824-13.742 41.233-3.953 48.383 3.095 1.861 6.829 2.962 10.823 2.962 2.388 0 4.688-0.394 6.836-1.123l-0.149 0.045c11.362-3.53 20.804-10.472 27.38-19.609l0.105-0.154c14.123-18.824 13.742-41.233 4.143-48.383-2.632-1.889-5.921-3.019-9.475-3.019-0.175 0-0.35 0.002-0.524 0.006h0.025z"></path>
</svg>
