<!-- Generated by IcoMoon.io -->
<svg version="1.1" xmlns="http://www.w3.org/2000/svg" width="1024" height="1024" viewBox="0 0 1024 1024">
<title></title>
<g id="icomoon-ignore">
</g>
<path fill="#000" d="M616.957 808.533c-14.108-0.008-27.504-3.045-39.577-8.494l0.608 0.245c-26.934-12.049-58.372-19.067-91.449-19.067s-64.515 7.018-92.905 19.646l1.457-0.579c-11.358 5.105-24.62 8.079-38.577 8.079-53.098 0-96.142-43.044-96.142-96.142 0-19.209 5.634-37.103 15.339-52.118l-0.228 0.377 76.8-120.178c28.788-44.451 78.137-73.448 134.258-73.448s105.47 28.997 133.88 72.826l0.378 0.622 76.373 120.036c9.497 14.595 15.145 32.452 15.145 51.628 0 23.789-8.692 45.549-23.073 62.276l0.106-0.126c-17.432 20.835-43.331 34.085-72.335 34.417l-0.057 0.001zM486.539 724.195c41.186 0.036 80.296 8.882 115.562 24.753l-1.784-0.718c4.671 2.128 10.13 3.368 15.879 3.368 11.899 0 22.557-5.314 29.73-13.697l0.045-0.053c5.857-6.779 9.425-15.679 9.425-25.411 0-7.897-2.349-15.246-6.387-21.385l0.091 0.147-76.8-119.893c-18.519-28.57-50.248-47.205-86.329-47.205s-67.81 18.635-86.086 46.806l-0.243 0.399-76.8 119.893c-3.632 5.837-5.784 12.922-5.784 20.51 0 21.679 17.574 39.253 39.253 39.253 5.314 0 10.382-1.056 15.005-2.97l-0.26 0.096c33.498-15.101 72.62-23.898 113.796-23.898 0.594 0 1.187 0.002 1.779 0.005h-0.091z"></path>
<path fill="#000" d="M256.281 526.079c-36.489-1.971-66.918-25.881-78.46-58.69l-0.189-0.617c-17.493-45.369 0-94.436 39.396-109.511 7.316-2.739 15.769-4.324 24.594-4.324 13.020 0 25.234 3.451 35.777 9.488l-0.353-0.186c29.583 17.308 49.139 48.925 49.139 85.11 0 10.805-1.744 21.202-4.965 30.926l0.199-0.694c-6.568 19.687-20.946 35.226-39.362 43.2l-0.46 0.178h-1.422c-7.041 3.027-15.219 4.887-23.804 5.118l-0.089 0.002zM230.681 446.293c6.4 16.498 20.48 25.316 28.444 22.329v0c3.87-2.031 6.748-5.512 7.937-9.702l0.027-0.111c1.095-3.547 1.726-7.624 1.726-11.848 0-14.417-7.346-27.118-18.499-34.564l-0.151-0.095c-2.327-1.544-5.185-2.463-8.258-2.463-1.518 0-2.983 0.224-4.365 0.642l0.107-0.028c-8.533 2.56-13.227 18.631-6.827 35.413z"></path>
<path fill="#000" d="M434.201 426.524c-50.204 0-91.022-47.36-91.022-105.529s40.818-105.529 91.022-105.529 91.022 47.36 91.022 105.529-41.387 105.529-91.022 105.529zM434.201 272.355c-18.489 0-34.133 22.329-34.133 48.64s15.644 48.64 34.133 48.64 34.133-22.187 34.133-48.64-15.644-48.782-34.133-48.782z"></path>
<path fill="#000" d="M640.281 459.804c-0.036 0-0.080 0-0.123 0-8.099 0-15.881-1.354-23.133-3.847l0.5 0.15c-42.667-14.222-64.711-66.702-48.213-116.622v0c7.589-24.036 23.025-43.76 43.244-56.64l0.418-0.249c11.734-7.983 26.216-12.746 41.812-12.746 32.613 0 60.361 20.83 70.666 49.911l0.162 0.524c4.466 11.114 7.057 24 7.057 37.491 0 12.041-2.064 23.6-5.857 34.342l0.222-0.722c-11.353 38.519-45.544 66.494-86.546 68.401l-0.21 0.008zM654.503 327.964c-4.627 0.21-8.875 1.667-12.465 4.039l0.092-0.057c-9.091 5.936-15.876 14.75-19.112 25.129l-0.088 0.328c-7.111 21.618 0 40.96 12.089 44.8s29.298-6.969 36.551-28.444c1.787-4.737 2.822-10.212 2.822-15.929s-1.035-11.192-2.927-16.249l0.105 0.32c-1.987-5.877-6.297-10.512-11.808-12.889l-0.138-0.053c-1.204-0.486-2.601-0.838-4.057-0.99l-0.067-0.006z"></path>
<path fill="#000" d="M762.023 620.088c-0.184 0.002-0.402 0.003-0.62 0.003-15.387 0-29.602-5.017-41.098-13.505l0.189 0.134c-33.707-24.889-37.547-76.942-9.102-116.053 16.304-22.912 42.433-37.915 72.11-38.823l0.139-0.003c0.184-0.002 0.401-0.003 0.618-0.003 15.341 0 29.51 5.018 40.954 13.503l-0.186-0.132c33.707 25.031 37.689 77.084 8.818 116.053v0c-12.467 17.215-30.128 29.991-50.662 36.093l-0.68 0.173c-5.996 1.627-12.88 2.562-19.982 2.562-0.175 0-0.35-0.001-0.525-0.002h0.027zM784.068 508.728c-11.132 0.984-20.69 6.965-26.515 15.658l-0.081 0.128c-10.667 14.222-10.382 31.147-2.987 36.551 2.339 1.405 5.161 2.236 8.177 2.236 1.806 0 3.542-0.298 5.162-0.847l-0.113 0.033c8.584-2.666 15.716-7.91 20.684-14.815l0.081-0.118c10.667-14.222 10.382-31.147 3.129-36.551-1.99-1.427-4.475-2.281-7.159-2.281-0.133 0-0.266 0.002-0.398 0.006h0.019z"></path>
</svg>
