<!-- Generated by IcoMoon.io -->
<svg version="1.1" xmlns="http://www.w3.org/2000/svg" width="1024" height="1024" viewBox="0 0 1024 1024">
<title></title>
<g id="icomoon-ignore">
</g>
<path d="M884.338 245.191l-94.151-94.151c-6.89-6.855-16.39-11.092-26.88-11.092s-19.99 4.237-26.882 11.094l-557.794 558.078c-5.287 5.255-9.028 12.059-10.487 19.674l-0.038 0.237-14.507 77.938c-0.65 3.434-1.023 7.383-1.023 11.42 0 35.503 28.781 64.284 64.284 64.284 3.777 0 7.479-0.326 11.077-0.951l-0.384 0.055 78.222-14.791c7.745-1.553 14.443-5.284 19.623-10.521l0.003-0.003 558.933-557.511c6.855-6.89 11.092-16.39 11.092-26.88s-4.237-19.99-11.094-26.882l0.002 0.002zM634.311 333.653l67.413 67.413-362.667 362.951-67.413-67.413zM218.169 824.889c-0.991 0.526-2.166 0.835-3.413 0.835s-2.423-0.309-3.454-0.854l0.040 0.019c-1.322-1.292-2.142-3.094-2.142-5.087 0-0.515 0.055-1.018 0.159-1.502l-0.008 0.047 13.653-72.249 8.249-8.249 67.413 67.413-8.249 8.249zM742.116 360.96l-67.413-67.413 88.747-88.747 67.413 67.413z"></path>
</svg>
