<svg id="Layer_2" data-name="Layer 2" xmlns="http://www.w3.org/2000/svg" viewBox="0 0 36 36"><defs><style>.cls-1{fill:#4f4f4f;}</style></defs><title>edit</title><path class="cls-1" d="M31.09,8.62,27.78,5.31a1.34,1.34,0,0,0-1.89,0L6.28,24.93a1.33,1.33,0,0,0-.37.7L5.4,28.37A2.26,2.26,0,0,0,8,31l2.75-.52h0a1.33,1.33,0,0,0,.69-.37L31.09,10.51A1.34,1.34,0,0,0,31.09,8.62Zm-8.79,3.11,2.37,2.37L11.92,26.86,9.55,24.49ZM7.67,29A.26.26,0,0,1,7.43,29a.25.25,0,0,1-.07-.23l.48-2.54.29-.29,2.37,2.37-.29.29ZM26.09,12.69l-2.37-2.37L26.84,7.2l2.37,2.37Z"/></svg>