<svg id="Layer_2" data-name="Layer 2" xmlns="http://www.w3.org/2000/svg" viewBox="0 0 36 36"><defs><style>.cls-1{fill:#4f4f4f;}</style></defs><title>suport alt</title><path class="cls-1" d="M10.23,22.4a6.25,6.25,0,1,0,0-12.49,6.25,6.25,0,1,0,0,12.49Zm0-10.49a4.25,4.25,0,1,1,0,8.49,4.25,4.25,0,1,1,0-8.49Z"/><path class="cls-1" d="M19.55,26.49a8.38,8.38,0,0,0-.63-1.93A4.76,4.76,0,0,0,16,22a2.29,2.29,0,0,0-1-.07,2.65,2.65,0,0,0-1.27.71,5.66,5.66,0,0,1-3.57,1.29h0a5.89,5.89,0,0,1-3.6-1.26l-.09-.07A3.65,3.65,0,0,0,5.65,22a2,2,0,0,0-.52-.15,2.53,2.53,0,0,0-1.76.45,7.06,7.06,0,0,0-2.88,5,2.09,2.09,0,0,0,0,.83,2,2,0,0,0,.48.87,12.32,12.32,0,0,0,9.29,4.33h.51A11.74,11.74,0,0,0,17,31.21,11.06,11.06,0,0,0,19.34,29a1.73,1.73,0,0,0,.45-.82,1.64,1.64,0,0,0-.07-.75C19.67,27.11,19.61,26.79,19.55,26.49ZM17.7,27.82a8.79,8.79,0,0,1-1.84,1.77,9.71,9.71,0,0,1-5.17,1.8h-.28A10.38,10.38,0,0,1,2.5,27.76l0,0v0a5.31,5.31,0,0,1,2-3.67c.25-.16.37-.16.39-.16h0l.41-.91-.4.92a2.19,2.19,0,0,1,.38.27l.1.08a7.82,7.82,0,0,0,4.84,1.69h0a7.74,7.74,0,0,0,4.92-1.81l.25-.21h0l.14,0a2.78,2.78,0,0,1,1.62,1.53,6.53,6.53,0,0,1,.48,1.48c.06.28.11.56.16.84Z"/><path class="cls-1" d="M34.48,17c0-.29-.1-.59-.17-.88a7.49,7.49,0,0,0-.56-1.7,3.77,3.77,0,0,0-2.24-2.06,1.32,1.32,0,0,0-.58-.05,1.83,1.83,0,0,0-.8.49,6.64,6.64,0,0,1-4.21,1.52,6.85,6.85,0,0,1-4.23-1.47,3.33,3.33,0,0,0-.7-.48,1,1,0,0,0-.27-.08,1.58,1.58,0,0,0-1.07.3A6.18,6.18,0,0,0,17.22,17a1.17,1.17,0,0,0,0,.45,1.13,1.13,0,0,0,.27.46,11.38,11.38,0,0,0,8.68,4h.31a10.7,10.7,0,0,0,5.71-2,9.84,9.84,0,0,0,2-2c.1-.13.28-.29.31-.45A1.44,1.44,0,0,0,34.48,17Z"/><ellipse class="cls-1" cx="25.87" cy="8.32" rx="4.83" ry="4.71"/></svg>