<!-- Generated by IcoMoon.io -->
<svg version="1.1" xmlns="http://www.w3.org/2000/svg" width="1024" height="1024" viewBox="0 0 1024 1024">
<title></title>
<g id="icomoon-ignore">
</g>
<path d="M290.987 637.156c2.121 0.091 4.609 0.142 7.11 0.142 98.184 0 177.778-79.594 177.778-177.778s-79.594-177.778-177.778-177.778c-2.5 0-4.989 0.052-7.464 0.154l0.354-0.012c-2.121-0.091-4.609-0.142-7.11-0.142-98.184 0-177.778 79.594-177.778 177.778s79.594 177.778 177.778 177.778c2.5 0 4.989-0.052 7.464-0.154l-0.354 0.012zM290.987 338.773c1.75-0.091 3.8-0.142 5.862-0.142 66.765 0 120.889 54.124 120.889 120.889s-54.124 120.889-120.889 120.889c-2.062 0-4.112-0.052-6.149-0.154l0.286 0.011c-1.75 0.091-3.8 0.142-5.862 0.142-66.765 0-120.889-54.124-120.889-120.889s54.124-120.889 120.889-120.889c2.062 0 4.112 0.052 6.149 0.154l-0.286-0.011z"></path>
<path d="M556.089 753.493c-4.143-20.737-10.337-39.109-18.538-56.34l0.618 1.442c-16.269-34.808-45.89-61.088-82.099-72.556l-0.959-0.262c-5.585-1.732-12.006-2.73-18.66-2.73-3.453 0-6.843 0.269-10.151 0.786l0.367-0.047c-14.233 3.431-26.485 10.51-36.121 20.193l-0.003 0.003c-27.392 22.679-62.837 36.502-101.505 36.693h-0.042c-38.842-0.279-74.489-13.732-102.75-36.107l0.35 0.267-2.56-1.991c-6.748-6.566-14.416-12.239-22.78-16.795l-0.544-0.271c-4.288-1.952-9.267-3.443-14.478-4.228l-0.314-0.039c-2.519-0.313-5.435-0.491-8.393-0.491-15.625 0-30.087 4.98-41.885 13.439l0.216-0.147c-45.135 32.992-75.765 83.515-81.846 141.351l-0.074 0.871c-0.753 3.549-1.184 7.626-1.184 11.804s0.431 8.256 1.251 12.19l-0.067-0.386c2.551 9.665 7.294 18.003 13.68 24.775l-0.026-0.028c64.141 74.957 158.579 122.385 264.114 123.164l0.135 0.001h14.507c66.693-3.018 127.675-25.15 178.247-61.001l-1.038 0.698c25.498-17.992 47.422-38.742 66.064-62.215l0.496-0.647c6.141-6.258 10.626-14.162 12.733-22.99l0.067-0.335c0.285-1.937 0.448-4.173 0.448-6.447 0-5.327-0.893-10.445-2.537-15.214l0.098 0.328c-1.422-9.102-3.129-18.204-4.836-26.738zM503.467 791.324c-15.046 19.307-32.289 35.917-51.599 49.84l-0.739 0.507c-40.996 29.619-91.587 48.385-146.395 51.173l-0.663 0.027h-7.964c-0.206 0.001-0.451 0.001-0.695 0.001-89.571 0-169.826-39.885-223.973-102.864l-0.328-0.39c4.141-42.507 25.344-79.378 56.576-104.152l0.312-0.239c7.111-4.551 10.524-4.551 11.093-4.551v0l11.662-25.884-11.378 26.169c4.095 2.318 7.635 4.861 10.873 7.736l-0.064-0.056 2.844 2.276c37.448 29.869 85.436 47.964 137.647 48.071h0.024c53.478-0.388 102.353-19.783 140.277-51.756l-0.331 0.272 7.111-5.973h3.982c20.889 7.644 37.309 23.23 45.883 43.008l0.197 0.512c5.755 12.099 10.474 26.187 13.452 40.906l0.201 1.191c1.707 7.964 3.129 15.929 4.551 23.893z"></path>
<path d="M980.764 483.556c0-8.249-2.844-16.782-4.836-25.031-3.736-18.286-9.237-34.46-16.482-49.642l0.553 1.286c-12.249-27.563-34.962-48.607-62.963-58.367l-0.752-0.228c-3.405-1.123-7.324-1.771-11.394-1.771-1.8 0-3.57 0.127-5.303 0.372l0.199-0.023c-8.991 2.739-16.661 7.56-22.737 13.918l-0.019 0.020c-32.272 26.801-74.095 43.108-119.723 43.235h-0.028c-45.624-0.069-87.558-15.808-120.723-42.122l0.403 0.308c-5.788-5.186-12.326-9.727-19.387-13.405l-0.524-0.249c-2.227-1.048-4.812-1.843-7.522-2.256l-0.158-0.020c-1.156-0.106-2.501-0.166-3.86-0.166-9.998 0-19.233 3.264-26.698 8.786l0.122-0.086c-38.719 29.504-64.667 74.059-69.074 124.78l-0.046 0.66c-0.395 1.924-0.621 4.136-0.621 6.4s0.226 4.476 0.657 6.613l-0.036-0.213c1.57 5.117 4.216 9.508 7.688 13.093l-0.008-0.008c59.738 69.813 147.936 113.778 246.402 113.778 0.174 0 0.349 0 0.523 0h8.791c61.305-3.176 117.181-24.023 163.298-57.498l-0.88 0.609c21.776-16.363 40.526-35.113 56.373-56.172l0.516-0.716c2.844-3.698 7.964-8.249 8.818-12.8 0.179-1.437 0.281-3.099 0.281-4.786 0-2.938-0.309-5.804-0.897-8.567l0.048 0.268z"></path>
<path d="M873.244 236.658c0 73.991-61.51 133.973-137.387 133.973s-137.387-59.982-137.387-133.973c0-73.991 61.51-133.973 137.387-133.973s137.387 59.982 137.387 133.973z"></path>
</svg>
