<!-- Generated by IcoMoon.io -->
<svg version="1.1" xmlns="http://www.w3.org/2000/svg" width="1024" height="1024" viewBox="0 0 1024 1024">
<title></title>
<g id="icomoon-ignore">
</g>
<path d="M379.876 863.716c-0.767 0.074-1.659 0.115-2.56 0.115s-1.793-0.042-2.673-0.124l0.113 0.008c-8.452-1.69-15.425-6.936-19.41-14.078l-0.074-0.144-41.244-71.111-2.987 1.28-1.849 0.711c-5.413 2.162-11.687 3.415-18.254 3.415-27.884 0-50.489-22.605-50.489-50.489 0-7.143 1.483-13.939 4.158-20.097l-0.126 0.326 1.564-3.413-71.111-41.244c-8.58-5.005-14.254-14.166-14.254-24.652 0-6.859 2.428-13.151 6.471-18.064l-0.039 0.049c7.275-8.714 18.141-14.219 30.293-14.222h15.929c30.717 0.088 60.034 5.979 86.945 16.634l-1.611-0.562 16.782-21.76 1.138-1.28 154.169-176.356-173.084-99.556c-8.542-5.014-14.187-14.155-14.187-24.613 0-6.246 2.013-12.021 5.426-16.713l-0.057 0.082c11.28-15.46 29.276-25.434 49.609-25.6h21.359c75.802 0.022 146.867 20.288 208.087 55.684l-2.007-1.071 2.133 0.996 42.667-48.64c31.376-34.169 76.161-55.596 125.955-55.893h0.054c8.651 0.023 17.127 0.695 25.403 1.968l-0.941-0.119 12.516 1.707c17.297 2.533 30.816 16.003 33.395 33.062l0.027 0.218 1.849 12.942c1.086 7.232 1.706 15.577 1.706 24.068 0 49.454-21.035 93.996-54.645 125.165l-0.109 0.1-49.209 42.667 0.996 2.276c34.346 59.027 54.62 129.912 54.62 205.531 0 0.843-0.003 1.685-0.008 2.527l0.001-0.13v20.196c-0.117 20.371-10.106 38.385-25.422 49.513l-0.178 0.123c-4.61 3.356-10.386 5.369-16.631 5.369-10.459 0-19.599-5.644-24.54-14.053l-0.073-0.134-99.556-173.227-178.062 155.164-21.476 17.067c10.092 25.3 15.983 54.616 16.071 85.298v16.107c0.002 0.146 0.003 0.317 0.003 0.489 0 12.178-5.506 23.070-14.164 30.323l-0.062 0.050c-4.798 3.817-10.946 6.125-17.633 6.125-0.251 0-0.501-0.003-0.751-0.010l0.037 0.001zM307.769 713.529l-3.129 5.831 5.689-3.129c4.212-2.602 9.318-4.144 14.785-4.144 2.272 0 4.482 0.266 6.6 0.77l-0.193-0.039h1.422c0.853-7.951 4.87-14.827 10.747-19.438l0.062-0.047 16.213-12.658 0.996-0.711 21.191-16.498 201.813-175.929c4.909-4.145 11.308-6.665 18.296-6.665 10.291 0 19.305 5.465 24.3 13.651l0.071 0.125 76.089 131.84c-5.644-52.696-21.942-100.584-46.708-142.914l0.912 1.688-0.427-1.707-10.382-22.756c-1.641-3.485-2.598-7.569-2.598-11.877 0-8.518 3.745-16.162 9.677-21.375l0.032-0.028 64.569-56.889c22.207-20.817 36.043-50.334 36.043-83.083 0-5.812-0.436-11.523-1.277-17.1l0.078 0.627c-4.19-0.554-9.034-0.871-13.952-0.871-0.695 0-1.389 0.006-2.081 0.019l0.104-0.001c-33.067 0.105-62.826 14.177-83.704 36.623l-0.065 0.070-55.609 63.858c-5.239 5.937-12.865 9.663-21.362 9.663-4.269 0-8.318-0.94-11.951-2.625l0.176 0.073-23.751-10.24-2.418-1.28c-40.252-23.545-87.615-39.761-138.156-45.501l-1.648-0.152 131.698 76.089c8.311 5.065 13.776 14.080 13.776 24.371 0 6.988-2.52 13.387-6.7 18.338l0.035-0.042-176.782 201.956-16.498 21.191-0.853 1.138-12.658 16.213c-4.627 5.908-11.445 9.916-19.212 10.797l-0.13 0.012c0.686 2.327 1.080 5 1.080 7.765 0 4.579-1.082 8.905-3.004 12.736l0.074-0.164z"></path>
</svg>
