<!-- Generated by IcoMoon.io -->
<svg version="1.1" xmlns="http://www.w3.org/2000/svg" width="1024" height="1024" viewBox="0 0 1024 1024">
<title></title>
<g id="icomoon-ignore">
</g>
<path d="M385.38 901.116c-0.919 0.090-1.987 0.139-3.064 0.139s-2.145-0.050-3.197-0.148l0.137 0.008c-10.116-2.022-18.461-8.3-23.23-16.85l-0.090-0.172-49.36-85.103-3.575 1.532-2.213 0.851c-6.477 2.586-13.987 4.087-21.846 4.087-33.372 0-60.425-27.053-60.425-60.425 0-8.547 1.775-16.683 4.978-24.053l-0.15 0.39 1.872-4.085-85.103-49.36c-10.268-5.989-17.058-16.954-17.058-29.504 0-8.207 2.904-15.739 7.743-21.62l-0.047 0.057c8.707-10.43 21.709-17.015 36.253-17.022h19.065c36.761 0.104 71.846 7.155 104.053 19.906l-1.927-0.674 20.086-26.040 1.362-1.532 184.505-211.057-207.143-119.144c-10.222-6.002-16.979-16.939-16.979-29.457 0-7.474 2.409-14.385 6.494-20.001l-0.069 0.098c13.5-18.504 35.036-30.438 59.369-30.636h25.563c90.718 0.026 175.767 24.28 249.031 66.64l-2.403-1.283 2.553 1.192 51.063-58.212c37.548-40.893 91.149-66.536 150.739-66.893h0.066c10.355 0.027 20.499 0.831 30.403 2.356l-1.125-0.143 14.98 2.043c20.701 3.033 36.88 19.151 39.967 39.566l0.031 0.262 2.213 15.49c1.298 8.656 2.042 18.641 2.042 28.804 0 59.186-25.175 112.492-65.397 149.793l-0.129 0.12-58.893 51.063 1.192 2.724c41.106 70.643 65.368 155.476 65.368 245.975 0 1.007-0.003 2.017-0.008 3.023l0.001-0.154v24.172c-0.141 24.379-12.094 45.937-30.426 59.257l-0.214 0.147c-5.518 4.016-12.43 6.425-19.903 6.425-12.519 0-23.455-6.756-29.368-16.817l-0.089-0.162-119.144-207.316-213.098 185.696-25.7 20.427c12.076 30.28 19.127 65.364 19.235 102.082v19.275c0.002 0.174 0.003 0.381 0.003 0.585 0 14.574-6.59 27.61-16.952 36.291l-0.074 0.058c-5.742 4.569-13.098 7.329-21.101 7.329-0.299 0-0.601-0.003-0.899-0.010l0.045 0.001zM299.085 721.377l-3.745 6.979 6.809-3.745c5.040-3.114 11.15-4.96 17.693-4.96 2.72 0 5.362 0.318 7.9 0.922l-0.229-0.047h1.702c1.021-9.515 5.83-17.743 12.863-23.262l0.074-0.055 19.405-15.15 1.192-0.851 25.359-19.746 241.525-210.546c5.873-4.961 13.532-7.977 21.896-7.977 12.315 0 23.105 6.541 29.080 16.339l0.083 0.149 91.061 157.784c-6.756-63.064-26.258-120.376-55.9-171.034l1.092 2.020-0.511-2.043-12.426-27.232c-1.965-4.169-3.11-9.057-3.11-14.213 0-10.194 4.481-19.342 11.581-25.583l0.040-0.032 77.273-68.085c26.575-24.913 43.135-60.238 43.135-99.431 0-6.956-0.52-13.791-1.529-20.464l0.094 0.751c-5.014-0.662-10.81-1.043-16.696-1.043-0.831 0-1.661 0.006-2.489 0.023l0.124-0.001c-39.575 0.125-75.19 16.965-100.176 43.831l-0.077 0.082-66.553 76.422c-6.271 7.105-15.397 11.563-25.566 11.563-5.109 0-9.954-1.124-14.303-3.141l0.212 0.089-28.423-12.256-2.894-1.532c-48.172-28.177-104.855-47.585-165.34-54.453l-1.972-0.18 157.614 91.061c9.947 6.061 16.488 16.852 16.488 29.167 0 8.364-3.016 16.023-8.020 21.946l0.043-0.050-211.566 241.696-19.746 25.359-1.021 1.362-15.15 19.405c-5.539 7.072-13.697 11.868-22.992 12.921l-0.154 0.016c0.822 2.783 1.292 5.984 1.292 9.293 0 5.479-1.294 10.657-3.596 15.244l0.090-0.196z"></path>
</svg>
