<!-- Generated by IcoMoon.io -->
<svg version="1.1" xmlns="http://www.w3.org/2000/svg" width="1024" height="1024" viewBox="0 0 1024 1024">
<title></title>
<g id="icomoon-ignore">
</g>
<path d="M739.556 483.556h-199.111v-199.111c0-15.709-12.735-28.444-28.444-28.444s-28.444 12.735-28.444 28.444v0 199.111h-199.111c-15.709 0-28.444 12.735-28.444 28.444s12.735 28.444 28.444 28.444v0h199.111v199.111c0 15.709 12.735 28.444 28.444 28.444s28.444-12.735 28.444-28.444v0-199.111h199.111c15.709 0 28.444-12.735 28.444-28.444s-12.735-28.444-28.444-28.444v0z"></path>
<path d="M512 142.222c-204.223 0-369.778 165.555-369.778 369.778s165.555 369.778 369.778 369.778c204.223 0 369.778-165.555 369.778-369.778v0c0-204.223-165.555-369.778-369.778-369.778v0zM512 824.889c-172.804 0-312.889-140.085-312.889-312.889s140.085-312.889 312.889-312.889c172.804 0 312.889 140.085 312.889 312.889v0c0 172.804-140.085 312.889-312.889 312.889v0z"></path>
</svg>
