<!-- Generated by IcoMoon.io -->
<svg version="1.1" xmlns="http://www.w3.org/2000/svg" width="1024" height="1024" viewBox="0 0 1024 1024">
<title></title>
<g id="icomoon-ignore">
</g>
<path d="M512 881.778c-204.223 0-369.778-165.555-369.778-369.778s165.555-369.778 369.778-369.778c204.223 0 369.778 165.555 369.778 369.778v0c0 204.223-165.555 369.778-369.778 369.778v0zM512 199.111c-172.804 0-312.889 140.085-312.889 312.889s140.085 312.889 312.889 312.889c172.804 0 312.889-140.085 312.889-312.889v0c0-172.804-140.085-312.889-312.889-312.889v0z"></path>
<path d="M402.489 343.893c6.347-5.561 13.306-10.893 20.605-15.757l0.729-0.457c7.177-4.825 15.404-9.301 24.046-12.995l0.985-0.374c8.055-3.493 17.568-6.532 27.427-8.636l1.018-0.182c10.035-2.174 21.563-3.419 33.382-3.419 0.464 0 0.928 0.002 1.391 0.006h-0.071c0.412-0.004 0.899-0.007 1.387-0.007 15.564 0 30.544 2.5 44.56 7.12l-1.005-0.287c13.377 4.383 24.934 10.984 34.841 19.458l-0.139-0.116c9.54 8.304 17.154 18.562 22.257 30.173l0.215 0.547c4.689 11.042 7.414 23.883 7.414 37.362 0 0.665-0.007 1.329-0.020 1.99l0.002-0.099c0.018 0.707 0.028 1.54 0.028 2.375 0 12.628-2.305 24.717-6.517 35.871l0.232-0.699c-4.013 10.876-9.3 20.285-15.823 28.684l0.179-0.24c-6.133 7.588-12.951 14.226-20.479 19.986l-0.286 0.21-21.333 15.929c-6.283 4.764-11.851 9.61-17.076 14.8l0.009-0.009c-4.581 4.234-7.759 9.925-8.796 16.334l-0.022 0.163-6.542 41.529h-47.787l-4.836-46.364c-0.274-1.703-0.43-3.666-0.43-5.665 0-6.464 1.634-12.547 4.51-17.858l-0.098 0.198c4.023-7.153 8.948-13.256 14.724-18.429l0.068-0.059c6.144-5.575 12.823-10.9 19.831-15.785l0.649-0.428c7.962-5.489 14.923-11.096 21.445-17.169l-0.111 0.103c6.394-5.967 11.87-12.802 16.27-20.342l0.228-0.423c4.323-7.547 6.873-16.589 6.873-26.226 0-0.78-0.017-1.556-0.050-2.329l0.004 0.11c0.006-0.259 0.009-0.565 0.009-0.871 0-6.279-1.365-12.238-3.815-17.598l0.108 0.265c-2.582-5.5-6.132-10.142-10.472-13.893l-0.052-0.044c-4.653-3.847-10.152-6.863-16.159-8.727l-0.339-0.090c-5.96-1.986-12.823-3.131-19.952-3.131-0.186 0-0.371 0.001-0.556 0.002h0.028c-0.741-0.021-1.612-0.034-2.486-0.034-9.252 0-18.186 1.363-26.611 3.9l0.653-0.169c-7.316 2.231-13.629 4.936-19.573 8.226l0.516-0.262-13.084 7.964c-2.664 2.076-5.988 3.424-9.612 3.694l-0.059 0.004c-0.304 0.021-0.658 0.034-1.015 0.034-6.009 0-11.212-3.451-13.736-8.478l-0.040-0.088zM455.111 679.253c0.032-6.065 1.284-11.828 3.523-17.070l-0.109 0.288c2.198-5.321 5.277-9.86 9.099-13.651l0.003-0.003c7.852-7.738 18.638-12.516 30.541-12.516 0.063 0 0.126 0 0.189 0h-0.010c0.069 0 0.152-0.001 0.234-0.001 5.982 0 11.671 1.256 16.816 3.519l-0.268-0.105c5.287 2.296 9.81 5.361 13.663 9.112l-0.010-0.010c3.915 3.792 7.083 8.328 9.282 13.383l0.105 0.27c2.605 5.358 4.127 11.655 4.127 18.307 0 11.863-4.842 22.596-12.657 30.329l-0.004 0.004c-3.823 3.776-8.353 6.846-13.372 8.995l-0.282 0.107c-4.816 1.982-10.407 3.132-16.266 3.132-0.182 0-0.363-0.001-0.544-0.003h0.028c-0.188 0.003-0.411 0.004-0.634 0.004-5.917 0-11.565-1.151-16.733-3.24l0.3 0.107c-5.321-2.198-9.86-5.277-13.651-9.099l-0.003-0.003c-3.786-3.725-6.858-8.164-8.998-13.1l-0.104-0.269c-2.64-5.407-4.208-11.758-4.267-18.469v-0.020z"></path>
</svg>
