<svg id="Layer_2" data-name="Layer 2" xmlns="http://www.w3.org/2000/svg" viewBox="0 0 36 36"><defs><style>.cls-1{fill:#4f4f4f;}</style></defs><title>help</title><path class="cls-1" d="M18,31A13,13,0,1,1,31,18,13,13,0,0,1,18,31ZM18,7A11,11,0,1,0,29,18,11,11,0,0,0,18,7Z"/><path class="cls-1" d="M14.15,12.09a7,7,0,0,1,.75-.57,5.31,5.31,0,0,1,.88-.47,5.46,5.46,0,0,1,1-.31A5.79,5.79,0,0,1,18,10.62a5,5,0,0,1,1.58.24,3.57,3.57,0,0,1,1.22.68,3,3,0,0,1,.79,1.08A3.44,3.44,0,0,1,21.85,14a3.57,3.57,0,0,1-.22,1.32,3.72,3.72,0,0,1-.55,1,4.18,4.18,0,0,1-.73.71l-.75.56a5.85,5.85,0,0,0-.6.52,1,1,0,0,0-.31.58l-.23,1.46H16.78l-.17-1.63a1.32,1.32,0,0,1,.14-.82,2.5,2.5,0,0,1,.52-.65,7,7,0,0,1,.72-.57,6.49,6.49,0,0,0,.75-.6,3.13,3.13,0,0,0,.58-.73,1.88,1.88,0,0,0,.24-1,1.49,1.49,0,0,0-.13-.64,1.45,1.45,0,0,0-.37-.49,1.68,1.68,0,0,0-.58-.31,2.29,2.29,0,0,0-.72-.11,3.24,3.24,0,0,0-1,.13,3.53,3.53,0,0,0-.67.28l-.46.28a.63.63,0,0,1-.34.13.54.54,0,0,1-.52-.3ZM16,23.88a1.55,1.55,0,0,1,.12-.59,1.44,1.44,0,0,1,.32-.48,1.53,1.53,0,0,1,1.08-.44,1.47,1.47,0,0,1,.59.12,1.58,1.58,0,0,1,.48.32,1.47,1.47,0,0,1,.33.48A1.5,1.5,0,0,1,18.62,25a1.52,1.52,0,0,1-.48.32,1.54,1.54,0,0,1-.59.11,1.57,1.57,0,0,1-.6-.11,1.44,1.44,0,0,1-.48-.32,1.46,1.46,0,0,1-.32-.47A1.54,1.54,0,0,1,16,23.88Z"/></svg>