<!-- Generated by IcoMoon.io -->
<svg version="1.1" xmlns="http://www.w3.org/2000/svg" width="1024" height="1024" viewBox="0 0 1024 1024">
<title></title>
<g id="icomoon-ignore">
</g>
<path d="M810.934 115.912c-15.709 0-28.444 12.735-28.444 28.444v0 102.684c-62.124-48.947-141.514-78.507-227.808-78.507-204.223 0-369.778 165.555-369.778 369.778s165.555 369.778 369.778 369.778c0.089 0 0.178 0 0.267 0h-0.014c15.709 0 28.444-12.735 28.444-28.444s-12.735-28.444-28.444-28.444v0c-172.614-0.25-312.449-140.239-312.449-312.889 0-172.804 140.085-312.889 312.889-312.889 67.387 0 129.799 21.303 180.868 57.542l-0.97-0.653h-91.022c-15.709 0-28.444 12.735-28.444 28.444s12.735 28.444 28.444 28.444v0h137.956c31.419 0 56.889-25.47 56.889-56.889v0-137.956c0 0 0-0.001 0-0.001 0-15.609-12.573-28.282-28.145-28.443h-0.015z"></path>
</svg>
