<!-- Generated by IcoMoon.io -->
<svg version="1.1" xmlns="http://www.w3.org/2000/svg" width="1024" height="1024" viewBox="0 0 1024 1024">
<title></title>
<g id="icomoon-ignore">
</g>
<path fill="#000" d="M872.895 364.516c-12.582-12.562-29.952-20.331-49.138-20.331s-36.556 7.769-49.139 20.332l-50.346 50.346v-36.836c-0.081-35.942-29.196-65.057-65.13-65.138h-40.399c-35.942 0.081-65.057 29.196-65.138 65.13v40.257c0.079 16.953 6.665 32.352 17.386 43.842l-0.035-0.038h-121.6c10.686-11.453 17.272-26.852 17.351-43.789v-40.265c-0.081-35.992-29.277-65.138-65.28-65.138 0 0 0 0 0 0h-40.249c-35.942 0.081-65.057 29.196-65.138 65.13v36.844l-50.489-50.489c-12.093-10.434-27.961-16.788-45.313-16.788-38.41 0-69.547 31.137-69.547 69.547 0 16.535 5.771 31.723 15.408 43.658l-0.103-0.132 136.391 147.769v74.24c0 15.709 12.735 28.444 28.444 28.444s28.444-12.735 28.444-28.444v0-85.333c0-0.016 0-0.036 0-0.055 0-7.452-2.866-14.235-7.555-19.306l0.017 0.019-143.929-156.444c-1.812-2.174-2.911-4.997-2.911-8.076 0-6.991 5.667-12.658 12.658-12.658 3.257 0 6.226 1.23 8.469 3.251l-0.011-0.010 105.813 106.667c5.126 5.156 12.212 8.357 20.047 8.391h356.843c7.841-0.034 14.928-3.235 20.052-8.39l106.099-106.099c2.232-2.011 5.201-3.241 8.458-3.241 6.991 0 12.658 5.667 12.658 12.658 0 3.079-1.1 5.902-2.928 8.097l0.017-0.020-143.929 156.444c-4.56 4.929-7.401 11.507-7.537 18.746v85.36c0 15.709 12.735 28.444 28.444 28.444s28.444-12.735 28.444-28.444v0-74.24l136.391-147.769c11.418-12.313 18.423-28.858 18.423-47.039 0-19.19-7.804-36.557-20.411-49.1l-0.003-0.003zM610.495 378.027c0-4.556 3.693-8.249 8.249-8.249v0h40.249c4.556 0 8.249 3.693 8.249 8.249v0 40.249c0 4.556-3.693 8.249-8.249 8.249v0h-40.249c-4.556 0-8.249-3.693-8.249-8.249v0zM352.788 378.027c0-4.556 3.693-8.249 8.249-8.249v0h40.391c4.556 0 8.249 3.693 8.249 8.249v0 40.249c0 4.556-3.693 8.249-8.249 8.249v0h-40.249c-4.556 0-8.249-3.693-8.249-8.249v0z"></path>
<path fill="#000" d="M567.828 554.667h-115.484c-15.709 0-28.444 12.735-28.444 28.444v0 99.556c0 15.709 12.735 28.444 28.444 28.444s28.444-12.735 28.444-28.444v0-71.111h58.596v71.111c0 15.709 12.735 28.444 28.444 28.444s28.444-12.735 28.444-28.444v0-99.556c0-15.709-12.735-28.444-28.444-28.444v0z"></path>
</svg>
