<!-- Generated by IcoMoon.io -->
<svg version="1.1" xmlns="http://www.w3.org/2000/svg" width="1024" height="1024" viewBox="0 0 1024 1024">
<title></title>
<g id="icomoon-ignore">
</g>
<path d="M616.413 202.097c-11.849 4.128-20.008 11.938-25.22 24.136-1.616 3.765-1.701 7.264-2.159 57.883l-0.448 53.848-8.522 0.631c-57.431 4.304-116.128 22.168-165.125 50.342-94.497 54.29-162.79 148.252-191.145 262.851-8.886 36.165-13.281 69.367-14.084 106.157-0.448 21.269-0.362 24.861 0.993 29.62 4.759 16.148 15.794 28.092 30.957 33.289 12.746 4.304 25.13 3.593 37.333-2.24 8.522-4.128 14.275-8.978 19.205-16.243 6.727-10.224 7.357-12.834 8.705-40.293 1.432-28.453 3.681-48.098 7.988-69.73 20.546-101.587 78.788-183.16 160.807-224.881 29.429-15.078 59.316-24.498 93.148-29.429 6.914-0.993 14.275-1.797 16.339-1.797h3.765l0.267 52.679c0.267 52.321 0.267 52.762 2.24 57.704 2.695 6.458 7.721 13.014 13.281 17.235 13.014 9.874 32.486 10.497 46.034 1.616 3.135-2.064 34.646-33.020 82.381-80.852 89.564-89.833 81.483-79.866 80.947-99.523-0.448-18.402 6.727-9.874-84.082-100.593-89.833-89.833-82.381-83.547-98.796-83.995-7.809-0.267-10.319 0-14.811 1.616z"></path>
</svg>
