<!-- Generated by IcoMoon.io -->
<svg version="1.1" xmlns="http://www.w3.org/2000/svg" width="1024" height="1024" viewBox="0 0 1024 1024">
<title></title>
<g id="icomoon-ignore">
</g>
<path d="M737.28 741.547l-203.662-203.662c-10.393-10.311-16.828-24.6-16.828-40.391s6.434-30.080 16.824-40.387l203.951-203.951c10.283-10.224 24.457-16.543 40.107-16.543 31.335 0 56.753 25.334 56.888 56.637v408.191c0 0.013 0 0.029 0 0.045 0 31.419-25.47 56.889-56.889 56.889-15.791 0-30.080-6.434-40.387-16.824l-0.004-0.004z"></path>
<path d="M409.884 741.547l-203.662-203.662c-10.393-10.311-16.828-24.6-16.828-40.391s6.434-30.080 16.824-40.387l203.951-203.951c10.283-10.224 24.457-16.543 40.107-16.543 31.335 0 56.753 25.334 56.888 56.637v408.191c0 0.013 0 0.029 0 0.045 0 31.419-25.47 56.889-56.889 56.889-15.791 0-30.080-6.434-40.387-16.824l-0.004-0.004z"></path>
</svg>
