<svg xmlns="http://www.w3.org/2000/svg" viewBox="0 0 51 51"><defs><style>.a{fill:#979797;}.b{fill:#4f4f4f;}.c{fill:#f7f6f5;}.d{fill:#0a92cd;}</style></defs><title>rocket-color</title><path class="a" d="M47.81,7.05l0-.24a4.32,4.32,0,0,0-.73-2.46,4.41,4.41,0,0,0-2.5-.71h-.25c-2.19-.35-8.44-.57-11,1.9L21.77,16.92l-5.15-3.39-3.08,2.13c-4.43.61-7.57,4.48-7.7,4.71l-.14.16A11.44,11.44,0,0,0,4.32,22L1.2,24.17,11.63,31l.06,0,.42.44-1.2,1.18a1.64,1.64,0,0,0-.43.55,1.59,1.59,0,0,0,0,1.35,1.64,1.64,0,0,0,.43.55l.77.76-2.25.49-.2,6.56,9.52-2.07,3.94,3.13,1.25-1a8.14,8.14,0,0,1,2.34,4.63,1.86,1.86,0,0,0,.08.41,11.56,11.56,0,0,0,4.21-2.85l.16-.14c.3-.23,6.5-5.17,4.43-11.39l.11-.1-.2-.16a10.23,10.23,0,0,0-1-2l-.82-1.24,2.64-2.4,9.94-9.79C48.37,15.35,48.12,9.17,47.81,7.05Z"/><path class="b" d="M50.78,6.69a7.47,7.47,0,0,0-1.72-4.75A7.44,7.44,0,0,0,44.34.21C43,0,34.85-.86,30.84,3.17L20.53,13.52C13.21,9.73,6.46,14.73,3.74,18.17,2.31,19.62-.74,23.12.17,25.83A3.51,3.51,0,0,0,3.43,28a4.7,4.7,0,0,1,1.75.54,4.81,4.81,0,0,1,1.4,1.18L8,31.25a4.83,4.83,0,0,0,.27,5.15l-5,11.54L14.76,43a4.72,4.72,0,0,0,2,.78,4.63,4.63,0,0,0,2.15-.23,5.9,5.9,0,0,0,.82-.34l1.46,1.34h.11a4.63,4.63,0,0,1,1.16,1.37A4.46,4.46,0,0,1,23,47.62a3.6,3.6,0,0,0,.67,2,3.52,3.52,0,0,0,1.64,1.26,3.39,3.39,0,0,0,1.05.17c2.49,0,5.32-2.49,6.58-3.76,3.44-2.73,8.37-9.48,4.64-16.82L47.91,20.07C51.86,16.22,51,8.07,50.78,6.69Zm-15,20.83-2.58,2.4.8,1.23c4.62,7.18-2.91,13.29-3.24,13.55l-.15.14a11.31,11.31,0,0,1-4.09,2.81,2.71,2.71,0,0,1-.09-.41,8.07,8.07,0,0,0-2.9-5.18l-3-2.78-.41.4a.43.43,0,0,1-.6,0,.41.41,0,0,1,0-.54l-.74.71a1.62,1.62,0,0,1-.55.42,1.58,1.58,0,0,1-1.89-.42L15.46,39,9.84,41.44l2.41-5.65-.86-.88a1.57,1.57,0,0,1-.57-1.22A1.56,1.56,0,0,1,11,33a1.58,1.58,0,0,1,.42-.54l1.17-1.18L9.12,27.64a8.08,8.08,0,0,0-5.26-3l-.34-.12a11.11,11.11,0,0,1,2.8-4.1l.21-.16C6.78,20,12.83,12.37,20,17l1.17.76L33.27,5.56C35.74,3.08,41.86,3.3,44,3.61h.24a4.32,4.32,0,0,1,2.44.71,4.29,4.29,0,0,1,.7,2.44V7c.31,2.14.55,8.23-1.94,10.74Z"/><path class="b" d="M13.31,20.68,9.66,24.34l2.43,2.44,3.65-3.66Z"/><path class="b" d="M27.89,35.34,24.25,39l2.43,2.44,3.64-3.66Z"/><path class="b" d="M45.68,13.89a.32.32,0,1,0-.31-.32A.31.31,0,0,0,45.68,13.89Z"/><path class="b" d="M22.69,18.51a.83.83,0,0,0-.2-.3.79.79,0,0,0-.31-.2.89.89,0,0,0-.36-.07.92.92,0,0,0-.51.15.87.87,0,0,0-.35.41.91.91,0,0,0-.05.54.94.94,0,0,0,.24.45h0v.17a.62.62,0,0,0,.2.35.59.59,0,0,0,.38.14.59.59,0,0,0,.57-.49h0a.93.93,0,0,0,.35-.33.9.9,0,0,0,.14-.48A.94.94,0,0,0,22.69,18.51Zm-.82,1.28a.87.87,0,0,1-.39-.07.81.81,0,0,1-.31-.21h0a.77.77,0,0,0,.28.19.84.84,0,0,0,.35.07.8.8,0,0,0,.43-.12.56.56,0,0,0-.17-.4.64.64,0,0,0-.16-.11.63.63,0,0,1,.2.13.58.58,0,0,1,.17.41A.8.8,0,0,1,21.87,19.79Z"/><path class="b" d="M38,20.65a.92.92,0,0,0-.33,0,6.88,6.88,0,0,0-8.39-7.29,6.78,6.78,0,0,0-2.86,1.43,6.92,6.92,0,0,0-1.52,8.81l-9.16,9.21a1.62,1.62,0,0,0-.42.55,1.53,1.53,0,0,0-.17.69,1.87,1.87,0,0,0,.11.7,1.79,1.79,0,0,0,.39.59,1.54,1.54,0,0,0,.59.38,1.62,1.62,0,0,0,.69.12,1.75,1.75,0,0,0,.68-.17,1.79,1.79,0,0,0,.56-.43l9.14-9.18a6.86,6.86,0,0,0,8.57-1.13,6.82,6.82,0,0,0,1.57-2.67.92.92,0,0,0,.82.2,1,1,0,0,0,.38-.21.87.87,0,0,0,.25-.35.91.91,0,0,0,.05-.43.84.84,0,0,0-.14-.41,1,1,0,0,0-.32-.29.89.89,0,0,0-.42-.12Zm-4.73,2a3.41,3.41,0,0,1-1.76.94,3.36,3.36,0,0,1-2-.19A3.44,3.44,0,0,1,28,22.16a3.45,3.45,0,0,1,0-3.83,3.36,3.36,0,0,1,1.54-1.27,3.45,3.45,0,0,1,2-.2,3.41,3.41,0,0,1,1.76.94A3.54,3.54,0,0,1,34,18.93a3.33,3.33,0,0,1,.25,1.32,3.43,3.43,0,0,1-1,2.44Z"/><path class="c" d="M30.38,19.21a.88.88,0,0,0-.11-1.76.88.88,0,0,0-.82.94A.87.87,0,0,0,30.38,19.21Z"/><path class="d" d="M30.84,16.79a3.43,3.43,0,0,0-3.38,2.76,3.44,3.44,0,0,0,6.22,2.62,3.42,3.42,0,0,0,.57-2.26,3.42,3.42,0,0,0-3.41-3.12Zm-.46,2.41a.8.8,0,0,1-.5-.11,1,1,0,0,1-.35-.37.91.91,0,0,1-.09-.51.89.89,0,0,1,.22-.47.88.88,0,0,1,.43-.27.92.92,0,0,1,.52,0,.86.86,0,0,1,.41.3.93.93,0,0,1,.17.49.87.87,0,0,1-.81.91Zm1,4.3a.22.22,0,0,1-.13,0,.24.24,0,0,1-.09-.11.22.22,0,0,1,0-.14.23.23,0,0,1,.06-.12.23.23,0,0,1,.27-.05.2.2,0,0,1,.1.08.23.23,0,0,1,0,.14.17.17,0,0,1,0,.1.22.22,0,0,1-.05.08.24.24,0,0,1-.08.06l-.1,0Zm.42-.48a.33.33,0,0,1-.14,0,.31.31,0,0,1-.09-.11.33.33,0,0,1,0-.14.24.24,0,0,1,.07-.13.23.23,0,0,1,.12-.06.23.23,0,0,1,.14,0,.31.31,0,0,1,.11.09.33.33,0,0,1,0,.14.15.15,0,0,1,0,.09A.2.2,0,0,1,32,23L31.9,23a.15.15,0,0,1-.09,0Zm-.42.5a.24.24,0,0,0,.24-.24.24.24,0,0,0-.24-.25.25.25,0,0,0,0,.49Zm.42-.49a.24.24,0,0,0,.24-.24.24.24,0,0,0-.24-.24.24.24,0,0,0-.24.24A.23.23,0,0,0,31.81,23Z"/><path class="b" d="M28.89,30.68a.51.51,0,0,0-.34-.13.51.51,0,0,0-.33.13l-8.79,8.39h0l0,0-.54.51.48-.44h0l-.29.4a.61.61,0,0,0-.1.33.58.58,0,0,0,.1.32.38.38,0,0,0,.3.15.36.36,0,0,0,.29-.15L20,39.8h0l8.86-8.53A.48.48,0,0,0,29,31,.55.55,0,0,0,28.89,30.68Z"/></svg>