<!-- Generated by IcoMoon.io -->
<svg version="1.1" xmlns="http://www.w3.org/2000/svg" width="1024" height="1024" viewBox="0 0 1024 1024">
<title></title>
<g id="icomoon-ignore">
</g>
<path fill="#979797" d="M889.384 199.489v-4.064c0.006-0.284 0.008-0.619 0.008-0.959 0-15.161-4.617-29.253-12.521-40.925l0.165 0.257c-11.463-7.547-25.528-12.029-40.63-12.029-0.585 0-1.175 0.009-1.758 0.017l0.089-0.002h-4.227c-37.058-5.925-142.813-9.647-186.125 32.146l-195.602 192.554-87.143-57.362-52.118 36.039c-74.96 10.325-128.090 75.803-130.289 79.693l-2.366 2.711c-8.479 7.592-16.133 15.726-23.044 24.469l-0.311 0.408-52.796 36.717 176.486 115.572h1.013l7.109 7.443-20.305 19.967c-3.026 2.525-5.474 5.627-7.201 9.14l-0.069 0.164c-1.607 3.345-2.548 7.277-2.548 11.422s0.936 8.077 2.612 11.583l-0.068-0.163c1.796 3.686 4.253 6.786 7.23 9.274l0.041 0.040 13.028 12.863-38.071 8.291-3.388 111.001 161.086-35.028 66.669 52.961 21.155-16.917c20.736 20.46 35.006 47.426 39.502 77.585l0.095 0.754c0.207 2.552 0.689 4.91 1.418 7.162l-0.066-0.225c27.996-11.146 51.773-27.536 71.141-48.127l0.095-0.098 2.711-2.366c5.077-3.893 109.985-87.479 74.96-192.726l1.861-1.689-3.388-2.711c-4.847-12.962-10.544-24.123-17.325-34.504l0.407 0.662-13.873-20.982 44.672-40.61 168.195-165.656c42.976-43.321 38.75-147.889 33.501-183.757z"></path>
<path fill="#4f4f4f" d="M939.633 193.401c-0.077-30.659-11.057-58.739-29.268-80.579l0.165 0.203c-21.478-18.035-49.364-29.065-79.823-29.274h-0.042c-22.671-3.551-160.58-18.104-228.432 50.085l-174.454 175.132c-123.863-64.131-238.073 20.477-284.099 78.683-24.198 24.532-75.803 83.758-60.41 129.614 9.148 21.736 30.273 36.718 54.895 36.718 0.095 0 0.189 0 0.284-0.001h-0.014c11.010 1.172 21.047 4.415 30.024 9.346l-0.416-0.204c9.302 5.252 17.159 11.921 23.57 19.815l0.122 0.149 24.026 25.887c-6.563 11.503-10.435 25.277-10.435 39.95 0 17.688 5.619 34.061 15.166 47.436l-0.171-0.251-84.605 195.264 194.414-83.586c9.577 6.653 21.029 11.319 33.408 13.144l0.436 0.053c3.032 0.419 6.529 0.654 10.085 0.654 9.429 0 18.465-1.662 26.837-4.715l-0.546 0.176c5.449-1.804 10.035-3.751 14.432-6.013l-0.558 0.259 24.704 22.671h1.861c7.928 6.359 14.49 14.054 19.427 22.791l0.203 0.392c4.717 8.303 7.966 18.050 9.111 28.425l0.032 0.338c0.338 12.731 4.539 24.422 11.462 34.021l-0.122-0.176c6.882 9.607 16.326 16.982 27.338 21.182l0.41 0.137c5.304 1.805 11.408 2.855 17.754 2.876h0.013c42.134 0 90.017-42.134 111.335-63.626 58.205-46.192 141.629-160.408 78.51-284.604l174.787-175.973c66.839-65.142 52.286-203.051 48.56-226.399zM685.83 545.856l-43.653 40.61 13.541 20.81c78.176 121.487-49.235 224.872-54.824 229.271l-2.538 2.366c-18.887 20.328-41.983 36.472-67.926 47.084l-1.28 0.463c-0.615-1.943-1.148-4.286-1.498-6.691l-0.029-0.247c-4.908-35.552-22.883-66.191-48.83-87.459l-0.24-0.192-50.762-47.041-6.937 6.764c-1.31 1.279-3.1 2.066-5.077 2.066s-3.767-0.789-5.078-2.066l0.002 0.002c-1.067-1.213-1.715-2.817-1.715-4.571s0.652-3.358 1.722-4.577l-0.009 0.011-12.519 12.013c-2.525 2.966-5.63 5.36-9.14 7.034l-0.168 0.068c-3.336 1.61-7.264 2.552-11.408 2.552-8.251 0-15.636-3.74-20.536-9.623l-0.038-0.041-14.891-14.38-95.094 41.287 40.782-95.599-14.551-14.891c-5.909-4.906-9.647-12.257-9.647-20.48 0-0.059 0-0.117 0.001-0.176v0.012c0.109-4.286 1.226-8.293 3.119-11.813l-0.068 0.143c1.742-3.622 4.142-6.667 7.061-9.104l0.041-0.039 19.8-19.967-58.712-61.592c-21.533-27.1-52.718-45.729-88.283-50.68l-0.716-0.082-5.754-2.032c10.895-27.321 27.006-50.498 47.258-69.267l0.122-0.113 3.551-2.711c4.227-4.398 106.601-133.502 227.921-55.162l19.8 12.863 204.739-206.429c41.793-41.966 145.352-38.244 181.562-32.996h4.064c0.338-0.008 0.728-0.012 1.121-0.012 14.947 0 28.85 4.491 40.433 12.191l-0.268-0.17c7.437 11.207 11.864 24.966 11.864 39.761 0 0.533-0.008 1.067-0.014 1.604l0.002-0.078v4.064c5.248 36.212 9.303 139.253-32.823 181.724z"></path>
<path fill="#4f4f4f" d="M305.616 430.124l-61.763 61.926 41.116 41.287 61.763-61.926z"></path>
<path fill="#4f4f4f" d="M552.319 678.174l-61.592 61.926 41.116 41.287 61.592-61.926z"></path>
<path fill="#4f4f4f" d="M853.339 315.23c0.049 0.002 0.11 0.004 0.172 0.004 2.987 0 5.414-2.422 5.414-5.414s-2.422-5.414-5.414-5.414c-2.986 0-5.414 2.42-5.414 5.414v0c-0.002 0.049-0.004 0.11-0.004 0.172 0 2.901 2.349 5.248 5.248 5.248 0.001 0 0.002 0 0.004 0v0z"></path>
<path fill="#4f4f4f" d="M464.335 393.404c-0.783-1.987-1.931-3.686-3.381-5.070l-0.007-0.007c-1.42-1.491-3.178-2.647-5.151-3.358l-0.095-0.031c-1.73-0.748-3.74-1.186-5.858-1.186-0.082 0-0.164 0.001-0.246 0.002h0.014c-0.035 0-0.068 0-0.11 0-3.173 0-6.116 0.948-8.575 2.578l0.060-0.040c-2.644 1.634-4.692 4.010-5.885 6.844l-0.040 0.095c-0.746 1.747-1.184 3.788-1.184 5.927 0 1.14 0.122 2.25 0.361 3.313l-0.015-0.1c0.663 2.984 2.093 5.568 4.064 7.622l-0.007-0.007v2.876c0.465 2.377 1.674 4.415 3.372 5.912l0.014 0.014c1.719 1.471 3.972 2.363 6.429 2.366h0.002c4.835-0.095 8.816-3.617 9.634-8.229l0.012-0.062c2.452-1.337 4.453-3.229 5.883-5.522l0.041-0.068c1.478-2.303 2.363-5.11 2.366-8.117v-0.002c-0.21-2.133-0.815-4.087-1.736-5.843l0.041 0.090zM450.461 415.058c-0.23 0.014-0.5 0.017-0.77 0.017-2.11 0-4.117-0.446-5.927-1.241l0.095 0.041c-2.067-0.797-3.823-2.012-5.236-3.546l-0.013-0.014c1.294 1.378 2.876 2.471 4.653 3.183l0.090 0.033c1.675 0.748 3.632 1.186 5.684 1.186 0.084 0 0.169-0.001 0.252-0.004h-0.014c0.041 0.001 0.095 0.001 0.148 0.001 2.639 0 5.106-0.757 7.191-2.066l-0.057 0.035c-0.013-2.658-1.11-5.052-2.876-6.764l-0.004-0.004c-0.775-0.732-1.666-1.355-2.643-1.832l-0.067-0.029c1.31 0.541 2.437 1.283 3.389 2.201l-0.005-0.005c1.774 1.773 2.876 4.226 2.876 6.937v0c-1.936 1.154-4.273 1.849-6.764 1.861h-0.006z"></path>
<path fill="#4f4f4f" d="M723.387 429.611c-0.84-0.161-1.804-0.257-2.795-0.257s-1.956 0.095-2.888 0.266l0.095-0.014c0.266-2.957 0.419-6.395 0.419-9.869 0-64.296-52.124-116.411-116.411-116.411-9.209 0-18.165 1.067-26.759 3.092l0.791-0.155c-18.695 4.383-34.98 12.808-48.56 24.335l0.165-0.137c-25.669 21.622-41.865 53.787-41.865 89.735 0 21.882 6.003 42.352 16.447 59.873l-0.296-0.536-154.994 155.837c-2.966 2.525-5.36 5.63-7.034 9.14l-0.068 0.168c-1.786 3.389-2.849 7.409-2.876 11.665v0.014c-0.014 0.329-0.016 0.716-0.016 1.096 0 3.852 0.689 7.547 1.954 10.966l-0.068-0.22c1.602 3.884 3.83 7.199 6.602 9.982l-0.001-0.001c2.72 2.813 6.062 5.009 9.802 6.372l0.178 0.060c3.082 1.304 6.662 2.062 10.424 2.062 0.443 0 0.878-0.014 1.31-0.033l-0.065 0.004c4.218-0.187 8.142-1.229 11.678-2.957l-0.176 0.076c3.713-1.85 6.864-4.292 9.443-7.243l0.032-0.038 154.654-155.332c17.278 10.763 38.253 17.151 60.721 17.151 33.17 0 63.086-13.914 84.24-36.221l0.047-0.050c11.84-12.428 20.966-27.554 26.339-44.361l0.23-0.819c2.714 2.372 6.3 3.821 10.219 3.821 1.3 0 2.559-0.158 3.767-0.458l-0.107 0.021c2.493-0.743 4.641-1.965 6.446-3.571l-0.014 0.014c1.85-1.569 3.297-3.554 4.199-5.819l0.038-0.096c0.608-1.595 0.962-3.442 0.962-5.363 0-0.673-0.041-1.337-0.124-1.985l0.012 0.075c-0.18-2.606-1.040-4.982-2.4-6.986l0.034 0.048c-1.437-2.011-3.244-3.655-5.333-4.865l-0.081-0.041c-2.039-1.202-4.476-1.95-7.087-2.032l-0.022-0.001zM643.359 463.453c-7.879 7.913-18.042 13.547-29.413 15.841l-0.367 0.066c-3.546 0.786-7.614 1.233-11.786 1.233-7.961 0-15.539-1.634-22.424-4.593l0.367 0.144c-10.554-4.531-19.234-11.737-25.421-20.779l-0.126-0.203c-6.149-9.106-9.815-20.322-9.815-32.404s3.666-23.298 9.95-32.608l-0.13 0.204c6.327-9.567 15.213-16.977 25.684-21.348l0.375-0.141c6.638-2.849 14.366-4.498 22.478-4.498 4.021 0 7.952 0.407 11.738 1.178l-0.375-0.068c11.738 2.359 21.901 7.994 29.778 15.904l0.002 0.002c4.956 5.384 8.971 11.731 11.705 18.713l0.143 0.408c2.683 6.334 4.237 13.703 4.237 21.437 0 0.313-0.004 0.635-0.011 0.946l0.001-0.044c0.001 0.095 0.001 0.209 0.001 0.326 0 15.99-6.467 30.47-16.921 40.965l0.002-0.002z"></path>
<path fill="#f7f6f5" d="M594.458 405.249c7.829-0.5 13.989-6.98 13.989-14.891 0-8.241-6.683-14.918-14.918-14.918-0.329 0-0.654 0.014-0.975 0.033l0.041-0.004c-7.79 0.527-13.914 6.98-13.914 14.861 0 0.365 0.014 0.736 0.041 1.094l-0.004-0.047c0.445 7.773 6.851 13.914 14.702 13.914 0.365 0 0.727-0.014 1.088-0.041l-0.046 0.004z"></path>
<path fill="#0a92cd" d="M602.238 364.298c-0.081 0-0.176-0.001-0.273-0.001-28.040 0-51.44 19.886-56.853 46.325l-0.068 0.373c-0.767 3.535-1.202 7.6-1.202 11.759 0 32.144 26.063 58.205 58.205 58.205 19.994 0 37.627-10.082 48.109-25.433l0.126-0.203c6.224-9.086 9.938-20.321 9.938-32.425 0-2.046-0.105-4.069-0.311-6.062l0.019 0.252c-2.691-29.7-27.473-52.796-57.646-52.796-0.015 0-0.041 0-0.057 0h0.004zM594.458 405.077c-0.446 0.050-0.959 0.081-1.472 0.081-2.579 0-4.992-0.719-7.044-1.977l0.062 0.036c-2.486-1.557-4.492-3.673-5.875-6.17l-0.041-0.089c-1.022-2.008-1.623-4.371-1.623-6.878 0-0.614 0.040-1.228 0.107-1.823l-0.009 0.069c0.451-3.092 1.788-5.814 3.737-7.966l-0.014 0.014c1.886-2.152 4.361-3.75 7.169-4.546l0.103-0.025c1.315-0.402 2.83-0.635 4.398-0.635s3.083 0.23 4.51 0.662l-0.111-0.029c2.841 0.996 5.198 2.761 6.91 5.036l0.027 0.041c1.661 2.312 2.714 5.17 2.876 8.249l0.002 0.041c0.014 0.211 0.014 0.462 0.014 0.714 0 7.781-6.035 14.149-13.676 14.683l-0.043 0.004zM611.374 477.833c-0.331 0.104-0.709 0.168-1.097 0.168s-0.77-0.063-1.123-0.176l0.026 0.011c-0.68-0.451-1.202-1.091-1.513-1.834l-0.014-0.027c-0.122-0.354-0.196-0.763-0.196-1.182s0.068-0.828 0.203-1.209l-0.011 0.026c0.14-0.797 0.5-1.49 1.014-2.035l-0.002 0.002c0.716-0.77 1.726-1.246 2.849-1.246 0.626 0 1.215 0.149 1.742 0.41l-0.021-0.014c0.713 0.26 1.289 0.737 1.688 1.337l0.012 0.014c0.121 0.355 0.183 0.763 0.183 1.182s-0.068 0.828-0.193 1.211l0.011-0.028c0.081 0.257 0.124 0.546 0.124 0.85s-0.043 0.593-0.132 0.867l0.008-0.017c-0.192 0.527-0.477 0.983-0.851 1.356l0.001-0.001c-0.367 0.419-0.824 0.769-1.331 1.007l-0.023 0.014h-1.689zM618.483 469.712c-0.358 0.081-0.769 0.124-1.182 0.124s-0.825-0.043-1.225-0.134l0.041 0.009c-0.635-0.496-1.151-1.119-1.508-1.828l-0.014-0.032c-0.081-0.358-0.124-0.769-0.124-1.182s0.043-0.825 0.134-1.225l-0.009 0.041c0.164-0.874 0.582-1.628 1.181-2.201l0.002-0.002c0.544-0.517 1.233-0.878 2.011-1.013l0.022-0.005c0.355-0.121 0.763-0.183 1.182-0.183s0.828 0.068 1.211 0.193l-0.028-0.011c0.743 0.366 1.365 0.881 1.85 1.511l0.013 0.014c0.081 0.358 0.124 0.769 0.124 1.182s-0.043 0.825-0.134 1.225l0.009-0.041c0.071 0.23 0.121 0.491 0.121 0.764s-0.041 0.531-0.122 0.778l0.007-0.014c0.025 0.155 0.041 0.338 0.041 0.523 0 0.419-0.075 0.824-0.218 1.198l0.011-0.022h-1.689c-0.23 0.071-0.491 0.121-0.764 0.121s-0.531-0.041-0.778-0.122l0.014 0.007zM611.374 478.177c2.243 0 4.064-1.821 4.064-4.064v0c0.004-0.049 0.005-0.11 0.005-0.172 0-2.243-1.821-4.064-4.064-4.064-0.001 0-0.004 0-0.005 0v0c-1.948 0.405-3.389 2.108-3.389 4.145s1.445 3.74 3.362 4.145l0.028 0.007zM618.483 469.885c2.243 0 4.064-1.821 4.064-4.064v0c0-2.243-1.821-4.064-4.064-4.064v0c-2.243 0-4.064 1.821-4.064 4.064v0c0.176 2.009 1.845 3.571 3.875 3.571 0.122 0 0.247-0.008 0.365-0.014l-0.014 0.001z"></path>
<path fill="#4f4f4f" d="M569.244 599.329c-1.522-1.364-3.539-2.201-5.754-2.201v0c-2.15 0.041-4.106 0.874-5.593 2.204l0.011-0.009-157.87 150.593 8.12-7.443-4.904 6.764c-1.044 1.578-1.676 3.502-1.689 5.576v0.006c0.017 2.023 0.65 3.9 1.715 5.446l-0.020-0.036c1.175 1.538 3.011 2.525 5.073 2.538h0.004c2.012-0.014 3.794-1.006 4.898-2.524l0.014-0.014 5.582-6.602 149.918-144.329c1.229-1.192 2.077-2.765 2.363-4.523l0.008-0.043c-0.041-2.044-0.734-3.926-1.877-5.441l0.014 0.022z"></path>
</svg>
