<!-- Generated by IcoMoon.io -->
<svg version="1.1" xmlns="http://www.w3.org/2000/svg" width="1024" height="1024" viewBox="0 0 1024 1024">
<title></title>
<g id="icomoon-ignore">
</g>
<path fill="#979797" d="M959.95 141.553v-4.819c0.005-0.337 0.007-0.735 0.007-1.134 0-17.994-5.479-34.708-14.86-48.565l0.195 0.305c-13.606-8.951-30.288-14.278-48.214-14.278-0.697 0-1.392 0.008-2.085 0.024l0.103-0.002h-5.020c-43.972-7.027-169.462-11.445-220.863 38.149l-232.107 228.493-103.404-68.066-61.842 42.767c-88.947 12.248-151.994 89.951-154.604 94.569l-2.811 3.213c-10.061 9.007-19.139 18.657-27.34 29.033l-0.368 0.483-62.645 43.57 209.418 137.136h1.205l8.433 8.835-24.094 23.693c-3.59 2.994-6.498 6.673-8.548 10.849l-0.086 0.194c-1.906 3.97-3.020 8.632-3.020 13.553s1.114 9.583 3.102 13.745l-0.083-0.193c2.136 4.371 5.044 8.049 8.581 11l0.053 0.043 15.46 15.26-45.176 9.838-4.016 131.715 191.147-41.562 79.109 62.845 25.098-20.078c24.606 24.28 41.541 56.28 46.874 92.068l0.11 0.895c0.249 3.028 0.818 5.828 1.68 8.496l-0.074-0.264c33.222-13.228 61.437-32.676 84.419-57.104l0.112-0.12 3.213-2.811c6.024-4.618 130.51-103.805 88.947-228.693l2.209-2.008-4.016-3.213c-5.751-15.38-12.512-28.621-20.561-40.944l0.482 0.787-16.464-24.897 53.007-48.188 199.58-196.568c50.999-51.401 45.98-175.485 39.755-218.052z"></path>
<path fill="#4f4f4f" d="M1019.583 134.325c-0.093-36.379-13.123-69.697-34.73-95.613l0.195 0.241c-25.482-21.401-58.574-34.485-94.716-34.735h-0.054c-26.905-4.216-190.544-21.484-271.059 59.432l-207.009 207.812c-146.974-76.097-282.504 24.295-337.117 93.365-28.712 29.114-89.951 99.388-71.68 153.801 10.857 25.792 35.921 43.571 65.138 43.571 0.112 0 0.224 0 0.335-0.001h-0.017c13.067 1.387 24.973 5.239 35.627 11.089l-0.49-0.246c11.042 6.232 20.365 14.147 27.969 23.514l0.141 0.179 28.511 30.72c-7.787 13.649-12.378 29.993-12.378 47.409 0 20.988 6.667 40.419 17.999 56.29l-0.2-0.295-100.392 231.705 230.701-99.187c11.367 7.891 24.955 13.429 39.64 15.599l0.516 0.063c3.595 0.493 7.749 0.774 11.969 0.774 11.187 0 21.912-1.976 31.846-5.598l-0.646 0.206c6.468-2.142 11.911-4.452 17.129-7.138l-0.665 0.311 29.315 26.905h2.209c9.411 7.547 17.197 16.677 23.050 27.043l0.241 0.464c5.6 9.851 9.452 21.415 10.807 33.732l0.036 0.401c0.404 15.111 5.385 28.984 13.599 40.37l-0.146-0.213c8.167 11.402 19.376 20.152 32.444 25.136l0.485 0.162c6.29 2.143 13.537 3.39 21.071 3.413h0.011c49.995 0 106.817-49.995 132.116-75.495 69.070-54.814 168.056-190.344 93.164-337.719l207.41-208.816c79.31-77.302 62.042-240.941 57.625-268.649zM718.406 552.558l-51.802 48.188 16.063 24.696c92.762 144.163-58.428 266.842-65.054 272.063l-3.012 2.811c-22.414 24.123-49.819 43.28-80.605 55.872l-1.515 0.548c-0.732-2.306-1.363-5.088-1.773-7.941l-0.034-0.292c-5.826-42.189-27.152-78.543-57.942-103.779l-0.286-0.227-60.235-55.818-8.232 8.031c-1.554 1.514-3.68 2.448-6.024 2.448s-4.47-0.934-6.025-2.45l0.002 0.002c-1.265-1.44-2.037-3.34-2.037-5.421s0.772-3.981 2.045-5.43l-0.008 0.009-14.858 14.256c-2.999 3.521-6.678 6.365-10.846 8.349l-0.197 0.084c-3.963 1.914-8.619 3.032-13.535 3.032-9.795 0-18.553-4.439-24.372-11.415l-0.041-0.051-17.669-17.067-112.841 48.991 48.389-113.443-17.267-17.669c-7.013-5.824-11.445-14.545-11.445-24.302 0-0.068 0-0.136 0.001-0.204v0.010c0.129-5.088 1.451-9.839 3.696-14.021l-0.082 0.167c2.067-4.297 4.911-7.912 8.382-10.801l0.051-0.042 23.492-23.693-69.672-73.085c-25.555-32.16-62.56-54.266-104.761-60.138l-0.852-0.097-6.827-2.409c12.927-32.421 32.044-59.919 56.075-82.19l0.144-0.132 4.216-3.213c5.020-5.22 126.494-158.419 270.456-65.456l23.492 15.26 242.949-244.957c49.594-49.795 172.474-45.377 215.442-39.153h4.819c0.397-0.007 0.864-0.010 1.333-0.010 17.74 0 34.236 5.326 47.977 14.465l-0.319-0.199c8.821 13.298 14.074 29.628 14.074 47.185 0 0.635-0.007 1.268-0.021 1.9l0.002-0.094v4.819c6.224 42.968 11.043 165.245-38.952 215.642z"></path>
<path fill="#4f4f4f" d="M267.244 415.222l-73.286 73.487 48.791 48.991 73.286-73.487z"></path>
<path fill="#4f4f4f" d="M559.987 709.572l-73.085 73.487 48.791 48.991 73.085-73.487z"></path>
<path fill="#4f4f4f" d="M917.183 278.889c0.060 0.002 0.13 0.003 0.201 0.003 3.548 0 6.425-2.877 6.425-6.425s-2.877-6.425-6.425-6.425c-3.547 0-6.423 2.875-6.425 6.422v0c-0.002 0.060-0.003 0.13-0.003 0.201 0 3.438 2.787 6.224 6.224 6.224 0.001 0 0.002 0 0.003 0v0z"></path>
<path fill="#4f4f4f" d="M455.58 371.652c-0.929-2.362-2.294-4.372-4.010-6.018l-0.006-0.006c-1.689-1.767-3.774-3.141-6.114-3.981l-0.111-0.035c-2.052-0.89-4.441-1.408-6.952-1.408-0.097 0-0.194 0.001-0.291 0.002h0.015c-0.039 0-0.084 0-0.13 0-3.761 0-7.26 1.124-10.179 3.055l0.069-0.043c-3.138 1.943-5.57 4.763-6.984 8.117l-0.043 0.115c-0.889 2.076-1.406 4.492-1.406 7.029 0 1.351 0.147 2.667 0.425 3.934l-0.022-0.121c0.791 3.54 2.484 6.605 4.825 9.042l-0.006-0.006v3.413c0.55 2.82 1.986 5.239 4.002 7.016l0.014 0.012c2.043 1.741 4.712 2.803 7.628 2.811h0.002c5.737-0.115 10.466-4.292 11.434-9.767l0.010-0.071c2.911-1.59 5.285-3.835 6.982-6.548l0.046-0.078c1.756-2.73 2.802-6.061 2.811-9.635v-0.002c-0.251-2.531-0.965-4.846-2.057-6.93l0.050 0.104zM439.115 397.352c-0.272 0.015-0.59 0.024-0.91 0.024-2.502 0-4.881-0.526-7.032-1.473l0.112 0.044c-2.457-0.947-4.54-2.385-6.214-4.205l-0.011-0.012c1.536 1.635 3.412 2.932 5.518 3.778l0.104 0.037c1.987 0.89 4.306 1.408 6.746 1.408 0.099 0 0.198-0.001 0.296-0.003h-0.015c0.051 0.001 0.111 0.001 0.171 0.001 3.134 0 6.058-0.898 8.53-2.45l-0.067 0.039c-0.011-3.15-1.316-5.994-3.411-8.029l-0.003-0.003c-0.922-0.868-1.98-1.606-3.137-2.175l-0.075-0.034c1.557 0.642 2.889 1.524 4.019 2.614l-0.004-0.004c2.108 2.107 3.412 5.017 3.413 8.232v0c-2.3 1.372-5.068 2.19-8.026 2.209h-0.005z"></path>
<path fill="#4f4f4f" d="M762.98 414.62c-0.996-0.191-2.142-0.3-3.313-0.3s-2.317 0.109-3.427 0.317l0.115-0.018c0.317-3.509 0.497-7.59 0.497-11.713 0-76.292-61.847-138.14-138.14-138.14-10.927 0-21.557 1.269-31.752 3.667l0.936-0.186c-22.18 5.198-41.512 15.195-57.62 28.874l0.195-0.162c-30.462 25.659-49.682 63.824-49.682 106.478 0 25.962 7.12 50.26 19.515 71.049l-0.352-0.637-183.918 184.922c-3.521 2.999-6.365 6.678-8.349 10.846l-0.084 0.197c-2.118 4.024-3.376 8.788-3.413 13.842v0.012c-0.014 0.389-0.023 0.846-0.023 1.304 0 4.574 0.818 8.957 2.315 13.011l-0.084-0.26c1.898 4.61 4.546 8.546 7.832 11.848l-0.001-0.001c3.23 3.336 7.193 5.943 11.631 7.561l0.215 0.069c3.656 1.545 7.908 2.443 12.369 2.443 0.522 0 1.042-0.012 1.559-0.037l-0.073 0.003c5.003-0.223 9.666-1.459 13.861-3.505l-0.208 0.092c4.41-2.194 8.143-5.093 11.208-8.592l0.036-0.041 183.517-184.32c20.503 12.775 45.394 20.35 72.054 20.35 39.358 0 74.86-16.508 99.961-42.977l0.058-0.061c14.052-14.745 24.877-32.698 31.255-52.64l0.268-0.969c3.225 2.816 7.473 4.533 12.122 4.533 1.541 0 3.039-0.189 4.47-0.544l-0.127 0.027c2.955-0.885 5.508-2.334 7.651-4.235l-0.021 0.018c2.196-1.861 3.911-4.221 4.978-6.909l0.041-0.118c0.725-1.892 1.145-4.080 1.145-6.367 0-0.799-0.051-1.586-0.151-2.358l0.010 0.091c-0.217-3.092-1.237-5.909-2.849-8.292l0.038 0.059c-1.703-2.382-3.848-4.334-6.329-5.771l-0.096-0.052c-2.419-1.429-5.313-2.312-8.405-2.409l-0.028-0.001zM668.009 454.776c-9.351 9.389-21.407 16.078-34.899 18.8l-0.439 0.074c-4.205 0.932-9.035 1.466-13.99 1.466-9.448 0-18.442-1.942-26.606-5.449l0.439 0.168c-12.525-5.378-22.82-13.93-30.166-24.661l-0.153-0.236c-7.299-10.803-11.651-24.118-11.651-38.45s4.352-27.647 11.808-38.696l-0.156 0.246c7.505-11.349 18.048-20.147 30.475-25.335l0.446-0.165c7.878-3.377 17.046-5.341 26.672-5.341 4.772 0 9.431 0.482 13.931 1.401l-0.446-0.076c13.931 2.796 25.987 9.485 35.336 18.872l0.002 0.002c5.885 6.385 10.643 13.916 13.888 22.205l0.167 0.483c3.18 7.52 5.028 16.263 5.028 25.438 0 0.375-0.003 0.749-0.009 1.122l0.001-0.056c0.001 0.114 0.001 0.25 0.001 0.386 0 18.972-7.671 36.152-20.082 48.608l0.002-0.002z"></path>
<path fill="#f7f6f5" d="M609.983 385.707c9.29-0.598 16.599-8.28 16.599-17.669 0-9.777-7.926-17.703-17.703-17.703-0.389 0-0.774 0.013-1.156 0.037l0.052-0.003c-9.246 0.627-16.508 8.281-16.508 17.631 0 0.437 0.016 0.871 0.047 1.3l-0.003-0.058c0.524 9.225 8.132 16.508 17.442 16.508 0.433 0 0.863-0.016 1.288-0.047l-0.057 0.003z"></path>
<path fill="#0a92cd" d="M619.219 337.117c-0.096 0-0.209-0.001-0.323-0.001-33.275 0-61.038 23.599-67.466 54.973l-0.076 0.444c-0.906 4.195-1.424 9.014-1.424 13.954 0 38.146 30.924 69.070 69.070 69.070 23.723 0 44.653-11.96 57.089-30.18l0.153-0.238c7.384-10.786 11.792-24.117 11.792-38.477 0-2.43-0.126-4.831-0.373-7.196l0.025 0.296c-3.196-35.243-32.6-62.645-68.404-62.645-0.022 0-0.045 0-0.067 0h0.003zM609.983 385.506c-0.525 0.061-1.133 0.096-1.75 0.096-3.062 0-5.925-0.857-8.36-2.344l0.071 0.040c-2.949-1.851-5.327-4.358-6.975-7.326l-0.052-0.103c-1.214-2.379-1.925-5.188-1.925-8.164 0-0.731 0.043-1.453 0.127-2.162l-0.008 0.086c0.538-3.669 2.12-6.896 4.431-9.452l-0.014 0.015c2.239-2.556 5.174-4.451 8.509-5.391l0.124-0.030c1.563-0.478 3.36-0.753 5.22-0.753s3.657 0.275 5.351 0.787l-0.131-0.034c3.369 1.183 6.172 3.274 8.2 5.979l0.032 0.045c1.968 2.747 3.217 6.13 3.411 9.792l0.002 0.046c0.013 0.252 0.020 0.547 0.020 0.843 0 9.231-7.16 16.789-16.229 17.425l-0.055 0.003zM630.061 471.843c-0.39 0.125-0.839 0.197-1.305 0.197s-0.915-0.072-1.336-0.206l0.031 0.009c-0.805-0.538-1.428-1.291-1.795-2.177l-0.012-0.032c-0.146-0.419-0.23-0.903-0.23-1.405s0.084-0.986 0.239-1.437l-0.009 0.031c0.164-0.943 0.593-1.766 1.207-2.411l-0.002 0.002c0.846-0.91 2.049-1.477 3.385-1.477 0.741 0 1.442 0.175 2.063 0.485l-0.027-0.012c0.842 0.312 1.532 0.872 1.998 1.591l0.010 0.016c0.139 0.42 0.219 0.903 0.219 1.405s-0.080 0.986-0.228 1.438l0.009-0.033c0.096 0.3 0.151 0.646 0.151 1.004s-0.055 0.704-0.158 1.028l0.007-0.024c-0.227 0.627-0.569 1.163-1.005 1.607l0.001-0.001c-0.439 0.502-0.974 0.908-1.577 1.192l-0.029 0.012h-2.008zM638.494 462.205c-0.422 0.096-0.908 0.151-1.405 0.151s-0.983-0.055-1.45-0.159l0.044 0.008c-0.758-0.585-1.369-1.324-1.791-2.172l-0.016-0.036c-0.096-0.422-0.151-0.908-0.151-1.405s0.055-0.983 0.159-1.45l-0.008 0.044c0.194-1.034 0.695-1.929 1.404-2.609l0.002-0.002c0.644-0.612 1.466-1.041 2.382-1.201l0.028-0.004c0.42-0.139 0.903-0.219 1.405-0.219s0.986 0.080 1.438 0.228l-0.033-0.009c0.885 0.438 1.624 1.049 2.198 1.793l0.011 0.014c0.096 0.422 0.151 0.908 0.151 1.405s-0.055 0.983-0.159 1.45l0.008-0.044c0.088 0.27 0.139 0.581 0.139 0.904s-0.051 0.633-0.145 0.925l0.006-0.021c0.030 0.186 0.048 0.399 0.048 0.617 0 0.499-0.091 0.977-0.258 1.418l0.009-0.028h-2.008c-0.27 0.088-0.581 0.139-0.904 0.139s-0.633-0.051-0.925-0.145l0.021 0.006zM630.061 472.245c2.661 0 4.819-2.157 4.819-4.819v0c0.003-0.060 0.004-0.13 0.004-0.201 0-2.661-2.157-4.819-4.819-4.819-0.001 0-0.003 0-0.004 0v0c-2.31 0.481-4.021 2.501-4.021 4.919s1.711 4.438 3.988 4.914l0.033 0.006zM638.494 462.406c2.661 0 4.819-2.157 4.819-4.819v0c0-2.661-2.157-4.819-4.819-4.819v0c-2.661 0-4.819 2.157-4.819 4.819v0c0.204 2.38 2.186 4.235 4.602 4.235 0.147 0 0.292-0.007 0.436-0.020l-0.018 0.001z"></path>
<path fill="#4f4f4f" d="M580.066 616.006c-1.803-1.619-4.199-2.609-6.827-2.61v0c-2.555 0.053-4.872 1.034-6.635 2.619l0.009-0.008-187.332 178.698 9.638-8.835-5.823 8.031c-1.242 1.868-1.988 4.158-2.008 6.621v0.005c0.024 2.401 0.771 4.624 2.034 6.465l-0.026-0.040c1.398 1.825 3.572 2.995 6.021 3.012h0.003c2.391-0.017 4.504-1.191 5.808-2.991l0.014-0.021 6.626-7.831 177.895-171.269c1.455-1.413 2.465-3.277 2.804-5.366l0.007-0.055c-0.046-2.428-0.869-4.655-2.229-6.453l0.020 0.028z"></path>
</svg>
