<!-- Generated by IcoMoon.io -->
<svg version="1.1" xmlns="http://www.w3.org/2000/svg" width="1024" height="1024" viewBox="0 0 1024 1024">
<title></title>
<g id="icomoon-ignore">
</g>
<path d="M600.461 311.518c-62.665 0.228-113.377 51.080-113.377 113.777 0 20.946 5.66 40.57 15.534 57.426l-0.291-0.537-151.609 151.609c-6.102 5.248-9.943 12.978-9.943 21.605 0 15.709 12.735 28.444 28.444 28.444 8.627 0 16.357-3.841 21.573-9.905l0.031-0.037 151.324-151.324c16.817 10.359 37.194 16.496 59.005 16.496 62.838 0 113.778-50.94 113.778-113.778s-50.94-113.778-113.778-113.778c-0.244 0-0.488 0.001-0.731 0.002h0.038zM640.568 465.403c-10.293 10.282-24.506 16.64-40.204 16.64-31.419 0-56.889-25.47-56.889-56.889s25.47-56.889 56.889-56.889c15.698 0 29.912 6.359 40.205 16.641l-0.001-0.001c10.393 10.311 16.828 24.6 16.828 40.391s-6.434 30.080-16.824 40.387l-0.004 0.004z"></path>
<path d="M930.417 202.007c-0.126-29.85-10.851-57.171-28.603-78.417l0.159 0.195c-21.041-17.614-48.369-28.344-78.201-28.444h-0.022c-22.756-3.129-157.013-17.636-223.289 48.64l-170.667 170.667c-121.173-62.578-232.96 19.911-277.902 76.516-23.609 23.893-74.24 81.636-59.164 126.293 9.033 21.228 29.714 35.84 53.808 35.84 0.083 0 0.166 0 0.25-0.001h-0.013c21.148 2.294 39.468 12.838 51.938 28.297l0.115 0.147 23.040 25.031c-6.369 11.167-10.124 24.538-10.124 38.787 0 17.242 5.499 33.2 14.838 46.215l-0.162-0.238-82.489 190.293 190.293-81.636c12.376 8.36 27.629 13.346 44.047 13.346 14.11 0 27.36-3.682 38.841-10.138l-0.398 0.206 23.893 22.187h1.422c15.446 12.153 25.962 29.97 28.409 50.271l0.035 0.36c0.774 24.233 16.22 44.67 37.714 52.774l0.402 0.133c5.161 1.803 11.11 2.844 17.302 2.844 0.017 0 0.034 0 0.052 0h-0.003c41.244 0 88.178-40.96 108.942-61.724 56.889-44.942 138.524-156.16 76.8-277.049l170.667-170.667c65.991-63.716 51.2-197.973 48.071-220.729zM841.67 385.189l-160.142 160.142-42.667 39.253 13.084 20.196c76.516 118.329-48.071 219.307-53.476 223.289l-2.56 2.276c-18.421 19.923-41.033 35.686-66.463 45.925l-1.235 0.439c-0.623-1.953-1.123-4.266-1.405-6.645l-0.017-0.181c-4.907-34.638-22.496-64.455-47.831-85.144l-0.24-0.19-60.302-56.889-19.342 19.342c-4.833 5.736-12.020 9.356-20.053 9.356s-15.221-3.619-20.021-9.316l-0.032-0.039-13.653-13.653-93.013 39.822 39.822-93.013-13.653-13.084c-5.837-4.835-9.527-12.084-9.527-20.196s3.69-15.361 9.484-20.161l0.044-0.035 19.342-19.342-56.889-60.302c-21.144-26.252-51.641-44.227-86.359-48.85l-0.681-0.074-5.689-1.707c10.697-26.658 26.457-49.266 46.244-67.588l0.12-0.11 3.413-2.56c4.267-5.404 104.96-129.991 223.289-53.476l19.342 12.516 199.964-201.671c40.96-40.96 142.222-37.262 176.924-32.142h3.982c0.427-0.009 0.929-0.015 1.433-0.015 14.503 0 27.989 4.359 39.217 11.839l-0.259-0.163c7.315 10.939 11.673 24.394 11.673 38.867 0 0.436-0.004 0.871-0.012 1.305l0.001-0.065v3.982c5.404 36.409 9.387 136.818-31.858 178.062z"></path>
<path d="M250.079 493.138l60.34-60.34 40.227 40.227-60.34 60.34-40.227-40.227z"></path>
<path d="M491.276 734.431l60.34-60.34 40.227 40.227-60.34 60.34-40.227-40.227z"></path>
</svg>
