<!-- Generated by IcoMoon.io -->
<svg version="1.1" xmlns="http://www.w3.org/2000/svg" width="1024" height="1024" viewBox="0 0 1024 1024">
<title></title>
<g id="icomoon-ignore">
</g>
<path d="M378.475 663.009c0.002 0.173 0.004 0.379 0.004 0.585 0 7.972-2.351 15.394-6.395 21.612l0.095-0.153c-4.485 6.906-10.752 12.313-18.158 15.64l-0.266 0.106c-8.002 3.497-17.326 5.532-27.128 5.532-0.594 0-1.185-0.007-1.775-0.022l0.087 0.002c-0.759 0.033-1.65 0.049-2.544 0.049-11.172 0-21.683-2.816-30.868-7.777l0.345 0.17c-6.44-3.546-11.734-8.435-15.645-14.324l-0.101-0.162c-3.454-4.938-5.601-11.015-5.825-17.581l-0.001-0.056c-0.001-0.047-0.001-0.105-0.001-0.162 0-6.61 5.357-11.967 11.967-11.967 0.11 0 0.222 0.001 0.332 0.004h-0.017c0.079-0.002 0.171-0.003 0.265-0.003 2.766 0 5.278 1.080 7.142 2.843l-0.004-0.004c2.267 2.245 4.039 4.981 5.148 8.037l0.047 0.151c1.574 4.158 3.429 7.741 5.638 11.068l-0.126-0.203c2.207 3.005 5.062 5.408 8.369 7.027l0.133 0.059c3.847 1.804 8.354 2.857 13.108 2.857 0.43 0 0.855-0.008 1.281-0.025l-0.061 0.002c0.521 0.032 1.132 0.048 1.745 0.048 6.777 0 13.055-2.142 18.191-5.783l-0.098 0.065c4.584-3.095 7.559-8.27 7.559-14.14 0-0.012 0-0.022 0-0.034v0.002c0.001-0.081 0.002-0.177 0.002-0.271 0-4.086-1.555-7.808-4.108-10.606l0.012 0.013c-2.877-2.875-6.413-5.091-10.362-6.403l-0.187-0.055q-6.455-2.205-17.32-4.725c-9.322-2.083-17.47-4.843-25.208-8.355l0.801 0.326c-6.374-2.823-11.675-7.062-15.674-12.341l-0.070-0.099c-3.658-5.162-5.847-11.59-5.847-18.529 0-0.407 0.007-0.81 0.022-1.214l-0.002 0.058c-0.002-0.131-0.003-0.287-0.003-0.441 0-7.268 2.3-13.997 6.215-19.503l-0.069 0.104c4.417-6.017 10.409-10.64 17.373-13.295l0.264-0.088c7.629-2.999 16.465-4.737 25.706-4.737 0.483 0 0.968 0.004 1.449 0.015l-0.071-0.001c0.365-0.006 0.793-0.012 1.225-0.012 7.269 0 14.266 1.156 20.82 3.293l-0.475-0.133c6.047 1.792 11.299 4.597 15.833 8.255l-0.087-0.067c3.602 2.919 6.558 6.48 8.727 10.523l0.089 0.184c1.714 3.196 2.753 6.979 2.834 10.997v0.025c0 0.005 0 0.012 0 0.017 0 3.405-1.318 6.502-3.471 8.808l0.006-0.007c-2.037 2.415-5.062 3.939-8.445 3.939-0.076 0-0.151-0.001-0.227-0.002h0.012c-0.19 0.014-0.413 0.020-0.637 0.020-2.468 0-4.727-0.902-6.463-2.394l0.014 0.012c-2.095-2.217-3.883-4.758-5.271-7.535l-0.082-0.182c-2.143-4.716-5.12-8.702-8.78-11.933l-0.038-0.033c-4.171-2.977-9.371-4.76-14.99-4.76-0.488 0-0.972 0.014-1.452 0.040l0.066-0.003c-0.391-0.019-0.849-0.029-1.308-0.029-5.903 0-11.39 1.775-15.959 4.819l0.105-0.066c-3.801 2.359-6.325 6.462-6.455 11.161v0.019c-0.003 0.107-0.005 0.233-0.005 0.36 0 2.53 0.829 4.87 2.232 6.756l-0.021-0.029c1.654 2.083 3.701 3.778 6.037 4.989l0.103 0.048c2.245 1.26 4.853 2.382 7.582 3.228l0.291 0.078 13.068 3.465c8.49 1.969 15.438 4.026 22.223 6.428l-1.44-0.443c6.006 2.042 11.216 4.709 15.952 8.010l-0.206-0.136c4.252 3.001 7.663 6.917 9.996 11.474l0.083 0.179c2.029 4.456 3.212 9.664 3.212 15.148 0 0.764-0.023 1.524-0.068 2.276l0.005-0.104z"></path>
<path d="M488.223 688.203l-6.455-17.006h-54.954l-6.455 17.32c-1.73 5.228-3.915 9.759-6.6 13.942l0.145-0.242c-1.889 2.249-4.705 3.667-7.85 3.667-0.342 0-0.678-0.017-1.010-0.048l0.042 0.003c-0.001 0-0.003 0-0.005 0-3.563 0-6.792-1.444-9.128-3.779v0c-2.364-2.095-3.867-5.118-3.935-8.491v-0.013c0.032-2.037 0.375-3.982 0.985-5.804l-0.039 0.136q0.945-2.992 2.992-8.188l34.641-87.862 3.621-9.133c1.272-3.38 2.755-6.286 4.518-8.995l-0.108 0.179c1.588-2.347 3.645-4.254 6.053-5.622l0.088-0.046c2.569-1.393 5.625-2.213 8.873-2.213 0.202 0 0.404 0.003 0.603 0.009l-0.028-0.001c0.193-0.006 0.42-0.012 0.648-0.012 3.277 0 6.361 0.821 9.058 2.266l-0.103-0.049c2.474 1.386 4.527 3.239 6.102 5.455l0.039 0.057c1.466 2.131 2.787 4.567 3.842 7.138l0.096 0.262 4.094 10.549 35.272 87.233c2.074 4.217 3.526 9.121 4.077 14.294l0.017 0.192c-0.063 3.435-1.566 6.509-3.927 8.652l-0.009 0.008c-2.351 2.43-5.641 3.939-9.283 3.939-0.058 0-0.116 0-0.172-0.001h0.008c-0.123 0.004-0.267 0.006-0.411 0.006-1.848 0-3.602-0.409-5.175-1.14l0.076 0.033c-1.569-0.769-2.884-1.833-3.92-3.126l-0.018-0.022c-1.267-1.772-2.378-3.796-3.239-5.947l-0.068-0.194zM433.27 650.726h40.467l-20.313-55.741z"></path>
<path d="M564.435 582.546v98.413h55.584c0.277-0.019 0.603-0.029 0.93-0.029 3.546 0 6.796 1.26 9.329 3.355l-0.024-0.020c2.226 1.944 3.623 4.789 3.623 7.958 0 0.081-0.001 0.162-0.002 0.242v-0.013c0.003 0.104 0.005 0.227 0.005 0.35 0 3.055-1.338 5.795-3.458 7.671l-0.012 0.009c-2.604 1.978-5.898 3.167-9.472 3.167-0.268 0-0.535-0.006-0.801-0.020l0.038 0.001h-66.133c-0.841 0.174-1.805 0.275-2.794 0.275-7.914 0-14.328-6.414-14.328-14.328 0-0.989 0.1-1.955 0.291-2.887l-0.016 0.091v-104.239c-0.029-0.391-0.047-0.847-0.047-1.306 0-4.215 1.441-8.095 3.857-11.173l-0.029 0.039c2.312-2.525 5.622-4.101 9.302-4.101 0.162 0 0.324 0.003 0.483 0.008l-0.023-0.001c0.169-0.007 0.367-0.013 0.565-0.013 3.745 0 7.123 1.575 9.506 4.099l0.005 0.006c2.302 2.97 3.693 6.749 3.693 10.852 0 0.559-0.025 1.112-0.077 1.657l0.005-0.069z"></path>
<path d="M740.948 589.475h-61.725v32.752h56.842c0.286-0.021 0.62-0.035 0.956-0.035 3.157 0 6.060 1.079 8.364 2.89l-0.028-0.022c1.941 1.763 3.154 4.298 3.154 7.115 0 0.1-0.001 0.201-0.004 0.298v-0.015c0.006 0.133 0.009 0.291 0.009 0.449 0 2.787-1.15 5.306-2.999 7.108l-0.002 0.002c-2.239 1.8-5.119 2.889-8.25 2.889-0.421 0-0.839-0.020-1.249-0.059l0.054 0.004h-56.842v38.42h63.772c0.316-0.025 0.685-0.040 1.057-0.040 3.303 0 6.339 1.142 8.734 3.054l-0.027-0.022c2.043 1.878 3.319 4.562 3.319 7.544 0 0.171-0.004 0.342-0.013 0.511l0.001-0.024c0.005 0.12 0.007 0.261 0.007 0.401 0 2.959-1.276 5.62-3.306 7.463l-0.008 0.007c-2.368 1.889-5.402 3.032-8.705 3.032-0.372 0-0.741-0.015-1.107-0.043l0.048 0.003h-74.479c-0.841 0.174-1.805 0.275-2.794 0.275-7.914 0-14.328-6.414-14.328-14.328 0-0.989 0.1-1.955 0.291-2.887l-0.016 0.091v-101.247c-0.005-0.182-0.007-0.396-0.007-0.611 0-3.432 0.758-6.688 2.113-9.608l-0.059 0.141c1.115-2.464 3.046-4.397 5.442-5.483l0.068-0.027c2.606-1.103 5.638-1.745 8.819-1.745 0.276 0 0.553 0.004 0.827 0.015l-0.040-0.001h72.274c0.372-0.036 0.804-0.056 1.24-0.056 3.221 0 6.187 1.088 8.555 2.913l-0.033-0.024c1.943 1.791 3.157 4.347 3.157 7.188 0 0.13-0.002 0.261-0.007 0.389l0.001-0.019c0.006 0.137 0.009 0.295 0.009 0.456 0 2.864-1.214 5.443-3.155 7.254l-0.005 0.005c-2.478 2.252-5.784 3.631-9.411 3.631-0.179 0-0.356-0.003-0.534-0.009l0.025 0.001z"></path>
<path d="M874.16 449.019h-126.755c-2.595-19.898-14.149-36.649-30.414-46.291l-0.291-0.16v-189.74c0-17.393-14.099-31.492-31.492-31.492s-31.492 14.099-31.492 31.492v0 189.74c-16.556 9.801-28.11 26.553-30.671 46.132l-0.035 0.317h-222.019c-2.595-19.898-14.149-36.649-30.414-46.291l-0.291-0.16v-189.74c0-17.393-14.099-31.492-31.492-31.492s-31.492 14.099-31.492 31.492v0 189.74c-16.556 9.801-28.11 26.553-30.671 46.132l-0.035 0.317h-126.755c-17.393 0-31.492 14.099-31.492 31.492v0 330.667c0 17.393 14.099 31.492 31.492 31.492v0h724.318c17.393 0 31.492-14.099 31.492-31.492v0-330.667c0-17.393-14.099-31.492-31.492-31.492v0zM842.668 779.686h-661.333v-267.682h661.333z"></path>
</svg>
