<svg id="Layer_2" data-name="Layer 2" xmlns="http://www.w3.org/2000/svg" viewBox="0 0 36 36"><defs><style>.cls-1{fill:#4f4f4f;}</style></defs><title>latest</title><path class="cls-1" d="M18,24c-3.31,0-6,1.34-6,3H24C24,25.34,21.31,24,18,24Z"/><path class="cls-1" d="M28,28c0-3.11-1.37-9-6.52-9h0c-.27,0-.43-.4-.43-1s.16-1,.39-1C26.63,17,28,11.11,28,8a1,1,0,0,0,0-2H8a1,1,0,0,0-.75.33,1,1,0,0,0,.09,1.41A1,1,0,0,0,8,8H8c0,3.11,1.37,9,6.52,9h0c.27,0,.43.4.43,1s-.16,1-.39,1C9.37,19,8,24.89,8,28a1,1,0,0,0,0,2H28a1,1,0,0,0,0-2ZM14.57,21c1,0,2.39-.8,2.39-3s-1.43-3-2.39-3C10.07,15,10,8.3,10,8H26c0,.07-.05,7-4.57,7-1,0-2.39.8-2.39,3s1.43,3,2.39,3C25.93,21,26,27.71,26,28H10C10,27.93,10.05,21,14.57,21Z"/><path class="cls-1" d="M17,16h0a1,1,0,0,0,1.75.66A1,1,0,0,0,19,16h0c0-.45.61-1,1.28-1.37A6.27,6.27,0,0,0,22,13.73h0A4.67,4.67,0,0,0,24,10H12a4.67,4.67,0,0,0,2,3.71h0l0,0a6.05,6.05,0,0,0,.89.56,6.55,6.55,0,0,0,.78.32C16.39,15,17,15.55,17,16Z"/></svg>