<!-- Generated by IcoMoon.io -->
<svg version="1.1" xmlns="http://www.w3.org/2000/svg" width="1024" height="1024" viewBox="0 0 1024 1024">
<title></title>
<g id="icomoon-ignore">
</g>
<path d="M512 682.667c-94.151 0-170.667 38.116-170.667 85.333h341.333c0-47.218-76.516-85.333-170.667-85.333z"></path>
<path d="M796.444 796.444c0-88.462-38.969-256-185.458-256v0c-7.68 0-12.231-11.378-12.231-28.444s4.551-28.444 11.093-28.444c147.627 0 186.596-167.538 186.596-256 15.709 0 28.444-12.735 28.444-28.444s-12.735-28.444-28.444-28.444v0h-568.889c-0.064-0.001-0.14-0.001-0.217-0.001-8.367 0-15.89 3.613-21.095 9.363l-0.022 0.024c-4.392 4.982-7.073 11.563-7.073 18.771 0 8.483 3.713 16.098 9.603 21.31l0.030 0.026c4.945 4.509 11.524 7.301 18.754 7.395h0.019c0 88.462 38.969 256 185.458 256v0c7.68 0 12.231 11.378 12.231 28.444s-4.551 28.444-11.093 28.444c-147.627 0-186.596 167.538-186.596 256-15.709 0-28.444 12.735-28.444 28.444s12.735 28.444 28.444 28.444v0h568.889c15.709 0 28.444-12.735 28.444-28.444s-12.735-28.444-28.444-28.444v0zM414.436 597.333c28.444 0 67.982-22.756 67.982-85.333s-40.676-85.333-67.982-85.333c-128 0-129.991-190.578-129.991-199.111h455.111c0 1.991-1.422 199.111-129.991 199.111-28.444 0-67.982 22.756-67.982 85.333s40.676 85.333 67.982 85.333c128 0 129.991 190.862 129.991 199.111h-455.111c0-1.991 1.422-199.111 129.991-199.111z"></path>
<path d="M483.556 455.111v0c0.023 15.692 12.749 28.404 28.444 28.404 8.481 0 16.096-3.712 21.307-9.6l0.026-0.030c4.406-4.978 7.1-11.56 7.111-18.771v-0.002c0-12.8 17.351-28.444 36.409-38.969 18.686-6.426 34.891-15.103 49.393-25.935l-0.469 0.335c33.815-23.771 55.899-62.254 56.886-105.946l0.003-0.152h-341.333c1.181 43.627 23.22 81.868 56.466 105.247l0.422 0.282c7.351 5.629 15.639 10.916 24.366 15.477l0.949 0.452c5.992 3.027 13.325 6.104 20.877 8.709l1.309 0.393c20.48 11.662 37.831 27.307 37.831 40.107z"></path>
</svg>
