<!-- Generated by IcoMoon.io -->
<svg version="1.1" xmlns="http://www.w3.org/2000/svg" width="1024" height="1024" viewBox="0 0 1024 1024">
<title></title>
<g id="icomoon-ignore">
</g>
<path d="M740.181 460.224c2.844-2.702 5.831-5.262 8.676-8.107 55.182-55.182 89.6-121.316 94.578-181.333l2.702-33.422-33.422 2.702c-34.567 3.49-66.107 13.613-94.292 29.088l1.279-0.643c-16.213-38.827-41.244-48.071-61.298-48.071h-384c-1.28 0-3.271 0-4.836 0v0c-76.089 5.973-90.169 132.836-91.591 147.627-0.074 0.767-0.115 1.659-0.115 2.56 0 15.709 12.735 28.444 28.444 28.444 0.041 0 0.081 0 0.122 0h88.314c0 41.102-0.996 84.622-2.133 116.764-4.693 142.933-5.689 232.533 30.578 270.222 9.752 10.531 23.554 17.191 38.915 17.492l0.054 0.001h398.222c0.382 0.008 0.832 0.013 1.282 0.013 18.963 0 35.933-8.532 47.282-21.966l0.076-0.092c31.004-36.267 21.902-105.529 19.769-119.040-2.208-13.7-13.947-24.038-28.101-24.038-0.121 0-0.241 0.001-0.362 0.002h-56.871c-2.628-29.405-4.127-63.609-4.127-98.164 0-11.142 0.156-22.247 0.465-33.314l-0.036 1.629c0.427-15.218 0.569-31.431 0.427-48.356zM708.181 412.011c-29.218 30.080-64.841 53.77-104.684 68.886l-1.983 0.66c15.781-41.824 39.47-77.446 69.478-106.6l0.069-0.067c29.356-29.964 65.127-53.523 105.102-68.467l1.992-0.653c-15.956 41.684-39.776 77.16-69.883 106.153l-0.091 0.087zM238.848 342.749c7.68-34.56 21.76-65.422 35.413-65.422v0c9.671 5.262 14.222 31.289 17.209 65.422zM765.923 744.526c-0.996 1.138-1.707 2.133-5.262 2.133h-318.578c3.421-13.347 5.385-28.67 5.385-44.451 0-2.373-0.044-4.736-0.132-7.088l0.010 0.339h327.111c0.711 19.911-1.564 40.96-8.533 49.067zM416.483 638.571c-0.102-0.001-0.223-0.002-0.344-0.002-15.709 0-28.444 12.735-28.444 28.444 0 1.557 0.125 3.085 0.366 4.574l-0.022-0.163c3.556 23.182 3.271 61.44-6.827 73.102-0.996 1.138-1.707 2.133-5.262 2.133h-13.511c-21.191-18.062-16.924-149.476-14.222-228.409 4.409-111.36 4.409-191.573-10.667-240.924h320.853c1.28 0 6.827 4.551 12.373 23.040-14.521 10.944-27.371 22.035-39.453 33.905l0.057-0.056c-33.728 33.033-60.717 72.801-78.807 117.145l-0.838 2.322s0 0 0 0c0-15.709-12.735-28.444-28.444-28.444v0h-126.578c-15.709 0-28.444 12.735-28.444 28.444s12.735 28.444 28.444 28.444v0h126.578c9.069-0.069 17.119-4.373 22.281-11.028l0.048-0.065c-2.448 7.741-4.723 17.33-6.361 27.134l-0.181 1.311-27.591 28.16h-114.773c-15.709 0-28.444 12.735-28.444 28.444s12.735 28.444 28.444 28.444v0h126.578c0.832 0.086 1.797 0.136 2.773 0.136s1.942-0.049 2.893-0.145l-0.12 0.010 2.418-0.711 2.844-0.853 2.844-1.422 2.133-1.138c1.654-1.089 3.096-2.26 4.412-3.559l30.29-30.29c41.306-6.022 78.29-20.746 110.319-42.273l-0.95 0.602v3.413c-0.239 9.276-0.375 20.2-0.375 31.156 0 34.834 1.375 69.346 4.075 103.486l-0.287-4.508z"></path>
</svg>
