<!-- Generated by IcoMoon.io -->
<svg version="1.1" xmlns="http://www.w3.org/2000/svg" width="1024" height="1024" viewBox="0 0 1024 1024">
<title></title>
<g id="icomoon-ignore">
</g>
<path d="M790.269 448.86c3.468-3.294 7.111-6.418 10.58-9.887 67.294-67.294 109.268-147.944 115.338-221.137l3.294-40.758-40.758 3.294c-42.155 4.258-80.619 16.601-114.988 35.472l1.559-0.783c-19.773-47.351-50.296-58.623-74.754-58.623h-468.292c-1.56 0-3.991 0-5.896 0v0c-92.793 7.285-109.961 161.996-111.695 180.031-0.090 0.935-0.139 2.023-0.139 3.12 0 19.157 15.531 34.688 34.688 34.688 0.049 0 0.097 0 0.15 0h107.698c0 50.126-1.216 103.198-2.601 142.396-5.725 174.309-6.937 283.577 37.29 329.538 11.892 12.843 28.726 20.963 47.459 21.332l0.066 0.001h485.634c0.466 0.008 1.016 0.017 1.562 0.017 23.127 0 43.821-10.404 57.662-26.786l0.092-0.112c37.808-44.227 26.71-128.693 24.109-145.172-2.692-16.708-17.007-29.314-34.269-29.314-0.149 0-0.293 0.001-0.442 0.002h-69.355c-3.204-35.861-5.031-77.573-5.031-119.712 0-13.586 0.192-27.131 0.569-40.626l-0.044 1.985c0.519-18.558 0.693-38.331 0.519-58.972zM751.245 390.063c-35.63 36.684-79.073 65.574-127.664 84.006l-2.419 0.804c19.245-51.004 48.134-94.446 84.73-130l0.085-0.083c35.8-36.54 79.423-65.271 128.174-83.495l2.428-0.797c-19.46 50.832-48.508 94.096-85.223 129.453l-0.111 0.107zM178.888 305.597c9.364-42.148 26.536-79.782 43.185-79.782v0c11.795 6.418 17.342 38.157 20.985 79.782zM821.663 795.566c-1.216 1.386-2.083 2.601-6.418 2.601h-388.51c4.173-16.275 6.569-34.962 6.569-54.207 0-2.893-0.052-5.776-0.16-8.644l0.014 0.415h398.915c0.867 24.283-1.908 49.952-10.405 59.839zM395.515 666.355c-0.126-0.001-0.271-0.002-0.42-0.002-19.157 0-34.688 15.531-34.688 34.688 0 1.897 0.153 3.761 0.446 5.578l-0.026-0.199c4.336 28.27 3.991 74.928-8.327 89.15-1.216 1.386-2.083 2.601-6.418 2.601h-16.475c-25.843-22.026-20.64-182.288-17.342-278.545 5.377-135.804 5.377-233.625-13.007-293.808h391.281c1.56 0 8.327 5.551 15.089 28.096-17.709 13.348-33.379 26.871-48.113 41.349l0.069-0.068c-41.132 40.285-74.045 88.781-96.107 142.861l-1.022 2.83s0 0 0 0c0-19.157-15.531-34.688-34.688-34.688v0h-154.362c-19.157 0-34.688 15.531-34.688 34.688s15.531 34.688 34.688 34.688v0h154.362c11.061-0.085 20.875-5.333 27.173-13.448l0.060-0.081c-2.984 9.441-5.759 21.134-7.757 33.090l-0.221 1.599-33.647 34.34h-139.965c-19.157 0-34.688 15.531-34.688 34.688s15.531 34.688 34.688 34.688v0h154.362c1.016 0.106 2.193 0.164 3.381 0.164s2.37-0.061 3.529-0.177l-0.148 0.014 2.95-0.867 3.468-1.041 3.468-1.734 2.601-1.386c2.018-1.329 3.776-2.756 5.38-4.339l36.938-36.938c50.374-7.342 95.474-25.298 134.535-51.553l-1.158 0.734v4.161c-0.291 11.312-0.459 24.636-0.459 37.996 0 42.482 1.675 84.566 4.971 126.202l-0.351-5.496z"></path>
</svg>
