<svg id="Layer_2" data-name="Layer 2" xmlns="http://www.w3.org/2000/svg" viewBox="0 0 36 36"><defs><style>.cls-1{fill:#4f4f4f;}</style></defs><title>search</title><path class="cls-1" d="M29.68,26.79l-7.37-7.37a8.59,8.59,0,0,0,1.56-4.94,8.88,8.88,0,0,0-9-8.77,8.88,8.88,0,0,0-9,8.77,8.88,8.88,0,0,0,9,8.77A9,9,0,0,0,21,20.92l7.29,7.29a1,1,0,0,0,1.41-1.41ZM14.9,21.25a6.88,6.88,0,0,1-7-6.77,6.88,6.88,0,0,1,7-6.77,6.88,6.88,0,0,1,7,6.77A6.88,6.88,0,0,1,14.9,21.25Z"/><rect class="cls-1" x="13.39" y="10.02" width="4.2" height="2" transform="translate(-3.25 14.18) rotate(-45)"/><rect class="cls-1" x="13.39" y="14" width="4.2" height="2" transform="translate(-6.07 15.34) rotate(-45)"/></svg>