<!-- Generated by IcoMoon.io -->
<svg version="1.1" xmlns="http://www.w3.org/2000/svg" width="1024" height="1024" viewBox="0 0 1024 1024">
<title></title>
<g id="icomoon-ignore">
</g>
<path d="M816.113 769.62l-198.172-198.172c27.317-38.905 41.97-85.294 41.948-132.832-0.386-31.381-6.952-62.377-19.329-91.218s-30.314-54.956-52.789-76.859c-22.478-21.903-49.045-39.159-78.2-50.783s-60.305-17.386-91.685-16.959c-31.38-0.43-62.535 5.34-91.684 16.959s-55.723 28.883-78.201 50.783c-22.478 21.903-40.413 48.017-52.789 76.859s-18.945 59.837-19.329 91.218c0.388 31.381 6.953 62.378 19.329 91.218 12.373 28.844 30.315 54.958 52.789 76.86s49.046 39.16 78.201 50.783c29.151 11.627 60.304 17.389 91.684 16.959 60.867 0.587 119.72-21.778 164.827-62.65l196.018 196.018c5.146 4.405 11.762 6.71 18.526 6.448 6.766-0.258 13.187-3.067 17.972-7.854s7.596-11.208 7.854-17.972c0.258-6.77-2.039-13.386-6.448-18.526l-0.539-0.27zM418.699 620.651c-24.317 0.43-48.48-3.946-71.106-12.865-22.626-8.921-43.273-22.215-60.755-39.126-17.481-16.906-31.462-37.098-41.133-59.411s-14.848-46.318-15.235-70.637c0.387-24.317 5.562-48.318 15.235-70.637s23.648-42.507 41.133-59.413c17.481-16.906 38.129-30.202 60.755-39.126s46.789-13.291 71.106-12.868c24.317-0.43 48.481 3.946 71.105 12.868 22.628 8.919 43.273 22.215 60.755 39.126 17.482 16.906 31.463 37.1 41.133 59.413s14.848 46.318 15.234 70.637c-0.386 24.317-5.561 48.318-15.234 70.637s-23.648 42.505-41.133 59.411c-17.478 16.91-38.127 30.202-60.755 39.126-22.624 8.916-46.789 13.291-71.105 12.865z"></path>
</svg>
