<!-- Generated by IcoMoon.io -->
<svg version="1.1" xmlns="http://www.w3.org/2000/svg" width="1024" height="1024" viewBox="0 0 1024 1024">
<title></title>
<g id="icomoon-ignore">
</g>
<path d="M844.231 762.027l-209.636-209.636c27.758-39.108 44.373-87.819 44.373-140.411 0-0.037 0-0.074 0-0.111v0.006c-1.753-138.158-114.16-249.481-252.568-249.481-1.207 0-2.412 0.008-3.614 0.025l0.182-0.002c-1.021-0.015-2.226-0.023-3.432-0.023-138.408 0-250.815 111.323-252.566 249.316l-0.002 0.165c1.753 138.158 114.16 249.481 252.568 249.481 1.207 0 2.412-0.008 3.614-0.025l-0.182 0.002c0.736 0.008 1.606 0.012 2.477 0.012 66.259 0 126.639-25.172 172.097-66.476l-0.21 0.188 207.36 207.36c4.941 4.251 11.419 6.84 18.502 6.84 15.709 0 28.444-12.735 28.444-28.444 0-7.083-2.589-13.56-6.871-18.539l0.031 0.037zM423.822 604.444c-1.023 0.019-2.229 0.030-3.438 0.030-106.991 0-193.929-85.859-195.671-192.435l-0.002-0.164c1.744-106.74 88.682-192.599 195.673-192.599 1.209 0 2.415 0.011 3.619 0.033l-0.181-0.003c1.023-0.019 2.229-0.030 3.438-0.030 106.991 0 193.929 85.859 195.671 192.435l0.002 0.164c-1.744 106.74-88.682 192.599-195.673 192.599-1.209 0-2.415-0.011-3.619-0.033l0.181 0.003z"></path>
<path d="M378.407 335.561l84.476-84.476 40.227 40.227-84.476 84.476-40.227-40.227z"></path>
<path d="M378.244 448.607l84.476-84.476 40.227 40.227-84.476 84.476-40.227-40.227z"></path>
</svg>
