<!-- Generated by IcoMoon.io -->
<svg version="1.1" xmlns="http://www.w3.org/2000/svg" width="1024" height="1024" viewBox="0 0 1024 1024">
<title></title>
<g id="icomoon-ignore">
</g>
<path d="M733.964 653.63c-37.966 0-70.089 20.446-90.535 49.651l-210.276-119.741c14.603-20.446 23.363-46.726 23.363-75.932 0-26.284-8.76-49.651-20.446-70.089l248.242-128.501c14.603 8.76 32.123 14.603 49.651 14.603 46.726 0 84.692-37.966 84.692-84.692s-37.966-84.692-84.692-84.692c-46.726 0-84.692 37.966-84.692 84.692 0 5.843 0 14.603 2.918 20.446l-254.085 134.344c-23.363-17.52-49.651-26.284-78.853-26.284-78.853 0-140.187 64.252-140.187 140.187s61.329 140.187 140.187 140.187c26.284 0 52.569-8.76 73.015-20.446l236.559 134.344c0 58.412 46.726 108.055 108.055 108.055 58.412 0 108.055-46.726 108.055-108.055-2.918-61.329-52.569-108.055-110.981-108.055z"></path>
</svg>
