<svg id="Layer_2" data-name="Layer 2" xmlns="http://www.w3.org/2000/svg" viewBox="0 0 36 36"><defs><style>.cls-1{fill:#4f4f4f;}</style></defs><title>shoping</title><path class="cls-1" d="M30.85,12c-.36-.57-1.18-1.25-3-1.25h-16l-.75-2.78H6.93a1,1,0,0,0,0,2H9.54l4.12,15.35H26.39a1,1,0,1,0,0-2H15.19l-.44-1.63H25.35c1.6,0,2.36-1,3-2.1l2.52-5A2.65,2.65,0,0,0,30.85,12Zm-9.4.75h2l-.58,6.94H21.44Zm-2,6.94H17.81l-1-6.94h2.67Zm-7.09-6.94h2.4l1,6.94H14.22Zm16.7,1-2.47,4.91c-.58,1-.83,1.06-1.24,1.06H24.9l.58-6.94h2.38c.87,0,1.23.2,1.31.32A.84.84,0,0,1,29.05,13.68Z"/><circle class="cls-1" cx="17" cy="27.66" r="1"/><circle class="cls-1" cx="23" cy="27.66" r="1"/></svg>