<!-- Generated by IcoMoon.io -->
<svg version="1.1" xmlns="http://www.w3.org/2000/svg" width="1024" height="1024" viewBox="0 0 1024 1024">
<title></title>
<g id="icomoon-ignore">
</g>
<path d="M861.467 332.374c-10.24-16.213-33.564-35.556-85.333-35.556h-455.111l-21.333-79.076h-118.613c-15.709 0-28.444 12.735-28.444 28.444s12.735 28.444 28.444 28.444v0h74.24l117.191 436.622h362.098c15.709 0 28.444-12.735 28.444-28.444s-12.735-28.444-28.444-28.444v0h-318.578l-12.516-46.364h301.511c45.511 0 67.129-28.444 85.333-59.733l71.68-142.222c5.873-10.481 9.332-23 9.332-36.328 0-13.737-3.674-26.615-10.094-37.706l0.194 0.363zM594.089 353.708h56.889l-16.498 197.404h-40.676zM537.2 551.112h-46.649l-28.444-197.404h75.947zM335.529 353.708h68.267l28.444 197.404h-43.804zM810.552 382.152l-70.258 139.662c-16.498 28.444-23.609 30.151-35.271 30.151h-12.8l16.498-197.404h67.698c24.747 0 34.987 5.689 37.262 9.102 0.185 1.118 0.291 2.406 0.291 3.719 0 4.741-1.381 9.159-3.762 12.874l0.057-0.095z"></path>
<path d="M495.956 777.814c0 15.709-12.735 28.444-28.444 28.444s-28.444-12.735-28.444-28.444c0-15.709 12.735-28.444 28.444-28.444s28.444 12.735 28.444 28.444z"></path>
<path d="M666.623 777.814c0 15.709-12.735 28.444-28.444 28.444s-28.444-12.735-28.444-28.444c0-15.709 12.735-28.444 28.444-28.444s28.444 12.735 28.444 28.444z"></path>
</svg>
