<!-- Generated by IcoMoon.io -->
<svg version="1.1" xmlns="http://www.w3.org/2000/svg" width="1024" height="1024" viewBox="0 0 1024 1024">
<title></title>
<g id="icomoon-ignore">
</g>
<path d="M752.915 347.524c-1.962-18.047-17.115-31.968-35.517-31.968-0.070 0-0.14 0-0.206 0h-80.175v-53.577c0-78.755-56.078-142.868-125.011-142.868s-125.011 64.113-125.011 142.868v53.577h-80.365c-0.057 0-0.127 0-0.197 0-18.408 0-33.561 13.922-35.506 31.807l-0.016 0.156-53.577 517.899c-0.125 1.126-0.197 2.43-0.197 3.752 0 19.724 15.99 35.719 35.719 35.719 0.070 0 0.141 0 0.206 0h517.885c0.057 0 0.127 0 0.197 0 19.724 0 35.719-15.99 35.719-35.719 0-1.322-0.072-2.626-0.213-3.909l0.016 0.157zM458.425 261.98c0-38.752 24.464-71.434 53.577-71.434s53.577 32.682 53.577 71.434v53.577h-107.153zM292.698 833.456l46.073-446.466h48.22v35.719c0 19.724 15.99 35.719 35.719 35.719s35.719-15.99 35.719-35.719v0-35.719h107.153v35.719c0 19.724 15.99 35.719 35.719 35.719s35.719-15.99 35.719-35.719v0-35.719h48.22l46.256 446.466z"></path>
</svg>
