<svg id="Layer_2" data-name="Layer 2" xmlns="http://www.w3.org/2000/svg" viewBox="0 0 36 36"><defs><style>.cls-1{fill:#4f4f4f;}</style></defs><title>filters</title><path class="cls-1" d="M6,8.1H17V9.63a1,1,0,0,0,2,0V8.1H30a1,1,0,0,0,0-2H19V4.57a1,1,0,0,0-2,0V6.1H6a1,1,0,0,0,0,2Z"/><path class="cls-1" d="M30,17H11V15.47a1,1,0,0,0-2,0V17H6a1,1,0,1,0,0,2H9v1.53a1,1,0,0,0,2,0V19H30a1,1,0,0,0,0-2Z"/><path class="cls-1" d="M30,28H27V26.37a1,1,0,0,0-2,0V28H6a1,1,0,1,0,0,2H25v1.38a1,1,0,0,0,2,0V30h3a1,1,0,0,0,0-2Z"/></svg>