<!-- Generated by IcoMoon.io -->
<svg version="1.1" xmlns="http://www.w3.org/2000/svg" width="1024" height="1024" viewBox="0 0 1024 1024">
<title></title>
<g id="icomoon-ignore">
</g>
<path d="M197.325 253.049h288.453v40.122c0 14.483 11.741 26.222 26.222 26.222s26.222-11.741 26.222-26.222v0-40.122h288.453c14.483 0 26.222-11.741 26.222-26.222s-11.741-26.222-26.222-26.222v0h-288.453v-40.122c0-14.483-11.741-26.222-26.222-26.222s-26.222 11.741-26.222 26.222v0 40.122h-288.453c-14.483 0-26.222 11.741-26.222 26.222s11.741 26.222 26.222 26.222v0z"></path>
<path d="M826.675 486.435h-498.236v-40.122c0-14.483-11.741-26.222-26.222-26.222s-26.222 11.741-26.222 26.222v0 40.122h-78.669c-14.483 0-26.222 11.741-26.222 26.222s11.741 26.222 26.222 26.222v0h78.669v40.122c0 14.483 11.741 26.222 26.222 26.222s26.222-11.741 26.222-26.222v0-40.122h498.236c14.483 0 26.222-11.741 26.222-26.222s-11.741-26.222-26.222-26.222v0z"></path>
<path d="M826.675 774.887h-78.669v-42.744c0-14.483-11.741-26.222-26.222-26.222s-26.222 11.741-26.222 26.222v0 42.744h-498.236c-14.483 0-26.222 11.741-26.222 26.222s11.741 26.222 26.222 26.222v0h498.236v36.187c0 14.483 11.741 26.222 26.222 26.222s26.222-11.741 26.222-26.222v0-36.187h78.669c14.483 0 26.222-11.741 26.222-26.222s-11.741-26.222-26.222-26.222v0z"></path>
</svg>
