<!-- Generated by IcoMoon.io -->
<svg version="1.1" xmlns="http://www.w3.org/2000/svg" width="1024" height="1024" viewBox="0 0 1024 1024">
<title></title>
<g id="icomoon-ignore">
</g>
<path d="M187.449 605.582c0-9.426 7.641-17.067 17.067-17.067v0h85.333c9.426 0 17.067 7.641 17.067 17.067s-7.641 17.067-17.067 17.067h-85.333c-9.426 0-17.067-7.641-17.067-17.067v0z"></path>
<path d="M214.471 512c2.802-5.818 8.653-9.762 15.424-9.762 2.664 0 5.186 0.611 7.433 1.699l-0.102-0.044 76.942 36.551c5.116 3.011 8.496 8.49 8.496 14.758 0 9.426-7.641 17.067-17.067 17.067-2.025 0-3.968-0.353-5.77-1l0.119 0.037-77.369-36.551c-5.818-2.802-9.762-8.653-9.762-15.424 0-2.664 0.611-5.186 1.699-7.433l-0.044 0.102z"></path>
<path d="M213.333 699.307c2.79 5.852 8.658 9.823 15.453 9.823 2.598 0 5.060-0.58 7.264-1.619l-0.104 0.044 77.227-36.267c5.948-2.806 9.991-8.753 9.991-15.644 0-9.524-7.72-17.244-17.244-17.244-2.632 0-5.127 0.59-7.358 1.644l0.105-0.045-77.227 36.124c-5.911 2.768-9.932 8.666-9.932 15.504 0 2.8 0.674 5.443 1.87 7.775l-0.045-0.096z"></path>
<path d="M648.96 824.889h-7.822c-30.259-1.314-56.364-17.936-70.892-42.27l-0.219-0.397c-6.728-15.256-21.72-25.712-39.153-25.712-1.639 0-3.256 0.092-4.846 0.272l0.195-0.018c-41.529 6.116-118.329 0.711-145.209-25.316-9.265-8.412-15.060-20.504-15.060-33.949 0-3.084 0.305-6.097 0.886-9.010l-0.049 0.292c0.413-2.528 0.65-5.441 0.65-8.409 0-6.624-1.176-12.974-3.331-18.851l0.122 0.38c-0.748-2.426-1.179-5.214-1.179-8.103 0-14.722 11.184-26.832 25.52-28.296l0.121-0.010c11.28-0.918 21.2-6.095 28.27-13.901l0.032-0.036c-23.285-2.753-43.561-13.863-58.087-30.2l-0.081-0.093c-3.997-4.861-6.42-11.148-6.42-18 0-0.372 0.007-0.742 0.021-1.111l-0.002 0.053c0-5.262 0-14.222 0.996-22.613-23.174-11.748-39.334-34.388-41.791-60.998l-0.022-0.299c-0.011-0.35-0.017-0.762-0.017-1.175 0-18.76 12.397-34.625 29.446-39.849l0.295-0.078c15.182-5.15 27.887-14.276 37.277-26.145l0.127-0.166c0.37-0.533 0.704-1.141 0.972-1.784l0.024-0.065c0-0.711 0-4.693-1.138-7.964-1.833-10.935-2.881-23.535-2.881-36.379 0-8.678 0.478-17.244 1.41-25.674l-0.093 1.039c6.969-69.831 94.862-134.258 191.858-140.942 4.557-0.292 9.88-0.459 15.243-0.459 45.786 0 88.734 12.148 125.798 33.397l-1.236-0.653c60.125 31.151 104.556 85.531 121.798 150.948l0.371 1.656c15.502 65.28 0 133.404-43.804 196.978-29.298 42.667-37.404 78.791-23.467 105.529 5.758 11.182 9.134 24.403 9.134 38.412 0 27.898-13.388 52.669-34.089 68.239l-0.219 0.158c-3.982 3.129-8.533 6.258-13.369 9.529-20.979 13.826-46.71 22.055-74.363 22.055-0.607 0-1.213-0.004-1.818-0.012l0.092 0.001zM531.484 699.733c38.166 0.201 71.229 21.848 87.774 53.495l0.261 0.549c5.165 8.268 14.053 13.793 24.259 14.22l0.061 0.002c2.136 0.204 4.618 0.32 7.127 0.32 15.828 0 30.576-4.626 42.966-12.599l-0.315 0.19c3.84-2.56 7.396-5.12 10.524-7.538 7.149-5.231 11.74-13.591 11.74-23.023 0-4.341-0.973-8.456-2.712-12.137l0.074 0.173c-16.356-32.427-26.169-87.609 27.022-164.267 34.56-50.062 46.791-102.542 35.129-151.609-13.724-51.030-47.771-92.327-92.705-115.435l-1.020-0.477c-27.844-16.314-61.315-25.948-97.037-25.948-4.088 0-8.147 0.126-12.173 0.375l0.552-0.027c-73.956 4.836-135.396 51.911-138.809 89.031-0.701 5.882-1.102 12.695-1.102 19.601 0 9.852 0.814 19.514 2.38 28.922l-0.14-1.021c1.118 4.436 1.76 9.528 1.76 14.77 0 12.458-3.624 24.069-9.875 33.838l0.151-0.252c-13.449 18.924-31.234 33.928-51.955 43.744l-0.809 0.345c4.51 3.923 9.942 6.914 15.92 8.605l0.294 0.071c11.961 3.542 20.539 14.431 20.539 27.324 0 0.644-0.021 1.284-0.064 1.918l0.005-0.086c0 7.964-1.138 18.347-1.564 27.164 14.852 5.28 32.048 8.883 49.905 10.067l0.584 0.031c14.145 1.789 24.974 13.746 24.974 28.232 0 0.776-0.031 1.544-0.092 2.304l0.006-0.1c-3.827 37.218-27.254 68.179-59.658 82.658l-0.645 0.257c0.27 2.728 0.424 5.897 0.424 9.102s-0.154 6.374-0.455 9.5l0.031-0.398c19.782 6.486 42.548 10.226 66.188 10.226 10.363 0 20.558-0.719 30.537-2.109l-1.152 0.132c2.094-0.137 4.54-0.216 7.004-0.216 1.438 0 2.87 0.027 4.296 0.080l-0.206-0.006zM357.831 491.662v0z"></path>
</svg>
