<!-- Generated by IcoMoon.io -->
<svg version="1.1" xmlns="http://www.w3.org/2000/svg" width="1024" height="1024" viewBox="0 0 1024 1024">
<title></title>
<g id="icomoon-ignore">
</g>
<path d="M696.861 837.974c-0.032 0-0.070 0-0.107 0-7.14 0-13.863-1.79-19.743-4.945l0.223 0.11-164.978-85.333-164.978 85.333c-5.7 3.072-12.474 4.878-19.67 4.878-23.25 0-42.098-18.848-42.098-42.098 0-2.527 0.223-5.003 0.65-7.408l-0.037 0.254 31.573-183.751-133.12-131.129c-7.78-7.644-12.602-18.277-12.602-30.037 0-21.072 15.483-38.529 35.693-41.614l0.234-0.029 184.604-26.738 82.489-167.253c7.096-13.319 20.894-22.231 36.773-22.231 0.672 0 1.341 0.016 2.006 0.048l-0.094-0.004c0.013 0 0.028 0 0.043 0 16.359 0 30.524 9.395 37.394 23.084l0.11 0.241 82.489 167.253 184.32 26.738c19.507 3.929 33.991 20.928 33.991 41.31 0 11.361-4.501 21.671-11.816 29.245l0.012-0.012-133.404 130.276 31.573 183.751c0.385 2.138 0.605 4.599 0.605 7.112 0 23.163-18.707 41.956-41.836 42.097h-0.013zM246.017 455.397l117.476 113.778c7.75 7.596 12.555 18.173 12.555 29.871 0 2.511-0.221 4.97-0.645 7.359l0.037-0.252-28.444 161.564 145.067-76.231c5.643-3.057 12.354-4.855 19.484-4.855s13.842 1.797 19.705 4.963l-0.22-0.109 145.067 76.231-28.444-161.564c-0.388-2.139-0.61-4.6-0.61-7.114 0-11.839 4.92-22.528 12.827-30.136l0.013-0.013 117.476-113.778-162.418-23.609c-13.958-2.080-25.505-10.805-31.464-22.797l-0.109-0.243-69.689-146.489-73.956 147.058c-6.069 12.235-17.616 20.96-31.344 23.012l-0.229 0.028zM519.652 742.686v0zM701.412 610.703v0zM224.399 434.348v0zM635.99 383.717v0zM498.888 234.668v0z"></path>
</svg>
