<svg id="Layer_2" data-name="Layer 2" xmlns="http://www.w3.org/2000/svg" viewBox="0 0 36 36"><defs><style>.cls-1{fill:#4f4f4f;}</style></defs><title>star</title><path class="cls-1" d="M24.44,29.8a1.47,1.47,0,0,1-.69-.17l-5.8-3-5.8,3A1.48,1.48,0,0,1,10,28.07l1.11-6.46L6.43,17a1.48,1.48,0,0,1,.82-2.52l6.49-.94,2.9-5.88A1.46,1.46,0,0,1,18,6.88h0a1.47,1.47,0,0,1,1.32.82h0l2.9,5.88,6.48.94A1.48,1.48,0,0,1,29.48,17l-4.69,4.58,1.11,6.46a1.48,1.48,0,0,1-1.45,1.73ZM8.59,16.35l4.13,4a1.47,1.47,0,0,1,.42,1.3l-1,5.68,5.1-2.68a1.46,1.46,0,0,1,1.37,0l5.1,2.68-1-5.68a1.47,1.47,0,0,1,.43-1.31l4.13-4-5.71-.83a1.47,1.47,0,0,1-1.11-.81L18,9.55,15.4,14.72a1.47,1.47,0,0,1-1.11.81Zm9.62,10.1h0Zm6.39-4.64h0ZM7.83,15.61h0ZM22.3,13.83h0ZM17.48,8.59h0Z"/></svg>