<!-- Generated by IcoMoon.io -->
<svg version="1.1" xmlns="http://www.w3.org/2000/svg" width="1024" height="1024" viewBox="0 0 1024 1024">
<title></title>
<g id="icomoon-ignore">
</g>
<path fill="#000" d="M849.922 432.156c-5-15.022-17.885-26.103-33.622-28.417l-0.227-0.027-184.32-26.738-82.489-167.253c-6.741-13.729-20.423-23.119-36.345-23.607l-0.063-0.002c-0.065 0-0.143-0.001-0.22-0.001-16.31 0-30.425 9.403-37.218 23.083l-0.109 0.242-82.489 167.253-184.604 26.738c-20.453 3.106-35.946 20.567-35.946 41.646 0 11.198 4.372 21.375 11.502 28.916l-0.019-0.020 133.404 130.276-31.858 184.604c-0.339 2.008-0.533 4.321-0.533 6.679 0 23.25 18.848 42.098 42.098 42.098 7.052 0 13.699-1.734 19.538-4.799l-0.231 0.11 164.978-85.333 164.978 85.333c5.711 3.118 12.511 4.952 19.738 4.952 23.093 0 41.813-18.72 41.813-41.813 0-2.656-0.248-5.253-0.721-7.771l0.041 0.26-31.573-183.751 133.973-130.844c7.618-7.575 12.332-18.063 12.332-29.652 0-4.339-0.661-8.523-1.887-12.458l0.080 0.296z"></path>
</svg>
