<svg id="Layer_2" data-name="Layer 2" xmlns="http://www.w3.org/2000/svg" viewBox="0 0 36 36"><defs><style>.cls-1{fill:#4f4f4f;}</style></defs><title>check copy 3</title><path class="cls-1" d="M18,35.51A16.63,16.63,0,1,1,34.63,18.87,16.63,16.63,0,0,1,18,35.51ZM18,5.37a13.5,13.5,0,1,0,13.5,13.5A13.5,13.5,0,0,0,18,5.37Z"/><path class="cls-1" d="M20.46,15.57a8.25,8.25,0,0,1,4.23-2.06,15.74,15.74,0,0,0-.77-4.68C13.6,13.07,12,24.64,11.82,27.48a14.51,14.51,0,0,0-.39,1.94h0a2.3,2.3,0,0,0,.26-.24,7,7,0,0,1,.39-1.8c.95-1.61,3.31-2.92,8.71-6.24a7.53,7.53,0,0,0,2.87-3,6.44,6.44,0,0,0-2.46.63A5.33,5.33,0,0,1,24,17.49,10,10,0,0,0,24.7,14a8.23,8.23,0,0,0-4.3,1.62Z"/></svg>