<!-- Generated by IcoMoon.io -->
<svg version="1.1" xmlns="http://www.w3.org/2000/svg" width="1024" height="1024" viewBox="0 0 1024 1024">
<title></title>
<g id="icomoon-ignore">
</g>
<path d="M512 937.031c-234.737 0-425.031-190.294-425.031-425.031s190.294-425.031 425.031-425.031c234.649 0 424.885 190.147 425.031 424.761v0.013c0 0.075 0 0.166 0 0.254 0 234.737-190.294 425.031-425.031 425.031v0zM512 166.712c-190.558 0-345.033 154.478-345.033 345.033s154.478 345.033 345.033 345.033c190.558 0 345.033-154.478 345.033-345.033v0c0-190.558-154.478-345.033-345.033-345.033v0z"></path>
<path d="M574.872 427.404c29.101-26.764 65.975-45.506 106.864-52.475l1.246-0.174c-0.522-42.915-7.685-83.975-20.499-122.451l0.82 2.84c-263.76 108.367-304.654 404.074-309.252 476.659-3.953 13.722-7.443 30.511-9.758 47.672l-0.21 1.909c2.431-1.929 4.603-3.939 6.612-6.097l0.034-0.037c1.412-16.9 4.951-32.528 10.368-47.245l-0.4 1.24c24.28-41.149 84.596-74.631 222.611-159.481 31.222-18.442 56.197-44.482 72.848-75.642l0.504-1.034c-23.080 1.24-44.527 7.050-63.843 16.532l0.97-0.43c19.353-17.099 43.825-28.828 70.841-32.632l0.721-0.084c10.745-26.37 17.257-56.937 17.888-88.943l0.004-0.254c-41.744 3.327-79.432 18.366-110.43 41.788l0.53-0.385z"></path>
</svg>
