<svg id="Layer_2" data-name="Layer 2" xmlns="http://www.w3.org/2000/svg" xmlns:xlink="http://www.w3.org/1999/xlink" viewBox="0 0 36 36"><defs><style>.cls-1{fill:none;}.cls-2{clip-path:url(#clip-path);}.cls-3{fill:#4f4f4f;}</style><clipPath id="clip-path"><rect class="cls-1" x="3.76" y="3.64" width="28.72" height="28.72"/></clipPath></defs><title>raqueta</title><g class="cls-2"><path class="cls-3" d="M23.48,9.83,9.89,23.38c-.9-.9-1.71-1.79-2.61-2.69a13.31,13.31,0,0,1-2.61-3.32,9.7,9.7,0,0,1,7.2-13.64A9.39,9.39,0,0,1,20,6.24c1.17,1.08,2.25,2.24,3.42,3.41C23.48,9.74,23.48,9.74,23.48,9.83Z"/><path class="cls-3" d="M11.69,25.09,25.28,11.54a4.29,4.29,0,0,1,1.17,2.06,4.5,4.5,0,0,1-1.08,4.58c-2.34,2.42-4.68,4.76-7.11,7.09a4.63,4.63,0,0,1-6.39-.09C11.78,25.09,11.78,25.09,11.69,25.09Z"/><path class="cls-3" d="M26.18,20.78a12,12,0,0,0,.63,1.62,8.73,8.73,0,0,0,2,2.78l3.69,3.68-3.42,3.41a14.33,14.33,0,0,0-1.17-1.17C27,30.2,26,29.22,25,28.32a10.24,10.24,0,0,0-3.69-2.15c-.09,0-.18-.09-.36-.09C22.76,24.28,24.47,22.58,26.18,20.78Z"/><path class="cls-3" d="M6.73,26.35a3.07,3.07,0,0,1,3.06,3,3,3,0,0,1-3,3.05,3,3,0,0,1-3.06-3A3.07,3.07,0,0,1,6.73,26.35Z"/></g></svg>