<!-- Generated by IcoMoon.io -->
<svg version="1.1" xmlns="http://www.w3.org/2000/svg" width="1024" height="1024" viewBox="0 0 1024 1024">
<title></title>
<g id="icomoon-ignore">
</g>
<path d="M667.876 279.609l-386.56 385.422c-25.6-25.6-48.64-50.916-74.24-76.516-29.114-26.924-53.811-58.056-73.258-92.542l-0.982-1.893c-16.104-33.979-25.507-73.824-25.507-115.866 0-136.273 98.794-249.472 228.666-271.882l1.641-0.234c13.646-2.471 29.351-3.884 45.386-3.884 72.277 0 137.849 28.709 185.935 75.346l-0.068-0.066c33.28 30.72 64 63.716 97.28 96.996 1.707 2.56 1.707 2.56 1.707 5.12z"></path>
<path d="M332.516 713.671l386.56-385.422c15.918 15.585 27.576 35.461 33.104 57.757l0.176 0.839c4.084 11.969 6.442 25.757 6.442 40.095 0 35.183-14.195 67.050-37.169 90.188l0.007-0.007c-66.56 68.836-133.12 135.396-202.24 201.671-23.424 21.764-54.921 35.12-89.538 35.12-35.921 0-68.483-14.381-92.243-37.7l0.020 0.020c-2.56-2.56-2.56-2.56-5.12-2.56z"></path>
<path d="M744.676 591.076c5.626 18.175 11.707 33.438 18.808 48.116l-0.888-2.036c14.227 30.891 33.38 57.143 56.743 78.941l0.146 0.135 104.96 104.676-97.28 96.996c-10.575-11.841-21.439-22.705-32.884-32.933l-0.396-0.347c-25.884-25.6-54.329-53.476-82.773-79.076-29.248-26.656-64.265-47.548-102.906-60.556l-2.054-0.6c-2.56 0-5.12-2.56-10.24-2.56 51.484-51.2 100.124-99.556 148.764-150.756z"></path>
<path d="M191.431 749.511c47.416 0.147 85.928 38.061 87.038 85.23l0.002 0.103c0.008 0.423 0.012 0.922 0.012 1.422 0 47.128-38.205 85.333-85.333 85.333-0.004 0-0.008 0-0.012 0h0.001c-0.508 0.011-1.107 0.017-1.707 0.017-47.128 0-85.333-38.205-85.333-85.333 0-0.006 0-0.012 0-0.018v0.001c0.305-47.294 38.16-85.647 85.23-86.754l0.103-0.002z"></path>
</svg>
