<svg id="Layer_2" data-name="Layer 2" xmlns="http://www.w3.org/2000/svg" viewBox="0 0 36 36"><defs><style>.cls-1{fill:none;}.cls-2{fill:#4f4f4f;}</style></defs><title>terms</title><path class="cls-1" d="M9,27V10.54H9a1,1,0,0,0-1,1v18a1,1,0,0,0,1,1H21a1,1,0,0,0,.88-.54H12A3,3,0,0,1,9,27Z"/><path class="cls-2" d="M22.43,6H12A3,3,0,0,0,9,8.54H9a3,3,0,0,0-3,3v18a3,3,0,0,0,3,3H21a3,3,0,0,0,3-2.54H24a3,3,0,0,0,3-3V10.87ZM25,27a1,1,0,0,1-1,1H12a1,1,0,0,1-1-1V9a1,1,0,0,1,.14-.48A1,1,0,0,1,12,8h8v2.46a2.72,2.72,0,0,0,2.72,2.72H25ZM22,10.46v-2l2.54,2.71H22.73A.72.72,0,0,1,22,10.46ZM21,30.54H9a1,1,0,0,1-1-1v-18a1,1,0,0,1,1-1H9V27a3,3,0,0,0,3,3h9.82A1,1,0,0,1,21,30.54Z"/><polygon class="cls-2" points="23.34 16.09 23.34 14.09 21.87 14.09 12.85 14.09 12.85 16.09 21.98 16.09 23.34 16.09"/><rect class="cls-2" x="12.85" y="17.08" width="8.9" height="1.84"/><polygon class="cls-2" points="18.96 10.63 18.96 9.11 12.85 9.11 12.85 10.54 12.85 10.63 18.63 10.63 18.96 10.63"/><polygon class="cls-2" points="18.96 10.99 18.96 10.98 18.95 10.98 12.85 10.98 12.85 12.51 18.96 12.51 18.96 10.99"/><rect class="cls-2" x="15.38" y="26.4" width="0.16" height="0.33"/><rect class="cls-2" x="15.87" y="26.4" width="0.33" height="0.33"/><rect class="cls-2" x="19.8" y="26.4" width="0.33" height="0.33"/><rect class="cls-2" x="18.49" y="26.4" width="0.33" height="0.33"/><rect class="cls-2" x="16.52" y="26.4" width="0.33" height="0.33"/><rect class="cls-2" x="17.18" y="26.4" width="0.33" height="0.33"/><rect class="cls-2" x="19.15" y="26.4" width="0.33" height="0.33"/><rect class="cls-2" x="17.84" y="26.4" width="0.33" height="0.33"/><rect class="cls-2" x="20.46" y="26.4" width="0.16" height="0.33"/><path class="cls-2" d="M22.66,22.87l.09.1a1.94,1.94,0,0,1-.77.38,6.18,6.18,0,0,1-.75.19L19.66,22.2l-.8,1.38-.77-1.46L16.94,23.9h-.1a1.33,1.33,0,0,0,0-.34,1.84,1.84,0,0,0-1-1.48,1.37,1.37,0,0,0-1.44-.16c-.94.49-1,2.16-1,2.5l0,.82,1.16,0v-.41l3,.28.45-.7L18.81,26,20,24l.91.78.26,0a8,8,0,0,0,.85-.17c.76-.19,1.64-.55,1.88-1.22a1.2,1.2,0,0,0-.34-1.26Zm-7.17,1-.95.64v-.1a2.49,2.49,0,0,1,.42-1.5h0a.58.58,0,0,1,.26.11c.35.23.48.42.48.52S15.57,23.84,15.49,23.9Z"/></svg>