<!-- Generated by IcoMoon.io -->
<svg version="1.1" xmlns="http://www.w3.org/2000/svg" width="1024" height="1024" viewBox="0 0 1024 1024">
<title></title>
<g id="icomoon-ignore">
</g>
<path d="M638.009 170.667h-296.676c-0.3-0.004-0.654-0.006-1.008-0.006-42.512 0-77.763 31.087-84.261 71.768l-0.064 0.487c-47.128 0-85.333 38.205-85.333 85.333v0 512c0 47.128 38.205 85.333 85.333 85.333v0h341.333c0.3 0.004 0.654 0.006 1.008 0.006 42.512 0 77.763-31.087 84.261-71.768l0.064-0.487c47.128 0 85.333-38.205 85.333-85.333v0-458.809zM711.111 768c0 15.709-12.735 28.444-28.444 28.444v0h-341.333c-15.709 0-28.444-12.735-28.444-28.444v0-512c0.162-5.060 1.621-9.747 4.054-13.781l-0.072 0.128c4.85-8.741 13.951-14.603 24.436-14.791h227.582v69.973c0 42.73 34.639 77.369 77.369 77.369v0h64.853zM625.778 297.529v-56.889l72.249 77.084h-51.484c-0.085 0.001-0.186 0.002-0.286 0.002-11.211 0-20.319-9.009-20.478-20.183v-0.015zM597.333 868.693h-341.333c-15.709 0-28.444-12.735-28.444-28.444v0-512c0-15.709 12.735-28.444 28.444-28.444v0 0 468.196c0 47.128 38.205 85.333 85.333 85.333v0h279.324c-4.526 8.66-13.153 14.634-23.233 15.355l-0.091 0.005z"></path>
<path d="M663.893 457.671v-56.889h-298.382v56.889h298.382z"></path>
<path d="M365.511 485.831h253.156v52.338h-253.156v-52.338z"></path>
<path d="M539.307 302.364v-43.236h-173.796v43.236h173.796z"></path>
<path d="M539.307 312.604v-0.284h-173.796v43.52h173.796v-43.236z"></path>
<path d="M437.476 750.933h4.551v9.387h-4.551v-9.387z"></path>
<path d="M451.413 750.933h9.387v9.387h-9.387v-9.387z"></path>
<path d="M563.2 750.933h9.387v9.387h-9.387v-9.387z"></path>
<path d="M525.938 750.933h9.387v9.387h-9.387v-9.387z"></path>
<path d="M469.902 750.933h9.387v9.387h-9.387v-9.387z"></path>
<path d="M488.676 750.933h9.387v9.387h-9.387v-9.387z"></path>
<path d="M544.711 750.933h9.387v9.387h-9.387v-9.387z"></path>
<path d="M507.449 750.933h9.387v9.387h-9.387v-9.387z"></path>
<path d="M581.973 750.933h4.551v9.387h-4.551v-9.387z"></path>
<path d="M644.551 650.524l2.56 2.844c-6.124 5-13.476 8.748-21.523 10.73l-0.379 0.079c-5.732 1.941-12.899 3.812-20.229 5.227l-1.105 0.178-44.658-38.116-22.756 39.253-21.902-41.529-32.711 50.631h-2.844c0.198-1.452 0.31-3.131 0.31-4.836s-0.113-3.383-0.331-5.028l0.021 0.193c-1.662-18.425-12.649-33.953-28.152-41.96l-0.292-0.137c-6.569-5.218-14.983-8.372-24.133-8.372-6.118 0-11.906 1.41-17.058 3.922l0.231-0.102c-26.738 13.938-28.444 61.44-28.444 71.111v23.324h32.996v-11.662l85.333 7.964 12.8-19.911 22.756 45.227 33.849-56.889 25.884 22.187h7.396c9.573-1.389 17.755-3.077 25.764-5.192l-1.587 0.356c21.618-5.404 46.649-15.644 53.476-34.702 1.041-3.124 1.641-6.72 1.641-10.457 0-10.063-4.355-19.109-11.282-25.356l-0.030-0.027zM440.604 678.969l-27.022 18.204v-2.844c-0.046-0.953-0.072-2.071-0.072-3.195 0-14.721 4.491-28.392 12.177-39.72l-0.159 0.248c2.823 0.45 5.328 1.556 7.436 3.159l-0.041-0.030c9.956 6.542 13.653 11.947 13.653 14.791s-3.698 8.533-5.973 10.24z"></path>
</svg>
