<!-- Generated by IcoMoon.io -->
<svg version="1.1" xmlns="http://www.w3.org/2000/svg" width="1024" height="1024" viewBox="0 0 1024 1024">
<title></title>
<g id="icomoon-ignore">
</g>
<path d="M661.084 358.629c40.96-27.164 81.209 0 96.711 18.062 2.763 3.235 4.444 7.465 4.444 12.089 0 10.309-8.357 18.666-18.666 18.666-5.685 0-10.777-2.542-14.201-6.551l-0.022-0.026c-2.56-2.844-24.889-27.022-48.356-11.378-2.88 1.935-6.425 3.089-10.24 3.089-10.228 0-18.52-8.292-18.52-18.52 0-6.413 3.26-12.065 8.213-15.389l0.067-0.042z"></path>
<path d="M681.564 389.349c23.467-15.502 45.796 8.533 48.356 11.378 3.445 4.035 8.537 6.577 14.222 6.577 10.309 0 18.666-8.357 18.666-18.666 0-4.623-1.681-8.854-4.465-12.115l0.022 0.026c-15.502-18.062-55.751-45.227-96.711-18.062-5.020 3.366-8.28 9.018-8.28 15.431 0 10.228 8.292 18.52 18.52 18.52 3.815 0 7.36-1.153 10.307-3.131l-0.067 0.042z"></path>
<path d="M593.955 373.277c3.445 4.035 8.537 6.577 14.222 6.577 10.309 0 18.666-8.357 18.666-18.666 0-4.623-1.681-8.854-4.465-12.115l0.022 0.026c-15.502-18.062-55.751-45.227-96.711-18.062-5.036 3.357-8.308 9.013-8.308 15.434 0 3.785 1.137 7.304 3.089 10.234l-0.042-0.068c2.441 3.579 6.043 6.21 10.254 7.366l0.128 0.030h4.693c0.662-0.080 1.428-0.125 2.204-0.125s1.543 0.045 2.296 0.134l-0.091-0.009c2.31-0.465 4.361-1.305 6.19-2.462l-0.075 0.044c22.756-15.36 45.369 8.818 47.929 11.662z"></path>
<path d="M530.382 364.033c1.366 0.367 2.934 0.578 4.551 0.578s3.185-0.211 4.678-0.607l-0.127 0.029c-0.662-0.080-1.428-0.125-2.204-0.125s-1.543 0.045-2.296 0.134l0.091-0.009z"></path>
<path d="M679.857 483.357c-3.417-4.241-8.61-6.932-14.432-6.932-4.406 0-8.453 1.542-11.629 4.115l0.035-0.027c-9.246 6.768-20.843 10.829-33.39 10.829-1.513 0-3.012-0.059-4.496-0.175l0.196 0.012c-15.218-3.658-27.665-13.406-34.846-26.46l-0.14-0.278c-3.525-4.899-9.21-8.052-15.632-8.052-3.685 0-7.127 1.038-10.051 2.838l0.083-0.048c-5.036 3.357-8.308 9.013-8.308 15.434 0 3.785 1.137 7.304 3.089 10.234l-0.042-0.068c9.415 14.915 22.187 26.913 37.303 35.15l0.528 0.263c5.453 2.866 11.775 5.173 18.425 6.596l0.491 0.088h3.413c3.112 0.37 6.716 0.581 10.37 0.581 21.218 0 40.775-7.116 56.413-19.091l-0.223 0.164c4.005-3.413 6.528-8.461 6.528-14.099 0-4.175-1.384-8.027-3.718-11.121l0.034 0.047z"></path>
<path d="M850.666 273.011c-6.684-4.124-167.111-100.551-356.267-72.249-7.784 1.137-14.008 6.741-16.039 14.085l-0.032 0.137c-9.084 41.513-14.288 89.199-14.288 138.099 0 3.3 0.024 6.594 0.071 9.883l-0.006-0.498c-73.813 14.364-193.991 49.778-293.547 140.231-4.251 3.842-6.911 9.376-6.911 15.531 0 2.808 0.554 5.486 1.557 7.933l-0.051-0.139c23.744 58.182 51.908 108.344 85.361 154.416l-1.449-2.096c73.813 101.689 160.142 153.6 249.458 149.902 2.59-0.117 5.018-0.681 7.251-1.616l-0.14 0.052h0.996c4.836-2.276 85.333-42.667 89.458-201.813 35.982 0 171.378-21.902 263.253-328.818 0.641-1.849 1.012-3.98 1.012-6.198 0-7.152-3.853-13.404-9.597-16.793l-0.091-0.050zM491.555 786.149c-156.444 1.707-257.707-206.791-281.742-262.116 71.181-58.037 157.983-99.694 253.114-117.898l3.597-0.573c2.721 30.574 8.407 58.709 16.842 85.627l-0.771-2.854c-13.227 26.596-47.502 18.489-51.484 17.351-1.663-0.475-3.573-0.748-5.547-0.748-11.567 0-20.943 9.377-20.943 20.943 0 9.593 6.45 17.68 15.249 20.16l0.148 0.036c7.894 2.213 16.959 3.486 26.321 3.486 12.931 0 25.295-2.427 36.661-6.851l-0.689 0.236c6.96-2.86 12.966-6.445 18.345-10.777l-0.141 0.11c13.709 27.477 31.86 50.717 53.771 69.741l0.274 0.233c1.707 130.56-50.062 174.791-63.004 183.893zM595.946 585.189v0c-18.304-12.259-33.626-27.4-45.711-44.944l-0.369-0.567c-25.344-39.851-41.444-87.832-44.2-139.356l-0.031-0.733c-1.28-14.222-1.849-28.444-1.849-42.667 0-0.285-0.001-0.622-0.001-0.959 0-41.886 3.83-82.877 11.158-122.643l-0.633 4.135c139.804-16.213 263.396 40.818 303.076 61.013-85.191 271.929-200.818 286.293-221.44 286.72z"></path>
<path d="M376.355 534.842c-2.265-0.971-4.901-1.536-7.668-1.536-8.214 0-15.266 4.973-18.309 12.073l-0.049 0.13c-11.804 28.444-46.080 19.769-50.062 18.631-1.599-0.462-3.435-0.727-5.333-0.727-11.005 0-19.927 8.922-19.927 19.927 0 9.107 6.109 16.787 14.453 19.166l0.141 0.034c7.489 2.095 16.089 3.299 24.971 3.299 12.291 0 24.044-2.307 34.849-6.51l-0.655 0.224c17.557-7.257 31.188-21.026 38.093-38.22l0.165-0.464c0.971-2.265 1.536-4.901 1.536-7.668 0-8.214-4.973-15.266-12.073-18.309l-0.13-0.049z"></path>
<path d="M524.266 659.571c-12.362-6.254-26.95-9.916-42.393-9.916-13.4 0-26.155 2.758-37.731 7.736l0.621-0.238c-22.804 12.046-40.061 32.029-48.29 56.188l-0.207 0.701c-0.686 1.93-1.083 4.157-1.083 6.476 0 10.997 8.915 19.911 19.911 19.911 9.048 0 16.687-6.035 19.11-14.3l0.035-0.141c5.124-13.827 14.724-24.992 27.008-31.986l0.299-0.157c6.048-2.35 13.048-3.711 20.367-3.711 9.876 0 19.172 2.479 27.301 6.849l-0.308-0.151c2.028 0.763 4.372 1.204 6.82 1.204 10.997 0 19.911-8.915 19.911-19.911 0-7.893-4.593-14.714-11.252-17.935l-0.119-0.052z"></path>
</svg>
