<!-- Generated by IcoMoon.io -->
<svg version="1.1" xmlns="http://www.w3.org/2000/svg" width="1024" height="1024" viewBox="0 0 1024 1024">
<title></title>
<g id="icomoon-ignore">
</g>
<path d="M706.306 312.094c53.386-35.408 105.845 0 126.051 23.54 3.603 4.219 5.794 9.727 5.794 15.755 0 13.435-10.895 24.33-24.33 24.33-7.407 0-14.047-3.316-18.509-8.537l-0.028-0.032c-3.334-3.708-32.437-35.218-63.026-14.828-3.756 2.523-8.375 4.025-13.348 4.025-13.33 0-24.136-10.806-24.136-24.136 0-8.357 4.25-15.725 10.703-20.057l0.085-0.054z"></path>
<path d="M733.002 352.132c30.589-20.206 59.692 11.119 63.026 14.828 4.489 5.259 11.129 8.575 18.536 8.575 13.435 0 24.33-10.895 24.33-24.33 0-6.027-2.191-11.542-5.821-15.793l0.028 0.032c-20.206-23.54-72.665-58.949-126.051-23.54-6.544 4.386-10.794 11.754-10.794 20.111 0 13.33 10.806 24.136 24.136 24.136 4.973 0 9.592-1.501 13.433-4.079l-0.085 0.054z"></path>
<path d="M618.813 331.188c4.489 5.259 11.129 8.575 18.536 8.575 13.435 0 24.33-10.895 24.33-24.33 0-6.027-2.191-11.542-5.821-15.793l0.028 0.032c-20.206-23.54-72.665-58.949-126.051-23.54-6.566 4.377-10.828 11.749-10.828 20.114 0 4.931 1.479 9.518 4.025 13.336l-0.054-0.086c3.179 4.665 7.879 8.094 13.362 9.598l0.164 0.042h6.115c0.86-0.104 1.86-0.161 2.87-0.161s2.011 0.057 2.992 0.176l-0.121-0.009c3.012-0.609 5.687-1.701 8.068-3.206l-0.099 0.056c29.662-20.022 59.133 11.494 62.467 15.202z"></path>
<path d="M535.95 319.136c1.78 0.481 3.822 0.752 5.931 0.752s4.151-0.277 6.1-0.793l-0.163 0.035c-0.86-0.104-1.86-0.161-2.87-0.161s-2.011 0.057-2.992 0.176l0.121-0.009z"></path>
<path d="M730.779 474.664c-4.455-5.525-11.22-9.038-18.812-9.038-5.744 0-11.015 2.010-15.157 5.363l0.047-0.033c-12.054 8.82-27.167 14.117-43.518 14.117-1.975 0-3.924-0.077-5.858-0.229l0.256 0.018c-19.832-4.768-36.059-17.474-45.418-34.488l-0.182-0.362c-4.593-6.387-12.006-10.494-20.372-10.494-4.801 0-9.287 1.35-13.099 3.702l0.107-0.060c-6.566 4.377-10.828 11.749-10.828 20.114 0 4.931 1.479 9.518 4.025 13.336l-0.054-0.086c12.271 19.439 28.919 35.079 48.619 45.812l0.69 0.341c7.109 3.736 15.345 6.745 24.017 8.6l0.641 0.112h4.451c4.054 0.484 8.756 0.755 13.514 0.755 27.656 0 53.147-9.276 73.525-24.881l-0.289 0.212c5.223-4.451 8.508-11.029 8.508-18.377 0-5.441-1.804-10.463-4.846-14.493l0.046 0.059z"></path>
<path d="M953.404 200.502c-8.712-5.378-217.811-131.055-464.351-94.167-10.148 1.479-18.256 8.787-20.905 18.357l-0.044 0.179c-11.838 54.107-18.62 116.259-18.62 179.997 0 4.302 0.030 8.592 0.095 12.883l-0.006-0.648c-96.205 18.72-252.845 64.88-382.605 182.777-5.541 5.006-9.005 12.22-9.005 20.241 0 3.66 0.722 7.148 2.031 10.339l-0.069-0.181c30.95 75.834 67.658 141.212 111.257 201.264l-1.887-2.732c96.205 132.541 208.724 200.202 325.142 195.382 3.376-0.153 6.542-0.885 9.453-2.108l-0.182 0.070h1.296c6.306-2.966 111.223-55.609 116.596-263.037 46.896 0 223.374-28.544 343.119-428.574 0.833-2.407 1.318-5.186 1.318-8.076 0-9.324-5.023-17.472-12.507-21.887l-0.121-0.068zM485.345 869.316c-203.904 2.223-335.893-269.527-367.218-341.64 92.775-75.647 205.911-129.94 329.902-153.664l4.689-0.747c3.549 39.85 10.957 76.523 21.954 111.607l-1.005-3.718c-17.241 34.666-61.914 24.099-67.102 22.613-2.167-0.619-4.659-0.976-7.227-0.976-15.077 0-27.297 12.221-27.297 27.297 0 12.503 8.406 23.044 19.875 26.274l0.19 0.048c10.288 2.885 22.107 4.542 34.307 4.542 16.855 0 32.969-3.165 47.785-8.927l-0.899 0.308c9.072-3.73 16.902-8.401 23.913-14.047l-0.183 0.146c17.867 35.811 41.526 66.101 70.085 90.897l0.358 0.305c2.223 170.172-65.248 227.819-82.12 239.681zM621.41 607.39v0c-23.86-15.979-43.826-35.71-59.577-58.582l-0.483-0.741c-33.030-51.941-54.020-114.478-57.61-181.632l-0.043-0.955c-1.67-18.536-2.407-37.072-2.407-55.609 0-0.369-0.001-0.808-0.001-1.247 0-54.594 4.994-108.023 14.542-159.849l-0.825 5.389c182.218-21.133 343.304 53.202 395.026 79.523-111.039 354.429-261.742 373.149-288.622 373.708z"></path>
<path d="M335.195 541.767c-2.955-1.265-6.389-2.004-9.996-2.004-10.704 0-19.898 6.479-23.865 15.733l-0.061 0.172c-15.386 37.072-60.060 25.769-65.248 24.283-2.085-0.6-4.479-0.949-6.953-0.949-14.341 0-25.975 11.628-25.975 25.975 0 11.867 7.963 21.881 18.839 24.98l0.183 0.046c9.763 2.731 20.973 4.301 32.549 4.301 16.017 0 31.34-3.009 45.421-8.484l-0.853 0.29c22.885-9.459 40.65-27.404 49.649-49.818l0.213-0.602c1.265-2.955 2.004-6.389 2.004-9.996 0-10.704-6.479-19.898-15.733-23.865l-0.172-0.061z"></path>
<path d="M527.98 704.338c-16.112-8.15-35.128-12.922-55.257-12.922-17.468 0-34.093 3.592-49.179 10.082l0.807-0.31c-29.722 15.7-52.217 41.749-62.942 73.234l-0.267 0.911c-0.896 2.518-1.413 5.417-1.413 8.438 0 14.333 11.621 25.953 25.953 25.953 11.796 0 21.751-7.865 24.906-18.638l0.047-0.183c6.678-18.021 19.194-32.576 35.204-41.688l0.389-0.205c7.884-3.064 17.008-4.839 26.547-4.839 12.87 0 24.986 3.229 35.581 8.925l-0.404-0.199c2.646 0.997 5.698 1.57 8.89 1.57 14.333 0 25.953-11.621 25.953-25.953 0-10.287-5.985-19.178-14.666-23.377l-0.155-0.070z"></path>
</svg>
