<!-- Generated by IcoMoon.io -->
<svg version="1.1" xmlns="http://www.w3.org/2000/svg" width="1024" height="1024" viewBox="0 0 1024 1024">
<title></title>
<g id="icomoon-ignore">
</g>
<path d="M512 230.684c-155.366 0-281.316 125.949-281.316 281.316s125.949 281.316 281.316 281.316c155.366 0 281.316-125.949 281.316-281.316v0c0-155.366-125.949-281.316-281.316-281.316v0zM711.111 704.568c-5.141 5.112-12.228 8.271-20.053 8.271s-14.912-3.16-20.055-8.273l0.001 0.001-150.756-149.333-150.471 150.471c-4.941 4.251-11.419 6.84-18.502 6.84-15.709 0-28.444-12.735-28.444-28.444 0-7.083 2.589-13.56 6.871-18.539l-0.031 0.037 150.471-150.471-150.471-150.471c-4.251-4.941-6.84-11.419-6.84-18.502 0-15.709 12.735-28.444 28.444-28.444 7.083 0 13.56 2.589 18.539 6.871l-0.037-0.031 150.471 150.471 150.471-150.471c4.941-4.251 11.419-6.84 18.502-6.84 15.709 0 28.444 12.735 28.444 28.444 0 7.083-2.589 13.56-6.871 18.539l0.031-0.037-150.471 150.471 150.471 150.471c5.282 5.169 8.557 12.37 8.557 20.337 0 7.826-3.16 14.913-8.274 20.056l0.001-0.001z"></path>
</svg>
