<!-- Generated by IcoMoon.io -->
<svg version="1.1" xmlns="http://www.w3.org/2000/svg" width="1024" height="1024" viewBox="0 0 1024 1024">
<title></title>
<g id="icomoon-ignore">
</g>
<path d="M767.781 256.313c-3.94-3.917-9.368-6.336-15.363-6.336s-11.426 2.42-15.365 6.338l-224.462 224.462-224.248-224.463c-3.958-3.958-9.429-6.41-15.472-6.41-12.084 0-21.881 9.797-21.881 21.881 0 6.042 2.449 11.512 6.41 15.472l224.463 224.248-224.463 224.248c-4.677 4.022-7.618 9.943-7.618 16.553 0 12.034 9.755 21.794 21.794 21.794 6.61 0 12.532-2.941 16.528-7.59l0.025-0.027 224.463-224.248 224.248 224.463c3.786 3.256 8.749 5.24 14.177 5.24 12.034 0 21.794-9.755 21.794-21.794 0-5.428-1.984-10.39-5.266-14.204l0.025 0.027-224.248-224.463 224.463-224.248c3.982-3.951 6.446-9.425 6.446-15.472s-2.465-11.524-6.446-15.472l-0.002-0.002z"></path>
</svg>
