<!-- Generated by IcoMoon.io -->
<svg version="1.1" xmlns="http://www.w3.org/2000/svg" width="1024" height="1024" viewBox="0 0 1024 1024">
<title></title>
<g id="icomoon-ignore">
</g>
<path d="M845.084 178.916c-5.141-5.112-12.228-8.271-20.053-8.271s-14.912 3.16-20.055 8.273l-292.977 292.977-292.693-292.978c-5.168-5.168-12.309-8.365-20.196-8.365-15.774 0-28.561 12.787-28.561 28.561 0 7.887 3.197 15.027 8.365 20.196l292.978 292.693-292.978 292.693c-6.102 5.248-9.943 12.978-9.943 21.605 0 15.709 12.735 28.444 28.444 28.444 8.627 0 16.357-3.841 21.573-9.905l0.031-0.037 292.978-292.693 292.693 292.978c4.941 4.251 11.419 6.84 18.502 6.84 15.709 0 28.444-12.735 28.444-28.444 0-7.083-2.589-13.56-6.871-18.539l0.031 0.037-292.693-292.978 292.978-292.693c5.197-5.156 8.414-12.3 8.414-20.196s-3.217-15.040-8.412-20.194l-0.002-0.002z"></path>
</svg>
