<!-- Generated by IcoMoon.io -->
<svg version="1.1" xmlns="http://www.w3.org/2000/svg" width="1024" height="1024" viewBox="0 0 1024 1024">
<title></title>
<g id="icomoon-ignore">
</g>
<path d="M268.516 312.889l52.338 483.556c3.614 39.913 36.842 70.967 77.354 71.111h227.571c40.406-0.296 73.48-31.296 77.062-70.809l0.022-0.302 52.338-483.556zM674.702 794.738c-2.669 24.939-23.521 44.213-48.908 44.373h-227.572c-0.079 0-0.172 0.001-0.265 0.001-25.531 0-46.547-19.332-49.209-44.156l-0.019-0.218-48.356-453.404h423.253z"></path>
<path d="M625.778 278.756l-15.644-26.169h-195.413l-16.498 26.169h-130.276v26.453h488.96v-26.453h-131.129z"></path>
<path d="M384 412.444h28.444v327.396h-28.444v-327.396z"></path>
<path d="M498.347 412.444h28.444v327.396h-28.444v-327.396z"></path>
<path d="M611.556 412.444h28.444v327.396h-28.444v-327.396z"></path>
</svg>
