<svg id="Layer_2" data-name="Layer 2" xmlns="http://www.w3.org/2000/svg" viewBox="0 0 36 36"><defs><style>.cls-1{fill:#4f4f4f;}</style></defs><title>trash</title><path class="cls-1" d="M9.44,11l1.84,17A2.74,2.74,0,0,0,14,30.5h8A2.74,2.74,0,0,0,24.71,28l1.84-17ZM23.72,27.94A1.74,1.74,0,0,1,22,29.5H14a1.74,1.74,0,0,1-1.74-1.56L10.56,12H25.44Z"/><polygon class="cls-1" points="22 9.8 21.45 8.88 14.58 8.88 14 9.8 9.42 9.8 9.42 10.73 26.61 10.73 26.61 9.8 22 9.8"/><rect class="cls-1" x="13.5" y="14.5" width="1" height="11.51"/><rect class="cls-1" x="17.52" y="14.5" width="1" height="11.51"/><rect class="cls-1" x="21.5" y="14.5" width="1" height="11.51"/></svg>