<!-- Generated by IcoMoon.io -->
<svg version="1.1" xmlns="http://www.w3.org/2000/svg" width="1024" height="1024" viewBox="0 0 1024 1024">
<title></title>
<g id="icomoon-ignore">
</g>
<path d="M496.635 163.786c-48.174 2.277-72.951 3.865-76.324 4.758-6.246 1.786-12.785 7.238-15.762 13.285-1.191 2.476-4.362 11.699-7.040 20.42-2.58 8.722-5.154 16.253-5.651 16.848s-22.896 2.079-52.139 3.571c-59.966 3.071-58.776 2.778-69.189 13.182-8.325 8.325-9.317 11.699-9.317 30.626v14.867l11.699-0.595c6.34-0.297 118.648-5.351 249.489-11.103 130.837-5.849 238.984-10.801 240.171-10.999l2.381-0.494-0.397-15.065c-0.297-13.285-0.595-15.563-2.58-19.23-3.468-6.539-7.73-10.905-13.777-13.777-6.34-3.175-6.445-3.175-68.688-1.389-18.237 0.494-37.070 0.992-41.729 0.992h-8.626l-2.476-6.737c-9.219-24.682-10.905-28.449-15.461-33.205-7.73-8.325-10.111-9.021-27.855-9.219-8.428-0.099-47.48 1.286-86.73 3.269z"></path>
<path d="M297.893 298.99c-8.523 1.682-18.237 7.333-24.779 14.571-10.208 11.103-13.878 20.817-13.878 36.182 0 10.208 44.998 424.537 47.085 433.363 7.134 30.531 27.262 56.007 55.506 70.182 8.626 4.262 20.515 8.032 30.229 9.615 5.452 0.794 38.459 0.992 123.409 0.794l115.974-0.297 8.92-2.674c39.849-11.699 67.501-41.436 75.237-80.585 0.89-4.362 12.095-104.18 24.881-221.836 23.095-212.321 23.293-213.908 21.904-220.744-2.778-12.984-11.699-25.967-22.603-32.412-2.873-1.786-8.824-4.165-13.087-5.254-7.73-1.985-10.309-1.985-216.085-1.88-114.585 0.099-210.239 0.494-212.718 0.992zM711.233 349.934c0 0.198-10.208 94.466-22.801 209.344-13.878 127.766-23.394 210.832-24.383 213.908-5.452 17.151-19.724 31.524-36.976 37.467l-6.539 2.183-106.061 0.297c-73.744 0.198-108.046 0-112.506-0.794-3.571-0.595-10.208-2.873-14.867-5.154-15.065-7.238-27.555-22.698-30.626-37.666-0.595-2.873-11.103-97.339-23.394-209.939-12.19-112.6-22.405-205.876-22.603-207.464l-0.397-2.674h200.622c110.323 0 200.525 0.198 200.525 0.494z"></path>
<path d="M402.766 398.304c-8.722 2.476-16.055 10.010-18.339 18.833-1.191 4.758-0.297 17.047 11.594 153.737 14.472 165.631 12.984 154.632 21.611 162.163 10.208 9.021 24.976 9.021 35.19 0 6.445-5.651 8.92-11.5 8.824-20.222-0.099-10.208-24.881-292.805-26.071-297.168-3.373-12.587-19.328-21.11-32.809-17.349z"></path>
<path d="M504.365 397.909c-4.857 1.286-11.897 5.747-14.77 9.516-5.549 7.333-5.254-1.088-5.351 160.575 0 100.212 0.397 150.861 0.992 153.341 1.588 5.452 6.842 11.793 12.388 14.867 10.604 5.747 22.603 4.362 31.325-3.865 9.119-8.523 8.325 6.643 8.325-164.346v-150.663l-2.277-4.659c-2.58-5.254-8.722-11.197-13.579-13.285-4.262-1.786-12.984-2.476-17.047-1.483z"></path>
<path d="M604.085 398.304c-7.437 2.079-14.373 8.126-17.245 14.968-1.88 4.56-1.588 1.389-16.451 172.769-12.294 141.941-11.991 133.914-6.048 142.536 1.483 2.183 5.154 5.351 8.032 7.134 15.856 9.516 35.984 0.992 39.745-16.848 1.088-5.452 25.769-287.85 25.769-295.382 0-5.651-2.381-12.388-5.849-16.65-6.246-7.531-18.339-11.197-27.952-8.523z"></path>
</svg>
