<!-- Generated by IcoMoon.io -->
<svg version="1.1" xmlns="http://www.w3.org/2000/svg" width="1024" height="1024" viewBox="0 0 1024 1024">
<title></title>
<g id="icomoon-ignore">
</g>
<path d="M516.357 547.989c-0.681 0.008-1.485 0.012-2.29 0.012-120.695 0-218.706-97.122-220.144-217.476l-0.001-0.136c4.404-119.378 102.242-214.483 222.293-214.483s217.889 95.105 222.282 214.082l0.012 0.4c-1.441 120.489-99.451 217.609-220.145 217.609-0.705 0-1.41-0.003-2.114-0.010l0.108 0.001zM516.357 169.962c-0.683-0.010-1.488-0.016-2.295-0.016-89.278 0-161.819 71.656-163.25 160.593l-0.002 0.134c3.782 88.429 76.388 158.686 165.404 158.686s161.623-70.257 165.393-158.345l0.012-0.341c-1.434-89.070-73.975-160.723-163.251-160.723-0.707 0-1.413 0.004-2.118 0.013l0.107-0.001z"></path>
<path d="M517.779 908.095c-131.531-1.099-249.035-60.227-328.316-152.999l-0.501-0.601c-10.782-10.676-17.459-25.482-17.459-41.847 0-4.73 0.558-9.329 1.611-13.736l-0.081 0.401c13.653-82.204 48.356-142.222 100.409-176.356 13.446-9.696 30.253-15.507 48.418-15.507 2.983 0 5.93 0.157 8.832 0.462l-0.362-0.031c6.27 0.94 11.918 2.63 17.194 5.001l-0.412-0.165c10.866 5.157 20.225 11.332 28.594 18.616l-0.149-0.127 3.413 2.844c36.607 28.952 83.34 46.568 134.175 46.933h0.083c50.836-0.222 97.4-18.333 133.763-48.359l-0.359 0.287 2.276-1.707c10.766-10.595 24.349-18.359 39.522-22.066l0.584-0.121c3.371-0.536 7.258-0.842 11.217-0.842 7.978 0 15.666 1.244 22.879 3.549l-0.532-0.147c44.33 14.962 79.429 47.094 98.001 88.282l0.417 1.034c9.381 19.47 17.048 42.122 21.866 65.809l0.321 1.889c2.276 10.809 4.551 22.187 6.258 32.996 1.935 4.831 3.057 10.43 3.057 16.292 0 13.435-5.895 25.492-15.239 33.728l-0.049 0.043-2.276 2.56c-22.92 29.425-49.157 54.759-78.528 76.030l-1.117 0.77c-61.711 44.488-137.848 72.645-220.317 76.761l-0.981 0.039zM227.931 713.82c1.391 1.172 2.608 2.479 3.654 3.919l0.044 0.063c70.852 81.872 174.902 133.372 290.981 133.404h10.53c71.88-3.618 137.446-27.913 191.633-67l-1.055 0.724c25.916-18.691 48.217-40.178 67.157-64.419l0.541-0.719 3.982-4.836v-3.413c-1.707-10.524-3.698-20.764-5.689-30.72-4.45-20.479-10.819-38.53-19.118-55.465l0.629 1.421c-11.943-27.641-34.359-48.852-62.116-58.928l-0.746-0.237c-1.24-0.283-2.663-0.445-4.124-0.445s-2.885 0.162-4.254 0.469l0.129-0.024c-5.037 2.532-9.354 5.667-13.086 9.388l0.001-0.001-2.56 1.991c-46.029 38.099-105.626 61.27-170.629 61.44h-0.037c-0.187 0-0.408 0.001-0.63 0.001-64.499 0-123.79-22.292-170.591-59.592l0.555 0.427-1.422-5.689c-4.412-3.906-9.353-7.396-14.655-10.312l-0.421-0.212h-2.276c-1.991 0-7.68 0-19.058 6.827-48.924 29.582-68.551 90.738-77.369 136.533-0.059 0.851-0.092 1.844-0.092 2.844s0.034 1.994 0.1 2.978l-0.007-0.133z"></path>
</svg>
