<svg id="Layer_2" data-name="Layer 2" xmlns="http://www.w3.org/2000/svg" viewBox="0 0 36 36"><defs><style>.cls-1{fill:#4f4f4f;}</style></defs><title>topuser</title><path class="cls-1" d="M18.14,19.23a7.74,7.74,0,0,1-7.82-7.65,7.82,7.82,0,0,1,15.63,0A7.74,7.74,0,0,1,18.14,19.23Zm0-13.29a5.74,5.74,0,0,0-5.82,5.65,5.82,5.82,0,0,0,11.63,0A5.74,5.74,0,0,0,18.14,5.94Z"/><path class="cls-1" d="M18.19,31.89A15.34,15.34,0,0,1,6.63,26.49a2.07,2.07,0,0,1-.56-1.94c.48-2.89,1.7-5,3.53-6.2a2.93,2.93,0,0,1,2-.53,2.29,2.29,0,0,1,.59.17,4.34,4.34,0,0,1,1,.65l.12.1a7.73,7.73,0,0,0,4.72,1.65h0a7.44,7.44,0,0,0,4.69-1.69l.08-.06a3,3,0,0,1,1.41-.78,2.64,2.64,0,0,1,1.18.09,5.76,5.76,0,0,1,3.46,3.14,10.33,10.33,0,0,1,.78,2.38c.08.38.16.78.22,1.16a1.58,1.58,0,0,1-.43,1.76l-.08.09a13.48,13.48,0,0,1-2.8,2.7,14.61,14.61,0,0,1-7.78,2.7ZM8,25.06a.77.77,0,0,1,.13.14,13.51,13.51,0,0,0,10.23,4.69h.37a12.58,12.58,0,0,0,6.7-2.33,11.44,11.44,0,0,0,2.38-2.29l.14-.17,0-.12c-.06-.37-.13-.73-.2-1.08A8.47,8.47,0,0,0,27.1,22a3.77,3.77,0,0,0-2.21-2.08.68.68,0,0,0-.29,0,1.76,1.76,0,0,0-.46.33l-.09.07a9.48,9.48,0,0,1-6,2.16h0a9.63,9.63,0,0,1-6-2.08L12,20.2a2.86,2.86,0,0,0-.53-.37h0l-.08,0c-.07,0-.27,0-.67.24C9,21.11,8.31,23.26,8,24.87a1.54,1.54,0,0,0,0,.2Z"/></svg>