<svg id="Layer_2" data-name="Layer 2" xmlns="http://www.w3.org/2000/svg" viewBox="0 0 36 36"><defs><style>.cls-1{fill:none;}.cls-2{fill:#4f4f4f;}</style></defs><title>usuarioseguido</title><path class="cls-1" d="M27,21.81a3.71,3.71,0,0,0-2.13-1.94.68.68,0,0,0-.29,0,1.79,1.79,0,0,0-.46.33l-.08.07a9.48,9.48,0,0,1-6,2.16h0a9.63,9.63,0,0,1-6-2.08L12,20.2a2.86,2.86,0,0,0-.53-.37h0l-.08,0c-.07,0-.27,0-.67.24C9,21.11,8.31,23.26,8,24.87a1.43,1.43,0,0,0,0,.2H8a.77.77,0,0,1,.13.14,13.54,13.54,0,0,0,10.23,4.69h.37A12.56,12.56,0,0,0,24,28.45a4.54,4.54,0,0,1-.56-2.16A4.59,4.59,0,0,1,27,21.81Z"/><ellipse class="cls-1" cx="18.14" cy="11.59" rx="5.82" ry="5.65"/><path class="cls-2" d="M18.14,19.23A7.74,7.74,0,0,0,26,11.59a7.82,7.82,0,0,0-15.63,0A7.74,7.74,0,0,0,18.14,19.23Zm0-13.29A5.74,5.74,0,0,1,24,11.59a5.82,5.82,0,0,1-11.63,0A5.74,5.74,0,0,1,18.14,5.94Z"/><path class="cls-2" d="M29.24,21.88a8.49,8.49,0,0,0-.33-.8,5.76,5.76,0,0,0-3.46-3.14,2.67,2.67,0,0,0-1.19-.09,3,3,0,0,0-1.41.78l-.08.06a7.44,7.44,0,0,1-4.69,1.69h0a7.73,7.73,0,0,1-4.72-1.65l-.12-.1a4.35,4.35,0,0,0-1-.65,2.26,2.26,0,0,0-.59-.17,2.93,2.93,0,0,0-2,.53c-1.83,1.16-3,3.3-3.53,6.2a2.4,2.4,0,0,0,0,1,2.36,2.36,0,0,0,.56,1,15.34,15.34,0,0,0,11.57,5.39h.63A14.6,14.6,0,0,0,25.31,30a4.58,4.58,0,1,0,3.93-8.11Zm-10.5,8h-.37A13.54,13.54,0,0,1,8.15,25.2.77.77,0,0,0,8,25.06H8a1.43,1.43,0,0,1,0-.2c.27-1.61.94-3.75,2.63-4.83.4-.25.59-.25.67-.24l.08,0h0a2.86,2.86,0,0,1,.53.37l.13.11a9.63,9.63,0,0,0,6,2.08h0a9.48,9.48,0,0,0,6-2.16l.08-.07a1.79,1.79,0,0,1,.46-.33.68.68,0,0,1,.29,0A3.71,3.71,0,0,1,27,21.81a4.59,4.59,0,0,0-3.61,4.48A4.54,4.54,0,0,0,24,28.45,12.56,12.56,0,0,1,18.74,29.88Zm12.47-5.2-4.58,4.58-1.77-1.77a.47.47,0,0,1,.66-.66L26.62,28,30.55,24a.47.47,0,0,1,.66.66Z"/></svg>