<!-- Generated by IcoMoon.io -->
<svg version="1.1" xmlns="http://www.w3.org/2000/svg" width="1024" height="1024" viewBox="0 0 1024 1024">
<title></title>
<g id="icomoon-ignore">
</g>
<path fill="#000" d="M478.149 547.278c1.021 0.017 2.225 0.027 3.431 0.027 120.6 0 218.552-96.969 220.14-217.193l0.002-0.15c-4.404-119.378-102.242-214.483-222.293-214.483s-217.889 95.105-222.282 214.082l-0.012 0.4c1.604 120.362 99.55 217.317 220.142 217.317 0.306 0 0.613-0.001 0.919-0.002h-0.047zM478.149 169.251c1.022-0.023 2.226-0.036 3.433-0.036 89.285 0 161.831 71.667 163.25 160.614l0.002 0.134c-3.782 88.429-76.388 158.686-165.404 158.686s-161.623-70.257-165.393-158.345l-0.012-0.341c1.44-89.065 73.978-160.713 163.251-160.713 0.307 0 0.614 0.001 0.921 0.003h-0.047z"></path>
<path fill="#000" d="M793.883 622.655c-3.321-9.377-6.489-16.891-10.015-24.2l0.628 1.444c-18.988-42.221-54.088-74.353-97.263-88.976l-1.154-0.339c-6.73-2.164-14.473-3.412-22.507-3.412-4.003 0-7.933 0.31-11.769 0.906l0.427-0.055c-15.758 3.827-29.341 11.591-40.118 22.198l0.011-0.011-2.276 1.707c-36.004 29.738-82.568 47.85-133.356 48.071h-0.048c-50.918-0.365-97.651-17.982-134.72-47.286l0.462 0.352-3.413-2.844c-8.22-7.153-17.579-13.328-27.699-18.168l-0.746-0.321c-4.866-2.217-10.516-3.907-16.429-4.792l-0.353-0.043c-2.541-0.275-5.487-0.432-8.471-0.432-18.165 0-34.972 5.811-48.665 15.676l0.247-0.169c-52.053 32.996-85.333 93.867-100.409 176.356-0.952 4.275-1.498 9.185-1.498 14.222s0.546 9.947 1.581 14.674l-0.083-0.452c3.077 11.105 8.593 20.674 15.959 28.477l-0.030-0.033c79.888 93.336 197.507 152.381 328.941 153.315l0.162 0.001h17.92c67.888-4.166 130.339-24.024 184.858-55.959l-1.96 1.061c21.254 15.684 47.967 25.103 76.879 25.103 71.949 0 130.276-58.326 130.276-130.276 0-59.524-39.921-109.724-94.449-125.287l-0.919-0.224zM495.216 850.211h-10.524c-115.914-0.166-219.803-51.513-290.301-132.648l-0.401-0.472c-1.244-1.511-2.646-2.823-4.201-3.937l-0.066-0.045c-0.063-0.851-0.1-1.844-0.1-2.844s0.036-1.993 0.107-2.976l-0.008 0.132c7.68-45.796 26.738-106.667 74.809-137.387 11.378-7.111 16.782-7.111 19.058-6.827h2.276c5.723 3.129 10.664 6.619 15.162 10.599l-0.086-0.075 3.698 3.129c46.246 36.873 105.538 59.165 170.037 59.165 0.221 0 0.443 0 0.664-0.001h-0.034c65.041-0.17 124.638-23.341 171.118-61.803l-0.452 0.363 2.276-1.991c3.738-3.707 8.052-6.841 12.795-9.253l0.289-0.134c1.24-0.283 2.663-0.445 4.124-0.445s2.885 0.162 4.254 0.469l-0.129-0.024c27.406 10.268 48.947 30.791 60.322 56.779l0.265 0.679c-59.109 13.251-102.626 65.251-102.684 127.425v0.006c0.596 22.709 6.963 43.809 17.68 62.046l-0.329-0.606c-43.376 23.282-94.497 38.025-148.8 40.644l-0.818 0.031zM849.918 702.3l-130.276 130.276-50.347-50.347c-1.784-2.251-2.862-5.133-2.862-8.267 0-7.383 5.985-13.369 13.369-13.369 3.134 0 6.015 1.078 8.295 2.884l-0.028-0.021 31.289 33.28 111.787-113.778c2.251-1.784 5.133-2.862 8.267-2.862 7.383 0 13.369 5.985 13.369 13.369 0 3.134-1.078 6.015-2.884 8.295l0.021-0.028z"></path>
</svg>
