<!-- Generated by IcoMoon.io -->
<svg version="1.1" xmlns="http://www.w3.org/2000/svg" width="1024" height="1024" viewBox="0 0 1024 1024">
<title></title>
<g id="icomoon-ignore">
</g>
<path d="M511.789 626.607c-73.599-1.583-132.654-61.619-132.654-135.447 0-74.821 60.655-135.476 135.476-135.476s135.476 60.655 135.476 135.476c0 0.045 0 0.089 0 0.134v-0.006c-0.97 74.944-61.95 135.325-137.034 135.325-0.446 0-0.889-0.002-1.333-0.006h0.068zM511.789 418.845c-38.95 1.558-69.933 33.512-69.933 72.701 0 40.182 32.573 72.755 72.755 72.755 40.162 0 72.725-32.543 72.755-72.699v-0.003c-0.874-40.373-33.808-72.767-74.309-72.767-0.447 0-0.894 0.004-1.337 0.013l0.067-0.001z"></path>
<path d="M514.455 856.164c-77.236-0.608-146.256-35.255-192.889-89.658l-0.289-0.346c-8.251-8.467-13.338-20.047-13.338-32.818 0-3.595 0.404-7.098 1.167-10.461l-0.061 0.316c8.31-50.019 29.792-87.182 62.721-107.879 9.724-6.919 21.842-11.061 34.93-11.061 2.888 0 5.729 0.201 8.512 0.593l-0.321-0.037c4.924 0.765 9.355 2.132 13.48 4.048l-0.307-0.128c7.246 3.417 13.488 7.503 19.081 12.322l-0.108-0.090 1.724 1.412c17.213 13.592 39.104 21.961 62.932 22.42l0.104 0.001c0.471 0.007 1.027 0.013 1.584 0.013 23.935 0 45.922-8.341 63.213-22.272l-0.194 0.151c8.17-8.068 18.551-13.914 30.157-16.541l0.421-0.080c3.224-0.643 6.929-1.010 10.72-1.010 5.276 0 10.387 0.712 15.239 2.045l-0.403-0.094c28.873 9.427 51.804 30.109 64.017 56.729l0.272 0.66c5.696 11.725 10.353 25.362 13.289 39.628l0.196 1.14c1.412 6.115 2.51 12.544 3.607 18.973 1.342 3.877 2.12 8.346 2.12 12.996 0 1.998-0.144 3.961-0.421 5.881l0.026-0.219c-1.891 8.541-5.971 15.936-11.617 21.81l0.015-0.015c-13.547 17.643-29.044 32.843-46.411 45.657l-0.63 0.445c-36.378 26.237-81.261 42.848-129.877 45.293l-0.582 0.023zM371.767 728.686c35.959 39.909 87.814 64.896 145.509 64.916h5.335c36.372-1.849 69.545-14.147 96.968-33.923l-0.535 0.367c11.894-8.782 22.204-18.694 31.11-29.785l0.251-0.322c0-3.763-1.412-7.37-2.195-11.134-1.987-10.126-4.97-19.102-8.927-27.531l0.303 0.717c-4.428-10.176-12.029-18.284-21.535-23.239l-0.26-0.124-1.412 1.254c-27.99 23.223-64.22 37.392-103.75 37.631h-0.051c-39.294-0.186-75.387-13.737-104.003-36.336l0.358 0.273-1.881-1.724-1.881-1.568c-18.175 14.664-30.515 35.928-33.358 60.099l-0.041 0.427zM401.871 665.965v0z"></path>
<path d="M715.632 438.759c-73.599-1.583-132.654-61.619-132.654-135.447 0-74.821 60.655-135.476 135.476-135.476s135.476 60.655 135.476 135.476c0 0.045 0 0.089 0 0.134v-0.006c-0.97 74.944-61.95 135.325-137.034 135.325-0.446 0-0.889-0.002-1.333-0.006h0.068zM715.632 230.684c-38.95 1.558-69.933 33.512-69.933 72.701 0 40.182 32.573 72.755 72.755 72.755 40.162 0 72.725-32.543 72.755-72.699v-0.003c-0.874-40.373-33.808-72.767-74.309-72.767-0.447 0-0.894 0.004-1.337 0.013l0.067-0.001z"></path>
<path d="M727.705 668.002c-0.211 0.005-0.457 0.007-0.706 0.007-17.323 0-31.368-14.044-31.368-31.368 0-17.076 13.644-30.966 30.626-31.36l0.037-0.001c36.425-1.835 69.654-14.135 97.127-33.924l-0.538 0.368c11.894-8.782 22.204-18.694 31.11-29.785l0.251-0.322c0-3.763-1.412-7.37-2.195-11.134-1.987-10.126-4.97-19.102-8.927-27.531l0.303 0.717c-4.428-10.176-12.029-18.284-21.535-23.239l-0.26-0.124-1.412 1.254c-27.99 23.223-64.22 37.392-103.75 37.631h-0.051c-17.319 0-31.36-14.041-31.36-31.36s14.041-31.36 31.36-31.36v0c0.299 0.003 0.651 0.005 1.006 0.005 23.841 0 45.751-8.276 63.011-22.111l-0.198 0.154c8.17-8.068 18.551-13.914 30.157-16.541l0.421-0.080c3.227-0.647 6.936-1.018 10.733-1.018 5.273 0 10.38 0.715 15.227 2.053l-0.402-0.094c28.873 9.427 51.804 30.109 64.017 56.729l0.272 0.66c5.696 11.725 10.353 25.362 13.289 39.628l0.196 1.14c1.412 6.115 2.51 12.544 3.607 18.973 1.362 3.903 2.15 8.406 2.15 13.091 0 2.077-0.154 4.115-0.453 6.108l0.027-0.224c-1.891 8.541-5.971 15.936-11.617 21.81l0.015-0.015c-13.547 17.643-29.044 32.843-46.411 45.657l-0.63 0.445c-36.378 26.237-81.261 42.848-129.877 45.293l-0.582 0.023z"></path>
<path d="M307.948 438.759c-73.599-1.583-132.654-61.619-132.654-135.447 0-74.821 60.655-135.476 135.476-135.476s135.476 60.655 135.476 135.476c0 0.045 0 0.089 0 0.134v-0.006c-0.97 74.944-61.95 135.325-137.034 135.325-0.446 0-0.889-0.002-1.333-0.006h0.068zM307.948 230.684c-38.95 1.558-69.933 33.512-69.933 72.701 0 40.182 32.573 72.755 72.755 72.755 40.162 0 72.725-32.543 72.755-72.699v-0.003c-0.874-40.373-33.808-72.767-74.309-72.767-0.447 0-0.894 0.004-1.337 0.013l0.067-0.001z"></path>
<path d="M299.324 667.845h-1.724c-72.228-4.72-135.792-38.303-179.889-89.208l-0.276-0.325c-8.251-8.467-13.338-20.047-13.338-32.818 0-3.595 0.404-7.098 1.167-10.461l-0.061 0.316c8.31-50.019 29.792-87.182 62.721-107.879 9.709-6.923 21.815-11.069 34.89-11.069 2.903 0 5.759 0.203 8.553 0.6l-0.321-0.038c4.978 0.755 9.464 2.125 13.64 4.049l-0.313-0.129c7.125 3.425 13.265 7.508 18.755 12.311l-0.094-0.082 1.724 1.412c17.254 13.622 39.206 21.998 63.095 22.421l0.095 0.001c0.568 0.017 1.24 0.026 1.912 0.026 4.424 0 8.752-0.409 12.948-1.19l-0.434 0.067c1.391-0.216 2.993-0.34 4.626-0.34 17.507 0 31.7 14.193 31.7 31.7 0 15.875-11.668 29.024-26.897 31.339l-0.175 0.022c-7.068 1.039-15.271 1.664-23.611 1.724h-0.067c-39.206-0.065-75.226-13.643-103.67-36.324l0.338 0.259-1.412-2.666-1.881-1.568c-18.175 14.664-30.515 35.928-33.358 60.099l-0.041 0.427c33.297 36.948 80.168 61.105 132.693 64.571l0.588 0.030c16.951 0.48 30.509 14.338 30.509 31.36 0 17.325-14.046 31.371-31.371 31.371-0.303 0-0.605-0.004-0.906-0.014l0.044 0.001z"></path>
</svg>
