<!-- Generated by IcoMoon.io -->
<svg version="1.1" xmlns="http://www.w3.org/2000/svg" width="1024" height="1024" viewBox="0 0 1024 1024">
<title></title>
<g id="icomoon-ignore">
</g>
<path d="M512 672c-66.755-1.435-120.32-55.889-120.32-122.853 0-67.865 55.015-122.88 122.88-122.88s122.88 55.015 122.88 122.88c0 0.041 0 0.081 0 0.122v-0.006c-0.88 67.976-56.19 122.743-124.292 122.743-0.404 0-0.807-0.002-1.209-0.006h0.062zM512 483.556c-35.328 1.414-63.431 30.396-63.431 65.941 0 36.446 29.545 65.991 65.991 65.991 36.428 0 65.963-29.517 65.991-65.939v-0.003c-0.792-36.619-30.664-66.001-67.399-66.001-0.405 0-0.81 0.004-1.213 0.011l0.061-0.001z"></path>
<path d="M514.418 880.213c-70.054-0.552-132.658-31.977-174.955-81.322l-0.263-0.314c-7.483-7.679-12.098-18.183-12.098-29.766 0-3.261 0.366-6.438 1.059-9.489l-0.055 0.286c7.538-45.369 27.022-79.076 56.889-97.849 8.82-6.275 19.812-10.033 31.682-10.033 2.62 0 5.197 0.183 7.72 0.537l-0.291-0.033c4.466 0.693 8.485 1.934 12.226 3.672l-0.279-0.116c6.572 3.099 12.234 6.805 17.307 11.176l-0.098-0.082 1.564 1.28c15.613 12.328 35.468 19.919 57.080 20.336l0.094 0.001c0.427 0.007 0.931 0.011 1.436 0.011 21.709 0 41.652-7.565 57.335-20.202l-0.176 0.137c7.41-7.318 16.827-12.62 27.353-15.003l0.381-0.072c2.924-0.583 6.285-0.916 9.724-0.916 4.786 0 9.421 0.646 13.823 1.855l-0.365-0.086c26.189 8.551 46.988 27.309 58.065 51.455l0.246 0.598c5.166 10.635 9.391 23.004 12.053 35.944l0.178 1.034c1.28 5.547 2.276 11.378 3.271 17.209 1.218 3.517 1.922 7.57 1.922 11.788 0 1.812-0.13 3.593-0.381 5.335l0.024-0.199c-1.715 7.747-5.415 14.454-10.537 19.782l0.013-0.013c-12.287 16.003-26.344 29.789-42.095 41.411l-0.572 0.403c-32.996 23.797-73.705 38.864-117.801 41.081l-0.528 0.021zM384.996 764.587c32.615 36.199 79.65 58.862 131.979 58.88h4.839c32.99-1.677 63.079-12.831 87.952-30.769l-0.485 0.333c10.788-7.966 20.14-16.956 28.218-27.015l0.227-0.292c0-3.413-1.28-6.684-1.991-10.098-1.803-9.184-4.508-17.326-8.097-24.971l0.275 0.651c-4.016-9.23-10.911-16.584-19.533-21.079l-0.236-0.112-1.28 1.138c-25.388 21.063-58.248 33.916-94.104 34.133h-0.047c-35.64-0.168-68.377-12.459-94.333-32.958l0.324 0.247-1.707-1.564-1.707-1.422c-16.485 13.3-27.677 32.588-30.256 54.511l-0.037 0.387zM412.302 707.698v0z"></path>
<path d="M696.889 501.618c-66.755-1.435-120.32-55.889-120.32-122.853 0-67.865 55.015-122.88 122.88-122.88s122.88 55.015 122.88 122.88c0 0.041 0 0.081 0 0.122v-0.006c-0.88 67.976-56.19 122.743-124.292 122.743-0.404 0-0.807-0.002-1.209-0.006h0.062zM696.889 312.889c-35.328 1.414-63.431 30.396-63.431 65.941 0 36.446 29.545 65.991 65.991 65.991 36.428 0 65.963-29.517 65.991-65.939v-0.003c-0.792-36.619-30.664-66.001-67.399-66.001-0.405 0-0.81 0.004-1.213 0.011l0.061-0.001z"></path>
<path d="M707.84 709.547c-0.191 0.005-0.415 0.007-0.64 0.007-15.713 0-28.452-12.738-28.452-28.452 0-15.488 12.376-28.086 27.778-28.444l0.033-0.001c33.039-1.665 63.178-12.821 88.097-30.77l-0.488 0.334c10.788-7.966 20.14-16.956 28.218-27.015l0.227-0.292c0-3.413-1.28-6.684-1.991-10.098-1.803-9.184-4.508-17.326-8.097-24.971l0.275 0.651c-4.016-9.23-10.911-16.584-19.533-21.079l-0.236-0.112-1.28 1.138c-25.388 21.063-58.248 33.916-94.104 34.133h-0.047c-15.709 0-28.444-12.735-28.444-28.444s12.735-28.444 28.444-28.444v0c0.271 0.003 0.591 0.005 0.912 0.005 21.625 0 41.497-7.506 57.153-20.055l-0.18 0.14c7.41-7.318 16.827-12.62 27.353-15.003l0.381-0.072c2.927-0.587 6.292-0.924 9.735-0.924 4.783 0 9.414 0.649 13.811 1.863l-0.364-0.086c26.189 8.551 46.988 27.309 58.065 51.455l0.246 0.598c5.166 10.635 9.391 23.004 12.053 35.944l0.178 1.034c1.28 5.547 2.276 11.378 3.271 17.209 1.236 3.541 1.95 7.624 1.95 11.873 0 1.883-0.14 3.733-0.411 5.54l0.025-0.204c-1.715 7.747-5.415 14.454-10.537 19.782l0.013-0.013c-12.287 16.003-26.344 29.789-42.095 41.411l-0.572 0.403c-32.996 23.797-73.705 38.864-117.801 41.081l-0.528 0.021z"></path>
<path d="M327.111 501.618c-66.755-1.435-120.32-55.889-120.32-122.853 0-67.865 55.015-122.88 122.88-122.88s122.88 55.015 122.88 122.88c0 0.041 0 0.081 0 0.122v-0.006c-0.88 67.976-56.19 122.743-124.292 122.743-0.404 0-0.807-0.002-1.209-0.006h0.062zM327.111 312.889c-35.328 1.414-63.431 30.396-63.431 65.941 0 36.446 29.545 65.991 65.991 65.991 36.428 0 65.963-29.517 65.991-65.939v-0.003c-0.792-36.619-30.664-66.001-67.399-66.001-0.405 0-0.81 0.004-1.213 0.011l0.061-0.001z"></path>
<path d="M319.289 709.404h-1.564c-65.512-4.282-123.166-34.741-163.163-80.914l-0.25-0.295c-7.483-7.679-12.098-18.183-12.098-29.766 0-3.261 0.366-6.438 1.059-9.489l-0.055 0.286c7.538-45.369 27.022-79.076 56.889-97.849 8.807-6.279 19.787-10.039 31.646-10.039 2.633 0 5.223 0.185 7.757 0.544l-0.291-0.034c4.516 0.685 8.584 1.927 12.372 3.673l-0.283-0.117c6.463 3.107 12.031 6.81 17.011 11.167l-0.086-0.074 1.564 1.28c15.65 12.356 35.56 19.952 57.229 20.337l0.087 0.001c0.516 0.015 1.124 0.024 1.734 0.024 4.012 0 7.938-0.371 11.744-1.080l-0.394 0.061c1.261-0.196 2.715-0.308 4.196-0.308 15.879 0 28.752 12.873 28.752 28.752 0 14.399-10.584 26.326-24.397 28.425l-0.159 0.020c-6.41 0.943-13.851 1.51-21.415 1.564h-0.061c-35.56-0.059-68.232-12.375-94.030-32.946l0.306 0.235-1.28-2.418-1.707-1.422c-16.485 13.3-27.677 32.588-30.256 54.511l-0.037 0.387c30.201 33.512 72.714 55.423 120.355 58.567l0.534 0.028c15.375 0.436 27.673 13.004 27.673 28.444 0 15.715-12.74 28.455-28.455 28.455-0.275 0-0.549-0.004-0.822-0.012l0.040 0.001z"></path>
</svg>
