<svg id="Layer_2" data-name="Layer 2" xmlns="http://www.w3.org/2000/svg" viewBox="0 0 36 36"><defs><style>.cls-1{fill:#4f4f4f;}</style></defs><title>topuser copy</title><path class="cls-1" d="M18.14,19.23A7.74,7.74,0,0,0,26,11.59a7.82,7.82,0,0,0-15.63,0A7.74,7.74,0,0,0,18.14,19.23Zm0-13.29A5.74,5.74,0,0,1,24,11.59a5.82,5.82,0,0,1-11.63,0A5.74,5.74,0,0,1,18.14,5.94Z"/><path class="cls-1" d="M29.24,21.88a8.49,8.49,0,0,0-.33-.8,5.76,5.76,0,0,0-3.46-3.14,2.67,2.67,0,0,0-1.19-.09,3,3,0,0,0-1.41.78l-.08.06a7.44,7.44,0,0,1-4.69,1.69h0a7.73,7.73,0,0,1-4.72-1.65l-.12-.1a4.35,4.35,0,0,0-1-.65,2.26,2.26,0,0,0-.59-.17,2.93,2.93,0,0,0-2,.53c-1.83,1.16-3,3.3-3.53,6.2a2.4,2.4,0,0,0,0,1,2.36,2.36,0,0,0,.56,1,15.34,15.34,0,0,0,11.57,5.39h.63A14.6,14.6,0,0,0,25.31,30a4.58,4.58,0,1,0,3.93-8.11Zm-10.5,8h-.37A13.54,13.54,0,0,1,8.15,25.2.77.77,0,0,0,8,25.06H8a1.43,1.43,0,0,1,0-.2c.27-1.61.94-3.75,2.62-4.83.4-.25.59-.25.67-.24l.08,0h0a2.86,2.86,0,0,1,.53.37l.13.11a9.63,9.63,0,0,0,6,2.08h0a9.48,9.48,0,0,0,6-2.16l.08-.07a1.79,1.79,0,0,1,.46-.33.68.68,0,0,1,.29,0A3.71,3.71,0,0,1,27,21.81a4.59,4.59,0,0,0-3.61,4.48A4.54,4.54,0,0,0,24,28.45,12.56,12.56,0,0,1,18.74,29.88Zm11.83-2.42H29V29a1,1,0,1,1-2,0V27.46H25.45a1,1,0,0,1,0-2H27V23.9a1,1,0,0,1,.51-.85A1,1,0,0,1,28,22.9a1,1,0,0,1,1,1v1.56h1.56a1,1,0,0,1,0,2Z"/></svg>