<!-- Generated by IcoMoon.io -->
<svg version="1.1" xmlns="http://www.w3.org/2000/svg" width="1024" height="1024" viewBox="0 0 1024 1024">
<title></title>
<g id="icomoon-ignore">
</g>
<path d="M426.601 116.159c-128.854 27.164-207.686 158.769-167.341 279.369 62.709 187.458 325.73 205.47 415.101 28.424 80.617-159.701-68.936-345.491-247.76-307.794zM514.493 173.015c100.507 25.494 151.273 133.628 104.89 223.427-62.375 120.771-235.216 119.093-294.554-2.848-59.419-122.112 54.687-254.817 189.659-220.579zM255.543 507.629c-50.117 14.064-98.528 73.602-119.467 146.946-18.802 65.84-15.817 78.928 28.042 122.927 127.282 127.684 319.429 167.384 472.513 97.624l13.934-6.349 9.366 8.478c65.105 58.944 174.46 42.28 219.159-33.393 46.501-78.715 7.217-185.068-77.766-210.554-7.263-2.176-7.919-3.069-15.013-20.47-34.316-84.198-116.728-130.305-168.112-94.057-4.89 3.447-15.303 11.187-23.141 17.2-75.359 57.797-179.69 56.22-258.511-3.899-32.85-25.058-55.017-31.748-81.001-24.459zM288.306 569.493c3.894 2.642 7.578 6.342 8.196 8.216 2.911 8.863 53.332 37.802 83.247 47.779 90.113 30.049 181.912 14.254 260.331-44.801 10.274-7.736 20.133-14.064 21.911-14.064 14.11 0 48.819 27.687 60.597 48.33 7.698 13.492 8.115 12.337-5.884 16.231-75.258 20.925-121.495 102.678-100.143 177.076 3.024 10.548 2.817 10.827-13.044 17.184-133.846 53.654-292.755 17.094-400.168-92.068-22.487-22.856-21.685-20.045-14.118-49.387 18.762-72.76 71.24-133.397 99.079-114.482zM779.13 663.905c13.936 7.358 24.953 30.731 24.953 52.936v8.294h7.731c17.147 0 17.71 2.443 17.001 74.118l-0.569 57.684-4.566 3.694c-5.169 4.181-120.301 5.801-127.783 1.799-6.787-3.633-7.806-12.486-7.806-67.701 0-64.471 1.189-69.596 16.151-69.596 5.165 0 5.575-1.042 8.027-20.301 4.75-37.315 36.684-56.868 66.861-40.929zM744.158 679.252c-6.915 3.42-13.411 17.866-14.817 32.975l-1.205 12.908h59.052l-1.366-12.070c-3.416-30.18-20.673-44.187-41.666-33.813zM742.075 769.451c-6.701 6.701-7.802 20.072-2.407 29.207 3.2 5.422 2.642 10.582-2.619 24.308-0.848 2.211 2.885 2.697 20.643 2.697s21.491-0.489 20.643-2.697c-5.268-13.723-5.823-18.885-2.619-24.308 9.746-16.495 0.249-34.854-18.023-34.854-8.433 0-10.832 0.866-15.617 5.649z"></path>
</svg>
