<!-- Generated by IcoMoon.io -->
<svg version="1.1" xmlns="http://www.w3.org/2000/svg" width="1024" height="1024" viewBox="0 0 1024 1024">
<title></title>
<g id="icomoon-ignore">
</g>
<path d="M704.142 270.222v0c2.56 2.56-65.991 67.556-111.929 113.778l7.68 7.68c47.929-42.667 115.342-104.676 120.462-104.676v0c2.56 2.702-63.858 69.689-108.231 117.191l7.538 7.538c46.507-43.52 111.929-108.373 116.907-108.373v0c2.702 2.702-61.724 71.111-104.676 120.747l7.538 7.538c45.084-45.084 108.516-112.071 113.778-112.071v0c2.702 2.702-81.067 100.551-103.538 127.004-11.815 15.288-30.155 25.037-50.773 25.037-0.3 0-0.6-0.002-0.899-0.006h0.045c-0.325 0.008-0.707 0.012-1.090 0.012-9.183 0-17.785-2.487-25.17-6.823l0.234 0.127-45.796 49.636 212.48 197.689c4.057 4.374 6.546 10.252 6.546 16.711s-2.489 12.337-6.56 16.727l0.014-0.016c-4.048 3.961-9.594 6.406-15.711 6.406-0.176 0-0.352-0.002-0.528-0.006h0.026c-0.186 0.005-0.405 0.008-0.625 0.008-6.445 0-12.293-2.551-16.591-6.699l0.007 0.007-196.693-211.769-199.111 213.333c-4.27 4.141-10.101 6.694-16.528 6.694-0.239 0-0.478-0.004-0.716-0.011l0.035 0.001c-0.149 0.004-0.325 0.006-0.502 0.006-6.117 0-11.664-2.444-15.715-6.41l0.004 0.004c-4.057-4.374-6.546-10.252-6.546-16.711s2.489-12.337 6.56-16.727l-0.014 0.016 214.044-199.111-49.209-53.191c-12.2 8.89-27.487 14.222-44.020 14.222-0.024 0-0.048 0-0.073 0h0.004c-29.765-0.635-56.105-14.762-73.232-36.49l-0.155-0.204c-33.422-40.391-62.151-112.782-34.276-142.222 8.434-7.704 19.709-12.424 32.086-12.424 0.77 0 1.536 0.018 2.297 0.054l-0.108-0.004c34.276 0 79.644 21.618 108.658 45.511 38.258 31.147 47.929 82.631 22.898 117.476l53.76 50.347 50.347-46.933c-3.9-8-6.18-17.405-6.18-27.342 0-20.328 9.541-38.427 24.388-50.064l0.139-0.105c26.027-21.333 121.316-103.111 126.72-103.111zM704.142 213.333c-25.031 0-26.453 0.996-142.933 99.556l-20.764 17.351c-8.939 7.558-16.683 16.115-23.184 25.591l-0.282 0.435c-10.141-28.193-27.211-51.815-49.198-69.6l-0.295-0.231c-32-26.596-89.6-58.88-144.071-58.88-1.043-0.038-2.269-0.060-3.5-0.060-26.686 0-50.995 10.18-69.255 26.869l0.079-0.071-1.28 1.138-1.138 1.28c-56.889 60.871-10.951 165.831 31.858 217.6 26.031 32.459 64.647 53.897 108.333 56.863l0.467 0.025-150.756 141.227c-15.325 14.814-24.839 35.555-24.839 58.518 0 22.188 8.883 42.302 23.287 56.979l-0.012-0.013c14.206 14.074 33.761 22.771 55.347 22.771 0.542 0 1.083-0.005 1.623-0.016l-0.081 0.001c0.275 0.003 0.599 0.005 0.924 0.005 22.869 0 43.495-9.604 58.064-24.999l0.035-0.037 156.444-168.533 42.667 45.938 112.498 120.889c14.604 15.432 35.23 25.036 58.099 25.036 0.325 0 0.649-0.002 0.973-0.006h-0.049c0.224 0.002 0.488 0.004 0.753 0.004 43.437 0 78.649-35.212 78.649-78.649 0-0.902-0.015-1.799-0.045-2.694l0.003 0.13c-0.448-22.46-10.076-42.587-25.273-56.849l-0.043-0.040-155.022-144.64c29.833-5.706 55.166-21.839 72.614-44.383l0.204-0.274c23.609-27.591 43.804-51.484 60.018-71.111 13.511-16.213 24.036-29.156 31.431-38.542 12.089-15.36 44.089-56.036 7.253-92.729l-16.356-16.213-32.853-33.138-16.64-16.498z"></path>
</svg>
