<!-- Generated by IcoMoon.io -->
<svg version="1.1" xmlns="http://www.w3.org/2000/svg" width="1024" height="1024" viewBox="0 0 1024 1024">
<title></title>
<g id="icomoon-ignore">
</g>
<path d="M775.985 179.551v0c3.519 3.519-90.736 92.889-153.901 156.443l10.557 10.557c65.905-58.669 158.595-143.932 165.633-143.932v0c3.519 3.717-87.805 95.82-148.817 161.137l10.366 10.366c63.944-59.837 153.901-149.015 160.748-149.015v0c3.717 3.717-84.873 97.774-143.932 166.023l10.366 10.366c61.989-61.989 149.207-154.099 156.443-154.099v0c3.717 3.717-111.468 138.26-142.367 174.632-16.246 21.021-41.46 34.424-69.813 34.424-0.412 0-0.824-0.002-1.235-0.006h0.059c-0.444 0.008-0.973 0.019-1.496 0.019-12.627 0-24.456-3.418-34.606-9.385l0.325 0.176-62.967 68.249 292.161 271.819c5.576 6.012 9.003 14.095 9.003 22.976s-3.42 16.964-9.017 22.999l0.021-0.023c-5.567 5.445-13.192 8.807-21.605 8.807-0.239 0-0.485-0.002-0.724-0.006h0.033c-0.256 0.005-0.559 0.008-0.856 0.008-8.86 0-16.906-3.51-22.814-9.212l0.007 0.007-270.452-291.177-273.773 293.329c-5.873 5.695-13.888 9.207-22.723 9.207-0.33 0-0.66-0.004-0.982-0.018l0.049 0.001c-0.205 0.004-0.444 0.006-0.691 0.006-8.413 0-16.039-3.361-21.609-8.811l0.004 0.004c-5.576-6.012-9.003-14.095-9.003-22.976s3.42-16.964 9.017-22.999l-0.021 0.023 294.306-273.773-67.661-73.134c-16.778 12.222-37.791 19.556-60.526 19.556-0.031 0-0.069 0-0.101 0h0.004c-40.93-0.873-77.147-20.299-100.693-50.175l-0.211-0.281c-45.952-55.539-85.454-155.076-47.128-195.555 11.598-10.595 27.101-17.086 44.119-17.086 1.057 0 2.11 0.025 3.158 0.075l-0.15-0.004c47.128 0 109.513 29.724 149.405 62.577 52.601 42.83 65.905 113.62 31.487 161.527l73.92 69.226 69.226-64.531c-5.363-11.003-8.497-23.929-8.497-37.597 0-27.951 13.118-52.84 33.53-68.838l0.188-0.147c35.785-29.334 166.809-141.779 174.236-141.779zM775.985 101.326c-34.418 0-36.372 1.367-196.532 136.887l-28.548 23.854c-12.292 10.393-22.941 22.156-31.878 35.188l-0.387 0.596c-13.942-38.763-37.417-71.247-67.65-95.696l-0.407-0.315c-43.998-36.571-123.2-80.958-198.097-80.958-1.435-0.052-3.123-0.081-4.809-0.081-36.696 0-70.119 13.995-95.225 36.942l0.107-0.099-1.763 1.565-1.565 1.763c-78.225 83.698-15.060 228.019 43.807 299.199 35.789 44.632 88.888 74.106 148.954 78.185l0.642 0.032-207.288 194.189c-21.072 20.372-34.156 48.89-34.156 80.463 0 30.511 12.215 58.164 32.016 78.343l-0.019-0.020c19.533 19.352 46.424 31.311 76.102 31.311 0.745 0 1.489-0.005 2.232-0.023l-0.109 0.001c0.38 0.003 0.823 0.005 1.267 0.005 31.444 0 59.805-13.202 79.834-34.372l0.049-0.051 215.111-231.729 58.669 63.165 154.687 166.221c20.078 21.221 48.439 34.423 79.883 34.423 0.444 0 0.894-0.002 1.337-0.006h-0.070c0.308 0.002 0.67 0.004 1.033 0.004 59.726 0 108.14-48.414 108.14-108.14 0-1.238-0.022-2.471-0.059-3.702l0.003 0.179c-0.616-30.881-13.856-58.554-34.751-78.164l-213.214-198.93c41.019-7.848 75.851-30.029 99.844-61.029l0.281-0.379c32.464-37.937 60.233-70.79 82.523-97.774 18.579-22.296 33.052-40.090 43.219-52.997 16.625-21.121 60.623-77.050 9.976-127.505l-22.488-22.296-45.173-45.563-22.877-22.686z"></path>
</svg>
