<!-- Generated by IcoMoon.io -->
<svg version="1.1" xmlns="http://www.w3.org/2000/svg" width="1024" height="1024" viewBox="0 0 1024 1024">
<title></title>
<g id="icomoon-ignore">
</g>
<path d="M743.471 405.641c-7.255-4.26-15.519-6.508-23.931-6.508s-16.675 2.249-23.931 6.508l-86 49.019v-12.039c-0.070-23.161-9.31-45.359-25.693-61.738s-38.58-25.612-61.739-25.693h-167.419c-23.161 0.072-45.358 9.31-61.738 25.693s-25.612 38.578-25.693 61.738v168.559c0.072 23.161 9.31 45.361 25.693 61.739s38.578 25.612 61.738 25.693h168.56c23.161-0.070 45.356-9.31 61.739-25.693 16.379-16.379 25.612-38.58 25.693-61.739v-34.979l86 49.020c7.267 4.026 15.459 6.097 23.759 6s16.448-2.344 23.623-6.545c7.172-4.193 13.137-10.179 17.29-17.376 4.151-7.201 6.373-15.342 6.427-23.659v-136.739c-0.020-8.427-2.283-16.703-6.563-23.957s-10.428-13.236-17.798-17.323zM553.411 611.18c0 7.978-3.166 15.636-8.815 21.285s-13.307 8.815-21.285 8.815h-168.56c-7.977 0-15.634-3.166-21.283-8.815s-8.817-13.307-8.817-21.285v-168.559c0-7.977 3.167-15.634 8.817-21.283s13.307-8.817 21.283-8.817h168.56c7.978 0 15.636 3.167 21.285 8.817s8.815 13.306 8.815 21.283v168.559zM665.211 540.66l-45.001-25.8 90.3-51.319v103.779l-45.299-26.66z"></path>
<path d="M767.849 167.999h-511.7c-23.161 0.071-45.359 9.31-61.738 25.693s-25.612 38.578-25.693 61.738v513.139c0.071 23.161 9.31 45.356 25.693 61.739 16.379 16.379 38.578 25.612 61.738 25.693h511.7c23.161-0.070 45.356-9.31 61.739-25.693 16.379-16.383 25.612-38.58 25.693-61.739v-513.139c-0.070-23.161-9.31-45.359-25.693-61.738s-38.58-25.612-61.739-25.693zM799.371 768.56c0.009 4.073-0.821 8.106-2.424 11.856-1.607 3.753-3.944 7.129-6.902 9.953s-6.434 5.008-10.256 6.429c-3.815 1.428-7.891 2.060-11.963 1.871h-511.7c-7.977 0-15.634-3.166-21.283-8.815s-8.817-13.307-8.817-21.285v-513.139c0-7.977 3.167-15.634 8.817-21.283s13.306-8.817 21.283-8.817h511.7c4.065-0.194 8.147 0.445 11.963 1.871s7.306 3.612 10.256 6.429c2.946 2.817 5.298 6.202 6.902 9.953s2.43 7.783 2.424 11.857v513.139z"></path>
<path d="M466.153 577.261c27.88-15.027 38.292-49.798 23.279-77.674-15.027-27.88-49.798-38.292-77.677-23.279s-38.292 49.798-23.276 77.674c15.027 27.88 49.796 38.292 77.674 23.279z"></path>
</svg>
