<svg id="Layer_2" data-name="Layer 2" xmlns="http://www.w3.org/2000/svg" viewBox="0 0 36 36"><defs><style>.cls-1{fill:#4f4f4f;}</style></defs><title>video-youtube</title><path class="cls-1" d="M27,6H9.15A3.06,3.06,0,0,0,6.1,9.05V26.95A3.06,3.06,0,0,0,9.15,30H27a3.06,3.06,0,0,0,3.05-3.05V9.05A3.06,3.06,0,0,0,27,6ZM28.1,26.95A1.05,1.05,0,0,1,27,28H9.15A1.05,1.05,0,0,1,8.1,26.95V9.05A1.05,1.05,0,0,1,9.15,8H27A1.05,1.05,0,0,1,28.1,9.05Z"/><path class="cls-1" d="M23,16.08l-7.59-4.37A2.23,2.23,0,0,0,12,13.65l0,8.76a2.24,2.24,0,0,0,2.23,2.23,2.23,2.23,0,0,0,1.12-.3L23,19.94a2.23,2.23,0,0,0,0-3.86Zm-1,2.13L14.41,22.6a.23.23,0,0,1-.35-.2l0-8.76a.22.22,0,0,1,.11-.2.23.23,0,0,1,.12,0,.23.23,0,0,1,.12,0L22,17.81a.23.23,0,0,1,0,.4Z"/></svg>