<!-- Generated by IcoMoon.io -->
<svg version="1.1" xmlns="http://www.w3.org/2000/svg" width="1024" height="1024" viewBox="0 0 1024 1024">
<title></title>
<g id="icomoon-ignore">
</g>
<path d="M768 170.667h-507.733c-47.849 0.161-86.594 38.907-86.756 86.74v509.172c0.161 47.849 38.907 86.594 86.74 86.756h507.749c47.849-0.161 86.594-38.907 86.756-86.74v-509.172c-0.161-47.849-38.907-86.594-86.74-86.756h-0.016zM799.289 766.578c0 0.010 0 0.022 0 0.034 0 16.495-13.372 29.867-29.867 29.867-0.5 0-0.998-0.012-1.492-0.037l0.070 0.003h-507.733c-16.495 0-29.867-13.372-29.867-29.867v-509.156c0-16.495 13.372-29.867 29.867-29.867v0h507.733c0.425-0.022 0.922-0.034 1.422-0.034 16.495 0 29.867 13.372 29.867 29.867 0 0.012 0 0.024 0 0.036v-0.002z"></path>
<path d="M654.222 457.387l-215.893-124.302c-9.533-6.035-21.138-9.617-33.579-9.617-35.032 0-63.431 28.399-63.431 63.431 0 0.481 0.005 0.961 0.016 1.44l-0.001-0.071v249.173c0.161 34.967 28.464 63.27 63.416 63.431h0.015c0.024 0 0.053 0 0.081 0 11.702 0 22.664-3.169 32.075-8.695l-0.298 0.162 217.6-125.156c19.060-11.18 31.655-31.568 31.655-54.898s-12.595-43.718-31.357-54.736l-0.298-0.162zM625.778 517.973l-215.893 124.871c-0.972 0.604-2.151 0.962-3.414 0.962-3.613 0-6.542-2.929-6.542-6.542 0-0.038 0-0.076 0.001-0.114v0.006-249.173c-0.004-0.079-0.006-0.173-0.006-0.266 0-2.306 1.248-4.321 3.105-5.407l0.030-0.016c0.512-0.144 1.1-0.227 1.707-0.227s1.195 0.083 1.753 0.237l-0.046-0.011c0.512-0.144 1.1-0.227 1.707-0.227s1.195 0.083 1.753 0.237l-0.046-0.011 215.893 124.302c1.992 1.147 3.312 3.264 3.312 5.689s-1.32 4.542-3.28 5.672l-0.032 0.017z"></path>
</svg>
